<svg xmlns="http://www.w3.org/2000/svg" xmlns:xlink="http://www.w3.org/1999/xlink" width="468" height="522" viewBox="0 0 468 522">
  <defs>
    <filter id="楕円形_1" x="33" y="0" width="132" height="132" filterUnits="userSpaceOnUse">
      <feOffset dx="3" dy="2" input="SourceAlpha"/>
      <feGaussianBlur stdDeviation="2" result="blur"/>
      <feFlood flood-opacity="0.275"/>
      <feComposite operator="in" in2="blur"/>
      <feComposite in="SourceGraphic"/>
    </filter>
  </defs>
  <g id="制作開始" transform="translate(-691 -442)">
    <circle id="楕円形_2" data-name="楕円形 2" cx="234" cy="234" r="234" transform="translate(691 496)" fill="rgba(162,0,222,0.17)"/>
    <g id="_1" data-name="1" transform="translate(457 -15)">
      <circle id="楕円形_3" data-name="楕円形 3" cx="60" cy="60" r="60" transform="translate(270 461)" fill="rgba(255,255,255,0.45)"/>
      <g transform="matrix(1, 0, 0, 1, 234, 457)" filter="url(#楕円形_1)">
        <g id="楕円形_1-2" data-name="楕円形 1" transform="translate(36 4)" fill="none" stroke="#939393" stroke-width="3">
          <circle cx="60" cy="60" r="60" stroke="none"/>
          <circle cx="60" cy="60" r="58.5" fill="none"/>
        </g>
      </g>
      <path id="パス_84" data-name="パス 84" d="M4.945-6.923c1.247,0,2.279-.043,2.8-.043A2.313,2.313,0,0,0,10.234-9.2a2.077,2.077,0,0,0-2.193-2.107H7.912c-.215,0-1.376.043-2.967.086,0-3.182.129-4.816.129-6.837a2.227,2.227,0,0,0-2.236-2.451A2.256,2.256,0,0,0,.516-18.189v.172c.043.559.043,1.333.043,2.279,0,1.29,0,2.924-.043,4.644-2.537.043-5.117.129-6.579.129-1.075,0-1.763,0-1.763-.516,0-.3,0-.344,12.6-16.727a2.658,2.658,0,0,0,.6-1.634,2.553,2.553,0,0,0-2.537-2.451,2.062,2.062,0,0,0-1.763.946c-3.1,4.3-10.191,14.233-12.771,17.888a5.919,5.919,0,0,0-1.2,3.311c0,1.892,1.462,3.311,4.343,3.311.43,0,4.859,0,9.03-.043C.473-5.117.43-3.354.43-1.849A2.229,2.229,0,0,0,2.8.43,2.116,2.116,0,0,0,5.074-1.763v-.086C5.031-3.784,4.945-5.5,4.945-6.923Z" transform="translate(329.5 537.5)" fill="#939393"/>
    </g>
  </g>
</svg>
