<svg xmlns="http://www.w3.org/2000/svg" xmlns:xlink="http://www.w3.org/1999/xlink" width="468" height="522" viewBox="0 0 468 522">
  <defs>
    <filter id="楕円形_1" x="33" y="0" width="132" height="132" filterUnits="userSpaceOnUse">
      <feOffset dx="3" dy="2" input="SourceAlpha"/>
      <feGaussianBlur stdDeviation="2" result="blur"/>
      <feFlood flood-opacity="0.275"/>
      <feComposite operator="in" in2="blur"/>
      <feComposite in="SourceGraphic"/>
    </filter>
  </defs>
  <g id="ワイヤーフレーム" transform="translate(-691 -442)">
    <circle id="楕円形_2" data-name="楕円形 2" cx="234" cy="234" r="234" transform="translate(691 496)" fill="rgba(0,154,222,0.17)"/>
    <g id="_1" data-name="1" transform="translate(457 -15)">
      <circle id="楕円形_3" data-name="楕円形 3" cx="60" cy="60" r="60" transform="translate(270 461)" fill="rgba(255,255,255,0.45)"/>
      <g transform="matrix(1, 0, 0, 1, 234, 457)" filter="url(#楕円形_1)">
        <g id="楕円形_1-2" data-name="楕円形 1" transform="translate(36 4)" fill="none" stroke="#939393" stroke-width="3">
          <circle cx="60" cy="60" r="60" stroke="none"/>
          <circle cx="60" cy="60" r="58.5" fill="none"/>
        </g>
      </g>
      <path id="パス_85" data-name="パス 85" d="M10.406-10.492c0-4.687-2.709-9.89-10.406-9.89a15.784,15.784,0,0,0-3.225.3,8.653,8.653,0,0,1-.989.215c-.258,0-.344-.129-.344-.473v-.3c.129-.86.774-4.3.989-5.805.129-.774.473-1.161,1.29-1.161,1.29,0,7.095.043,8.3.043a2.118,2.118,0,0,0,2.193-2.193,2.22,2.22,0,0,0-2.279-2.322c-7.052,0-7.7,0-8.944-.043h-.3c-2.752,0-3.741,1.075-4.171,3.44C-8.127-24.9-8.987-18.232-8.987-17.888c0,2.064,1.2,2.924,3.1,2.924.215,0,.43-.043.645-.043a5.578,5.578,0,0,0,1.677-.6,11.048,11.048,0,0,1,3.4-.6,5.552,5.552,0,0,1,5.891,5.762A6.469,6.469,0,0,1-1.118-3.913,8.958,8.958,0,0,1-7.009-6.149a2.413,2.413,0,0,0-1.505-.645A2.384,2.384,0,0,0-10.75-4.343c0,2.838,5.461,4.9,9.417,4.9C5.719.559,10.406-4.214,10.406-10.492Z" transform="translate(329.5 537.5)" fill="#939393"/>
    </g>
  </g>
</svg>
