<svg xmlns="http://www.w3.org/2000/svg" xmlns:xlink="http://www.w3.org/1999/xlink" width="468" height="522" viewBox="0 0 468 522">
  <defs>
    <filter id="楕円形_1" x="33" y="0" width="132" height="132" filterUnits="userSpaceOnUse">
      <feOffset dx="3" dy="2" input="SourceAlpha"/>
      <feGaussianBlur stdDeviation="2" result="blur"/>
      <feFlood flood-opacity="0.275"/>
      <feComposite operator="in" in2="blur"/>
      <feComposite in="SourceGraphic"/>
    </filter>
  </defs>
  <g id="お問い合わせ" transform="translate(-691 -442)">
    <circle id="楕円形_2" data-name="楕円形 2" cx="234" cy="234" r="234" transform="translate(691 496)" fill="rgba(187,222,0,0.17)"/>
    <g id="_1" data-name="1" transform="translate(457 -15)">
      <circle id="楕円形_3" data-name="楕円形 3" cx="60" cy="60" r="60" transform="translate(270 461)" fill="rgba(255,255,255,0.45)"/>
      <g transform="matrix(1, 0, 0, 1, 234, 457)" filter="url(#楕円形_1)">
        <g id="楕円形_1-2" data-name="楕円形 1" transform="translate(36 4)" fill="none" stroke="#939393" stroke-width="3">
          <circle cx="60" cy="60" r="60" stroke="none"/>
          <circle cx="60" cy="60" r="58.5" fill="none"/>
        </g>
      </g>
      <path id="パス_81" data-name="パス 81" d="M3.053-1.763v-.086c-.086-2.666-.086-5.375-.086-8.041,0-6.149.129-11.911.129-15.351,0-.946,0-1.72-.043-2.279-.129-2.838-2.021-4.6-4.988-4.6-.9,0-1.247,0-2.107.043a2.5,2.5,0,0,0-2.236,2.623,2.14,2.14,0,0,0,2.193,2.279h.6c1.462,0,1.677.473,1.677,6.493,0,5.676-.172,14.835-.172,18.834A2.393,2.393,0,0,0,.559.516,2.314,2.314,0,0,0,3.053-1.763Z" transform="translate(329.5 537.5)" fill="#939393"/>
    </g>
  </g>
</svg>
