<svg xmlns="http://www.w3.org/2000/svg" xmlns:xlink="http://www.w3.org/1999/xlink" width="458" height="527" viewBox="0 0 458 527">
  <defs>
    <filter id="長方形_8" x="0" y="0" width="458" height="527" filterUnits="userSpaceOnUse">
      <feOffset dx="3" dy="3" input="SourceAlpha"/>
      <feGaussianBlur stdDeviation="1.5" result="blur"/>
      <feFlood flood-opacity="0.275"/>
      <feComposite operator="in" in2="blur"/>
      <feComposite in="SourceGraphic"/>
    </filter>
  </defs>
  <g id="デザイン" transform="translate(4.226 4.877)">
    <g transform="matrix(1, 0, 0, 1, -4.23, -4.88)" filter="url(#長方形_8)">
      <g id="長方形_8-2" data-name="長方形 8" transform="translate(4.5 4.5)" fill="rgba(33,227,197,0.19)" stroke="#befff5" stroke-linecap="round" stroke-linejoin="round" stroke-width="3">
        <rect width="443" height="512" rx="20" stroke="none"/>
        <rect x="-1.5" y="-1.5" width="446" height="515" rx="21.5" fill="none"/>
      </g>
    </g>
    <path id="パス_50" data-name="パス 50" d="M10.714-1.452a1.051,1.051,0,0,0,.33-.77A1.2,1.2,0,0,0,9.878-3.366a1,1,0,0,0-.748.352A3.706,3.706,0,0,1,6.27-1.672,2.9,2.9,0,0,1,3.278-4.6c0-.242.044-.418.176-.418,4.268,0,4.73,0,5.412-.022a1.9,1.9,0,0,0,2.09-1.914c0-1.672-1.716-3.894-4.752-3.894A5.344,5.344,0,0,0,.99-5.17,5.211,5.211,0,0,0,6.248.374,5.54,5.54,0,0,0,10.714-1.452ZM8.228-6.842c-.594.022-1.584.022-2.486.022-2.046,0-2.266,0-2.266-.2a2.89,2.89,0,0,1,2.75-1.914c1.98,0,2.442,1.3,2.442,1.606A.465.465,0,0,1,8.228-6.842ZM18.37-8.536a.962.962,0,0,0,.968-1.034A.951.951,0,0,0,18.37-10.6H16.9c-.22,0-.308-.022-.308-.374,0,0,.044-.836.044-1.43a1.152,1.152,0,0,0-1.166-1.342,1,1,0,0,0-1.1.99v.066c.022.242.022.506.022.77,0,.506-.022.946-.022.946,0,.308-.022.374-.374.374h-.638a.962.962,0,0,0-.99,1.012,1,1,0,0,0,.99,1.056h.66c.22,0,.352.022.352.308v.33c0,.968-.044,3.168-.044,4.444,0,.9,0,3.784,3.256,3.784,1.144,0,1.87-.374,1.87-1.166A.942.942,0,0,0,18.5-1.8c-.066,0-.11.022-.176.022a4.3,4.3,0,0,1-.506.044c-1.232,0-1.3-.7-1.3-2.42,0-1.452.066-3.322.066-4.136,0-.132,0-.242.33-.242ZM30.954-2.178a1.248,1.248,0,0,0-1.232-1.166,1.109,1.109,0,0,0-.9.484,2.9,2.9,0,0,1-2.332,1.012c-3.036,0-3.256-2.926-3.256-3.41a3.224,3.224,0,0,1,3.212-3.454,2.547,2.547,0,0,1,2,.836,1.176,1.176,0,0,0,.924.484,1.184,1.184,0,0,0,1.166-1.144c0-.9-1.606-2.288-3.96-2.288A5.484,5.484,0,0,0,21.01-5.148,5.273,5.273,0,0,0,26.51.33C29.084.33,30.954-1.232,30.954-2.178Zm11.308.836A1.517,1.517,0,0,0,40.7-2.816a1.493,1.493,0,0,0-1.54,1.5A1.422,1.422,0,0,0,40.7.22,1.582,1.582,0,0,0,42.262-1.342Zm5.742,0a1.517,1.517,0,0,0-1.562-1.474,1.493,1.493,0,0,0-1.54,1.5A1.422,1.422,0,0,0,46.442.22,1.582,1.582,0,0,0,48-1.342Zm5.742,0a1.517,1.517,0,0,0-1.562-1.474,1.493,1.493,0,0,0-1.54,1.5A1.422,1.422,0,0,0,52.184.22,1.582,1.582,0,0,0,53.746-1.342Z" transform="translate(360.273 464.623)" fill="#fff"/>
    <path id="パス_49" data-name="パス 49" d="M13.332-8.36A2.319,2.319,0,0,0,11-10.692,2.319,2.319,0,0,0,8.668-8.36,2.319,2.319,0,0,0,11-6.028,2.319,2.319,0,0,0,13.332-8.36Zm26.2,3.96c.066-1.892.066-3.85,0-5.852a3.09,3.09,0,0,0-3.124-2.794c-2.134-.066-4.18-.11-6.644,0-2.31.11-3.3,1.408-3.366,3.036-.066,1.892-.066,3.476,0,5.654.066,1.848,1.188,2.992,3.432,3.08,2.134.066,3.652.088,6.38,0A3.094,3.094,0,0,0,39.534-4.4ZM37.2-4.884A1.488,1.488,0,0,1,35.618-3.41c-2,.11-3.322.066-5.324,0-1.21-.044-1.65-.462-1.694-1.43a40.84,40.84,0,0,1,0-4.642c.044-.9.418-1.518,1.65-1.562,1.716-.066,3.454-.066,5.346,0A1.459,1.459,0,0,1,37.224-9.5C37.29-8.03,37.268-6.336,37.2-4.884ZM63.69-14.74c.638.924,2.046-.308,1.276-1.3A7.163,7.163,0,0,0,62.9-17.556c-.99-.462-1.98.792-.9,1.364A7.682,7.682,0,0,1,63.69-14.74Zm-1.3.176a7.149,7.149,0,0,0-2-1.584c-.968-.506-2,.726-.946,1.32a7.573,7.573,0,0,1,1.628,1.5C61.688-12.386,63.14-13.552,62.392-14.564ZM61.116-4.554c.044-1.958.022-4.29.022-5.632,0-1.474-.77-2.772-2.948-2.816-2.2-.044-6.16,0-8.58.11-1.694.066-1.606,2.222.11,2.134,2.288-.11,5.764-.242,7.7-.176.836.022,1.364.418,1.386,1.144.044,1.144.044,3.388-.022,4.708A1.251,1.251,0,0,1,57.508-3.85c-1.628.11-5.632.11-7.986.022a1.147,1.147,0,1,0,.022,2.288c2.266,0,5.9-.022,8.228-.154C59.444-1.782,61.072-2.442,61.116-4.554ZM86.7,1.342a.589.589,0,0,0-.352-.55,10.283,10.283,0,0,1-5.434-9.174,9.877,9.877,0,0,1,5.412-8.954.62.62,0,0,0,.374-.55.6.6,0,0,0-.616-.594c-.7,0-6.292,3.168-6.292,10.1,0,6.974,5.632,10.186,6.424,10.186A.457.457,0,0,0,86.7,1.342Zm9-6.4c-.022.594-.044,1.342-.044,2.068,0,.616.022,1.21.044,1.738A2.255,2.255,0,0,0,98.142.924c1.034.044,2.244.066,3.476.066,1.078,0,2.2-.022,3.256-.066a2.357,2.357,0,0,0,2.4-2.2c.044-.682.044-1.364.044-2.046s0-1.364-.044-2a2.265,2.265,0,0,0-2.288-1.958c-1.144-.022-2.42-.044-3.674-.044-.77,0-1.54,0-2.244.022a26.259,26.259,0,0,0,5.522-5.7,2.393,2.393,0,0,0,.462-1.3c0-.924-.836-1.606-2.046-1.606-.924,0-2.332.044-3.63.066.352-.462.418-.638.418-.814a1.218,1.218,0,0,0-1.21-1.078,1.045,1.045,0,0,0-.88.506A21.455,21.455,0,0,1,90.6-10.758a.978.978,0,0,0-.616.88,1.106,1.106,0,0,0,1.144,1.056c1.342,0,5.324-3.718,6.776-5.28.99-.022,2.2-.066,3.19-.066,1.5,0,1.5.066,1.5.286a14.707,14.707,0,0,1-3.212,3.85,6.58,6.58,0,0,0-2.86-1.386,1.146,1.146,0,0,0-1.188.99.829.829,0,0,0,.594.726,9.156,9.156,0,0,1,1.826,1.034,18.694,18.694,0,0,1-7.106,3.5,1,1,0,0,0-.858.99A1.1,1.1,0,0,0,90.86-3.058,17.546,17.546,0,0,0,95.7-5.06ZM105.182-1.8c-.022.616-.418.858-.968.88-.88.022-1.848.044-2.794.044-3.322,0-3.674,0-3.7-.924C97.7-2.31,97.7-2.9,97.7-3.454c0-.418,0-.814.022-1.166a.961.961,0,0,1,1.012-.88c.792-.022,1.716-.044,2.662-.044s1.914.022,2.772.044c.7.022.99.33,1.012.858.022.44.022.946.022,1.452C105.2-2.706,105.2-2.222,105.182-1.8Zm24.4-2.464V-16.456a.991.991,0,0,0-1.056-1.012.991.991,0,0,0-1.056,1.012v3.476c0,4.092,0,10.208-.022,11.022A1.091,1.091,0,0,1,126.192-.77a7.594,7.594,0,0,1-1.5-.242.9.9,0,0,0-.242-.022,1.019,1.019,0,0,0-.946,1.1c0,.77.418,1.254,2.552,1.254,2.684,0,3.564-1.562,3.564-2.882v-.044Zm-6.16.2a.94.94,0,0,0,1.012.946.946.946,0,0,0,1.034-.946V-15.29a.968.968,0,0,0-1.034-.99.962.962,0,0,0-1.012.99Zm-5.3,4.708s-.088-2-.11-4.752a.3.3,0,0,0,.088.066,12.356,12.356,0,0,1,2.222,1.628.971.971,0,0,0,.7.308,1.065,1.065,0,0,0,.99-1.078A1.081,1.081,0,0,0,121.638-4a8.9,8.9,0,0,0-2.86-1.584,1.078,1.078,0,0,0-.77.374c0-1.1.022-3.256.044-5.412,1.562,0,1.8,0,1.848.7.022.352.022.792.022,1.144v.638a.356.356,0,0,1-.4.352c-.066,0-.11-.022-.154-.022s-.11-.022-.154-.022c-.418,0-.638.418-.638.836,0,.858.594,1.034,1.32,1.034,1.1,0,1.892-.528,1.892-1.716V-7.81c-.022-.726-.044-1.694-.066-2.486a1.68,1.68,0,0,0-1.826-1.87c-.462-.022-1.122-.022-1.826-.022V-13.64h3.344a.873.873,0,0,0,.946-.88.873.873,0,0,0-.946-.88H118.1l.022-1.43v-.022a.982.982,0,0,0-1.056-.968.982.982,0,0,0-1.056.968v.022l.022,1.43h-3.5a.885.885,0,0,0-.946.88.885.885,0,0,0,.946.88h3.5l.022,1.452c-.594,0-1.122.022-1.474.022-1.518.022-2.068.638-2.112,1.892-.022.924-.044,1.958-.044,2.9V-6.4a.911.911,0,0,0,.968.924.9.9,0,0,0,.946-.9V-6.4c-.022-.594-.022-1.32-.022-2.046,0-1.87,0-2.134.726-2.156.264,0,.638-.022,1.034-.022l.044,3.476a15.492,15.492,0,0,1-4.6,4.664,1,1,0,0,0-.55.858,1.05,1.05,0,0,0,1.078.99c1.276,0,4.048-3.652,4.048-3.652L116.006.638V.66a.942.942,0,0,0,1.056.88.956.956,0,0,0,1.056-.88Zm19.184.99A1.216,1.216,0,0,0,138.49.418c0-1.5-3.52-3.432-4.29-3.432a.979.979,0,0,0-1.034.968.99.99,0,0,0,.594.88,8.4,8.4,0,0,1,2.706,2.31A1,1,0,0,0,137.3,1.628ZM165.22-10.406a1.184,1.184,0,0,0-.11-1.716,12.034,12.034,0,0,0-2.926-1.826c-1.5-.66-2.376,1.3-1.122,1.8a7.7,7.7,0,0,1,2.4,1.694A1.174,1.174,0,0,0,165.22-10.406Zm8.492-.616c.968-1.738-1.232-2.64-1.958-1.276-2.31,4.378-7.194,9.218-11.572,10.406a1.2,1.2,0,1,0,.726,2.266C165.9-1.276,170.9-5.984,173.712-11.022ZM162.6-6.908a1.189,1.189,0,0,0-.506-1.65,11.127,11.127,0,0,0-3.212-1.1c-1.606-.308-2.024,1.782-.7,2a7.715,7.715,0,0,1,2.728,1.122A1.139,1.139,0,0,0,162.6-6.908Zm26.554,2.354c0,.528-.022,1.012-.044,1.342a.691.691,0,0,1-.726.66c-1.188.088-4.356.088-6.072.022a.961.961,0,1,0,.022,1.914c1.65,0,4.51-.022,6.226-.11,1.232-.066,2.464-.462,2.508-2.178.022-1.43,0-3.74,0-4.708a2.036,2.036,0,0,0-2.222-2.2c-1.606-.044-4.576,0-6.358.066-1.43.066-1.386,1.892.066,1.826,1.65-.066,4.334-.176,5.742-.132.484.022.792.2.814.682,0,.242.022.594.022,1.034-1.584,0-4.642.088-6.138.088-.726,0-1.144.4-1.122.88a.974.974,0,0,0,1.056.858C184.382-4.488,187.066-4.51,189.156-4.554ZM208.45-7.37a9.429,9.429,0,0,0-1.32-2.178c-.9-1.078-2.376.132-1.584,1.012a5.824,5.824,0,0,1,1.034,1.848A1,1,0,1,0,208.45-7.37ZM204.71.9a14.346,14.346,0,0,0,8.03-9.482,1.073,1.073,0,1,0-2.068-.572,11.778,11.778,0,0,1-6.93,8.316.976.976,0,0,0-.55,1.32A1.055,1.055,0,0,0,204.71.9Zm.7-7.348A8.3,8.3,0,0,0,203.786-8.4c-1.034-.924-2.31.462-1.408,1.232a5.758,5.758,0,0,1,1.254,1.694A1.015,1.015,0,1,0,205.414-6.446Zm33.99-9.218A2.347,2.347,0,0,0,237.072-18a2.329,2.329,0,0,0-2.31,2.332,2.31,2.31,0,0,0,2.31,2.31A2.329,2.329,0,0,0,239.4-15.664ZM225.016.33c6.16-2.354,8.844-6.622,10.384-11.022.638-1.8-.616-3.146-2.4-3.168-2.794-.044-6.908-.022-9.812.11a1.09,1.09,0,1,0,.044,2.178c3.168-.11,6.644-.242,8.8-.176.814.022.88.572.7,1.166A13.613,13.613,0,0,1,224-1.8C222.332-1.276,223.146,1.034,225.016.33Zm13.178-15.994a1.108,1.108,0,0,1-1.122,1.1,1.108,1.108,0,0,1-1.122-1.1,1.146,1.146,0,0,1,1.122-1.144A1.146,1.146,0,0,1,238.194-15.664Zm9.24,5.83c-.858,3.5-2.706,6.842-5.72,8.47-1.76.946-.374,2.772,1.034,2,3.916-2.134,6.028-6.49,6.952-10.494.88,0,1.716-.022,2.4,0a1.188,1.188,0,0,1,1.21,1.3c-.022,1.144-.352,4.18-1.21,5.456a1.979,1.979,0,0,1-3.08.616,1.145,1.145,0,1,0-1.408,1.8A4.221,4.221,0,0,0,254.1-2c.924-1.65,1.342-4.84,1.408-7.062.044-1.782-1.188-2.684-2.9-2.728-.77-.022-1.628-.022-2.53-.022a18.5,18.5,0,0,0,.22-2.794,1.158,1.158,0,1,0-2.31-.088,22.1,22.1,0,0,1-.176,2.9c-1.584.022-3.124.066-4.378.11-1.474.066-1.606,2.068.154,1.98C244.684-9.746,246.048-9.812,247.434-9.834Zm30.58,2.574a1.062,1.062,0,0,0,1.122-1.078,1.067,1.067,0,0,0-1.122-1.1H264.2a1.122,1.122,0,0,0-1.166,1.122A1.059,1.059,0,0,0,264.2-7.26Zm21.516-6.8c.814.814,2.024-.682,1.056-1.54a7.519,7.519,0,0,0-2.354-1.144c-1.078-.286-1.848,1.144-.66,1.518A7.954,7.954,0,0,1,299.53-14.058Zm-1.98,2.112c.792.836,2.024-.594,1.1-1.5a7.351,7.351,0,0,0-2.31-1.232c-1.078-.33-1.892,1.078-.726,1.5A8.294,8.294,0,0,1,297.55-11.946ZM292.4-8.25a13.637,13.637,0,0,1,4.29,1.782c1.254.924,2.508-.99,1.364-1.958-1.188-1.012-4.048-1.716-5.28-1.914a2.262,2.262,0,0,0-.374-.022c.022-2.156.044-4.07.066-5.148a1.144,1.144,0,0,0-2.288-.022c.088,3.168.022,11.792-.132,15.356a1.2,1.2,0,1,0,2.376-.088C292.38-2.046,292.38-5.214,292.4-8.25ZM305.822,1.8c.792,0,6.424-3.212,6.424-10.186,0-6.93-5.588-10.1-6.292-10.1a.6.6,0,0,0-.616.594.62.62,0,0,0,.374.55,9.877,9.877,0,0,1,5.412,8.954A10.283,10.283,0,0,1,305.69.792a.589.589,0,0,0-.352.55A.457.457,0,0,0,305.822,1.8ZM13.332,39.64A2.332,2.332,0,1,0,11,41.972,2.319,2.319,0,0,0,13.332,39.64Zm29.04-7.326c.748.836,2-.55,1.122-1.43a7.022,7.022,0,0,0-2.222-1.254c-1.034-.33-1.826.99-.7,1.43A8.011,8.011,0,0,1,42.372,32.314Zm-2,1.958c.726.858,2-.484,1.144-1.408a6.805,6.805,0,0,0-2.178-1.32c-1.012-.374-1.892.946-.77,1.408A7.778,7.778,0,0,1,40.37,34.272ZM34.1,33.92c1.034-1.474-1.166-2.53-1.892-1.3-1.012,1.738-3.872,5.764-5.984,7.062-1.5.924-.2,2.838,1.276,1.848a26.675,26.675,0,0,0,4.95-5.324c.99-.11,2.6-.264,3.52-.286.528-.022.7.4.528.814-1.628,3.74-5.258,8.118-10.142,9.812-1.826.638-.924,2.794.946,2.068C33.484,46.174,36.52,41.73,39.2,36.6c.814-1.562-.66-2.75-2.354-2.662-.88.044-1.958.11-2.9.176Zm18.81,6.71a9.428,9.428,0,0,0-1.32-2.178c-.9-1.078-2.376.132-1.584,1.012a5.823,5.823,0,0,1,1.034,1.848A1,1,0,1,0,52.91,40.63ZM49.17,48.9A14.346,14.346,0,0,0,57.2,39.42a1.073,1.073,0,1,0-2.068-.572,11.778,11.778,0,0,1-6.93,8.316.976.976,0,0,0-.55,1.32A1.055,1.055,0,0,0,49.17,48.9Zm.7-7.348A8.3,8.3,0,0,0,48.246,39.6c-1.034-.924-2.31.462-1.408,1.232a5.758,5.758,0,0,1,1.254,1.694A1.015,1.015,0,1,0,49.874,41.554Zm33.814-8.646a7.24,7.24,0,0,0-1.98-1.628c-.968-.506-1.98.682-.946,1.3a7.737,7.737,0,0,1,1.606,1.562C82.962,35.086,84.414,33.942,83.688,32.908Zm-2.6,1.32a7.175,7.175,0,0,0-1.914-1.672c-.946-.55-2.024.572-1.012,1.232a7.6,7.6,0,0,1,1.54,1.606C80.278,36.362,81.774,35.284,81.092,34.228ZM74.25,42.522A22.887,22.887,0,0,1,79.4,46.944c1.034,1.3,2.684-.418,1.8-1.65-1.012-1.408-3.806-3.256-5.632-4.356a35.206,35.206,0,0,0,2.442-3.74c.858-1.5-.264-2.75-2.244-2.75-2.222,0-5.456.044-7.062.11a1.068,1.068,0,0,0,0,2.134c1.936-.044,4.972-.154,6.358-.132.484,0,.572.352.374.726A17.886,17.886,0,0,1,66.22,45.47a1.135,1.135,0,1,0,.7,2.134A18.585,18.585,0,0,0,74.25,42.522Zm29.04.506a.849.849,0,1,0,0-1.694l-3.3.022V39.508l2.4.022a.849.849,0,1,0,0-1.694l-2.4.022v-1.21c0-.462-.462-.7-.946-.7-.462,0-.946.242-.946.7v1.21H95.392v-1.21c0-.462-.462-.7-.946-.7-.462,0-.946.242-.946.7v1.21l-1.848-.022a.9.9,0,0,0-.946.88.818.818,0,0,0,.924.814h.022l1.848-.022v1.848l-2.618-.022a1.147,1.147,0,0,0-.506.11,42.4,42.4,0,0,0,.22-4.708V35.658c1.628,0,3.454.022,5.236.022,1.76,0,3.454-.022,4.818-.044,2.332-.044,2.728-1.122,2.728-2.332,0-1.1-.044-2.442-2.464-2.508-1.452-.044-3.322-.044-5.192-.044s-3.718,0-5.126.044c-1.518.044-2.244.9-2.244,2.046v.044c.022,1.562.088,3.19.088,4.8,0,3.7-.374,7.3-2.53,10.01a.94.94,0,0,0-.22.572.965.965,0,0,0,1.034.858,1.157,1.157,0,0,0,.9-.418,11.678,11.678,0,0,0,2.552-5.918,1.078,1.078,0,0,0,.7.242l1.826-.022v4.18c-.836.2-1.606.352-2.222.462a.954.954,0,0,0-.836.946.912.912,0,0,0,.968.924A38.556,38.556,0,0,0,97.13,47.67a1.015,1.015,0,0,0,.7-.858.86.86,0,0,0-.88-.836.927.927,0,0,0-.4.088,15.124,15.124,0,0,1-1.936.66v-3.74H96.14c1.21,5.412,6.622,6.4,7.59,6.4a1.141,1.141,0,0,0,1.188-1.122.77.77,0,0,0-.682-.814,10.552,10.552,0,0,1-4.136-1.386c2.4-.836,2.75-1.078,2.75-1.628a.984.984,0,0,0-.968-.924.893.893,0,0,0-.462.11,22.155,22.155,0,0,1-2.354,1.122,2.4,2.4,0,0,0-.242.132,6.624,6.624,0,0,1-.946-1.892Zm-12.738-9.68a.843.843,0,0,1,.9-.9c1.342-.022,3.1-.044,4.862-.044,1.452,0,2.882.022,4.114.044.506.022.77.132.792.55v.44c-.022.264-.22.506-.748.528-1.232.044-2.9.066-4.642.066-1.76,0-3.608-.022-5.258-.044ZM98.1,41.356H95.392V39.508H98.1ZM124.806,37.7v.9c0,1.386.022,3.058.022,4.642,0,1.034-.022,2.046-.044,2.926-.022,1.078-.528,1.342-1.254,1.342a8.5,8.5,0,0,1-1.188-.132c-.066,0-.11-.022-.176-.022a.92.92,0,0,0-.9.968c0,1.012.88,1.21,2.376,1.21,2.486,0,3.256-1.386,3.256-2.97,0-.77-.022-1.694-.022-2.75,0-2.816-.044-6.424-.044-9.724V32.468c0-.968-.66-1.8-2.31-1.892-.374-.022-.99-.022-1.65-.022-.9,0-1.848,0-2.266.022a1.872,1.872,0,0,0-1.98,1.694c-.022.748-.044,1.518-.044,2.266,0,.462,0,.924.022,1.342.066,1.848,1.8,1.87,4.576,1.87C123.816,37.748,124.41,37.726,124.806,37.7Zm-2.288,6.248a.838.838,0,1,0,0-1.672h-1.76V40.3h1.122a.838.838,0,1,0,0-1.672h-8.228a.9.9,0,0,0-.968.858c0,.418.308.814.968.814h1.342c.022.506.044,1.056.044,1.628v.352h-1.782a.9.9,0,0,0-.968.858c0,.418.308.814.968.814h1.716c-.154,1.5-.682,2.706-2.42,3.08a.8.8,0,0,0-.638.814.883.883,0,0,0,.924.9,1.5,1.5,0,0,0,.418-.066c2.486-.748,3.366-2.376,3.608-4.73h1.958v3.586a.969.969,0,0,0,1.936,0V43.952ZM111.144,37.7c.4.022.946.044,1.54.044,4.444,0,4.466-.506,4.466-3.212,0-.748-.022-1.518-.044-2.266a1.915,1.915,0,0,0-2.024-1.694c-.418-.022-1.32-.022-2.2-.022-2.442,0-3.784.066-3.784,2.09-.044,4.642,0,11.924-.154,15.994v.044a.968.968,0,0,0,1.034.924,1,1,0,0,0,1.078-.968c.066-3.146.088-6.468.088-8.932Zm9.394-4.246c0-.22.022-.44.022-.638.044-.66.286-.682,2.112-.682,2,0,2.09.022,2.09,1.32Zm4.268,2.706c-.308.022-1.056.022-1.782.022-1.958,0-2.442,0-2.464-.682,0-.2-.022-.418-.022-.638h4.268Zm-13.662-2.706c0-.176.022-.33.022-.484.044-.792.2-.836,2.024-.836,1.694,0,1.936.022,1.98.66,0,.2.022.418.022.66Zm4.048,1.408c0,.22-.022.44-.022.638-.022.594-.176.682-2.354.682-.682,0-1.342,0-1.672-.022v-1.3Zm3.63,7.414H116.93V40.3h1.892Zm30.8,7.062a.589.589,0,0,0-.352-.55,10.283,10.283,0,0,1-5.434-9.174,9.877,9.877,0,0,1,5.412-8.954.62.62,0,0,0,.374-.55.6.6,0,0,0-.616-.594c-.7,0-6.292,3.168-6.292,10.1,0,6.974,5.632,10.186,6.424,10.186A.457.457,0,0,0,149.622,49.342Zm7.238-2.266a1.19,1.19,0,0,0,1.32,1.122c.682,0,1.364-.374,1.32-1.144-.066-1.628-.11-4.312-.11-6.952,0-2.156.022-4.29.066-5.786,0-.44,0-.44,2.178-.44.528,0,1.166,0,1.914.044h.088a1.069,1.069,0,0,0,1.056-1.166,1.11,1.11,0,0,0-1.144-1.188c-1.254.022-3.124.044-4.994.044-2.288,0-4.62-.022-5.94-.044h-.044a1.131,1.131,0,0,0-1.21,1.166,1.172,1.172,0,0,0,1.254,1.188c1.034,0,2.068-.044,2.9-.044,1.3,0,1.364,0,1.364.44.044,1.166.044,2.992.044,4.928,0,2.9-.022,6.094-.066,7.81Zm19.58-9.482a1.184,1.184,0,0,0-.11-1.716,12.034,12.034,0,0,0-2.926-1.826c-1.5-.66-2.376,1.3-1.122,1.8a7.7,7.7,0,0,1,2.4,1.694A1.174,1.174,0,0,0,176.44,37.594Zm8.492-.616c.968-1.738-1.232-2.64-1.958-1.276-2.31,4.378-7.194,9.218-11.572,10.406a1.2,1.2,0,1,0,.726,2.266C177.122,46.724,182.116,42.016,184.932,36.978Zm-11.11,4.114a1.189,1.189,0,0,0-.506-1.65,11.127,11.127,0,0,0-3.212-1.1c-1.606-.308-2.024,1.782-.7,2a7.715,7.715,0,0,1,2.728,1.122A1.139,1.139,0,0,0,173.822,41.092Zm26.8-.858a5.786,5.786,0,0,1-1.562,1.936c-1.122.924.11,2.53,1.364,1.43a8.975,8.975,0,0,0,2.6-3.762c.462-1.364-.9-1.958-2-1.628-1.474.462-2.992.968-4.444,1.452-.242-.858-.462-1.584-.616-2.09a1.038,1.038,0,0,0-1.21-.748.931.931,0,0,0-.638,1.32c.176.55.4,1.276.66,2.134-.946.33-1.8.638-2.574.9a.945.945,0,1,0,.616,1.782c.7-.264,1.562-.594,2.486-.924.682,2.266,1.43,4.8,1.87,6.292.462,1.54,2.486.858,1.892-.748-.528-1.452-1.32-3.96-1.98-6.182,1.364-.484,2.662-.924,3.564-1.188Zm19.25-1.254a1.17,1.17,0,0,0,.66-1.562,11.51,11.51,0,0,0-1.8-2.9c-1.034-1.232-2.684.088-1.8,1.078a7.749,7.749,0,0,1,1.43,2.618A1.124,1.124,0,0,0,219.868,38.98Zm-4.378,9.5c5.874-2.64,9.152-7.216,10.868-12.87a1.233,1.233,0,1,0-2.376-.66,16.317,16.317,0,0,1-9.614,11.528C212.938,47.076,213.664,49.3,215.49,48.484Zm.418-8.118a1.153,1.153,0,0,0,.44-1.628,11.5,11.5,0,0,0-2.178-2.618c-1.188-1.078-2.64.462-1.628,1.32a7.75,7.75,0,0,1,1.782,2.376A1.1,1.1,0,0,0,215.908,40.366Zm17.534,9.262a1.216,1.216,0,0,0,1.188-1.21c0-1.5-3.52-3.432-4.29-3.432a.979.979,0,0,0-1.034.968.99.99,0,0,0,.594.88,8.4,8.4,0,0,1,2.706,2.31A1,1,0,0,0,233.442,49.628Zm28.138-7.106a22.887,22.887,0,0,1,5.148,4.422c1.034,1.3,2.684-.418,1.8-1.65-1.012-1.408-3.806-3.256-5.632-4.356a35.208,35.208,0,0,0,2.442-3.74c.858-1.5-.264-2.75-2.244-2.75-2.222,0-5.456.044-7.062.11a1.068,1.068,0,0,0,0,2.134c1.936-.044,4.972-.154,6.358-.132.484,0,.572.352.374.726a17.886,17.886,0,0,1-9.218,8.184,1.135,1.135,0,1,0,.7,2.134A18.585,18.585,0,0,0,261.58,42.522Zm27.126-8.536a1,1,0,0,0-1.122-1.012c-2.882.066-5.808.154-8.58.132a1.037,1.037,0,1,0-.022,2.046c2.354,0,5.654-.088,8.69-.132A1,1,0,0,0,288.706,33.986ZM285.1,39.42c1.936-.022,3.74,0,4.95.044a1.08,1.08,0,0,0,1.21-.99.974.974,0,0,0-1.078-1.056c-3.586.022-10.516.066-13.64.11a1.117,1.117,0,0,0-1.254,1.078,1.007,1.007,0,0,0,1.144.99c1.54-.044,3.96-.132,6.4-.154a7.276,7.276,0,0,1-5.61,6.93c-1.54.418-1.188,2.772.968,2.024A9.8,9.8,0,0,0,285.1,39.42Zm20.372,1.21a9.429,9.429,0,0,0-1.32-2.178c-.9-1.078-2.376.132-1.584,1.012a5.823,5.823,0,0,1,1.034,1.848A1,1,0,1,0,305.47,40.63ZM301.73,48.9a14.346,14.346,0,0,0,8.03-9.482,1.073,1.073,0,1,0-2.068-.572,11.778,11.778,0,0,1-6.93,8.316.976.976,0,0,0-.55,1.32A1.055,1.055,0,0,0,301.73,48.9Zm.7-7.348a8.3,8.3,0,0,0-1.628-1.958c-1.034-.924-2.31.462-1.408,1.232a5.757,5.757,0,0,1,1.254,1.694A1.015,1.015,0,1,0,302.434,41.554Zm22.44-3.388c-.858,3.5-2.706,6.842-5.72,8.47-1.76.946-.374,2.772,1.034,2,3.916-2.134,6.028-6.49,6.952-10.494.88,0,1.716-.022,2.4,0a1.188,1.188,0,0,1,1.21,1.3c-.022,1.144-.352,4.18-1.21,5.456a1.979,1.979,0,0,1-3.08.616,1.145,1.145,0,1,0-1.408,1.8A4.221,4.221,0,0,0,331.54,46c.924-1.65,1.342-4.84,1.408-7.062.044-1.782-1.188-2.684-2.9-2.728-.77-.022-1.628-.022-2.53-.022a18.5,18.5,0,0,0,.22-2.794,1.158,1.158,0,1,0-2.31-.088,22.1,22.1,0,0,1-.176,2.9c-1.584.022-3.124.066-4.378.11-1.474.066-1.606,2.068.154,1.98C322.124,38.254,323.488,38.188,324.874,38.166Zm30.58,2.574a1.089,1.089,0,1,0,0-2.178H341.638a1.122,1.122,0,0,0-1.166,1.122,1.059,1.059,0,0,0,1.166,1.056Zm5.808,9.064c.792,0,6.424-3.212,6.424-10.186,0-6.93-5.588-10.1-6.292-10.1a.6.6,0,0,0-.616.594.62.62,0,0,0,.374.55,9.877,9.877,0,0,1,5.412,8.954,10.283,10.283,0,0,1-5.434,9.174.589.589,0,0,0-.352.55A.457.457,0,0,0,361.262,49.8ZM13.332,87.64A2.332,2.332,0,1,0,11,89.972,2.319,2.319,0,0,0,13.332,87.64Zm28.732-4.51a2.321,2.321,0,1,0-4.642,0,2.321,2.321,0,0,0,4.642,0Zm-.66,8.382c-.528-2.024-2.992-4.862-4.906-6.556-1.32-1.166-2.794.418-1.738,1.32a16.489,16.489,0,0,1,4.246,6.116C39.534,94.108,41.844,93.206,41.4,91.512Zm-15.95,1.936a16.8,16.8,0,0,0,5.5-6.974,1.2,1.2,0,1,0-2.222-.88,12.342,12.342,0,0,1-4.664,5.874A1.215,1.215,0,1,0,25.454,93.448ZM40.876,83.13a1.146,1.146,0,0,1-1.144,1.122,1.122,1.122,0,0,1,0-2.244A1.146,1.146,0,0,1,40.876,83.13Zm14.234,5.5a9.429,9.429,0,0,0-1.32-2.178c-.9-1.078-2.376.132-1.584,1.012a5.823,5.823,0,0,1,1.034,1.848A1,1,0,1,0,55.11,88.63ZM51.37,96.9A14.346,14.346,0,0,0,59.4,87.42a1.073,1.073,0,1,0-2.068-.572,11.778,11.778,0,0,1-6.93,8.316.976.976,0,0,0-.55,1.32A1.055,1.055,0,0,0,51.37,96.9Zm.7-7.348A8.3,8.3,0,0,0,50.446,87.6c-1.034-.924-2.31.462-1.408,1.232a5.758,5.758,0,0,1,1.254,1.694A1.015,1.015,0,1,0,52.074,89.554Zm27.236-3.63c1.474,0,2.794.044,3.608.066A.972.972,0,0,0,84,85a1.016,1.016,0,0,0-1.034-1.034c-1.892-.066-6.358-.066-8.954-.022a14.226,14.226,0,0,0,.66-2,1.153,1.153,0,0,0-2.244-.528A13.131,13.131,0,0,1,68.6,87.992c-1.254.946-.066,2.9,1.5,1.54A14.857,14.857,0,0,0,73,85.946c1.056-.022,2.508-.022,4-.022-.55,3.806-2.662,7.172-6.424,8.228-1.562.44-1.21,2.882.858,2.156C76.208,94.614,78.672,90.588,79.31,85.924Zm25.784,2.816a1.089,1.089,0,1,0,0-2.178H91.278a1.122,1.122,0,0,0-1.166,1.122,1.059,1.059,0,0,0,1.166,1.056Zm22.022-7.832c.748.836,1.98-.55,1.1-1.43a7.022,7.022,0,0,0-2.222-1.254c-1.034-.33-1.826,1.012-.7,1.452A8.064,8.064,0,0,1,127.116,80.908Zm-2.024,1.958c.726.858,2-.484,1.144-1.408a6.805,6.805,0,0,0-2.178-1.32c-1.012-.374-1.892.946-.77,1.408A7.779,7.779,0,0,1,125.092,82.866Zm-4.818,2.728a1.184,1.184,0,0,0-.11-1.716,12.034,12.034,0,0,0-2.926-1.826c-1.5-.66-2.376,1.3-1.122,1.8a7.7,7.7,0,0,1,2.4,1.694A1.174,1.174,0,0,0,120.274,85.594Zm8.492-.616c.968-1.738-1.232-2.64-1.958-1.276-2.31,4.378-7.194,9.218-11.572,10.406a1.2,1.2,0,1,0,.726,2.266C120.956,94.724,125.95,90.016,128.766,84.978Zm-11.11,4.114a1.189,1.189,0,0,0-.506-1.65,11.127,11.127,0,0,0-3.212-1.1c-1.606-.308-2.024,1.782-.7,2a7.715,7.715,0,0,1,2.728,1.122A1.139,1.139,0,0,0,117.656,89.092Zm34.166,8.25a.589.589,0,0,0-.352-.55,10.283,10.283,0,0,1-5.434-9.174,9.877,9.877,0,0,1,5.412-8.954.62.62,0,0,0,.374-.55.6.6,0,0,0-.616-.594c-.7,0-6.292,3.168-6.292,10.1,0,6.974,5.632,10.186,6.424,10.186A.457.457,0,0,0,151.822,97.342Zm12.056-9.548c-.022,2.574-.11,6.16-.132,7.92a1.164,1.164,0,1,0,2.31-.066c-.066-2.2-.022-7.964.044-10.208.946-1.1,1.892-2.288,2.882-3.608a1.146,1.146,0,1,0-1.958-1.166,29.226,29.226,0,0,1-10.736,9.944c-1.5.726-.352,2.97,1.672,1.738A32.162,32.162,0,0,0,163.878,87.794Zm27.06-6.138a1.074,1.074,0,0,0-1.188-1.012c-2.222.022-5.3.022-7.414,0-1.694-.022-1.606,2-.154,2.046,2.376.066,5.412,0,7.48,0C190.564,82.69,190.938,82.184,190.938,81.656Zm1.408,6.468c.9-2.156-.176-3.388-2.376-3.41-2.992-.022-6.688,0-9.526.066a1.049,1.049,0,1,0,.066,2.068c2.354-.088,6.446-.154,8.69-.11.836.022.946.374.726.968-.99,2.794-3.784,5.456-8.118,6.622-1.76.462-.946,2.64.858,2.09C188.122,94.746,190.806,91.8,192.346,88.124Zm15.554,2.4a22.887,22.887,0,0,1,5.148,4.422c1.034,1.3,2.684-.418,1.8-1.65-1.012-1.408-3.806-3.256-5.632-4.356a35.205,35.205,0,0,0,2.442-3.74c.858-1.5-.264-2.75-2.244-2.75-2.222,0-5.456.044-7.062.11a1.068,1.068,0,0,0,0,2.134c1.936-.044,4.972-.154,6.358-.132.484,0,.572.352.374.726a17.886,17.886,0,0,1-9.218,8.184,1.135,1.135,0,1,0,.7,2.134A18.585,18.585,0,0,0,207.9,90.522Zm21.032-2.772a13.637,13.637,0,0,1,4.29,1.782c1.254.924,2.508-.99,1.364-1.958-1.188-1.012-4.048-1.716-5.28-1.914a2.262,2.262,0,0,0-.374-.022c.022-2.156.044-4.07.066-5.148a1.144,1.144,0,0,0-2.288-.022c.088,3.168.022,11.792-.132,15.356a1.2,1.2,0,1,0,2.376-.088C228.91,93.954,228.91,90.786,228.932,87.75ZM242.242,97.8c.792,0,6.424-3.212,6.424-10.186,0-6.93-5.588-10.1-6.292-10.1a.6.6,0,0,0-.616.594.62.62,0,0,0,.374.55,9.877,9.877,0,0,1,5.412,8.954,10.283,10.283,0,0,1-5.434,9.174.589.589,0,0,0-.352.55A.457.457,0,0,0,242.242,97.8Z" transform="translate(30.273 315.623)" fill="#fff"/>
    <path id="パス_48" data-name="パス 48" d="M-99.308-2.75a1.156,1.156,0,0,0,.352-1.562,12.236,12.236,0,0,0-3.784-3.234c-1.254-.748-2.31.924-1.232,1.562a11.377,11.377,0,0,1,3.212,2.97A.962.962,0,0,0-99.308-2.75Zm-8.6-6.842c.022,2.31.022,4.84,0,6.4-.022,1.21-.99,1.056-1.892.77-1.342-.44-2.2,1.826-.242,2.178,3.146.55,4.2-.77,4.2-2.508,0-.616,0-.946-.022-1.65-.066-1.518-.088-3.432-.066-5.214,1.65,0,3.3,0,4.928.088a1.052,1.052,0,1,0,.088-2.068c-1.628-.022-3.3-.022-4.994,0,.022-1.144.044-2.156.066-2.838a1.059,1.059,0,1,0-2.112.088c.022.616.022,1.606.022,2.772-1.782.022-3.586.066-5.324.132a1.022,1.022,0,1,0,.044,2.024C-111.452-9.482-109.67-9.548-107.91-9.592Zm-5.676,7.436a13.7,13.7,0,0,0,3.344-3.916,1,1,0,1,0-1.694-1.056,10.985,10.985,0,0,1-2.926,3.146,1.062,1.062,0,0,0-.286,1.54A1.123,1.123,0,0,0-113.586-2.156Zm35.64-5.1a1.062,1.062,0,0,0,1.122-1.078,1.067,1.067,0,0,0-1.122-1.1H-91.762a1.122,1.122,0,0,0-1.166,1.122A1.059,1.059,0,0,0-91.762-7.26Zm17.16,4.95a11.344,11.344,0,0,1,.572,1.166,1.119,1.119,0,0,0,1.5.66,1.285,1.285,0,0,0,.7-1.606c-.7-1.98-2.992-4.224-4.048-5.17-1.232-1.1-2.662.44-1.65,1.32a12.545,12.545,0,0,1,1.672,1.8c-1.716.418-4.136.946-6.424,1.364A104.344,104.344,0,0,0-64.68-13a1.219,1.219,0,1,0-2.376-.462A71.4,71.4,0,0,1-70.994-2.332c-.374.066-.77.11-1.122.154-1.76.242-1.232,2.486.418,2.222C-68.288-.528-63.624-1.518-60.786-2.31Zm24.134-9.7a2.4,2.4,0,0,0-2.4-2.4,2.385,2.385,0,0,0-2.376,2.4A2.366,2.366,0,0,0-39.05-9.636,2.385,2.385,0,0,0-36.652-12.012Zm2.332,9.746a1.152,1.152,0,0,0-.22-1.694c-2.332-1.518-6.622-4.752-8.382-6.05a3.906,3.906,0,0,0-4.994-.154,22.015,22.015,0,0,1-3.41,2.09,1.208,1.208,0,1,0,.858,2.244,18.74,18.74,0,0,0,3.7-2.64,1.934,1.934,0,0,1,2.684.132c2.838,2.178,5.3,4.642,7.942,6.358A1.39,1.39,0,0,0-34.32-2.266Zm-3.564-9.746a1.174,1.174,0,0,1-1.166,1.166,1.174,1.174,0,0,1-1.166-1.166,1.174,1.174,0,0,1,1.166-1.166A1.174,1.174,0,0,1-37.884-12.012Zm23.3,4.752a1.062,1.062,0,0,0,1.122-1.078,1.067,1.067,0,0,0-1.122-1.1H-28.4a1.122,1.122,0,0,0-1.166,1.122A1.059,1.059,0,0,0-28.4-7.26ZM7.436-15.092c.748.836,1.98-.55,1.1-1.43a7.022,7.022,0,0,0-2.222-1.254c-1.034-.33-1.826,1.012-.7,1.452A8.064,8.064,0,0,1,7.436-15.092ZM5.412-13.134c.726.858,2-.484,1.144-1.408a6.805,6.805,0,0,0-2.178-1.32c-1.012-.374-1.892.946-.77,1.408A7.778,7.778,0,0,1,5.412-13.134ZM.594-10.406a1.184,1.184,0,0,0-.11-1.716,12.034,12.034,0,0,0-2.926-1.826c-1.5-.66-2.376,1.3-1.122,1.8a7.7,7.7,0,0,1,2.4,1.694A1.174,1.174,0,0,0,.594-10.406Zm8.492-.616c.968-1.738-1.232-2.64-1.958-1.276C4.818-7.92-.066-3.08-4.444-1.892A1.2,1.2,0,1,0-3.718.374C1.276-1.276,6.27-5.984,9.086-11.022ZM-2.024-6.908a1.189,1.189,0,0,0-.506-1.65,11.127,11.127,0,0,0-3.212-1.1c-1.606-.308-2.024,1.782-.7,2A7.715,7.715,0,0,1-3.718-6.534,1.139,1.139,0,0,0-2.024-6.908Zm30.36-3.916a1.076,1.076,0,1,0,.374-2.112,13.28,13.28,0,0,0-5.786.132,1.036,1.036,0,1,0,.308,2.046A11.145,11.145,0,0,1,28.336-10.824ZM29.524-.792c1.452-.374,1.342-2.706-.44-2.332-1.716.352-4.356.7-5.544-.374A1.089,1.089,0,0,0,21.978-1.98C23.562-.264,27.17-.2,29.524-.792ZM17.886.264c.55-.484.286-1.166.418-1.76a11.092,11.092,0,0,1,1.3-3.08.882.882,0,0,0-1.54-.858c-.088.154-.33.594-.374.7-.088.2-.176.264-.242-.022-.528-2.046.792-7.216,1.144-9a1.07,1.07,0,1,0-2.134-.132c-.4,2.618-2.134,9.13-.374,13.464C16.522.66,17.336.748,17.886.264Zm35.288-2.2c.066-1.606.088-3.366.088-5.126s-.022-3.5-.088-5.038a2.509,2.509,0,0,0-2.464-2.332c-.462-.022-.9-.044-1.342-.044s-.88.022-1.364.044a2.4,2.4,0,0,0-2.42,2.288c-.044,1.606-.066,3.366-.066,5.126s.022,3.52.066,5.148C45.65.462,47.608.506,49.346.506c.44,0,.88-.022,1.342-.044A2.511,2.511,0,0,0,53.174-1.936ZM40.216-11.55c.33,0,.66.022,1.012.022.836,0,.858.528.858,1.914,0,7.37-.99,8.052-2.2,8.052a2.359,2.359,0,0,1-.858-.154,1.479,1.479,0,0,0-.4-.066.906.906,0,0,0-.858.99,1.067,1.067,0,0,0,.77,1.056,6.032,6.032,0,0,0,1.584.242c1.826,0,3.168-1.1,3.586-3.63a55.113,55.113,0,0,0,.44-7.392c0-.814,0-2.9-2.31-2.948H40.282c.044-.88.066-1.76.066-2.6v-.572a1.039,1.039,0,0,0-1.122-.968.961.961,0,0,0-1.056.924v.044c.022.484.022,1.012.022,1.562,0,.528,0,1.078-.022,1.628-.748.022-1.474.022-2.244.044a.945.945,0,0,0-.946.99.893.893,0,0,0,.924.946h.022c.726,0,1.452-.022,2.178-.044l-.022.176c-.154,2.9-.528,7.612-3.85,10.78a.92.92,0,0,0-.33.7,1.1,1.1,0,0,0,1.122,1.012,1.326,1.326,0,0,0,.88-.4c3.5-3.476,4.158-8.888,4.29-12.056ZM51.084-2.508c-.022.9-.484,1.034-1.716,1.034-1.54,0-1.694-.22-1.716-.968-.066-1.408-.088-3.124-.088-4.84,0-1.562.022-3.1.088-4.356.022-.682.374-.9.968-.968.242-.022.484-.044.726-.044s.484.022.726.044c.616.066.99.176,1.012.968.044,1.276.066,2.882.066,4.51S51.128-3.872,51.084-2.508ZM67.958-13.486c1.518.528,2.574-1.452.968-2a13.37,13.37,0,0,1-2.75-1.32c-1.3-.814-2.618.616-1.5,1.518A14.035,14.035,0,0,0,67.958-13.486Zm-3.41,9.46c1.1-1.1,4.422-4.158,5.456-5.258,1.144-1.188-.2-2.838-2.024-2.6a7.864,7.864,0,0,0-1.716.572,23.181,23.181,0,0,1-3.872,1.034c-1.518.22-1.21,2.508.66,2.09a21.95,21.95,0,0,0,4.532-1.738c.2-.088.352-.132.11.154-1.1,1.276-2.53,2.75-3.542,3.74-.7.682-1.32,1.364-2.09,2.046a35.4,35.4,0,0,0-2.64,2.772c-.968,1.1.022,1.826.748,1.782C60.61.55,61.248.44,62.018-.792c1.43-2.288,3.058-2.112,3.542-.924A3.356,3.356,0,0,0,68.442.55,11.677,11.677,0,0,0,73.436.022c1.76-.66.968-2.926-.7-2.178a10.993,10.993,0,0,1-3.476.7A2.013,2.013,0,0,1,67.3-2.9,2.081,2.081,0,0,0,64.548-4.026ZM90.838.462c2.332.022,2.2-2.574-.11-2.486-4.928.176-6.4-4.444-4.466-7.678a6.34,6.34,0,0,1,2.816-2.574,9.456,9.456,0,0,1,3.278-.616c1.54.088,2.024-.352,2.156-.726a1.3,1.3,0,0,0-1.5-1.694,29.621,29.621,0,0,0-6.006,1.3c-2.244.638-4.158,1.078-5.236,1.342-.7.176-1.98.418-2.442.528-1.76.374-1.188,2.9.748,2.376.66-.176,1.276-.4,1.98-.66,1.5-.572,1.122-.572,2.772-1.1.418-.132.528-.154.176.308a7.6,7.6,0,0,0-.7,1.144C81.906-5.654,84.194.44,90.838.462Zm10.384,1.166A1.216,1.216,0,0,0,102.41.418c0-1.5-3.52-3.432-4.29-3.432a.979.979,0,0,0-1.034.968.99.99,0,0,0,.594.88,8.4,8.4,0,0,1,2.706,2.31A1,1,0,0,0,101.222,1.628Zm-243.65,23.136a.673.673,0,0,0,.154-.44,1.283,1.283,0,0,0-1.254-1.078.828.828,0,0,0-.726.418,18.652,18.652,0,0,1-6.138,6.226.972.972,0,0,0-.55.858,1.024,1.024,0,0,0,1.034.99c.946,0,3.124-2,4.4-3.322a12.946,12.946,0,0,0,2.244,2.706,19,19,0,0,1-7.546,3.564.925.925,0,0,0-.836.9,1.056,1.056,0,0,0,1.078,1.034,21.2,21.2,0,0,0,8.756-4.29,18.837,18.837,0,0,0,8.294,3.652,1.132,1.132,0,0,0,1.21-1.1,1.089,1.089,0,0,0-.968-1.056A19.7,19.7,0,0,1-140.36,31.1a21.9,21.9,0,0,0,2.97-3.322,2.162,2.162,0,0,0,.44-1.232c0-.836-.66-1.54-2.046-1.54-1.034,0-2.4.022-3.63.044Zm5.94,15.158c.022-.418.044-.924.044-1.43s-.022-1.012-.044-1.452a2.144,2.144,0,0,0-2.222-1.848c-1.144-.022-2.354-.044-3.542-.044-.968,0-1.914.022-2.772.044a2.1,2.1,0,0,0-2.31,2.024c-.022.484-.044,1.056-.044,1.628,0,1.408.022,3.08,2.4,3.19,1.1.044,2.156.066,3.234.066.968,0,1.936-.022,2.948-.066A2.263,2.263,0,0,0-136.488,39.922Zm-7.48-13.2c.858-.022,1.716-.022,2.464-.022s1.408,0,1.87.022c.176,0,.286.066.286.2,0,.418-2.156,2.64-2.53,3.014a9.482,9.482,0,0,1-2.31-2.948Zm5.434,12.716c-.022.858-.572.88-3.256.88-3.234,0-3.5-.022-3.564-.88-.022-.264-.022-.572-.022-.88,0-.99.044-1.672.968-1.672.924-.022,1.892-.022,2.86-.022,2.618,0,2.97,0,3.014.814.022.264.022.572.022.88S-138.512,39.152-138.534,39.438Zm27.786,2.42a.813.813,0,0,0,.858-.836.818.818,0,0,0-.858-.858l-4.994.022V39.152l3.718.022a.778.778,0,0,0,.836-.814.773.773,0,0,0-.836-.792l-3.718.022v-.9c4.136,0,4.18-.418,4.18-3.652,0-3.454-.616-3.52-4.18-3.52V28.5l4.532.022a.813.813,0,0,0,.858-.836.813.813,0,0,0-.858-.836l-4.532.022v-1.21c1.254-.088,2.486-.242,3.542-.418a.783.783,0,0,0,.66-.814.882.882,0,0,0-.9-.924,1.071,1.071,0,0,0-.264.022,43.507,43.507,0,0,1-8.558.66.9.9,0,0,0-.99.88.869.869,0,0,0,.946.858c.836,0,3.146-.11,3.652-.132v1.078l-3.982-.022a.819.819,0,0,0-.88.836.819.819,0,0,0,.88.836l3.982-.022v1.012c-2.09,0-3.85,0-3.938,1.848-.022.484-.044,1.188-.044,1.848,0,3.168.418,3.454,3.982,3.454v.924l-3.52-.022a.786.786,0,0,0-.836.792.79.79,0,0,0,.836.814l3.52-.022v1.034l-5.016-.022a.824.824,0,0,0-.88.858.82.82,0,0,0,.88.836Zm-13.816-.22s-.088-5.148-.11-8.6a13.468,13.468,0,0,1,1.1,1.408.833.833,0,0,0,.66.4,1.055,1.055,0,0,0,.99-1.034c0-.88-2.134-2.288-2.222-2.332a.7.7,0,0,0-.352-.088.484.484,0,0,0-.176.022c0-.462.022-.946.022-1.43l1.518.044h.022a.871.871,0,0,0,.88-.946.869.869,0,0,0-.9-.924h-1.5c.022-1.144.044-2.134.066-2.6,1.276-.374,2.068-.638,2.068-1.3a1.131,1.131,0,0,0-1.012-1.056.791.791,0,0,0-.242.044,16.761,16.761,0,0,1-4.928,1.254.8.8,0,0,0-.7.858.958.958,0,0,0,.9,1.012,10.127,10.127,0,0,0,1.826-.286l.044,2.068h-1.914a.917.917,0,0,0-.968.946.894.894,0,0,0,.946.924h.022l1.936-.044.022.594a19.52,19.52,0,0,1-3.3,5.082.971.971,0,0,0-.308.7,1.107,1.107,0,0,0,1.1,1.034c.572,0,.99-.352,2.464-3.1l-.066,7.348v.022a.961.961,0,0,0,1.056.924.961.961,0,0,0,1.056-.924Zm11.044-9.306h-2.222V30.946c1.87,0,2.2.022,2.222.726Zm0,2.112c-.022.594-.286.726-.792.726-.44,0-.924.022-1.43.022V33.74h2.222Zm-4.136-2.112h-2.112c0-.242.022-.462.022-.638.022-.4.22-.7.858-.726.352,0,.792-.022,1.232-.022Zm0,2.86c-.4,0-.77-.022-1.078-.022-1.034-.044-1.034-.4-1.034-1.43h2.112Zm30.448-9.02a7.271,7.271,0,0,0-1.914-1.694c-.946-.55-2,.594-.99,1.254a15.1,15.1,0,0,1,1.54,1.584A.89.89,0,0,0-87.208,26.172Zm-2.662,1.386a7.059,7.059,0,0,0-1.87-1.76c-.924-.572-2.024.506-1.034,1.21a7.485,7.485,0,0,1,1.474,1.65C-90.772,29.648-89.21,28.636-89.87,27.558Zm-4.708.484a1.022,1.022,0,0,0,1.034-1.056,1,1,0,0,0-1.122-1.012c-2.882.066-4.84.154-7.612.132a1.046,1.046,0,1,0-.022,2.068C-99.946,28.174-97.614,28.086-94.578,28.042Zm-1.606,4.4c1.936-.022,3.74-.022,4.928.022a1.08,1.08,0,0,0,1.21-.99.974.974,0,0,0-1.078-1.056c-3.586.022-10.516.066-13.64.11a1.117,1.117,0,0,0-1.254,1.078,1.007,1.007,0,0,0,1.144.99c1.54-.044,3.96-.11,6.4-.132a7.231,7.231,0,0,1-5.588,6.908c-1.54.418-1.188,2.772.968,2.024A9.775,9.775,0,0,0-96.184,32.442Zm29.04-6.006c.748.814,1.958-.572,1.078-1.43a7.121,7.121,0,0,0-2.178-1.21c-1.012-.33-1.8,1.012-.7,1.43A7.4,7.4,0,0,1-67.144,26.436Zm-1.98,1.914c.7.836,1.958-.462,1.122-1.364a7.242,7.242,0,0,0-2.156-1.276c-1.012-.374-1.826.9-.726,1.364A7.364,7.364,0,0,1-69.124,28.35Zm-2.992,3.058c1.43,0,2.816.022,4.18.066,1.54.044,2-2.156-.066-2.134-1.32,0-2.728.022-4.136.044,0-.99,0-1.958.022-2.838a1.118,1.118,0,1,0-2.2.022c.022.616.022,1.694.022,2.838l-3.542.066c-.022-1.078-.044-2.068-.088-2.794a1.092,1.092,0,1,0-2.178.088c.044.748.066,1.716.088,2.75-1.386.022-2.772.044-4.092.088a1.04,1.04,0,1,0,.132,2.046c1.232-.066,2.6-.11,3.982-.154,0,1.21-.022,2.354-.066,3.256a1.045,1.045,0,0,0,1.1,1.122,1.1,1.1,0,0,0,1.122-1.144c.022-.858.022-2.024.022-3.278,1.166-.022,2.332-.044,3.52-.044v.506a8.776,8.776,0,0,1-4.928,8.206c-1.364.748-.484,2.772,1.276,1.76a10.967,10.967,0,0,0,5.83-10.054Zm15.884,1.386c-.022,2.574-.11,6.16-.132,7.92a1.164,1.164,0,1,0,2.31-.066c-.066-2.2-.022-7.964.044-10.208.946-1.1,1.892-2.288,2.882-3.608a1.146,1.146,0,1,0-1.958-1.166A29.226,29.226,0,0,1-63.822,35.61c-1.5.726-.352,2.97,1.672,1.738A32.163,32.163,0,0,0-56.232,32.794Zm30.294-3.08a1.2,1.2,0,1,0-2-1.3c-2.222,4.312-6.666,8.866-11.088,9.988a1.259,1.259,0,1,0,.748,2.376C-33.22,39.174-28.666,34.664-25.938,29.714ZM-35.112,31.5A1.3,1.3,0,0,0-35.4,29.67,13.953,13.953,0,0,0-39.27,28c-1.672-.462-2.222,1.76-.9,2.068a8.12,8.12,0,0,1,3.256,1.628A1.165,1.165,0,0,0-35.112,31.5Zm22.066,4.532a7.92,7.92,0,0,0,1.958-.352,1.051,1.051,0,1,0-.7-1.98,7.5,7.5,0,0,1-1.056.2c.088-.924.2-1.87.33-2.86a6.836,6.836,0,0,0,1.342-.22,1.033,1.033,0,1,0-.506-2,4.054,4.054,0,0,1-.55.11c.022-.264.066-.528.088-.792a27.709,27.709,0,0,0,.374-3.168c0-1.3-2.09-1.65-2.2-.11-.066,1.034-.11,1.87-.242,3.256-.022.264-.066.55-.088.814a6.218,6.218,0,0,1-1.584-.418c-1.166-.484-2.134,1.54-.462,2.112a10.023,10.023,0,0,0,1.826.374c-.11.99-.22,1.958-.308,2.926a7.709,7.709,0,0,1-1.694-.33c-1.254-.418-1.936,1.672-.154,2.156a11.99,11.99,0,0,0,1.694.264c-.044.682-.044,1.342-.022,1.958.176,5.874,7.194,5.148,8.778.968.836-2.222.22-4.312-1.5-6.292-.968-1.122-2.86.044-1.716,1.3,1.232,1.342,1.848,2.794,1.078,4.444-1.144,2.442-4.576,2.574-4.708-.572A16.3,16.3,0,0,1-13.046,36.028ZM19.14,30.792a1.069,1.069,0,0,0-.022-1.562c-.792-.836-2.992-1.386-4.576-1.254a.978.978,0,1,0,.11,1.936,4.11,4.11,0,0,1,2.9.9A1.109,1.109,0,0,0,19.14,30.792ZM8.6,35.214a11.18,11.18,0,0,1,2.31-.836,6.145,6.145,0,0,1,3.564.044c1.914.7,1.3,2.266.77,2.97-1.056,1.408-2.464,1.386-4.18.55a1.049,1.049,0,1,0-.946,1.87,5.372,5.372,0,0,0,7.062-1.32c1.122-1.628,1.716-4.6-1.914-5.852a8.442,8.442,0,0,0-4.884-.022,13.543,13.543,0,0,0-1.848.682c-.022-.836-.022-1.65,0-2.332a12.717,12.717,0,0,0,2.068-.99c1.54-.924.2-2.662-.99-1.87a6.611,6.611,0,0,1-.88.506c.044-.66.066-1.364.11-1.848a1.114,1.114,0,1,0-2.222.022c.044.836.088,1.54.088,2.574a5.492,5.492,0,0,1-2.222.2c-1.826-.374-2.09,1.826-.462,2.024a8.249,8.249,0,0,0,2.64-.088c0,.88.022,1.826.044,2.75a14.17,14.17,0,0,0-3.1,2.332c-1.166,1.276-1.892,2.838.726,4.114,1.8.88,4.62.924,4.444-2.222C8.734,37.524,8.646,36.38,8.6,35.214Zm-1.87,1.1c.022.9.022,1.716,0,2.31-.022.858-.66.924-1.606.462-.506-.242-.506-.814-.044-1.32A10.8,10.8,0,0,1,6.732,36.314Zm33.132,5.28a.962.962,0,1,0,0-1.914l-4.136.022V33.674l4.906.022a.972.972,0,1,0,0-1.936H35.728V27.1c3.828-.638,4.18-.946,4.18-1.694A1.008,1.008,0,0,0,38.9,24.39a1.5,1.5,0,0,0-.418.066,30.344,30.344,0,0,1-8.47,1.276.911.911,0,0,0-.924.968.987.987,0,0,0,1.034,1.012c.814,0,2.75-.22,3.454-.308V31.76h-4.4a.969.969,0,1,0,0,1.936l4.4-.022V39.7l-3.85-.022a.958.958,0,1,0,0,1.914Zm-15.026-.132v.044a.985.985,0,0,0,1.078.946,1.042,1.042,0,0,0,1.122-.99l.22-12.914a15.87,15.87,0,0,0,2-4.07A1.168,1.168,0,0,0,28.05,23.4a1.03,1.03,0,0,0-.99.726,19.72,19.72,0,0,1-4.994,7.656.974.974,0,0,0,.682,1.738c.352,0,.814-.044,2.332-1.936Zm24.772-7.7c.044.924.11,1.936.2,2.728.308,2.992,1.364,4.356,4.246,4.664a13.243,13.243,0,0,0,4.554-.374,1.128,1.128,0,1,0-.616-2.156,12.245,12.245,0,0,1-3.586.594c-1.848-.044-2.552-.792-2.728-3.168-.066-.77-.088-1.826-.11-2.86,1.452-.374,3.168-.77,4.994-1.056a5.443,5.443,0,0,1-.638,2.332c-.308.462-.682.572-1.32-.264-.858-1.122-2.046-.066-1.474.9a8.831,8.831,0,0,0,.858,1.166,1.916,1.916,0,0,0,2.706.33,5.008,5.008,0,0,0,1.694-3.564c.044-.374.11-.77.132-1.144.308-.022.594-.066.9-.088a20.9,20.9,0,0,1,3.1-.044c1.782.11,2.134-2.046.33-2.156a20.926,20.926,0,0,0-3.652.242c-.2.022-.374.066-.572.088.022-.44.044-.88.066-1.254.044-.616.088-1.254.088-2a1.1,1.1,0,0,0-2.2-.022c.022.484,0,.682.022.858a8.11,8.11,0,0,1,.022.88c0,.55.022,1.166.022,1.826-1.8.308-3.63.682-5.082.99l.022-.286c.044-1.034.066-2.046.066-2.75a1.156,1.156,0,0,0-2.31.088c.044.946.11,1.848.154,3.124v.286l-.616.132c-.968.22-2.6.638-3.586.88-1.826.44-1.232,2.772.506,2.266.66-.2,1.5-.462,3.432-1.078Zm29.9,6.336c-1.078-2.354-2.948-4.422-5.148-7.172-.726-.9-.682-1.562.264-2.508,1.364-1.364,3.7-3.278,4.8-4.62a1.232,1.232,0,1,0-1.958-1.5,54.046,54.046,0,0,1-4.51,4.972c-1.716,1.782-1.716,3.344-.264,5.038a40.573,40.573,0,0,1,4.664,7.15C78.056,42.87,80.19,41.572,79.508,40.1ZM106.59,26.084c.748.836,2-.528,1.122-1.408A7.094,7.094,0,0,0,105.49,23.4c-1.034-.33-1.826,1.012-.7,1.452A7.927,7.927,0,0,1,106.59,26.084Zm-2,2c.726.858,2.024-.484,1.166-1.408a6.805,6.805,0,0,0-2.178-1.32c-1.012-.374-1.892.968-.77,1.43A7.57,7.57,0,0,1,104.588,28.086Zm.132,4.026c1.386.462,1.98-1.474.506-2a8.166,8.166,0,0,0-5.28-.11c-1.452.506-.77,2.31.374,1.892A7.736,7.736,0,0,1,104.72,32.112Zm0,8.91a1.142,1.142,0,1,0-.286-2.266c-2.574.22-3.916.33-5.038-.814-1.144-1.166-2.508.572-1.562,1.628C98.8,40.648,101.53,41.66,104.72,41.022ZM96.514,29.494a14.169,14.169,0,0,0,2.222-.88,1.05,1.05,0,1,0-.858-1.892c-.264.154-.528.308-.836.462a6.7,6.7,0,0,0-.022-1.76c-.22-1.21-2.288-1.144-2.2.11a9.588,9.588,0,0,1,.022,2.376,5.88,5.88,0,0,1-3.036-.132c-1.65-.594-1.87,1.408-.748,1.892a6.416,6.416,0,0,0,3.212.308,68.1,68.1,0,0,1-3.85,9.548c-.924,1.87,1.408,2.508,2.068,1.034A86.537,86.537,0,0,0,96.514,29.494Zm26.312.44a16.931,16.931,0,0,0,1.826-.792c1.342-.682.572-2.816-1.21-1.914a7.378,7.378,0,0,1-.814.44c-.33.11-.638.22-.946.33a12.665,12.665,0,0,1-1.144-2.354c-.44-1.584-2.9-1.078-2.09.7a22.21,22.21,0,0,0,1.276,2.244,5.787,5.787,0,0,1-4.268-.286c-1.584-.77-2.266,1.232-.9,1.936,1.518.792,3.432.924,5.962.374a3.574,3.574,0,0,0,.418-.088c.528.836,1.056,1.628,1.452,2.31a5.467,5.467,0,0,1,.55,1.232c.088.286,0,.4-.33.374a21.323,21.323,0,0,0-5.588.154c-3.52.7-3.828,4.268-1.254,5.852a11.169,11.169,0,0,0,5.5,1.3c2.09.066,2.222-2.376.2-2.288a8.693,8.693,0,0,1-4.554-.792c-1.166-.682-.792-1.8.44-2.178a13.344,13.344,0,0,1,5.434.066,2.461,2.461,0,0,1,.9.374c1.144.792,2.442.418,2.266-1.144a11.235,11.235,0,0,0-1.628-3.542C123.86,31.518,123.332,30.726,122.826,29.934Zm28.05,4.312a8.44,8.44,0,0,0-3.3-5.1c-1.32-.99-2.508.638-1.452,1.364a6.942,6.942,0,0,1,2.442,4.268A1.185,1.185,0,1,0,150.876,34.246Zm-9.614,3.63a10.065,10.065,0,0,0,.858-1.694,1.081,1.081,0,0,0-2-.792,8.653,8.653,0,0,1-.726,1.3c-.484.66-.77.594-1.342.044-1.232-1.188-1.65-3.366-1.738-5.676-.044-1.012.044-1.056,0-1.914a1.122,1.122,0,1,0-2.244.022,21.914,21.914,0,0,0,.11,2.442,11.35,11.35,0,0,0,2.486,7.04C137.9,39.966,139.854,40.164,141.262,37.876Z" transform="translate(220.273 203.623)" fill="#676767"/>
    <path id="パス_39" data-name="パス 39" d="M-97.163,0V-50.512h10.6a38.575,38.575,0,0,1,12.039,1.5A22.533,22.533,0,0,1-65.92-44Q-58.1-36.87-58.1-25.256q0,11.646-8.146,18.844a23.788,23.788,0,0,1-8.571,5.005Q-79.006,0-86.694,0Zm7.623-7.165h3.435a28.663,28.663,0,0,0,8.539-1.08,17.33,17.33,0,0,0,6.15-3.631,17.273,17.273,0,0,0,5.627-13.38,17.551,17.551,0,0,0-5.562-13.479q-5.005-4.613-14.754-4.613h-3.435ZM-20.9-14.2H-43.74A9.676,9.676,0,0,0-41.188-7.95,7.78,7.78,0,0,0-35.4-5.66,7.532,7.532,0,0,0-30.85-6.968a18.62,18.62,0,0,0,4.024-4.842l6.216,3.468a24.727,24.727,0,0,1-3.042,4.2A16.177,16.177,0,0,1-27.088-1.26,13.775,13.775,0,0,1-31.046.393a19.27,19.27,0,0,1-4.613.523,15,15,0,0,1-11.45-4.58Q-51.428-8.277-51.428-15.9q0-7.557,4.188-12.235a14.437,14.437,0,0,1,11.188-4.613q7.034,0,11.123,4.482,4.057,4.449,4.057,12.333Zm-7.557-6.02Q-30-26.106-35.888-26.106a7.627,7.627,0,0,0-2.519.409A7.207,7.207,0,0,0-40.55-24.52,7.466,7.466,0,0,0-42.2-22.671a8.59,8.59,0,0,0-1.047,2.454ZM5.66-26.434-.425-23.195q-1.439-2.944-3.566-2.944a2.453,2.453,0,0,0-1.734.671,2.243,2.243,0,0,0-.72,1.718q0,1.832,4.253,3.631Q3.664-17.6,5.692-15.474A7.951,7.951,0,0,1,7.721-9.749a10.032,10.032,0,0,1-3.4,7.721A11.58,11.58,0,0,1-3.664.916q-8.015,0-11.352-7.819l6.281-2.912a13.664,13.664,0,0,0,2,2.912A4.553,4.553,0,0,0-3.533-5.66Q.2-5.66.2-9.062q0-1.963-2.879-3.664-1.112-.556-2.225-1.08t-2.257-1.08a13.817,13.817,0,0,1-4.515-3.141,7.737,7.737,0,0,1-1.668-5.136,9.089,9.089,0,0,1,2.846-6.87,9.985,9.985,0,0,1,7.066-2.715Q2.683-32.748,5.66-26.434Zm16.03-5.431V0H14.329V-31.864Zm-8.473-13.25a4.56,4.56,0,0,1,1.407-3.337,4.6,4.6,0,0,1,3.37-1.407,4.635,4.635,0,0,1,3.4,1.407,4.528,4.528,0,0,1,1.407,3.37,4.635,4.635,0,0,1-1.407,3.4,4.528,4.528,0,0,1-3.37,1.407,4.635,4.635,0,0,1-3.4-1.407A4.673,4.673,0,0,1,13.217-45.114ZM61.831-.752q0,2.257-.147,3.975a27.621,27.621,0,0,1-.409,3.026A13.475,13.475,0,0,1,58.2,12.432Q53.881,17.4,46.324,17.4a15.85,15.85,0,0,1-10.5-3.435,14.042,14.042,0,0,1-4.907-9.782h7.394a8.372,8.372,0,0,0,1.407,3.631A7.907,7.907,0,0,0,46.39,10.8q8.081,0,8.081-9.913V-3.566A13.745,13.745,0,0,1,44.361.916,13.575,13.575,0,0,1,33.7-3.795a17.458,17.458,0,0,1-4.187-11.941A18.382,18.382,0,0,1,33.4-27.579a13.529,13.529,0,0,1,11.058-5.169A12.842,12.842,0,0,1,54.47-28.266v-3.6h7.361ZM54.765-15.867a10.727,10.727,0,0,0-2.486-7.426,8.22,8.22,0,0,0-6.445-2.846,7.924,7.924,0,0,0-6.608,3.108,11.281,11.281,0,0,0-2.192,7.2A11.173,11.173,0,0,0,39.225-8.7,7.934,7.934,0,0,0,45.833-5.66a8.082,8.082,0,0,0,6.674-3.075A10.953,10.953,0,0,0,54.765-15.867Zm16.357-16h7.394v2.944a12.066,12.066,0,0,1,8.7-3.828q5.562,0,8.669,3.5,2.683,2.977,2.683,9.716V0H91.176V-17.8q0-4.711-1.309-6.51-1.276-1.832-4.646-1.832-3.664,0-5.2,2.421-1.5,2.388-1.5,8.342V0H71.122Z" transform="translate(220.748 70.481)" fill="none" stroke="#f5f2f2" stroke-width="2"/>
    <rect id="長方形_18" data-name="長方形 18" width="438" height="65" transform="translate(4.274 87.623)" fill="#f5f2f2"/>
    <path id="パス_36" data-name="パス 36" d="M20.815-10.051a.985.985,0,0,0,1.058-.989A1.025,1.025,0,0,0,20.815-12.1l-3.335.023c0-1.771-.023-3.542-.023-4.738a1.009,1.009,0,0,0-1.1-.989,1,1,0,0,0-1.081.989c0,1.173.023,2.967.023,4.738H12.351c0-1.955.023-3.933.046-5.014v-.023a.956.956,0,0,0-1.058-.92,1.035,1.035,0,0,0-1.127.943c-.023,1.173-.023,3.082-.023,5.014H7.222c.023-1.633.046-3.151.069-4.278v-.023a1.054,1.054,0,0,0-1.173-.966,1.044,1.044,0,0,0-1.173.989c0,1.15-.023,2.645-.046,4.278L2.254-12.1a1.069,1.069,0,0,0-1.1,1.081.983.983,0,0,0,1.1.966L4.9-10.074c-.023,1.587-.023,3.174-.023,4.6,0,1.035,0,1.978.023,2.737C4.945-.506,6.417.3,8.441.391c1.334.069,3.036.092,4.83.092,1.909,0,3.933-.023,5.7-.115a1.056,1.056,0,0,0,1.035-1.1.952.952,0,0,0-.966-1.012h-.069c-1.794.069-3.956.115-5.957.115-4.991,0-5.7-.046-5.773-1.4-.046-.874-.069-2.323-.069-4,0-.943.023-2,.023-3.036h2.99c0,1.449.023,2.76.023,3.634.023,2.047,1.4,2.162,3.565,2.162,1.955,0,3.611-.115,3.657-2.185.023-.851.023-2.162.023-3.611Zm-5.52-.023c0,1.311-.023,2.438-.046,3.128-.046.644-.391.782-1.495.782-.966,0-1.357-.046-1.357-.782-.023-.713-.023-1.84-.023-3.128ZM35.857.506a1.108,1.108,0,0,0,2.208,0V-6.049A1.327,1.327,0,0,0,38-6.371c2.162,1.633,4.738,3.105,5.5,3.105a1.292,1.292,0,0,0,1.288-1.242,1.028,1.028,0,0,0-.69-.966A26.763,26.763,0,0,1,37.03-9.5c.6.023,1.2.023,1.725.023h.621a2.373,2.373,0,0,0,2.507-2.162c.046-.69.069-1.633.069-2.53,0-.782-.023-1.541-.069-2.093a2.293,2.293,0,0,0-2.369-1.909c-1.472-.023-3.68-.046-5.727-.046-1.7,0-3.266.023-4.232.046-1.794.046-2.438,1.081-2.484,2.07-.023.621-.046,1.38-.046,2.162,0,.805.023,1.61.046,2.323C27.14-9.5,29.3-9.476,30.222-9.476c.506,0,1.15,0,1.794-.023a23.477,23.477,0,0,1-7.038,4.393,1.041,1.041,0,0,0-.713.966,1.08,1.08,0,0,0,1.1,1.058c.828,0,3.979-1.955,5.359-2.944l-.023.069C30.613-3.151,29.394-.92,25.369-.368A.908.908,0,0,0,24.633.6a1.048,1.048,0,0,0,1.058,1.1.943.943,0,0,0,.253-.023C31.832.69,32.959-3.289,32.959-5.98a1.018,1.018,0,0,0-.966-1.035,23.267,23.267,0,0,0,2.553-2.461,28.888,28.888,0,0,0,2.622,2.438c-.069,0-.138-.023-.207-.023a1.026,1.026,0,0,0-1.1,1.012ZM35.466-14.72v-1.817c1.265,0,2.438.023,3.2.046.782.023,1.1.345,1.127.92,0,.253.023.529.023.851Zm4.347,1.656c0,1.058,0,1.863-1.127,1.863-.9.023-2.047.046-3.22.046v-1.909ZM33.419-14.72h-4.37c0-.943.046-1.725,1.173-1.771.782-.023,1.932-.046,3.2-.046Zm0,3.565c-1.2,0-2.323-.023-3.174-.046-1.1-.046-1.2-.667-1.2-1.863h4.37Zm30.245-.161a1.125,1.125,0,1,0,.391-2.208,13.884,13.884,0,0,0-6.049.138,1.083,1.083,0,1,0,.322,2.139A11.651,11.651,0,0,1,63.664-11.316ZM64.906-.828c1.518-.391,1.4-2.829-.46-2.438-1.794.368-4.554.736-5.8-.391A1.139,1.139,0,0,0,57.017-2.07C58.673-.276,62.445-.207,64.906-.828ZM52.739.276c.575-.506.3-1.219.437-1.84a11.6,11.6,0,0,1,1.357-3.22.922.922,0,0,0-1.61-.9c-.092.161-.345.621-.391.736-.092.207-.184.276-.253-.023-.552-2.139.828-7.544,1.2-9.407a1.118,1.118,0,1,0-2.231-.138c-.414,2.737-2.231,9.545-.391,14.076C51.313.69,52.164.782,52.739.276Zm36.5-7.544a1.194,1.194,0,0,0,1.219-1.265A1.168,1.168,0,0,0,89.24-9.752H71.783A1.219,1.219,0,0,0,70.5-8.51a1.219,1.219,0,0,0,1.288,1.242Zm20.7,3.841c2.829-2.346,3.749-5.635,1.265-8.234-2.116-2.208-5.612-2.231-8.234-1.564a54.231,54.231,0,0,0-7.2,2.691,1.293,1.293,0,1,0,1.127,2.3c1.127-.529,2.162-1.058,3.2-1.564a22.356,22.356,0,0,1,3.289-1.357c2.07-.621,4.669-.667,6.141,1.012,1.058,1.219.92,3.105-1.035,4.83a12.366,12.366,0,0,1-6.762,2.691c-1.84.253-1.679,2.783.46,2.438A15.981,15.981,0,0,0,109.94-3.427ZM127.6-12.9a5.966,5.966,0,0,1,2.852.92,4.964,4.964,0,0,1,1.265,7.038,7.126,7.126,0,0,1-4.278,2.576c-1.978.46-1.265,2.783.759,2.254a9.615,9.615,0,0,0,5.612-3.8c2-3.289,1.426-7.521-2.139-9.66a9.609,9.609,0,0,0-9.936.529c-3.082,2.139-4.623,6.417-3.174,9.269,1.012,1.978,2.944,2.875,4.715,1.242a18.116,18.116,0,0,0,4.646-9.315A1.15,1.15,0,0,0,127.6-12.9Zm-1.817.115a1.627,1.627,0,0,0-.207.713c-.23,2.484-1.84,6.141-3.565,7.659-.575.506-1.173.161-1.518-.506-.966-1.771.184-4.83,2.323-6.486A7.621,7.621,0,0,1,125.787-12.788Zm26.588,2.162c1.265,0,2.53.046,3.726.092a1.111,1.111,0,1,0,.069-2.185c-1.219-.023-2.507,0-3.818,0-.023-1.311-.046-2.438-.046-3.082a1.118,1.118,0,1,0-2.231.092c.023.6.069,1.7.115,3.013-2.484.023-4.991.069-7.291.161a1.069,1.069,0,1,0,.069,2.116c1.932-.069,3.979-.138,6.026-.184a20.808,20.808,0,0,1-7.728,7.153c-1.449.759-.322,2.944,1.587,1.725a26.623,26.623,0,0,0,7.475-7.015c.069,2.415.138,4.807.161,6.164.023,1.219-1.2,1.081-2.139.782-1.449-.46-2.3,1.909-.207,2.277,3.611.621,4.6-.828,4.554-2.6-.023-.621-.023-1.012-.069-1.725C152.513-5.566,152.421-8.211,152.375-10.626ZM170.66-7.475c.046-2.139.046-6.072-.069-8.142-.092-1.449-2.461-1.334-2.392.092.115,2.185.184,5.8.046,8.073a1.128,1.128,0,0,0,1.2,1.173A1.189,1.189,0,0,0,170.66-7.475Zm.414,8.648c4.761-2.737,5.957-6.716,5.957-10.672,0-1.909-.115-4.485-.069-6.44.023-1.4-2.461-1.495-2.461,0,0,1.817.115,4.669.115,6.463,0,3.427-.92,6.509-4.991,8.763C168.176.092,169.188,2.254,171.074,1.173Zm31.74-16.951c.782.874,2.07-.575,1.15-1.495a7.341,7.341,0,0,0-2.323-1.311c-1.081-.345-1.909,1.058-.736,1.518A8.431,8.431,0,0,1,202.814-15.778ZM200.7-13.731c.759.9,2.093-.506,1.2-1.472a7.114,7.114,0,0,0-2.277-1.38c-1.058-.391-1.978.989-.805,1.472A8.132,8.132,0,0,1,200.7-13.731Zm-5.037,2.852a1.238,1.238,0,0,0-.115-1.794,12.581,12.581,0,0,0-3.059-1.909c-1.564-.69-2.484,1.357-1.173,1.886a8.052,8.052,0,0,1,2.507,1.771A1.228,1.228,0,0,0,195.661-10.879Zm8.878-.644c1.012-1.817-1.288-2.76-2.047-1.334-2.415,4.577-7.521,9.637-12.1,10.879a1.255,1.255,0,1,0,.759,2.369C196.374-1.334,201.6-6.256,204.539-11.523Zm-11.615,4.3a1.243,1.243,0,0,0-.529-1.725,11.633,11.633,0,0,0-3.358-1.15c-1.679-.322-2.116,1.863-.736,2.093a8.065,8.065,0,0,1,2.852,1.173A1.19,1.19,0,0,0,192.924-7.222ZM220.34-9.246c1.771,0,3.542.023,5.244.092a1.224,1.224,0,0,0,1.426-1.1c.023-.575-.391-1.15-1.334-1.173-1.725-.023-3.519-.023-5.359,0,0-1.081.023-2.185-.092-3.542s-2.461-1.564-2.392.161c.023.782.069,2.07.092,3.4-2.162.023-4.3.069-6.348.138a1.119,1.119,0,1,0,.069,2.208c2.07-.069,4.186-.161,6.3-.184a8.607,8.607,0,0,1-5.98,7.889c-1.495.552-.851,2.829,1.081,2.07A10.884,10.884,0,0,0,220.34-9.246Zm28.29-.069a1.2,1.2,0,1,0-2.093-1.15,14.515,14.515,0,0,1-5.129,5.75c-.437.253-.713.207-.69-.3.023-.782.253-6.854.276-7.751a1.154,1.154,0,1,0-2.3,0c0,1.357-.161,6.831-.322,8.9-.161,1.978,1.472,2.576,2.967,1.84A18.23,18.23,0,0,0,248.63-9.315ZM230.552-.851a12.663,12.663,0,0,0,6.325-11.638,1.188,1.188,0,1,0-2.369.184c.207,4.393-1.84,7.935-5.244,9.453C227.516-2.07,228.781.138,230.552-.851ZM272.573-15.5a7.6,7.6,0,0,0-2-1.771c-.989-.575-2.093.621-1.035,1.311a15.788,15.788,0,0,1,1.61,1.656A.931.931,0,0,0,272.573-15.5Zm-2.783,1.449a7.381,7.381,0,0,0-1.955-1.84c-.966-.6-2.116.529-1.081,1.265a7.825,7.825,0,0,1,1.541,1.725C268.847-11.868,270.48-12.926,269.79-14.053Zm-4.922.506a1.069,1.069,0,0,0,1.081-1.1,1.048,1.048,0,0,0-1.173-1.058c-3.013.069-5.06.161-7.958.138a1.094,1.094,0,1,0-.023,2.162C259.256-13.409,261.694-13.5,264.868-13.547Zm-1.679,4.6c2.024-.023,3.91-.023,5.152.023a1.129,1.129,0,0,0,1.265-1.035,1.018,1.018,0,0,0-1.127-1.1c-3.749.023-10.994.069-14.26.115a1.168,1.168,0,0,0-1.311,1.127,1.052,1.052,0,0,0,1.2,1.035c1.61-.046,4.14-.115,6.693-.138A7.559,7.559,0,0,1,254.955-1.7c-1.61.437-1.242,2.9,1.012,2.116A10.219,10.219,0,0,0,263.189-8.947Zm30.36-6.279c.782.851,2.047-.6,1.127-1.5a7.445,7.445,0,0,0-2.277-1.265c-1.058-.345-1.886,1.058-.736,1.495A7.736,7.736,0,0,1,293.549-15.226Zm-2.07,2c.736.874,2.047-.483,1.173-1.426a7.572,7.572,0,0,0-2.254-1.334c-1.058-.391-1.909.943-.759,1.426A7.7,7.7,0,0,1,291.479-13.225Zm-3.128,3.2c1.495,0,2.944.023,4.37.069,1.61.046,2.093-2.254-.069-2.231-1.38,0-2.852.023-4.324.046,0-1.035,0-2.047.023-2.967a1.169,1.169,0,1,0-2.3.023c.023.644.023,1.771.023,2.967l-3.7.069c-.023-1.127-.046-2.162-.092-2.921a1.141,1.141,0,1,0-2.277.092c.046.782.069,1.794.092,2.875-1.449.023-2.9.046-4.278.092a1.087,1.087,0,1,0,.138,2.139c1.288-.069,2.714-.115,4.163-.161,0,1.265-.023,2.461-.069,3.4a1.092,1.092,0,0,0,1.15,1.173,1.153,1.153,0,0,0,1.173-1.2c.023-.9.023-2.116.023-3.427,1.219-.023,2.438-.046,3.68-.046V-9.5A9.175,9.175,0,0,1,280.922-.92c-1.426.782-.506,2.9,1.334,1.84a11.466,11.466,0,0,0,6.1-10.511Zm16.606,1.449c-.023,2.691-.115,6.44-.138,8.28a1.217,1.217,0,1,0,2.415-.069c-.069-2.3-.023-8.326.046-10.672.989-1.15,1.978-2.392,3.013-3.772a1.2,1.2,0,1,0-2.047-1.219,30.554,30.554,0,0,1-11.224,10.4c-1.564.759-.368,3.105,1.748,1.817A33.625,33.625,0,0,0,304.957-8.579Zm31.671-3.22a1.254,1.254,0,1,0-2.093-1.357c-2.323,4.508-6.969,9.269-11.592,10.442a1.316,1.316,0,1,0,.782,2.484C329.015-1.909,333.776-6.624,336.628-11.8Zm-9.591,1.863a1.36,1.36,0,0,0-.3-1.909,14.586,14.586,0,0,0-4.048-1.748c-1.748-.483-2.323,1.84-.943,2.162a8.49,8.49,0,0,1,3.4,1.7A1.218,1.218,0,0,0,327.037-9.936Z" transform="translate(53.273 128.623)" fill="#8ac4bb"/>
  </g>
</svg>
