<svg xmlns="http://www.w3.org/2000/svg" xmlns:xlink="http://www.w3.org/1999/xlink" width="458" height="527" viewBox="0 0 458 527">
  <defs>
    <filter id="長方形_8" x="0" y="0" width="458" height="527" filterUnits="userSpaceOnUse">
      <feOffset dx="3" dy="3" input="SourceAlpha"/>
      <feGaussianBlur stdDeviation="1.5" result="blur"/>
      <feFlood flood-opacity="0.275"/>
      <feComposite operator="in" in2="blur"/>
      <feComposite in="SourceGraphic"/>
    </filter>
  </defs>
  <g id="サポート" transform="translate(4.657 4.761)">
    <g transform="matrix(1, 0, 0, 1, -4.66, -4.76)" filter="url(#長方形_8)">
      <g id="長方形_8-2" data-name="長方形 8" transform="translate(4.5 4.5)" fill="rgba(227,220,33,0.19)" stroke="#f8f8c1" stroke-linecap="round" stroke-linejoin="round" stroke-width="3">
        <rect width="443" height="512" rx="20" stroke="none"/>
        <rect x="-1.5" y="-1.5" width="446" height="515" rx="21.5" fill="none"/>
      </g>
    </g>
    <path id="パス_44" data-name="パス 44" d="M10.714-1.452a1.051,1.051,0,0,0,.33-.77A1.2,1.2,0,0,0,9.878-3.366a1,1,0,0,0-.748.352A3.706,3.706,0,0,1,6.27-1.672,2.9,2.9,0,0,1,3.278-4.6c0-.242.044-.418.176-.418,4.268,0,4.73,0,5.412-.022a1.9,1.9,0,0,0,2.09-1.914c0-1.672-1.716-3.894-4.752-3.894A5.344,5.344,0,0,0,.99-5.17,5.211,5.211,0,0,0,6.248.374,5.54,5.54,0,0,0,10.714-1.452ZM8.228-6.842c-.594.022-1.584.022-2.486.022-2.046,0-2.266,0-2.266-.2a2.89,2.89,0,0,1,2.75-1.914c1.98,0,2.442,1.3,2.442,1.606A.465.465,0,0,1,8.228-6.842ZM18.37-8.536a.962.962,0,0,0,.968-1.034A.951.951,0,0,0,18.37-10.6H16.9c-.22,0-.308-.022-.308-.374,0,0,.044-.836.044-1.43a1.152,1.152,0,0,0-1.166-1.342,1,1,0,0,0-1.1.99v.066c.022.242.022.506.022.77,0,.506-.022.946-.022.946,0,.308-.022.374-.374.374h-.638a.962.962,0,0,0-.99,1.012,1,1,0,0,0,.99,1.056h.66c.22,0,.352.022.352.308v.33c0,.968-.044,3.168-.044,4.444,0,.9,0,3.784,3.256,3.784,1.144,0,1.87-.374,1.87-1.166A.942.942,0,0,0,18.5-1.8c-.066,0-.11.022-.176.022a4.3,4.3,0,0,1-.506.044c-1.232,0-1.3-.7-1.3-2.42,0-1.452.066-3.322.066-4.136,0-.132,0-.242.33-.242ZM30.954-2.178a1.248,1.248,0,0,0-1.232-1.166,1.109,1.109,0,0,0-.9.484,2.9,2.9,0,0,1-2.332,1.012c-3.036,0-3.256-2.926-3.256-3.41a3.224,3.224,0,0,1,3.212-3.454,2.547,2.547,0,0,1,2,.836,1.176,1.176,0,0,0,.924.484,1.184,1.184,0,0,0,1.166-1.144c0-.9-1.606-2.288-3.96-2.288A5.484,5.484,0,0,0,21.01-5.148,5.273,5.273,0,0,0,26.51.33C29.084.33,30.954-1.232,30.954-2.178Zm11.308.836A1.517,1.517,0,0,0,40.7-2.816a1.493,1.493,0,0,0-1.54,1.5A1.422,1.422,0,0,0,40.7.22,1.582,1.582,0,0,0,42.262-1.342Zm5.742,0a1.517,1.517,0,0,0-1.562-1.474,1.493,1.493,0,0,0-1.54,1.5A1.422,1.422,0,0,0,46.442.22,1.582,1.582,0,0,0,48-1.342Zm5.742,0a1.517,1.517,0,0,0-1.562-1.474,1.493,1.493,0,0,0-1.54,1.5A1.422,1.422,0,0,0,52.184.22,1.582,1.582,0,0,0,53.746-1.342Z" transform="translate(360.843 461.739)" fill="#fff"/>
    <path id="パス_43" data-name="パス 43" d="M13.332-8.36A2.319,2.319,0,0,0,11-10.692,2.319,2.319,0,0,0,8.668-8.36,2.319,2.319,0,0,0,11-6.028,2.319,2.319,0,0,0,13.332-8.36Zm20.812-8.756a1.018,1.018,0,0,0-1.122-.99,1.011,1.011,0,0,0-1.1.99V-15.4c-1.672,0-3.322.022-4.95.044a2.3,2.3,0,0,0-2.508,2.178c0,.352-.022.748-.022,1.122s.022.726.022,1.012a.99.99,0,0,0,1.056,1.012,1.025,1.025,0,0,0,1.1-.99v-1.32c.066-.814.242-1.166,1.408-1.188,1.32-.022,2.838-.044,4.378-.044,1.892,0,3.828.022,5.522.044,1.3.022,1.32.242,1.32,2.442v.044a.98.98,0,0,0,1.1.946,1.094,1.094,0,0,0,1.166-.99c.022-.22.022-.506.022-.792,0-.418,0-.858-.022-1.188a2.516,2.516,0,0,0-2.442-2.288c-1.628-.022-3.278-.044-4.928-.044ZM38.962-4.95A.942.942,0,0,0,39.974-5.9a.964.964,0,0,0-1.012-.99H34.144v-2.53h3.872a.919.919,0,0,0,.99-.924.923.923,0,0,0-.99-.946h-10.1a.912.912,0,0,0-.968.924.917.917,0,0,0,.968.946h4.07v7.5a5.666,5.666,0,0,1-2.442-3.432,10.594,10.594,0,0,0,.308-1.562A1.024,1.024,0,0,0,28.776-7.92a1,1,0,0,0-1.012.968c-.374,2.6-1.3,5.016-3.938,6.578a.917.917,0,0,0-.462.814A1.07,1.07,0,0,0,24.4,1.518c.726,0,2.948-1.584,4.29-4.4,1.8,3.3,5.148,4.092,8.734,4.092A37.212,37.212,0,0,0,41.25.99,1.063,1.063,0,0,0,42.306-.066a.976.976,0,0,0-.99-1.012H41.25c-1.386.088-2.882.22-4.334.22A14.133,14.133,0,0,1,34.144-1.1V-4.95ZM61.8-2.046c0,.99-.616,1.276-1.452,1.276a7.383,7.383,0,0,1-1.32-.154.609.609,0,0,0-.2-.022A.926.926,0,0,0,57.97.066c0,.88.616,1.188,2.288,1.188,2.794,0,3.63-1.628,3.63-2.926v-.044l-.044-3.1c0-.286-.022-.99-.022-7.788v-2.376C63.8-17.006,62.106-17.2,60.346-17.2c-1.958,0-3.784,0-3.784,2.222,0,1.562.044,2.838.044,4.4,0,.484.044,1.166.044,1.936,0,2.134-.286,5.016-2.354,7.128a1.286,1.286,0,0,0,.088-.418c0-.9-1.716-1.826-2.178-1.826a.966.966,0,0,0-.968.9.71.71,0,0,0,.352.616,4.094,4.094,0,0,1,1.188,1.122.666.666,0,0,0,.572.308.547.547,0,0,0,.176-.022,6.23,6.23,0,0,1-.616.44A.961.961,0,0,0,52.426.4,1.09,1.09,0,0,0,53.5,1.452a1.179,1.179,0,0,0,.66-.22,10.079,10.079,0,0,0,4.2-7.018H61.8ZM55-4.18a.812.812,0,0,0,.836-.858.8.8,0,0,0-.814-.858h-.946v-7.128h1.1a.831.831,0,0,0,.814-.9.838.838,0,0,0-.814-.924h-.022l-1.078.022v-1.98a.855.855,0,0,0-.924-.836.863.863,0,0,0-.946.836v1.98h-2.86v-1.98a.855.855,0,0,0-.924-.836.863.863,0,0,0-.946.836v1.98l-.946-.022h-.022a.877.877,0,0,0-.9.9.882.882,0,0,0,.9.924h.968V-5.9H46.134a.824.824,0,0,0-.88.858.836.836,0,0,0,.88.858ZM46.332.99c1.056,0,3.454-2.926,3.454-3.7a1.121,1.121,0,0,0-1.078-1.056.763.763,0,0,0-.682.4,7.476,7.476,0,0,1-2.4,2.574.957.957,0,0,0-.484.77A1.161,1.161,0,0,0,46.332.99ZM58.586-12.474c0-.77,0-1.518.022-2.2,0-.726.55-.726,1.694-.726,1.1,0,1.43.132,1.452.726.022.66.044,1.408.044,2.2ZM61.82-7.656H58.564c.022-.462.044-.9.044-1.32,0-.55-.022-1.056-.022-1.5V-10.6H61.82ZM52.206-11.7h-2.86v-1.342h2.86Zm0,2.838h-2.86V-10.12h2.86Zm0,2.992h-2.86V-7.282h2.86Zm26.026.44a10.276,10.276,0,0,1,1.782,1.672,1.036,1.036,0,0,0,1.562.176,1.255,1.255,0,0,0,.242-1.738,9.442,9.442,0,0,0-2.2-2,50.336,50.336,0,0,0,3.19-5.566c.7-1.408-1.54-2.6-2.31-.748a28.159,28.159,0,0,1-2.772,5.148,20.268,20.268,0,0,0-2.772-1.32c-1.54-.594-2.376,1.364-1.188,1.782a14.025,14.025,0,0,1,2.64,1.32A21.363,21.363,0,0,1,69.5-.88c-1.43.7-.33,2.728,1.188,1.914A24.231,24.231,0,0,0,78.232-5.434Zm28.82-5.852a1.2,1.2,0,1,0-2-1.3C102.828-8.272,98.384-3.718,93.962-2.6A1.259,1.259,0,1,0,94.71-.22C99.77-1.826,104.324-6.336,107.052-11.286ZM97.878-9.5a1.3,1.3,0,0,0-.286-1.826A13.953,13.953,0,0,0,93.72-13c-1.672-.462-2.222,1.76-.9,2.068a8.12,8.12,0,0,1,3.256,1.628A1.165,1.165,0,0,0,97.878-9.5Zm28.688-4.51a1,1,0,0,0-1.122-1.012c-2.882.066-5.808.154-8.58.132a1.037,1.037,0,1,0-.022,2.046c2.354,0,5.654-.088,8.69-.132A1,1,0,0,0,126.566-14.014ZM122.958-8.58c1.936-.022,3.74,0,4.95.044a1.079,1.079,0,0,0,1.21-.99.974.974,0,0,0-1.078-1.056c-3.586.022-10.516.066-13.64.11a1.117,1.117,0,0,0-1.254,1.078,1.007,1.007,0,0,0,1.144.99c1.54-.044,3.96-.132,6.4-.154a7.276,7.276,0,0,1-5.61,6.93c-1.54.418-1.188,2.772.968,2.024A9.8,9.8,0,0,0,122.958-8.58Zm21.8-.264c1.694,0,3.388.022,5.016.088a1.171,1.171,0,0,0,1.364-1.056c.022-.55-.374-1.1-1.276-1.122-1.65-.022-3.366-.022-5.126,0,0-1.034.022-2.09-.088-3.388s-2.354-1.5-2.288.154c.022.748.066,1.98.088,3.256-2.068.022-4.114.066-6.072.132a1.07,1.07,0,1,0,.066,2.112c1.98-.066,4-.154,6.028-.176a8.232,8.232,0,0,1-5.72,7.546c-1.43.528-.814,2.706,1.034,1.98A10.411,10.411,0,0,0,144.76-8.844Zm28.292-2.442a1.2,1.2,0,1,0-2-1.3c-2.222,4.312-6.666,8.866-11.088,9.988A1.259,1.259,0,1,0,160.71-.22C165.77-1.826,170.324-6.336,173.052-11.286ZM163.878-9.5a1.3,1.3,0,0,0-.286-1.826A13.953,13.953,0,0,0,159.72-13c-1.672-.462-2.222,1.76-.9,2.068a8.12,8.12,0,0,1,3.256,1.628A1.165,1.165,0,0,0,163.878-9.5ZM186.34-5.478a22.887,22.887,0,0,1,5.148,4.422c1.034,1.3,2.684-.418,1.8-1.65-1.012-1.408-3.806-3.256-5.632-4.356A35.205,35.205,0,0,0,190.1-10.8c.858-1.5-.264-2.75-2.244-2.75-2.222,0-5.456.044-7.062.11a1.068,1.068,0,0,0,0,2.134c1.936-.044,4.972-.154,6.358-.132.484,0,.572.352.374.726A17.886,17.886,0,0,1,178.31-2.53a1.135,1.135,0,1,0,.7,2.134A18.585,18.585,0,0,0,186.34-5.478ZM217.6,1.342a.589.589,0,0,0-.352-.55,10.283,10.283,0,0,1-5.434-9.174,9.877,9.877,0,0,1,5.412-8.954.62.62,0,0,0,.374-.55.6.6,0,0,0-.616-.594c-.7,0-6.292,3.168-6.292,10.1,0,6.974,5.632,10.186,6.424,10.186A.457.457,0,0,0,217.6,1.342Zm20.878-7.59a.872.872,0,0,0,.88-.9.882.882,0,0,0-.9-.924l-4.884.022V-9.064a.843.843,0,0,0-.264-.616c3.982,0,4.29-.748,4.29-3.41,0-.638-.022-1.254-.066-1.892a2.209,2.209,0,0,0-2.266-2.046c-.77-.022-1.782-.044-2.816-.044-.836,0-1.672.022-2.4.044-2.178.11-2.222,1.738-2.222,3.982,0,1.606,0,3.124,2.244,3.278.484.022,1.078.044,1.694.066a.9.9,0,0,0-.264.638v1.012l-4.444-.022a.929.929,0,0,0-.946.968.838.838,0,0,0,.924.858h.022l3.74-.088A16.9,16.9,0,0,1,225.9-1.562a.967.967,0,0,0-.506.792,1.089,1.089,0,0,0,1.1,1.012,1.282,1.282,0,0,0,.726-.264,18.344,18.344,0,0,0,4.378-4.6c-.044,1.3-.088,2.706-.088,4.378V.572a.957.957,0,0,0,1.012.968.982.982,0,0,0,1.056-.968V-.242c0-1.694-.044-3.124-.088-4.422,1.078,1.342,4.18,4.6,5.368,4.6A1.164,1.164,0,0,0,240-1.21a1,1,0,0,0-.528-.88,20.03,20.03,0,0,1-5.236-4.246l4.224.088ZM222.992.594V.638a.972.972,0,0,0,1.078.946,1.049,1.049,0,0,0,1.144-.99l.242-13.156a15.132,15.132,0,0,0,2.068-3.916,1.186,1.186,0,0,0-1.21-1.1,1.057,1.057,0,0,0-.99.7,19.992,19.992,0,0,1-5.258,7.546,1.071,1.071,0,0,0-.374.792,1.01,1.01,0,0,0,1.034.99c.462,0,1.078-.286,2.574-2.09ZM235.466-12.5c0,1.012-.616,1.012-2.794,1.012-2.75,0-2.816-.044-2.816-1.518,0-1.606,0-2.178.924-2.2.506-.022,1.166-.044,1.848-.044,2.486,0,2.75.022,2.816.88C235.466-14.168,235.466-14.036,235.466-12.5ZM253.088-17.2a1.041,1.041,0,0,0-1.144-1.012A1.041,1.041,0,0,0,250.8-17.2v1.65c-1.672,0-3.344.022-4.994.044a2.29,2.29,0,0,0-2.53,2.112c0,.352-.022.726-.022,1.078s.022.7.022.99a1.009,1.009,0,0,0,1.1.99,1,1,0,0,0,1.1-.946V-12.54c.066-.814.242-1.122,1.452-1.144,1.342-.022,2.86-.044,4.4-.044,1.892,0,3.828.022,5.566.044,1.364.044,1.386.242,1.386,2.31v.044a.977.977,0,0,0,1.1.924c1.188,0,1.188-.946,1.188-1.738,0-.4,0-.814-.022-1.144A2.459,2.459,0,0,0,258.1-15.51c-1.672-.022-3.344-.044-5.016-.044ZM260.3-7.766a.9.9,0,0,0,.946-.946.929.929,0,0,0-.946-.968l-4.092.022v-1.848a1.033,1.033,0,0,0-1.1-1.034,1.058,1.058,0,0,0-1.144,1.034v1.848L243.606-9.68a.942.942,0,0,0-1.012.946.946.946,0,0,0,1.012.968l10.362-.022v5.566c0,1.1-.55,1.452-1.518,1.452a9.374,9.374,0,0,1-1.716-.22,1.071,1.071,0,0,0-.264-.022A1.022,1.022,0,0,0,249.436.044c0,.968.924,1.32,2.948,1.32,3.168,0,3.872-1.848,3.872-3.212v-.044l-.044-2.53V-7.766Zm-9.9,5.06a1.178,1.178,0,0,0,1.1-1.166c0-1.386-3.718-3.168-4.246-3.168A1.063,1.063,0,0,0,246.2-6.028a.85.85,0,0,0,.55.77,8.717,8.717,0,0,1,2.9,2.156A.949.949,0,0,0,250.4-2.706Zm30.712-10.758a.945.945,0,0,0,.99-.99.94.94,0,0,0-.99-.968l-6.424.022v-1.606a.988.988,0,0,0-1.1-.924.956.956,0,0,0-1.078.924l.044,5.544c-.99,0-1.914.022-2.64.044-1.76.044-2.42,1.078-2.464,2.068-.022.484-.022,1.012-.022,1.562,0,.418,0,.858.022,1.32.066,1.21.9,2.068,2.508,2.134,1.232.044,2.552.066,3.872.066,1.342,0,2.706-.022,3.982-.066A2.356,2.356,0,0,0,280.28-6.49c.022-.506.044-1.034.044-1.562s-.022-1.034-.044-1.474a2.27,2.27,0,0,0-2.354-1.892c-1.012-.022-2.156-.044-3.278-.044l.022-2.024ZM283.272.044c0-.99-2.4-3.388-3.5-3.388-.594,0-1.144.4-1.144.836a.716.716,0,0,0,.308.55A8.068,8.068,0,0,1,281.072.594a1.048,1.048,0,0,0,.968.616A1.216,1.216,0,0,0,283.272.044ZM278.014.22c0-.572-1.034-3.564-2.464-3.564-.506,0-.99.308-.99.748a.762.762,0,0,0,.154.44,7.3,7.3,0,0,1,1.1,2.662.981.981,0,0,0,.99.858A1.163,1.163,0,0,0,278.014.22Zm-4.708,0a6.3,6.3,0,0,0-.814-3.146,1.118,1.118,0,0,0-.924-.418c-.484,0-.946.242-.946.7a.863.863,0,0,0,.066.308,6.689,6.689,0,0,1,.44,2.42v.33a.929.929,0,0,0,.968.99A1.185,1.185,0,0,0,273.306.22Zm-7.392,1.3c1.54,0,3.366-2.86,3.366-3.938a1.01,1.01,0,0,0-1.078-.924.958.958,0,0,0-.99.748,4.81,4.81,0,0,1-1.87,2.222A1.169,1.169,0,0,0,264.7.55,1.12,1.12,0,0,0,265.914,1.518Zm11.264-7.7c-1.012.022-2.2.044-3.388.044-1.166,0-2.31-.022-3.256-.044-1.012-.044-1.034-.55-1.034-1.76,0-1.122.088-1.672,1.012-1.694,1.034-.022,2.4-.044,3.7-.044,1.078,0,2.112.022,2.926.044,1.012.022,1.034.506,1.034,1.8C278.168-6.556,278.014-6.226,277.178-6.182Zm14.3,6.82s-.088-5.368-.11-8.822a7.756,7.756,0,0,1,.77.99.71.71,0,0,0,.616.352.98.98,0,0,0,.88-.968c0-.792-1.628-1.958-2.046-1.958a.749.749,0,0,0-.22.022v-1.606l1.166.022a.926.926,0,0,0,.572-.154,1.176,1.176,0,0,0,1.078.77c.286,0,.594-.11,1.518-1.034a.76.76,0,0,0,.792.7h1.694l.022,1.386c-.814,0-1.584,0-2.222.022-1.32.022-1.958.726-2,1.584-.022.352-.022.748-.022,1.166,0,2.618.88,2.618,3.63,2.618a6.242,6.242,0,0,1-4.488,3.674.964.964,0,0,0-.792.946,1.057,1.057,0,0,0,1.012,1.1,8.057,8.057,0,0,0,5.9-4.664c1.474,2.486,4.356,4.466,5.544,4.466A1.051,1.051,0,0,0,305.844.176a1.069,1.069,0,0,0-.77-1.034,8.584,8.584,0,0,1-4.444-3.41c3.366,0,3.828-.264,3.828-2.75,0-2.64-.484-2.64-4.224-2.64v-1.386h1.65a.807.807,0,0,0,.836-.836.935.935,0,0,0-.044-.242c1.188,1.122,1.364,1.276,1.826,1.276a1.228,1.228,0,0,0,1.166-1.21,1.031,1.031,0,0,0-.462-.836,29.591,29.591,0,0,1-4.268-3.828,2.777,2.777,0,0,0-1.958-.924,2.133,2.133,0,0,0-1.8,1.012,18.233,18.233,0,0,1-3.674,4.18.944.944,0,0,0-.968-.814h-1.122c.022-2.024.066-3.828.066-3.828v-.022a.969.969,0,0,0-1.078-.924.98.98,0,0,0-1.078.924v.022l.066,3.828h-2a.916.916,0,0,0-.946.968.911.911,0,0,0,.924.968h.022l2.024-.044.022.308a19.406,19.406,0,0,1-3.454,5.456.971.971,0,0,0-.308.7,1.083,1.083,0,0,0,1.078,1.012c.352,0,.9,0,2.662-3.234L289.322.638V.66a.969.969,0,0,0,1.078.924A.98.98,0,0,0,291.478.66ZM296.6-12.716a30.756,30.756,0,0,0,2.112-2.728.417.417,0,0,1,.33-.2.575.575,0,0,1,.4.2c.726.792,1.672,1.8,2.64,2.75a.609.609,0,0,0-.2-.022Zm3.608,4.62c1.958,0,2.222,0,2.222,1.012,0,1.21-.022,1.21-2.4,1.21A10.347,10.347,0,0,0,300.168-7C300.168-7.128,300.212-7.546,300.212-8.1Zm-2,0a9.975,9.975,0,0,1-.154,2.222c-2.112,0-2.112-.176-2.112-1.1C295.944-8.1,296.054-8.1,298.21-8.1Zm10.472,9.9c.792,0,6.424-3.212,6.424-10.186,0-6.93-5.588-10.1-6.292-10.1a.6.6,0,0,0-.616.594.62.62,0,0,0,.374.55,9.877,9.877,0,0,1,5.412,8.954A10.283,10.283,0,0,1,308.55.792a.589.589,0,0,0-.352.55A.457.457,0,0,0,308.682,1.8ZM13.332,39.64A2.332,2.332,0,1,0,11,41.972,2.319,2.319,0,0,0,13.332,39.64ZM39.4,45.954c1.848-7.656,3.014-12.892,3.014-13.31A1.284,1.284,0,0,0,41.03,31.5a1.2,1.2,0,0,0-1.232.946c-2.486,12.628-2.618,12.628-2.926,12.628-.11,0-.22-.132-.286-.506-.462-2.552-1.562-8.888-2.046-11.4a2.1,2.1,0,0,0-2.134-1.628,1.988,1.988,0,0,0-2.024,1.716c-.572,2.926-1.76,9.592-2.178,11.418-.066.33-.22.572-.4.572-.308,0-.352-.132-2.552-12.782a1.25,1.25,0,0,0-1.32-.968,1.229,1.229,0,0,0-1.342,1.166c0,.4.308,2.068,2.662,13.2A2.592,2.592,0,0,0,27.7,48.2a2.743,2.743,0,0,0,2.53-2.354c.7-2.706,1.76-8.954,2.046-10.956.044-.242.11-.4.176-.4s.132.11.176.4c.242,1.848,1.386,8.646,1.958,10.978.4,1.606,1.386,2.332,2.376,2.332A2.66,2.66,0,0,0,39.4,45.954Zm9.24,2.376a5.338,5.338,0,0,0,5.522-5.566,5.533,5.533,0,1,0-5.522,5.566Zm0-2.068a3.284,3.284,0,0,1-3.322-3.5,3.319,3.319,0,1,1,6.622,0A3.267,3.267,0,0,1,48.642,46.262Zm9.482,1.98a1.039,1.039,0,0,0,1.122-1.122c-.044-1.562-.066-2.662-.066-3.52,0-.594,0-1.056.022-1.452a3.112,3.112,0,0,1,2.816-2.6,1.252,1.252,0,0,0,1.254-1.21,1.034,1.034,0,0,0-1.078-1.056,4.062,4.062,0,0,0-2.816,1.342.263.263,0,0,1-.088.088c-.022,0-.022-.022-.022-.066v-.088c0-.066.022-.132.022-.22a1.038,1.038,0,0,0-1.122-1.034,1.089,1.089,0,0,0-1.188.99v.044c.044,1.474.066,2.618.066,3.938,0,1.3-.022,2.75-.088,4.84v.044A1.086,1.086,0,0,0,58.124,48.242Zm18.018-1.276a1.2,1.2,0,0,0-.154-.594c-.638-1.232-.66-1.3-.66-9.46,0-1.848.022-3.41.066-4.158v-.11A1.1,1.1,0,0,0,74.25,31.5a1.08,1.08,0,0,0-1.122,1.144c.022.924.066,3.168.066,5.72,0,.066-.022.088-.066.088a.132.132,0,0,1-.088-.022,4.54,4.54,0,0,0-3.08-1.188,5.286,5.286,0,0,0-5.346,5.522,5.224,5.224,0,0,0,5.346,5.522,4.674,4.674,0,0,0,3.476-1.54c.044-.044.088-.088.11-.088.044,0,.066.044.088.132.308,1.21.726,1.386,1.232,1.386A1.263,1.263,0,0,0,76.142,46.966ZM70,46.24a3.187,3.187,0,0,1-3.168-3.476,3.186,3.186,0,1,1,6.336,0A3.187,3.187,0,0,1,70,46.24Zm11.726.726v-.858c0-1.452-.066-3.014-.066-4.378,0-.176.022-.242.132-.242a.429.429,0,0,1,.154.022,7.029,7.029,0,0,0,1.606.176,12.487,12.487,0,0,0,1.584-.11,5.194,5.194,0,0,0,4.774-5.236c0-2.376-1.606-4.73-5.082-4.95-.33-.022-.77-.044-1.232-.044-4.312,0-4.334,1.452-4.334,4.158,0,1.54.044,3.7.044,5.962,0,1.87-.022,3.806-.11,5.522v.066a1.17,1.17,0,0,0,1.254,1.122A1.191,1.191,0,0,0,81.73,46.966Zm2.882-13.288A2.52,2.52,0,0,1,87.45,36.23a3.058,3.058,0,0,1-2.684,3.08c-.462.044-.924.066-1.342.066-1.364,0-1.8-.154-1.8-.616v-.374c0-.77-.022-1.672-.022-2.442,0-2.046.2-2.288,1.958-2.288C84.084,33.656,84.612,33.678,84.612,33.678ZM93.9,48.242a1.039,1.039,0,0,0,1.122-1.122c-.044-1.562-.066-2.662-.066-3.52,0-.594,0-1.056.022-1.452a3.112,3.112,0,0,1,2.816-2.6,1.252,1.252,0,0,0,1.254-1.21,1.034,1.034,0,0,0-1.078-1.056,4.062,4.062,0,0,0-2.816,1.342.263.263,0,0,1-.088.088c-.022,0-.022-.022-.022-.066v-.088c0-.066.022-.132.022-.22a1.038,1.038,0,0,0-1.122-1.034,1.089,1.089,0,0,0-1.188.99v.044c.044,1.474.066,2.618.066,3.938,0,1.3-.022,2.75-.088,4.84v.044A1.086,1.086,0,0,0,93.9,48.242Zm16.236-1.694a1.051,1.051,0,0,0,.33-.77,1.2,1.2,0,0,0-1.166-1.144,1,1,0,0,0-.748.352,3.706,3.706,0,0,1-2.86,1.342A2.9,2.9,0,0,1,102.7,43.4c0-.242.044-.418.176-.418,4.268,0,4.73,0,5.412-.022a1.9,1.9,0,0,0,2.09-1.914c0-1.672-1.716-3.894-4.752-3.894a5.344,5.344,0,0,0-5.214,5.676,5.211,5.211,0,0,0,5.258,5.544A5.54,5.54,0,0,0,110.132,46.548Zm-2.486-5.39c-.594.022-1.584.022-2.486.022-2.046,0-2.266,0-2.266-.2a2.89,2.89,0,0,1,2.75-1.914c1.98,0,2.442,1.3,2.442,1.606A.465.465,0,0,1,107.646,41.158Zm11.99,3.96A3.506,3.506,0,0,0,117.48,42.1c-.66-.352-1.65-.792-2.222-1.078a1.133,1.133,0,0,1-.726-.968c0-.484.418-.9,1.166-.9a1.821,1.821,0,0,1,1.386.528,1.253,1.253,0,0,0,.9.44,1.118,1.118,0,0,0,1.1-1.1c0-.858-1.364-1.848-3.388-1.848a3.084,3.084,0,0,0-3.344,2.948,3,3,0,0,0,1.98,2.75c2.574,1.166,3.058,1.584,3.058,2.288,0,.506-.462,1.122-1.628,1.122a2.167,2.167,0,0,1-1.782-.77,1.076,1.076,0,0,0-.88-.462,1.114,1.114,0,0,0-1.122,1.056c0,.726,1.122,2.244,3.806,2.244A3.583,3.583,0,0,0,119.636,45.118Zm9.13,0A3.506,3.506,0,0,0,126.61,42.1c-.66-.352-1.65-.792-2.222-1.078a1.133,1.133,0,0,1-.726-.968c0-.484.418-.9,1.166-.9a1.821,1.821,0,0,1,1.386.528,1.253,1.253,0,0,0,.9.44,1.118,1.118,0,0,0,1.1-1.1c0-.858-1.364-1.848-3.388-1.848a3.084,3.084,0,0,0-3.344,2.948,3,3,0,0,0,1.98,2.75c2.574,1.166,3.058,1.584,3.058,2.288,0,.506-.462,1.122-1.628,1.122a2.167,2.167,0,0,1-1.782-.77,1.076,1.076,0,0,0-.88-.462,1.114,1.114,0,0,0-1.122,1.056c0,.726,1.122,2.244,3.806,2.244A3.583,3.583,0,0,0,128.766,45.118ZM148.214,33.04a.942.942,0,0,0,1.012-.946.93.93,0,0,0-1.012-.946H133.122a.968.968,0,0,0-1.056.946.957.957,0,0,0,1.056.946l6.49-.044v1.342c-1.342,0-2.552,0-3.41.022-1.826.044-2.464,1.034-2.508,1.936-.022.506-.044,1.232-.044,2,0,.748.022,1.518.044,2.112.066,1.1.88,1.87,2.486,1.98a.481.481,0,0,0-.22.2,5.241,5.241,0,0,1-1.98,1.848,1.013,1.013,0,0,0-.638.88,1,1,0,0,0,1.012.924c.132,0,.7-.022,2.222-1.54a11.773,11.773,0,0,0,1.056,1.034c-1.122.924-2.86,1.518-5.456,1.848-.7.088-1.012.506-1.012.946a1.059,1.059,0,0,0,1.144,1.012c.4,0,4.686-.462,7.018-2.6a17.671,17.671,0,0,0,9.064,2.288c.55,0,1.672,0,1.672-1.122a.941.941,0,0,0-.946-1.012,19.383,19.383,0,0,1-8.58-1.65,8.289,8.289,0,0,0,1.012-2.992c1.364-.022,2.684-.044,3.674-.088a2.352,2.352,0,0,0,2.508-2c.044-.506.066-1.188.066-1.914,0-.836-.022-1.694-.066-2.31a2.285,2.285,0,0,0-2.4-1.782c-.968-.022-2.244-.022-3.586-.022V33Zm-6.49,4.532V35.944c1.1,0,2.134,0,2.838.022.946.022,1.144.418,1.144,1.606Zm3.982,1.54c0,1.034,0,1.628-1.122,1.672-.748.022-1.782.044-2.882.044v-.462l.022-1.254Zm-6.072-1.54h-3.982c0-1.034,0-1.584,1.122-1.606.7-.022,1.738-.022,2.86-.022Zm0,1.54c0,.55-.022.99-.022,1.21,0,.176-.022.352-.022.506-3.674,0-3.828,0-3.916-.924-.022-.2-.022-.484-.022-.792Zm-.22,3.344a6.673,6.673,0,0,1-.616,1.87,6.863,6.863,0,0,1-1.122-1.144c0-.044.022-.066.022-.11a.807.807,0,0,0-.462-.638C137.874,42.456,138.622,42.456,139.414,42.456Zm28.27,6.116a1.028,1.028,0,0,0,2.046,0L169.708,38.5h2.09a.962.962,0,1,0,0-1.914l-6.292.044v-1.5a1.127,1.127,0,0,1,.968-1.232c.594-.176,3.058-.968,3.784-1.3a1.04,1.04,0,0,0,.7-.968,1.137,1.137,0,0,0-1.122-1.1,1.337,1.337,0,0,0-.55.132,40.493,40.493,0,0,1-3.806,1.54c-1.474.44-2.024,1.078-2.024,2.552v.264c.044,1.034.088,2.112.088,3.212,0,3.366-.4,6.864-2.486,9.328a.867.867,0,0,0-.242.594,1.1,1.1,0,0,0,1.144.968,1.3,1.3,0,0,0,1.056-.572c1.958-2.684,2.376-6.534,2.464-10.076h2.222Zm-6.006-14.784a.849.849,0,1,0,0-1.694h-2.486V30.84a1.016,1.016,0,0,0-2.024,0l.022,1.254h-2.64a.852.852,0,1,0,0,1.694Zm.506,4.994a.848.848,0,1,0,0-1.694H160.16a7.241,7.241,0,0,0,.968-2.156,1.061,1.061,0,0,0-1.078-.968.824.824,0,0,0-.814.682,15.506,15.506,0,0,1-.924,2.442h-1.034a.939.939,0,0,0,.4-.792c0-.374-.748-2.244-1.694-2.244a.9.9,0,0,0-.946.792.72.72,0,0,0,.176.462,4.924,4.924,0,0,1,.682,1.342,1.067,1.067,0,0,0,.264.44h-2.222a.848.848,0,1,0,0,1.694Zm-4.928,9.856a.93.93,0,0,0,1.848.022l-.044-4.114a8.16,8.16,0,0,1,1.628,1.21.857.857,0,0,0,.572.242,1.057,1.057,0,0,0,.968-1.056.925.925,0,0,0-.352-.726,7.3,7.3,0,0,0-2.4-1.188.815.815,0,0,0-.418.154l-.022-.814,2.75.066h.022a.789.789,0,0,0,.814-.836.826.826,0,0,0-.814-.88h-.022l-2.728.022.022-.968V39.75a.9.9,0,0,0-1.8,0v.022l.022.968-3.014-.022h-.022a.831.831,0,0,0-.9.858.855.855,0,0,0,.9.858h.022l2.86-.066a14.269,14.269,0,0,1-3.85,3.5.923.923,0,0,0-.528.792.974.974,0,0,0,.99.924c.77,0,2.464-1.672,3.52-2.97Zm-143.924,39A2.332,2.332,0,1,0,11,89.972,2.319,2.319,0,0,0,13.332,87.64Zm26.6-5.214c0,.506.484.77.99.77a.933.933,0,0,0,1.056-1.078c0-.4-.022-.836-.022-1.166-.022-1.276-.858-1.848-2.266-1.87-1.166-.022-2.6-.044-4.026-.044s-2.838.022-3.96.044c-2.244.022-2.266,1.166-2.266,2.442,0,.308,0,.638.022.924,0,.528.506.792.99.792s.968-.264.968-.77V81.436c0-.55.132-.7.99-.726.726-.022,2.046-.022,3.366-.022s2.662,0,3.388.022c.616,0,.77.2.77.726V82.4Zm1.3,10.67a.836.836,0,0,0,0-1.672l-4.73.022V90.412c.726,0,1.43,0,2.046-.022,2.134-.066,2.266-1.012,2.266-3.08,0-1.54-.066-2.75-2.134-2.838-.638-.022-1.408-.022-2.2-.022v-.858l2.508.022a.783.783,0,1,0,0-1.562l-2.508.022v-.44a.937.937,0,0,0-1.87,0v.44l-2.266-.022a.782.782,0,1,0,0,1.562l2.266-.022v.858c-3.5,0-4.224.022-4.224,2.86,0,3.08.528,3.1,4.2,3.1v1.034l-4.466-.022a.836.836,0,0,0,0,1.672l4.466-.022v1.034a.957.957,0,0,0,1.914,0V93.074Zm-13.442-9.79a1.285,1.285,0,0,0,1.188-1.232c0-1.122-2.75-2.816-3.41-2.816a1.126,1.126,0,0,0-1.122.99.769.769,0,0,0,.44.682,6.569,6.569,0,0,1,2.156,1.914A.869.869,0,0,0,27.786,83.306Zm-.11,11.352c2.068,2.134,3.872,2.706,8.646,2.706,2,0,4.026-.132,5.412-.264a1.078,1.078,0,0,0,1.1-1.078,1.028,1.028,0,0,0-1.056-1.056h-.11c-1.672.132-4.07.374-6.27.374-3.058,0-5.324-.462-6.71-2.222,0-1.408.044-2.926.044-4.2,0-1.408-.66-2.024-2.068-2.068-.726-.022-1.342-.022-2.134-.022a.942.942,0,0,0-.924.99c0,.924.792.946,1.21.946h.858c.748,0,1.012.066,1.012.638v.9c0,.836-.022,1.694-.044,2.684a10.529,10.529,0,0,1-2.948,2.288.943.943,0,0,0-.55.836,1.244,1.244,0,0,0,1.21,1.166C25.212,97.276,26.576,95.89,27.676,94.658Zm11.264-7.9H36.476v-.99c2.31,0,2.42,0,2.442.748Zm-.022,1.562c-.022.726-.484.726-2.42.726V87.992H38.94ZM34.584,86.76H32.23v-.154c.044-.836.33-.836,2.376-.836Zm0,2.288c-2.134,0-2.288-.022-2.354-.7v-.352h2.354Zm21.8-8.448c0-.572-1.3-2.662-2.288-2.662a1.049,1.049,0,0,0-1.1.88.68.68,0,0,0,.176.462,6.578,6.578,0,0,1,1.276,1.848.761.761,0,0,0,.748.528A1.192,1.192,0,0,0,56.386,80.6Zm-7.964,5.324V84.67c.066-.77.242-1.078,1.43-1.1,1.342-.022,2.9-.044,4.51-.044,1.958,0,3.982.022,5.72.044,1.32.022,1.364.22,1.364,2.288V85.9a.986.986,0,0,0,1.1.9c1.21,0,1.21-.924,1.21-1.694,0-.4,0-.814-.022-1.122a2.484,2.484,0,0,0-2.486-2.178c-.528,0-1.056-.022-1.584-.022.22-.264,1.584-1.892,1.584-2.53A1.187,1.187,0,0,0,60.016,78.2a1.008,1.008,0,0,0-.968.682,11.783,11.783,0,0,1-1.562,2.882c-1.98,0-4,0-5.962.022a1.192,1.192,0,0,0,.638-.99,3.969,3.969,0,0,0-2.508-2.376,1.074,1.074,0,0,0-1.122.924.76.76,0,0,0,.286.572,6.05,6.05,0,0,1,1.518,1.562.973.973,0,0,0,.286.308c-.616,0-1.232.022-1.848.022a2.283,2.283,0,0,0-2.552,2.068c0,.33-.022.7-.022,1.078,0,.352.022.682.022.968a1,1,0,0,0,1.078.968,1.024,1.024,0,0,0,1.122-.946Zm7.37,4.026c.88,0,1.738-.022,2.552-.044a1.941,1.941,0,0,0,2.09-1.672c.022-.33.044-.66.044-1.012s-.022-.682-.044-.99a1.876,1.876,0,0,0-2-1.452c-1.1-.022-2.354-.044-3.542-.044-1.21,0-2.376.022-3.3.044-1.5.044-2.046.814-2.09,1.606-.022.308-.022.66-.022,1.034,0,1.122.022,2.42,2.156,2.486.594.022,1.32.022,2.112.022-.088.374-.2.858-.33,1.3-1.1,0-2.156,0-3.124.022-1.54.022-2.134.88-2.156,1.672-.022.4-.022.858-.022,1.32,0,.33,0,.66.022.968.044.968.77,1.672,2.178,1.716,1.386.044,2.86.044,4.4.044,1.562,0,3.212,0,4.928-.044A1.981,1.981,0,0,0,61.8,95.186c.022-.418.044-.836.044-1.254s-.022-.814-.044-1.166a1.921,1.921,0,0,0-2.046-1.518c-1.43-.022-2.948-.022-4.422-.022A7.052,7.052,0,0,0,55.792,89.95Zm2.6-2.178c-.022.594-.154.638-3.5.638-3.234,0-3.366,0-3.41-.638,0-.154-.022-.286-.022-.418,0-.638.11-.99.9-1.012.858-.022,1.914-.022,2.948-.022,2.706,0,3.058,0,3.08.594a3.1,3.1,0,0,1,.022.44A2.805,2.805,0,0,1,58.388,87.772Zm-7.3,7.414c-.9-.044-.946-.242-.946-1.188,0-.792.044-1.21.924-1.21,1.21-.022,2.442-.044,3.74-.044,1.276,0,2.618.022,4,.044.88.022.946.242.946,1.188,0,.88-.132,1.21-.924,1.21-1.408.022-2.728.022-4,.022S52.316,95.208,51.084,95.186ZM78.056,83.658a5.706,5.706,0,0,1,2.728.88,4.748,4.748,0,0,1,1.21,6.732A6.816,6.816,0,0,1,77.9,93.734c-1.892.44-1.21,2.662.726,2.156A9.2,9.2,0,0,0,84,92.26a6.511,6.511,0,0,0-2.046-9.24,9.191,9.191,0,0,0-9.5.506c-2.948,2.046-4.422,6.138-3.036,8.866.968,1.892,2.816,2.75,4.51,1.188a17.328,17.328,0,0,0,4.444-8.91A1.1,1.1,0,0,0,78.056,83.658Zm-1.738.11a1.556,1.556,0,0,0-.2.682,13.218,13.218,0,0,1-3.41,7.326c-.55.484-1.122.154-1.452-.484-.924-1.694.176-4.62,2.222-6.2A7.29,7.29,0,0,1,76.318,83.768Zm31.2,7.172a.974.974,0,0,0,1.034-1.012,1.009,1.009,0,0,0-1.034-1.056l-6.094.044a21.251,21.251,0,0,0-.242-2.464l4.906.044a.974.974,0,0,0,1.034-1.012,1.009,1.009,0,0,0-1.034-1.056l-5.368.044a8.765,8.765,0,0,0-1.276-2.728,43.709,43.709,0,0,0,4.972-.77.9.9,0,0,0,.66-.924,1.047,1.047,0,0,0-1.012-1.122,1.7,1.7,0,0,0-.33.044,45.027,45.027,0,0,1-10.3,1.188c-.33,0-.66-.022-.968-.022h-.022a.976.976,0,0,0-1.056.99,1.035,1.035,0,0,0,1.1,1.034c1.144,0,2.75-.066,4.466-.2a5.721,5.721,0,0,1,1.5,2.508l-6.468-.044a1.069,1.069,0,0,0-1.078,1.1.967.967,0,0,0,1.078.968l6.974-.044a22.22,22.22,0,0,1,.264,2.464l-8.668-.044a1.069,1.069,0,0,0-1.078,1.1.967.967,0,0,0,1.078.968L99.22,90.9c-.132,2.09-.264,4.268-2.64,4.268a5.014,5.014,0,0,1-1.452-.242,1.22,1.22,0,0,0-.374-.066,1.02,1.02,0,0,0-.99,1.078c0,1.122,1.364,1.452,2.794,1.452a4.545,4.545,0,0,0,4.664-4.048,23.953,23.953,0,0,0,.22-2.442Zm18.7,5.544c0,.616.572.924,1.144.924s1.144-.308,1.144-.924V79.544a1.042,1.042,0,0,0-1.166-.968,1.013,1.013,0,0,0-1.122.968Zm-7.546-15.752c.7,0,.792.2.792,1.342,0,.99-.176,1.188-.792,1.188-.33,0-3.124-.066-3.454-.066h-.088c-1.694,0-2.244.638-2.948,4.312a3.621,3.621,0,0,0-.044.462c0,.88.528,1.5,1.98,1.5.506,0,2.794-.066,4.048-.066.99,0,1.518.022,1.518.792a7.21,7.21,0,0,1-.836,3.08,3.4,3.4,0,0,1-3.168,1.54,7.548,7.548,0,0,1-1.914-.264,2.591,2.591,0,0,0-.55-.088,1.112,1.112,0,0,0-1.188,1.1,1.151,1.151,0,0,0,.968,1.122,11.354,11.354,0,0,0,2.53.308c2.42,0,4.532-.9,5.522-3.014a10.959,10.959,0,0,0,.88-4.07c0-2.288-1.738-2.354-3.872-2.354-1.166,0-2.618.022-3.124.044-.2,0-.462-.066-.462-.4a10.491,10.491,0,0,1,.374-1.65c.11-.308.352-.462.836-.462.22,0,3.1.044,3.5.044,1.54,0,2.442-.7,2.486-2.046.022-.33.022-.7.022-1.1,0-2.09-.132-3.19-2.508-3.212-.77,0-3.146-.022-4.576-.022h-.858a.974.974,0,0,0-.99,1.012.929.929,0,0,0,.946.968Zm27.962,7A13.869,13.869,0,0,0,148.368,87c1.232-.616.286-2.64-1.254-1.76a11.527,11.527,0,0,1-1.65.7,18.245,18.245,0,0,1-.946-1.848,14.082,14.082,0,0,0,1.76-.682c1.166-.55.33-2.486-1.122-1.716a8.432,8.432,0,0,1-1.386.594,18.986,18.986,0,0,0-1.584-3.322c-.792-1.078-3.124-.242-1.892,1.144a11.357,11.357,0,0,1,1.584,2.662,12.2,12.2,0,0,1-2.728.132c-1.76-.132-1.32,2,.11,2a17.279,17.279,0,0,0,3.5-.352c.352.682.7,1.32,1.034,1.892a10.716,10.716,0,0,1-3.784.308c-1.87-.242-1.672,2-.154,2.112a15.867,15.867,0,0,0,5.06-.594c.154.242.33.44.484.66,1.276,1.716.924,2.046-.264,1.892-1.452-.176-4.158-.352-5.786.484-2.464,1.254-1.848,4.334.748,5.434a9.07,9.07,0,0,0,4.356.748c1.98-.176,1.848-2.618-.11-2.244a6.074,6.074,0,0,1-3.564-.33c-1.012-.418-1.474-1.584-.33-2.134,1.54-.748,4.664-.308,5.83.374.99.572,2.046.374,2.266-.77.242-1.254-.638-3.014-1.43-4.026C146.96,88.146,146.784,87.948,146.63,87.728Zm27.434-4.6a2.321,2.321,0,1,0-4.642,0,2.321,2.321,0,0,0,4.642,0Zm-.66,8.382c-.528-2.024-2.992-4.862-4.906-6.556-1.32-1.166-2.794.418-1.738,1.32a16.489,16.489,0,0,1,4.246,6.116C171.534,94.108,173.844,93.206,173.4,91.512Zm-15.95,1.936a16.8,16.8,0,0,0,5.5-6.974,1.2,1.2,0,1,0-2.222-.88,12.341,12.341,0,0,1-4.664,5.874A1.215,1.215,0,1,0,157.454,93.448ZM172.876,83.13a1.146,1.146,0,0,1-1.144,1.122,1.122,1.122,0,0,1,0-2.244A1.146,1.146,0,0,1,172.876,83.13Zm22.176,1.584a1.2,1.2,0,1,0-2-1.3c-2.222,4.312-6.666,8.866-11.088,9.988a1.259,1.259,0,1,0,.748,2.376C187.77,94.174,192.324,89.664,195.052,84.714ZM185.878,86.5a1.3,1.3,0,0,0-.286-1.826A13.953,13.953,0,0,0,181.72,83c-1.672-.462-2.222,1.76-.9,2.068a8.12,8.12,0,0,1,3.256,1.628A1.165,1.165,0,0,0,185.878,86.5Zm19.228,9.834c6.16-2.354,8.844-6.622,10.384-11.022.638-1.8-.616-3.146-2.4-3.168-2.794-.044-6.908-.022-9.812.11a1.09,1.09,0,1,0,.044,2.178c3.168-.11,6.644-.242,8.8-.176.814.022.88.572.7,1.166a13.613,13.613,0,0,1-8.734,8.778C202.422,94.724,203.236,97.034,205.106,96.33ZM239.36,86.078a1.2,1.2,0,1,0-2.024-1.276,22.317,22.317,0,0,1-7.942,7.26c-.528.286-1.1.066-1.078-.55.066-1.672.132-6.6.088-8.162a1.156,1.156,0,1,0-2.31.044c.066,1.474.022,6.82-.044,9.328-.066,2.332,1.892,2.772,3.366,2.046A29.842,29.842,0,0,0,239.36,86.078Zm14.63,2.552a9.429,9.429,0,0,0-1.32-2.178c-.9-1.078-2.376.132-1.584,1.012a5.824,5.824,0,0,1,1.034,1.848A1,1,0,1,0,253.99,88.63ZM250.25,96.9a14.346,14.346,0,0,0,8.03-9.482,1.073,1.073,0,1,0-2.068-.572,11.778,11.778,0,0,1-6.93,8.316.976.976,0,0,0-.55,1.32A1.055,1.055,0,0,0,250.25,96.9Zm.7-7.348a8.3,8.3,0,0,0-1.628-1.958c-1.034-.924-2.31.462-1.408,1.232a5.757,5.757,0,0,1,1.254,1.694A1.015,1.015,0,1,0,250.954,89.554Zm23.518-1.8a13.637,13.637,0,0,1,4.29,1.782c1.254.924,2.508-.99,1.364-1.958-1.188-1.012-4.048-1.716-5.28-1.914a2.262,2.262,0,0,0-.374-.022c.022-2.156.044-4.07.066-5.148a1.144,1.144,0,0,0-2.288-.022c.088,3.168.022,11.792-.132,15.356a1.2,1.2,0,1,0,2.376-.088C274.45,93.954,274.45,90.786,274.472,87.75Zm30.646,4.906a.9.9,0,0,0,.946-.946.929.929,0,0,0-.946-.968h-4.752V88.3H304.9a.9.9,0,0,0,.946-.946.929.929,0,0,0-.946-.968h-4.532V84.01h5.544a.9.9,0,0,0,.946-.946.929.929,0,0,0-.946-.968h-7.59a17.507,17.507,0,0,0,.924-2.75,1.081,1.081,0,0,0-1.144-.99,1,1,0,0,0-1.012.814,19.21,19.21,0,0,1-3.718,7.458,1.123,1.123,0,0,0-.286.7.981.981,0,0,0,.99.968,1.316,1.316,0,0,0,.99-.572,24.557,24.557,0,0,0,2.376-3.718h.814V96.462a1.056,1.056,0,1,0,2.112,0V92.656Zm-14.63,3.96a.986.986,0,0,0,1.056.99,1,1,0,0,0,1.056-1.012l.264-13.6a14.481,14.481,0,0,0,1.76-3.52,1.184,1.184,0,0,0-1.21-1.078.944.944,0,0,0-.946.66,20.256,20.256,0,0,1-5.3,7.766,1.1,1.1,0,0,0-.4.792,1.024,1.024,0,0,0,1.034.99c.506,0,1.166-.33,2.9-2.53l-.22,10.516ZM325.05,81.3a1.008,1.008,0,0,0,.946-.99,1.057,1.057,0,0,0-.418-.792,7.269,7.269,0,0,0-2.728-1.3.846.846,0,0,0-.88.836.826.826,0,0,0,.528.77,7.882,7.882,0,0,1,1.87,1.188A1.027,1.027,0,0,0,325.05,81.3Zm2.024,2.244a.889.889,0,0,0,.836-.99.915.915,0,0,0-.88-1.012c-1.76,0-3.63-.022-5.544-.022-.044-.9-.044-1.76-.066-2.6a.991.991,0,0,0-1.078-.99,1.031,1.031,0,0,0-1.144.924c0,.11.066,1.98.11,2.662-2.068,0-4.136.022-6.072.022a1.975,1.975,0,0,0-2.222,2.068v.044c.022,1.034.066,2.178.066,3.344,0,2.9-.286,6.05-1.914,8.58a1.234,1.234,0,0,0-.22.66,1,1,0,0,0,1.078.924,1.463,1.463,0,0,0,1.21-.726c1.694-2.75,1.958-5.9,2-8.8.484-.022.968-.022,1.43-.022,1.892,0,1.892.022,1.892,1.408,0,2.046-.462,2.6-1.65,2.6a4.339,4.339,0,0,1-.77-.088.9.9,0,0,0-.242-.022c-.528,0-.814.506-.814,1.034,0,.99.638,1.188,1.716,1.188a3.539,3.539,0,0,0,3.586-2.42,9.385,9.385,0,0,0,.22-2.376c0-.55-.022-1.034-.044-1.3a2.06,2.06,0,0,0-2.134-1.87c-.418-.022-.968-.022-1.518-.022-.572,0-1.144,0-1.672.022V84.45a.843.843,0,0,1,.9-.9c1.716,0,3.52-.022,5.346-.022a33.307,33.307,0,0,0,1.65,8.206,11.008,11.008,0,0,1-5.456,3.74,1.074,1.074,0,0,0-.836,1.034,1.046,1.046,0,0,0,1.078,1.056c.2,0,3.08-.55,6.116-3.762,1.54,3.08,2.992,3.388,3.652,3.388,2.2,0,3.212-3.322,3.212-3.7a1.179,1.179,0,0,0-1.188-1.078.929.929,0,0,0-.9.7c-.418,1.188-.726,1.716-1.1,1.716-.088,0-.9-.176-2.2-2.794,1.276-1.782,2.97-5.214,2.97-5.918A1.25,1.25,0,0,0,325.2,85a.861.861,0,0,0-.858.594,22.958,22.958,0,0,1-1.76,4.026,29.822,29.822,0,0,1-.99-6.116c1.826,0,3.652.022,5.456.044Z" transform="translate(55.843 311.739)" fill="#fff"/>
    <path id="パス_42" data-name="パス 42" d="M-101.068-2.75a1.156,1.156,0,0,0,.352-1.562A12.236,12.236,0,0,0-104.5-7.546c-1.254-.748-2.31.924-1.232,1.562a11.377,11.377,0,0,1,3.212,2.97A.962.962,0,0,0-101.068-2.75Zm-8.6-6.842c.022,2.31.022,4.84,0,6.4-.022,1.21-.99,1.056-1.892.77-1.342-.44-2.2,1.826-.242,2.178,3.146.55,4.2-.77,4.2-2.508,0-.616,0-.946-.022-1.65-.066-1.518-.088-3.432-.066-5.214,1.65,0,3.3,0,4.928.088a1.052,1.052,0,1,0,.088-2.068c-1.628-.022-3.3-.022-4.994,0,.022-1.144.044-2.156.066-2.838a1.059,1.059,0,1,0-2.112.088c.022.616.022,1.606.022,2.772-1.782.022-3.586.066-5.324.132a1.022,1.022,0,1,0,.044,2.024C-113.212-9.482-111.43-9.548-109.67-9.592Zm-5.676,7.436A13.7,13.7,0,0,0-112-6.072,1,1,0,1,0-113.7-7.128a10.985,10.985,0,0,1-2.926,3.146,1.062,1.062,0,0,0-.286,1.54A1.123,1.123,0,0,0-115.346-2.156Zm35.64-5.1a1.062,1.062,0,0,0,1.122-1.078,1.067,1.067,0,0,0-1.122-1.1H-93.522a1.122,1.122,0,0,0-1.166,1.122A1.059,1.059,0,0,0-93.522-7.26Zm17.16,4.95a11.344,11.344,0,0,1,.572,1.166,1.119,1.119,0,0,0,1.5.66,1.285,1.285,0,0,0,.7-1.606c-.7-1.98-2.992-4.224-4.048-5.17-1.232-1.1-2.662.44-1.65,1.32a12.545,12.545,0,0,1,1.672,1.8c-1.716.418-4.136.946-6.424,1.364A104.344,104.344,0,0,0-66.44-13a1.219,1.219,0,1,0-2.376-.462A71.4,71.4,0,0,1-72.754-2.332c-.374.066-.77.11-1.122.154-1.76.242-1.232,2.486.418,2.222C-70.048-.528-65.384-1.518-62.546-2.31Zm24.134-9.7a2.4,2.4,0,0,0-2.4-2.4,2.385,2.385,0,0,0-2.376,2.4A2.366,2.366,0,0,0-40.81-9.636,2.385,2.385,0,0,0-38.412-12.012Zm2.332,9.746A1.152,1.152,0,0,0-36.3-3.96c-2.332-1.518-6.622-4.752-8.382-6.05a3.906,3.906,0,0,0-4.994-.154,22.015,22.015,0,0,1-3.41,2.09,1.208,1.208,0,1,0,.858,2.244,18.74,18.74,0,0,0,3.7-2.64,1.934,1.934,0,0,1,2.684.132c2.838,2.178,5.3,4.642,7.942,6.358A1.39,1.39,0,0,0-36.08-2.266Zm-3.564-9.746a1.174,1.174,0,0,1-1.166,1.166,1.174,1.174,0,0,1-1.166-1.166,1.174,1.174,0,0,1,1.166-1.166A1.174,1.174,0,0,1-39.644-12.012Zm23.3,4.752a1.062,1.062,0,0,0,1.122-1.078,1.067,1.067,0,0,0-1.122-1.1H-30.162a1.122,1.122,0,0,0-1.166,1.122A1.059,1.059,0,0,0-30.162-7.26ZM5.676-15.092c.748.836,1.98-.55,1.1-1.43a7.022,7.022,0,0,0-2.222-1.254c-1.034-.33-1.826,1.012-.7,1.452A8.064,8.064,0,0,1,5.676-15.092ZM3.652-13.134c.726.858,2-.484,1.144-1.408a6.805,6.805,0,0,0-2.178-1.32c-1.012-.374-1.892.946-.77,1.408A7.778,7.778,0,0,1,3.652-13.134Zm-4.818,2.728a1.184,1.184,0,0,0-.11-1.716A12.034,12.034,0,0,0-4.2-13.948c-1.5-.66-2.376,1.3-1.122,1.8a7.7,7.7,0,0,1,2.4,1.694A1.174,1.174,0,0,0-1.166-10.406Zm8.492-.616c.968-1.738-1.232-2.64-1.958-1.276C3.058-7.92-1.826-3.08-6.2-1.892A1.2,1.2,0,1,0-5.478.374C-.484-1.276,4.51-5.984,7.326-11.022ZM-3.784-6.908a1.189,1.189,0,0,0-.506-1.65A11.127,11.127,0,0,0-7.5-9.658c-1.606-.308-2.024,1.782-.7,2A7.715,7.715,0,0,1-5.478-6.534,1.139,1.139,0,0,0-3.784-6.908Zm24.992-7.81H21.3a1.217,1.217,0,0,1,1.254.682C24.574-9.79,27.83-6.842,29-6.842a1.33,1.33,0,0,0,1.3-1.3,1.239,1.239,0,0,0-.638-1.034,13.736,13.736,0,0,1-5.412-6.182,2.584,2.584,0,0,0-2.53-1.364h-.088l-3.542.088a.992.992,0,0,0-1.012,1.012.968.968,0,0,0,1.012,1.012h.044ZM25.784-.924A8.464,8.464,0,0,1,26.2.11a1.069,1.069,0,0,0,1.034.814,1.353,1.353,0,0,0,1.342-1.3c0-.572-.99-2.882-3.872-5.522a1.224,1.224,0,0,0-.836-.352,1.071,1.071,0,0,0-1.1.99.988.988,0,0,0,.33.7A17.363,17.363,0,0,1,24.772-2.64c-1.958.352-4.2.682-6.4.9a40.659,40.659,0,0,0,2.684-6.974,1.229,1.229,0,0,0-1.32-1.078,1.042,1.042,0,0,0-1.1.814A38.471,38.471,0,0,1,15.928-1.54c-.748.044-1.474.11-2.178.132a1.045,1.045,0,0,0-1.034,1.1A1.073,1.073,0,0,0,13.794.814,84.022,84.022,0,0,0,25.784-.924ZM12.408-6.138c1.782,0,5.9-5.3,5.9-6.446a1.161,1.161,0,0,0-1.166-1.1,1.1,1.1,0,0,0-1.012.66,11.745,11.745,0,0,1-4.29,4.862,1.13,1.13,0,0,0-.594.946A1.13,1.13,0,0,0,12.408-6.138ZM49.566-10.3v.9c0,1.386.022,3.058.022,4.642,0,1.034-.022,2.046-.044,2.926C49.522-.748,49.016-.484,48.29-.484A8.5,8.5,0,0,1,47.1-.616c-.066,0-.11-.022-.176-.022a.92.92,0,0,0-.9.968c0,1.012.88,1.21,2.376,1.21,2.486,0,3.256-1.386,3.256-2.97,0-.77-.022-1.694-.022-2.75,0-2.816-.044-6.424-.044-9.724v-1.628c0-.968-.66-1.8-2.31-1.892-.374-.022-.99-.022-1.65-.022-.9,0-1.848,0-2.266.022a1.872,1.872,0,0,0-1.98,1.694c-.022.748-.044,1.518-.044,2.266,0,.462,0,.924.022,1.342.066,1.848,1.8,1.87,4.576,1.87C48.576-10.252,49.17-10.274,49.566-10.3ZM47.278-4.048a.826.826,0,0,0,.9-.836.826.826,0,0,0-.9-.836h-1.76V-7.7H46.64a.826.826,0,0,0,.9-.836.826.826,0,0,0-.9-.836H38.412a.9.9,0,0,0-.968.858c0,.418.308.814.968.814h1.342c.022.506.044,1.056.044,1.628v.352H38.016a.9.9,0,0,0-.968.858c0,.418.308.814.968.814h1.716c-.154,1.5-.682,2.706-2.42,3.08a.8.8,0,0,0-.638.814.883.883,0,0,0,.924.9,1.5,1.5,0,0,0,.418-.066c2.486-.748,3.366-2.376,3.608-4.73h1.958V-.462a.911.911,0,0,0,.968.924.911.911,0,0,0,.968-.924V-4.048ZM35.9-10.3c.4.022.946.044,1.54.044,4.444,0,4.466-.506,4.466-3.212,0-.748-.022-1.518-.044-2.266a1.915,1.915,0,0,0-2.024-1.694c-.418-.022-1.32-.022-2.2-.022-2.442,0-3.784.066-3.784,2.09-.044,4.642,0,11.924-.154,15.994V.682a.968.968,0,0,0,1.034.924A1,1,0,0,0,35.816.638c.066-3.146.088-6.468.088-8.932ZM45.3-14.542c0-.22.022-.44.022-.638.044-.66.286-.682,2.112-.682,2,0,2.09.022,2.09,1.32Zm4.268,2.706c-.308.022-1.056.022-1.782.022-1.958,0-2.442,0-2.464-.682,0-.2-.022-.418-.022-.638h4.268ZM35.9-14.542c0-.176.022-.33.022-.484.044-.792.2-.836,2.024-.836,1.694,0,1.936.022,1.98.66,0,.2.022.418.022.66Zm4.048,1.408c0,.22-.022.44-.022.638-.022.594-.176.682-2.354.682-.682,0-1.342,0-1.672-.022v-1.3Zm3.63,7.414H41.69V-7.7h1.892ZM67.056-7.5a.951.951,0,0,0,.176-.55.883.883,0,0,0-.066-.33c1.716-.2,3.366-.462,4.818-.748.2.264.374.55.55.836a.965.965,0,0,0,.858.528,1.09,1.09,0,0,0,1.056-1.078c0-1.012-2.662-3.52-3.542-3.52a.927.927,0,0,0-.968.814.864.864,0,0,0,.352.638c.154.132.33.264.484.418-1.254.176-2.574.352-3.938.462.7-.572,4.422-3.828,4.422-4.906a1.078,1.078,0,0,0-1.144-.946.978.978,0,0,0-.836.44,23.142,23.142,0,0,1-2.4,3.014,12.412,12.412,0,0,0-1.386-1.21,9.066,9.066,0,0,0,2.486-3.366,1.2,1.2,0,0,0-1.21-1.012.779.779,0,0,0-.748.462,11.2,11.2,0,0,1-2,2.97,2.579,2.579,0,0,0-1.012-.374.93.93,0,0,0-.946.9.876.876,0,0,0,.528.792,11.021,11.021,0,0,1,2.926,2.178c-.506.462-1.012.836-1.5,1.21l-.044.022c-.726.022-1.452.044-2.178.044a.831.831,0,0,0-.814.9.863.863,0,0,0,.836.946c.99,0,2.662-.154,3.41-.22a13.188,13.188,0,0,1-4.576,5.1.787.787,0,0,0-.4.682,1.019,1.019,0,0,0,1.012.99c.836,0,2.772-1.848,3.784-3.146a10.028,10.028,0,0,0,1.43,2.178,10.169,10.169,0,0,1-4.4,2.046.9.9,0,0,0-.792.88,1.006,1.006,0,0,0,1.056,1.012A11.645,11.645,0,0,0,67.914-.99a10.225,10.225,0,0,0,5.28,2.266A1.125,1.125,0,0,0,74.36.132a.9.9,0,0,0-.814-.946,9.871,9.871,0,0,1-4.268-1.474c1.034-1.144,2.134-2.838,2.134-3.718a1.451,1.451,0,0,0-1.65-1.408c-.374,0-1.826.044-2.816.066ZM61.314-16.28a1.179,1.179,0,0,0,.22-.66,1.113,1.113,0,0,0-1.1-1.078,1.027,1.027,0,0,0-.88.55A12.081,12.081,0,0,1,55.33-13.2a1.269,1.269,0,0,0-.726,1.034,1.035,1.035,0,0,0,1.1.99C56.8-11.176,59.532-13.706,61.314-16.28ZM57.332.594V.638a.94.94,0,0,0,1.012.946,1.023,1.023,0,0,0,1.1-.99l.242-9.922A26.268,26.268,0,0,0,61.82-11.99a1.065,1.065,0,0,0,.2-.594,1.21,1.21,0,0,0-1.144-1.122.978.978,0,0,0-.836.506,15.344,15.344,0,0,1-5.126,5.28,1,1,0,0,0-.528.88,1.094,1.094,0,0,0,1.056,1.1c.33,0,.66-.154,2.156-1.364Zm10.45-4.18a8.957,8.957,0,0,1-1.474-2.2c.99,0,2.222-.044,2.376-.044h.066c.154,0,.33.044.33.242A6.072,6.072,0,0,1,67.782-3.586ZM85.624-4.972a7.92,7.92,0,0,0,1.958-.352,1.051,1.051,0,1,0-.7-1.98,7.5,7.5,0,0,1-1.056.2c.088-.924.2-1.87.33-2.86a6.836,6.836,0,0,0,1.342-.22,1.033,1.033,0,1,0-.506-2,4.053,4.053,0,0,1-.55.11c.022-.264.066-.528.088-.792a27.709,27.709,0,0,0,.374-3.168c0-1.3-2.09-1.65-2.2-.11-.066,1.034-.11,1.87-.242,3.256-.022.264-.066.55-.088.814a6.218,6.218,0,0,1-1.584-.418c-1.166-.484-2.134,1.54-.462,2.112a10.023,10.023,0,0,0,1.826.374c-.11.99-.22,1.958-.308,2.926a7.709,7.709,0,0,1-1.694-.33c-1.254-.418-1.936,1.672-.154,2.156a11.989,11.989,0,0,0,1.694.264c-.044.682-.044,1.342-.022,1.958.176,5.874,7.194,5.148,8.778.968.836-2.222.22-4.312-1.5-6.292-.968-1.122-2.86.044-1.716,1.3C90.464-5.72,91.08-4.268,90.31-2.618,89.166-.176,85.734-.044,85.6-3.19A16.3,16.3,0,0,1,85.624-4.972Zm17.358,6.6A1.216,1.216,0,0,0,104.17.418c0-1.5-3.52-3.432-4.29-3.432a.979.979,0,0,0-1.034.968.99.99,0,0,0,.594.88,8.4,8.4,0,0,1,2.706,2.31A1,1,0,0,0,102.982,1.628ZM-86.394,23.884a1.03,1.03,0,0,0-1.122-.99,1.037,1.037,0,0,0-1.144.99V25.49c-1.672,0-3.322.022-4.972.044a2.309,2.309,0,0,0-2.53,2.178c0,.352-.022.682-.022.99,0,.286.022.572.022.858a1.031,1.031,0,0,0,1.1,1.034,1.025,1.025,0,0,0,1.1-.99V28.548c.066-.814.22-1.166,1.408-1.188,1.32-.022,2.838-.044,4.378-.044,1.892,0,3.828.022,5.544.044,1.3.022,1.342.308,1.342,2.222v.044a.991.991,0,0,0,1.1.946c1.166,0,1.21-.88,1.21-1.694,0-.352,0-.726-.022-1.056a2.521,2.521,0,0,0-2.464-2.288c-1.65-.022-3.3-.044-4.928-.044Zm7.018,9.262a.917.917,0,0,0,.968-.946.912.912,0,0,0-.968-.924h-9.086c.308-1.034.616-2.288.616-2.42a1,1,0,0,0-1.1-.9,1.058,1.058,0,0,0-1.1.814c-.176.836-.4,1.672-.638,2.508h-5.06a.894.894,0,0,0-.946.924.9.9,0,0,0,.946.946h4.466a31.977,31.977,0,0,1-1.76,4.2,1.235,1.235,0,0,0-.132.506c0,.528.484.836,1.034.836.924,0,1.188-.594,1.54-1.452a17.249,17.249,0,0,1,2.97.7c-1.76,1.76-4.488,2.442-7.788,2.442a1.015,1.015,0,0,0-1.144.968,1.125,1.125,0,0,0,1.232,1.1c2.354,0,7-.55,9.7-3.674a14.712,14.712,0,0,1,3.982,2.97,1.16,1.16,0,0,0,.836.374,1.228,1.228,0,0,0,1.21-1.166c0-1.056-2.772-2.838-4.928-3.784a11.691,11.691,0,0,0,1.254-4.026Zm-6.116,0a9.144,9.144,0,0,1-.99,3.256,19.192,19.192,0,0,0-3.454-.814c.308-.814.638-1.628.9-2.442Zm22.132-5.214a1.275,1.275,0,0,0,1.21-1.254,1.114,1.114,0,0,0-.462-.9,15.244,15.244,0,0,0-4.972-2.046A1.2,1.2,0,0,0-68.75,24.9a.8.8,0,0,0,.616.792,14.552,14.552,0,0,1,4.07,1.98A1.221,1.221,0,0,0-63.36,27.932Zm6.666,9.394a1.326,1.326,0,0,0,1.276-1.3c0-.99-2.046-2.992-4.576-4.642a1.312,1.312,0,0,0-.7-.22,1.1,1.1,0,0,0-1.122,1.012.989.989,0,0,0,.44.792,15.98,15.98,0,0,1,3.718,3.784A1.158,1.158,0,0,0-56.694,37.326Zm-3.036.44a1.184,1.184,0,0,0-1.254-1.276,1.026,1.026,0,0,0-1.078,1.122c0,2.4-1.254,2.552-3.08,2.552-1.408,0-2.178-.22-2.178-1.166.022-2.486.11-6.424.22-9.812v-.044a1.03,1.03,0,0,0-1.122-.99,1.038,1.038,0,0,0-1.122,1.034c-.066,3.388-.176,7.634-.176,10.12,0,2.618,1.98,2.9,4.246,2.9C-62.986,42.21-59.73,42.21-59.73,37.766Zm-13.706.55a14.215,14.215,0,0,0,2.706-5.61,1.133,1.133,0,0,0-1.188-1.078,1.058,1.058,0,0,0-1.056.814,11.142,11.142,0,0,1-2.442,4.422,1.313,1.313,0,0,0-.4.9,1.159,1.159,0,0,0,1.21,1.1A1.533,1.533,0,0,0-73.436,38.316ZM-42.5,28.658a5.706,5.706,0,0,1,2.728.88,4.748,4.748,0,0,1,1.21,6.732,6.816,6.816,0,0,1-4.092,2.464c-1.892.44-1.21,2.662.726,2.156a9.2,9.2,0,0,0,5.368-3.63,6.511,6.511,0,0,0-2.046-9.24,9.191,9.191,0,0,0-9.5.506c-2.948,2.046-4.422,6.138-3.036,8.866.968,1.892,2.816,2.75,4.51,1.188A17.328,17.328,0,0,0-42.2,29.67,1.1,1.1,0,0,0-42.5,28.658Zm-1.738.11a1.556,1.556,0,0,0-.2.682,13.218,13.218,0,0,1-3.41,7.326c-.55.484-1.122.154-1.452-.484-.924-1.694.176-4.62,2.222-6.2A7.29,7.29,0,0,1-44.242,28.768Zm26.686,2.64c1.43,0,2.816.022,4.18.066,1.54.044,2-2.156-.066-2.134-1.32,0-2.728.022-4.136.044,0-.99,0-1.958.022-2.838a1.118,1.118,0,1,0-2.2.022c.022.616.022,1.694.022,2.838l-3.542.066c-.022-1.078-.044-2.068-.088-2.794a1.092,1.092,0,1,0-2.178.088c.044.748.066,1.716.088,2.75-1.386.022-2.772.044-4.092.088a1.04,1.04,0,1,0,.132,2.046c1.232-.066,2.6-.11,3.982-.154,0,1.21-.022,2.354-.066,3.256a1.045,1.045,0,0,0,1.1,1.122,1.1,1.1,0,0,0,1.122-1.144c.022-.858.022-2.024.022-3.278,1.166-.022,2.332-.044,3.52-.044v.506a8.776,8.776,0,0,1-4.928,8.206c-1.364.748-.484,2.772,1.276,1.76a10.967,10.967,0,0,0,5.83-10.054ZM8.36,26.15a2.277,2.277,0,1,0-4.554,0,2.277,2.277,0,0,0,4.554,0ZM7.986,38.272a1.183,1.183,0,0,0,.352-1.584,12.236,12.236,0,0,0-3.784-3.234c-1.254-.748-2.31.924-1.232,1.562a11.464,11.464,0,0,1,3.212,2.992A.962.962,0,0,0,7.986,38.272Zm-8.6-6.842c.022,2.31.022,4.818,0,6.38-.022,1.21-.99,1.078-1.892.792-1.342-.44-2.2,1.826-.242,2.178,3.146.55,4.2-.77,4.2-2.508,0-.616,0-.968-.022-1.672-.066-1.518-.088-3.41-.066-5.192,1.65,0,3.3,0,4.928.088a1.052,1.052,0,1,0,.088-2.068c-1.628-.022-3.3-.044-4.994-.022.022-1.144.044-2.156.066-2.838a1.059,1.059,0,1,0-2.112.088c.022.616.022,1.606.022,2.772-1.782.022-3.586.088-5.324.154a1.022,1.022,0,1,0,.044,2.024C-4.158,31.54-2.376,31.474-.616,31.43Zm-5.676,7.414a13.7,13.7,0,0,0,3.344-3.916.993.993,0,1,0-1.694-1.034,10.912,10.912,0,0,1-2.926,3.124,1.087,1.087,0,0,0-.286,1.562A1.12,1.12,0,0,0-6.292,38.844ZM7.172,26.15a1.1,1.1,0,1,1-1.1-1.1A1.118,1.118,0,0,1,7.172,26.15Zm21.362,7.59a1.089,1.089,0,1,0,0-2.178H14.718a1.122,1.122,0,0,0-1.166,1.122,1.059,1.059,0,0,0,1.166,1.056Zm14.5-.99a13.637,13.637,0,0,1,4.29,1.782c1.254.924,2.508-.99,1.364-1.958-1.188-1.012-4.048-1.716-5.28-1.914a2.263,2.263,0,0,0-.374-.022c.022-2.156.044-4.07.066-5.148a1.144,1.144,0,0,0-2.288-.022c.088,3.168.022,11.792-.132,15.356a1.2,1.2,0,1,0,2.376-.088C43.01,38.954,43.01,35.786,43.032,32.75Zm27.984,5.06a.924.924,0,1,0,0-1.848H69.058V35.39l-.066-3.762a23.471,23.471,0,0,0,4.884,5.852,1.462,1.462,0,0,0,.88.352,1.1,1.1,0,0,0,1.078-1.1,1.076,1.076,0,0,0-.462-.88A21.182,21.182,0,0,1,69.608,29.6l4.4.066h.022a.9.9,0,0,0,.946-.946.934.934,0,0,0-.968-.968H69.1v-3.74a.985.985,0,0,0-1.078-.946.958.958,0,0,0-1.034.946v3.74H62.7a.976.976,0,0,0-1.012.99.9.9,0,0,0,.99.924H62.7l3.74-.066a19.944,19.944,0,0,1-5.346,6.842,1.255,1.255,0,0,0-.286.308l.176-8.514a17.081,17.081,0,0,0,1.892-3.982,1.205,1.205,0,0,0-1.232-1.078.986.986,0,0,0-.946.7,20.284,20.284,0,0,1-5.016,7.964,1.063,1.063,0,0,0-.374.77,1.006,1.006,0,0,0,1.034.968c.484,0,1.078-.33,2.486-2.156l-.22,10.164v.022a.968.968,0,0,0,1.034.99,1.009,1.009,0,0,0,1.078-1.012l.066-3.894a1.036,1.036,0,0,0,.88.484,1.1,1.1,0,0,0,.792-.33A21.022,21.022,0,0,0,67.1,31.606l-.066,3.806v.55H65.12a.953.953,0,0,0-.99.968.887.887,0,0,0,.99.88h1.914v3.806a1.022,1.022,0,0,0,2.024,0V37.81ZM96.14,36.644V24.588a1.058,1.058,0,0,0-2.112,0v3.454c0,4.026,0,10.076-.022,10.89-.022.924-.594,1.166-1.254,1.166a7.872,7.872,0,0,1-1.5-.242.9.9,0,0,0-.242-.022,1.019,1.019,0,0,0-.946,1.1c0,.946.77,1.254,2.552,1.254,2.684,0,3.564-1.54,3.564-2.86v-.044Zm-6.16.22a1.028,1.028,0,0,0,2.046,0V25.732a.98.98,0,0,0-1.034-.99.962.962,0,0,0-1.012.99Zm-7.5,4.444a1,1,0,1,0,2,0V34.686c1.364,0,1.892.044,1.892.836.022.638.022,2.112.022,2.112,0,.55-.242.682-.528.682a1.726,1.726,0,0,1-.308-.044.953.953,0,0,1-.11-.022c-.418,0-.638.44-.638.88,0,.7.374.968,1.408.968,1.54,0,2.046-.968,2.046-2.244v-.132c-.022-.748-.022-1.892-.022-2.53,0-1.364-.638-2.024-2.09-2.068-.506-.022-1.078-.022-1.672-.022v-1.54l3.63.022a.849.849,0,1,0,0-1.694H84.48V28.108h2.86a.85.85,0,1,0,0-1.694l-2.86.022V24.192a1,1,0,0,0-2,0v2.244l-1.1-.022a5.164,5.164,0,0,0,.352-1.188c0-.506-.528-.814-1.034-.814a.808.808,0,0,0-.836.572,8.411,8.411,0,0,1-1.54,3.19.775.775,0,0,0-.154.462.974.974,0,0,0,1.012.858c.594,0,.968-.484,1.452-1.386h1.848V29.89H78.914a.849.849,0,1,0,0,1.694l3.564-.022V33.1c-2.42,0-3.608,0-3.674,2.046,0,.594-.022,1.386-.022,2.178s.022,1.562.022,2.156a.958.958,0,0,0,1.914,0V39.46c-.022-.814-.022-1.936-.022-2.882V35.522c0-.77.33-.836,1.782-.836Z" transform="translate(221.843 200.739)" fill="#676767"/>
    <path id="パス_41" data-name="パス 41" d="M-86.384-42.987l-6.183,3.664a10.627,10.627,0,0,0-3.3-3.926,7.708,7.708,0,0,0-4.22-1.047,7.8,7.8,0,0,0-5.267,1.8,5.577,5.577,0,0,0-2.094,4.449q0,3.7,5.5,5.954l5.038,2.061q6.15,2.486,9,6.069a13.678,13.678,0,0,1,2.846,8.784A15.433,15.433,0,0,1-89.72-3.664,15.946,15.946,0,0,1-101.334.916,15.536,15.536,0,0,1-112.2-2.977q-4.22-3.893-5.267-10.959l7.721-1.7q.523,4.449,1.832,6.15a7.935,7.935,0,0,0,6.87,3.271A7.972,7.972,0,0,0-95.118-8.6a8.262,8.262,0,0,0,2.355-6.052,8.493,8.493,0,0,0-.409-2.7,6.848,6.848,0,0,0-1.276-2.257,10.2,10.2,0,0,0-2.241-1.93A21.589,21.589,0,0,0-99.96-23.26l-4.875-2.028q-10.371-4.384-10.371-12.824a12.167,12.167,0,0,1,4.351-9.52,15.72,15.72,0,0,1,10.829-3.86Q-91.291-51.493-86.384-42.987Zm16.456,11.123v18.288q0,7.917,6.249,7.917t6.249-7.917V-31.864h7.361v18.451A20.529,20.529,0,0,1-51.019-6.8a11.1,11.1,0,0,1-3.173,4.482A13.948,13.948,0,0,1-63.679.916a13.9,13.9,0,0,1-9.455-3.239A11.281,11.281,0,0,1-76.373-6.8a18.224,18.224,0,0,1-.916-6.608V-31.864Zm36.51,49.2h-7.361v-49.2h7.361V-28.4a13.62,13.62,0,0,1,9.88-4.351A13.776,13.776,0,0,1-12.71-27.906,17.484,17.484,0,0,1-8.391-15.769,17.215,17.215,0,0,1-12.677-3.828,13.793,13.793,0,0,1-23.407.916,13.714,13.714,0,0,1-33.418-3.566Zm17.5-33.075A11,11,0,0,0-18.4-23.195a8.036,8.036,0,0,0-6.347-2.912,8.41,8.41,0,0,0-6.576,2.813A10.666,10.666,0,0,0-33.844-15.9a10.9,10.9,0,0,0,2.519,7.394A8.267,8.267,0,0,0-24.781-5.66a7.978,7.978,0,0,0,6.314-2.879A10.453,10.453,0,0,0-15.916-15.736ZM6.756,17.339H-.605v-49.2H6.756V-28.4a13.62,13.62,0,0,1,9.88-4.351,13.776,13.776,0,0,1,10.829,4.842,17.484,17.484,0,0,1,4.318,12.137A17.215,17.215,0,0,1,27.5-3.828,13.793,13.793,0,0,1,16.766.916,13.714,13.714,0,0,1,6.756-3.566Zm17.5-33.075a11,11,0,0,0-2.486-7.459,8.036,8.036,0,0,0-6.347-2.912,8.41,8.41,0,0,0-6.576,2.813A10.666,10.666,0,0,0,6.33-15.9,10.9,10.9,0,0,0,8.849-8.506,8.267,8.267,0,0,0,15.392-5.66a7.978,7.978,0,0,0,6.314-2.879A10.453,10.453,0,0,0,24.258-15.736Zm13.806-.425A15.834,15.834,0,0,1,43-27.906a16.553,16.553,0,0,1,12.039-4.842,16.644,16.644,0,0,1,12.1,4.875A16.222,16.222,0,0,1,72.054-15.9a16.138,16.138,0,0,1-4.94,12.006A16.884,16.884,0,0,1,54.912.916,16.192,16.192,0,0,1,42.906-3.991,16.5,16.5,0,0,1,38.064-16.161Zm7.524.131A10.747,10.747,0,0,0,48.14-8.473a8.984,8.984,0,0,0,6.9,2.813,8.972,8.972,0,0,0,6.9-2.781,10.474,10.474,0,0,0,2.584-7.426,10.474,10.474,0,0,0-2.584-7.426,8.984,8.984,0,0,0-6.9-2.813,8.906,8.906,0,0,0-6.837,2.813A10.238,10.238,0,0,0,45.588-16.03ZM79.841-31.864H87.2v2.846a14.056,14.056,0,0,1,3.6-2.912,8.253,8.253,0,0,1,3.795-.818,11.889,11.889,0,0,1,6.085,1.9l-3.37,6.739a7.028,7.028,0,0,0-4.089-1.5q-6.02,0-6.02,9.095V0H79.841Zm35.07,6.87V0H107.55V-24.994h-3.141v-6.87h3.141V-43.543h7.361v11.679h5.725v6.87Z" transform="translate(221.342 70.481)" fill="none" stroke="#f5f2f2" stroke-width="2"/>
    <rect id="長方形_18" data-name="長方形 18" width="438" height="65" transform="translate(3.843 84.739)" fill="#f5f2f2"/>
    <path id="パス_38" data-name="パス 38" d="M15.686-10.028c1.495,0,2.944.023,4.37.069,1.61.046,2.093-2.254-.069-2.231-1.38,0-2.852.023-4.324.046,0-1.035,0-2.047.023-2.967a1.169,1.169,0,1,0-2.3.023c.023.644.023,1.771.023,2.967l-3.7.069c-.023-1.127-.046-2.162-.092-2.921a1.141,1.141,0,1,0-2.277.092c.046.782.069,1.794.092,2.875-1.449.023-2.9.046-4.278.092a1.087,1.087,0,1,0,.138,2.139C4.577-9.844,6-9.89,7.452-9.936c0,1.265-.023,2.461-.069,3.4a1.092,1.092,0,0,0,1.15,1.173,1.153,1.153,0,0,0,1.173-1.2c.023-.9.023-2.116.023-3.427,1.219-.023,2.438-.046,3.68-.046V-9.5A9.175,9.175,0,0,1,8.257-.92c-1.426.782-.506,2.9,1.334,1.84a11.466,11.466,0,0,0,6.1-10.511ZM32.407-8.579c-.023,2.691-.115,6.44-.138,8.28a1.217,1.217,0,1,0,2.415-.069c-.069-2.3-.023-8.326.046-10.672.989-1.15,1.978-2.392,3.013-3.772A1.2,1.2,0,1,0,35.7-16.031a30.554,30.554,0,0,1-11.224,10.4c-1.564.759-.368,3.105,1.748,1.817A33.625,33.625,0,0,0,32.407-8.579Zm22.7-.046a14.257,14.257,0,0,1,4.485,1.863C60.9-5.8,62.215-7.8,61.019-8.809c-1.242-1.058-4.232-1.794-5.52-2a2.365,2.365,0,0,0-.391-.023c.023-2.254.046-4.255.069-5.382a1.2,1.2,0,0,0-2.392-.023c.092,3.312.023,12.328-.138,16.054a1.251,1.251,0,1,0,2.484-.092C55.085-2.139,55.085-5.451,55.108-8.625Zm30.8-5.566c0,.529.506.8,1.035.8a.976.976,0,0,0,1.1-1.127c0-.414-.023-.874-.023-1.219-.023-1.334-.9-1.932-2.369-1.955-1.219-.023-2.714-.046-4.209-.046s-2.967.023-4.14.046c-2.346.023-2.369,1.219-2.369,2.553,0,.322,0,.667.023.966,0,.552.529.828,1.035.828S77-13.616,77-14.145v-1.081c0-.575.138-.736,1.035-.759.759-.023,2.139-.023,3.519-.023s2.783,0,3.542.023c.644,0,.805.207.805.759v1.012ZM87.262-3.036a.825.825,0,0,0,.851-.874.825.825,0,0,0-.851-.874l-4.945.023V-5.842c.759,0,1.5,0,2.139-.023,2.231-.069,2.369-1.058,2.369-3.22,0-1.61-.069-2.875-2.231-2.967-.667-.023-1.472-.023-2.3-.023v-.9l2.622.023a.817.817,0,0,0,.874-.8.821.821,0,0,0-.874-.828l-2.622.023v-.46a.91.91,0,0,0-.989-.92.9.9,0,0,0-.966.92v.46l-2.369-.023a.81.81,0,0,0-.851.805.815.815,0,0,0,.851.828l2.369-.023v.9c-3.657,0-4.416.023-4.416,2.99,0,3.22.552,3.243,4.393,3.243v1.081l-4.669-.023a.844.844,0,0,0-.874.874.844.844,0,0,0,.874.874l4.669-.023v1.081a.971.971,0,0,0,1.012.989.966.966,0,0,0,.989-.989V-3.059ZM73.209-13.271a1.343,1.343,0,0,0,1.242-1.288c0-1.173-2.875-2.944-3.565-2.944a1.177,1.177,0,0,0-1.173,1.035.8.8,0,0,0,.46.713,6.868,6.868,0,0,1,2.254,2A.908.908,0,0,0,73.209-13.271ZM73.094-1.4c2.162,2.231,4.048,2.829,9.039,2.829,2.093,0,4.209-.138,5.658-.276A1.127,1.127,0,0,0,88.941.023a1.074,1.074,0,0,0-1.1-1.1h-.115c-1.748.138-4.255.391-6.555.391-3.2,0-5.566-.483-7.015-2.323,0-1.472.046-3.059.046-4.393,0-1.472-.69-2.116-2.162-2.162-.759-.023-1.4-.023-2.231-.023a.985.985,0,0,0-.966,1.035c0,.966.828.989,1.265.989H71c.782,0,1.058.069,1.058.667v.943c0,.874-.023,1.771-.046,2.806A11.008,11.008,0,0,1,68.931-.759a.986.986,0,0,0-.575.874,1.3,1.3,0,0,0,1.265,1.219C70.518,1.334,71.944-.115,73.094-1.4ZM84.87-9.66H82.294v-1.035c2.415,0,2.53,0,2.553.782Zm-.023,1.633c-.023.759-.506.759-2.53.759v-1.1H84.87ZM80.316-9.66H77.855v-.161c.046-.874.345-.874,2.484-.874Zm0,2.392c-2.231,0-2.392-.023-2.461-.736v-.368h2.461ZM103.109-16.1c0-.6-1.357-2.783-2.392-2.783a1.1,1.1,0,0,0-1.15.92.711.711,0,0,0,.184.483,6.877,6.877,0,0,1,1.334,1.932.8.8,0,0,0,.782.552A1.246,1.246,0,0,0,103.109-16.1Zm-8.326,5.566v-1.311c.069-.805.253-1.127,1.495-1.15,1.4-.023,3.036-.046,4.715-.046,2.047,0,4.163.023,5.98.046,1.38.023,1.426.23,1.426,2.392v.046a1.031,1.031,0,0,0,1.15.943c1.265,0,1.265-.966,1.265-1.771,0-.414,0-.851-.023-1.173a2.6,2.6,0,0,0-2.6-2.277c-.552,0-1.1-.023-1.656-.023.23-.276,1.656-1.978,1.656-2.645a1.241,1.241,0,0,0-1.288-1.1,1.054,1.054,0,0,0-1.012.713,12.318,12.318,0,0,1-1.633,3.013c-2.07,0-4.186,0-6.233.023a1.246,1.246,0,0,0,.667-1.035c0-.667-1.725-2.484-2.622-2.484a1.123,1.123,0,0,0-1.173.966.8.8,0,0,0,.3.6,6.325,6.325,0,0,1,1.587,1.633,1.017,1.017,0,0,0,.3.322c-.644,0-1.288.023-1.932.023-1.771.023-2.622,1.081-2.668,2.162,0,.345-.023.736-.023,1.127,0,.368.023.713.023,1.012A1.044,1.044,0,0,0,93.61-9.522a1.071,1.071,0,0,0,1.173-.989Zm7.705,4.209c.92,0,1.817-.023,2.668-.046a2.029,2.029,0,0,0,2.185-1.748c.023-.345.046-.69.046-1.058s-.023-.713-.046-1.035a1.961,1.961,0,0,0-2.093-1.518c-1.15-.023-2.461-.046-3.7-.046-1.265,0-2.484.023-3.45.046-1.564.046-2.139.851-2.185,1.679-.023.322-.023.69-.023,1.081,0,1.173.023,2.53,2.254,2.6.621.023,1.38.023,2.208.023-.092.391-.207.9-.345,1.357-1.15,0-2.254,0-3.266.023-1.61.023-2.231.92-2.254,1.748-.023.414-.023.9-.023,1.38,0,.345,0,.69.023,1.012C94.53.184,95.289.92,96.761.966c1.449.046,2.99.046,4.6.046,1.633,0,3.358,0,5.152-.046a2.071,2.071,0,0,0,2.254-1.817c.023-.437.046-.874.046-1.311s-.023-.851-.046-1.219a2.009,2.009,0,0,0-2.139-1.587c-1.5-.023-3.082-.023-4.623-.023A7.373,7.373,0,0,0,102.488-6.325ZM105.2-8.6c-.023.621-.161.667-3.657.667-3.381,0-3.519,0-3.565-.667,0-.161-.023-.3-.023-.437,0-.667.115-1.035.943-1.058.9-.023,2-.023,3.082-.023,2.829,0,3.2,0,3.22.621a3.239,3.239,0,0,1,.023.46A2.932,2.932,0,0,1,105.2-8.6ZM97.566-.851c-.943-.046-.989-.253-.989-1.242,0-.828.046-1.265.966-1.265,1.265-.023,2.553-.046,3.91-.046,1.334,0,2.737.023,4.186.046.92.023.989.253.989,1.242,0,.92-.138,1.265-.966,1.265-1.472.023-2.852.023-4.186.023S98.854-.828,97.566-.851ZM123.556-5.2a8.28,8.28,0,0,0,2.047-.368,1.1,1.1,0,1,0-.736-2.07,7.838,7.838,0,0,1-1.1.207c.092-.966.207-1.955.345-2.99a7.147,7.147,0,0,0,1.4-.23,1.08,1.08,0,1,0-.529-2.093,4.238,4.238,0,0,1-.575.115c.023-.276.069-.552.092-.828a28.968,28.968,0,0,0,.391-3.312c0-1.357-2.185-1.725-2.3-.115-.069,1.081-.115,1.955-.253,3.4-.023.276-.069.575-.092.851a6.5,6.5,0,0,1-1.656-.437c-1.219-.506-2.231,1.61-.483,2.208a10.479,10.479,0,0,0,1.909.391c-.115,1.035-.23,2.047-.322,3.059a8.06,8.06,0,0,1-1.771-.345C118.611-8.188,117.9-6,119.761-5.5a12.534,12.534,0,0,0,1.771.276c-.046.713-.046,1.4-.023,2.047.184,6.141,7.521,5.382,9.177,1.012.874-2.323.23-4.508-1.564-6.578-1.012-1.173-2.99.046-1.794,1.357,1.288,1.4,1.932,2.921,1.127,4.646-1.2,2.553-4.784,2.691-4.922-.6A17.04,17.04,0,0,1,123.556-5.2Zm23.552-3.427a14.257,14.257,0,0,1,4.485,1.863c1.311.966,2.622-1.035,1.426-2.047-1.242-1.058-4.232-1.794-5.52-2a2.365,2.365,0,0,0-.391-.023c.023-2.254.046-4.255.069-5.382a1.2,1.2,0,0,0-2.392-.023c.092,3.312.023,12.328-.138,16.054a1.251,1.251,0,1,0,2.484-.092C147.085-2.139,147.085-5.451,147.108-8.625ZM177.951-7.59a1.11,1.11,0,0,0,1.173-1.127,1.115,1.115,0,0,0-1.173-1.15H163.507a1.173,1.173,0,0,0-1.219,1.173,1.108,1.108,0,0,0,1.219,1.1Zm17.871,2.3a13.107,13.107,0,0,1,1.38,1.242,1.1,1.1,0,0,0,1.633.069,1.246,1.246,0,0,0,.046-1.748,8.689,8.689,0,0,0-1.656-1.449c.9-1.311,1.748-2.737,2.6-4.278.9-1.633.483-3.289-1.886-3.22-1.1.046-2.369.161-3.5.253q.241-.345.414-.621c.805-1.334-1.564-2.76-2.369-.805A20.885,20.885,0,0,1,186.346-8.6c-1.564.966-.207,2.967,1.334,1.909a29.951,29.951,0,0,0,5.267-5.612c.782-.092,3.151-.322,4.071-.345.6-.023.69.092.253,1.035a22.6,22.6,0,0,1-1.932,3.289,15.221,15.221,0,0,0-2.9-1.2c-1.61-.46-2.208,1.495-.92,1.84a10.067,10.067,0,0,1,2.415,1.1,17.908,17.908,0,0,1-7.682,5.244c-1.748.575-.851,2.737.989,2.024A19.791,19.791,0,0,0,195.822-5.29ZM225.63-9.315a1.2,1.2,0,1,0-2.093-1.15,14.515,14.515,0,0,1-5.129,5.75c-.437.253-.713.207-.69-.3.023-.782.253-6.854.276-7.751a1.154,1.154,0,1,0-2.3,0c0,1.357-.161,6.831-.322,8.9-.161,1.978,1.472,2.576,2.967,1.84A18.23,18.23,0,0,0,225.63-9.315ZM207.552-.851a12.663,12.663,0,0,0,6.325-11.638,1.188,1.188,0,1,0-2.369.184c.207,4.393-1.84,7.935-5.244,9.453C204.516-2.07,205.781.138,207.552-.851Zm34.914-9.177c1.495,0,2.944.023,4.37.069,1.61.046,2.093-2.254-.069-2.231-1.38,0-2.852.023-4.324.046,0-1.035,0-2.047.023-2.967a1.169,1.169,0,1,0-2.3.023c.023.644.023,1.771.023,2.967l-3.7.069c-.023-1.127-.046-2.162-.092-2.921a1.141,1.141,0,1,0-2.277.092c.046.782.069,1.794.092,2.875-1.449.023-2.9.046-4.278.092a1.087,1.087,0,1,0,.138,2.139c1.288-.069,2.714-.115,4.163-.161,0,1.265-.023,2.461-.069,3.4a1.092,1.092,0,0,0,1.15,1.173,1.153,1.153,0,0,0,1.173-1.2c.023-.9.023-2.116.023-3.427,1.219-.023,2.438-.046,3.68-.046V-9.5A9.175,9.175,0,0,1,235.037-.92c-1.426.782-.506,2.9,1.334,1.84a11.466,11.466,0,0,0,6.1-10.511Zm27.094-5.5a2.4,2.4,0,0,0-2.392-2.392,2.385,2.385,0,0,0-2.369,2.392,2.366,2.366,0,0,0,2.369,2.369A2.385,2.385,0,0,0,269.56-15.525Zm-.391,12.673a1.237,1.237,0,0,0,.368-1.656,12.792,12.792,0,0,0-3.956-3.381c-1.311-.782-2.415.966-1.288,1.633a11.986,11.986,0,0,1,3.358,3.128A1,1,0,0,0,269.169-2.852Zm-8.993-7.153c.023,2.415.023,5.037,0,6.67-.023,1.265-1.035,1.127-1.978.828-1.4-.46-2.3,1.909-.253,2.277,3.289.575,4.393-.805,4.393-2.622,0-.644,0-1.012-.023-1.748-.069-1.587-.092-3.565-.069-5.428,1.725,0,3.45,0,5.152.092a1.1,1.1,0,1,0,.092-2.162c-1.7-.023-3.45-.046-5.221-.023.023-1.2.046-2.254.069-2.967A1.107,1.107,0,1,0,260.13-15c.023.644.023,1.679.023,2.9-1.863.023-3.749.092-5.566.161a1.069,1.069,0,1,0,.046,2.116C256.473-9.89,258.336-9.959,260.176-10.005Zm-5.934,7.751a14.324,14.324,0,0,0,3.5-4.094,1.038,1.038,0,1,0-1.771-1.081,11.408,11.408,0,0,1-3.059,3.266,1.136,1.136,0,0,0-.3,1.633A1.171,1.171,0,0,0,254.242-2.254Zm14.076-13.271a1.169,1.169,0,0,1-1.15,1.15,1.169,1.169,0,0,1-1.15-1.15,1.169,1.169,0,0,1,1.15-1.15A1.169,1.169,0,0,1,268.318-15.525ZM290.651-7.59a1.11,1.11,0,0,0,1.173-1.127,1.115,1.115,0,0,0-1.173-1.15H276.207a1.173,1.173,0,0,0-1.219,1.173,1.108,1.108,0,0,0,1.219,1.1Zm15.157-1.035a14.257,14.257,0,0,1,4.485,1.863c1.311.966,2.622-1.035,1.426-2.047-1.242-1.058-4.232-1.794-5.52-2a2.365,2.365,0,0,0-.391-.023c.023-2.254.046-4.255.069-5.382a1.2,1.2,0,0,0-2.392-.023c.092,3.312.023,12.328-.138,16.054a1.251,1.251,0,1,0,2.484-.092C305.785-2.139,305.785-5.451,305.808-8.625Z" transform="translate(63.843 125.739)" fill="#d9d395"/>
  </g>
</svg>
