<svg xmlns="http://www.w3.org/2000/svg" xmlns:xlink="http://www.w3.org/1999/xlink" width="407" height="695" viewBox="0 0 407 695">
  <defs>
    <filter id="枠" x="0" y="0" width="407" height="695" filterUnits="userSpaceOnUse">
      <feOffset dx="3" dy="3" input="SourceAlpha"/>
      <feGaussianBlur stdDeviation="1.5" result="blur"/>
      <feFlood flood-opacity="0.275"/>
      <feComposite operator="in" in2="blur"/>
      <feComposite in="SourceGraphic"/>
    </filter>
  </defs>
  <g id="ベーシック" transform="translate(4.826 3.187)">
    <path id="メインベース" d="M20,0H372a20,20,0,0,1,20,20V597a0,0,0,0,1,0,0H0a0,0,0,0,1,0,0V20A20,20,0,0,1,20,0Z" transform="translate(391.674 682.313) rotate(180)" fill="#fff"/>
    <path id="タイトルベース" d="M20,0H372a20,20,0,0,1,20,20V179a0,0,0,0,1,0,0H0a0,0,0,0,1,0,0V20A20,20,0,0,1,20,0Z" transform="translate(-0.326 0.313)" fill="#76cfd3"/>
    <g transform="matrix(1, 0, 0, 1, -4.83, -3.19)" filter="url(#枠)">
      <g id="枠-2" data-name="枠" transform="translate(4.5 4.5)" fill="none" stroke="#fff" stroke-linecap="round" stroke-linejoin="round" stroke-width="3">
        <rect width="392" height="680" rx="20" stroke="none"/>
        <rect x="-1.5" y="-1.5" width="395" height="683" rx="21.5" fill="none"/>
      </g>
    </g>
    <path id="パス_68" data-name="パス 68" d="M-40.656-9.478A1.363,1.363,0,0,0-42-10.822a1.363,1.363,0,0,0-1.344,1.344A1.341,1.341,0,0,0-42-8.148,1.341,1.341,0,0,0-40.656-9.478ZM-36.5-5.32a1.363,1.363,0,0,0-1.344-1.344,1.341,1.341,0,0,0-1.33,1.344,1.341,1.341,0,0,0,1.33,1.344A1.363,1.363,0,0,0-36.5-5.32Zm-.8,5.152a.469.469,0,0,0,.434-.448.351.351,0,0,0-.112-.252c-1.022-.98-2.66-2.6-4.34-4.284a.271.271,0,0,1-.084-.182.214.214,0,0,1,.056-.14c1.694-1.694,3.346-3.332,4.368-4.3a.322.322,0,0,0,.112-.252.482.482,0,0,0-.448-.448.322.322,0,0,0-.252.112c-.966,1.008-2.562,2.66-4.242,4.34a.276.276,0,0,1-.2.084.27.27,0,0,1-.21-.1c-1.666-1.68-3.276-3.332-4.228-4.326a.322.322,0,0,0-.252-.112.482.482,0,0,0-.448.448.3.3,0,0,0,.112.252c1.008.952,2.646,2.562,4.312,4.242a.292.292,0,0,1,.1.21.246.246,0,0,1-.084.182c-1.68,1.666-3.3,3.29-4.326,4.27a.351.351,0,0,0-.112.252.469.469,0,0,0,.434.448.342.342,0,0,0,.252-.112c.98-1.008,2.632-2.66,4.3-4.34a.242.242,0,0,1,.168-.084c.126,0,.224.1,4.438,4.424A.342.342,0,0,0-37.3-.168Zm-8.862-3.808a1.341,1.341,0,0,0,1.33-1.344,1.341,1.341,0,0,0-1.33-1.344,1.351,1.351,0,0,0-1.33,1.344A1.351,1.351,0,0,0-46.158-3.976Zm5.5,2.814A1.341,1.341,0,0,0-42-2.492a1.341,1.341,0,0,0-1.344,1.33A1.351,1.351,0,0,0-42,.168,1.351,1.351,0,0,0-40.656-1.162ZM-23.534.5a.537.537,0,0,0,.574-.546.537.537,0,0,0-.574-.546h-3.85v-.966h1.9a.534.534,0,0,0,.574-.532.534.534,0,0,0-.574-.532h-1.9v-.5a.621.621,0,0,0-.658-.616.587.587,0,0,0-.63.6v.518h-1.82a.58.58,0,0,0-.224.028,11.007,11.007,0,0,0,1.5-1.54h2.436c1.526,1.764,3.682,3.038,4.326,3.038a.719.719,0,0,0,.714-.728.6.6,0,0,0-.448-.588,8.242,8.242,0,0,1-3.178-1.708l2.884.028h.014a.533.533,0,0,0,.532-.574.532.532,0,0,0-.546-.56l-2.66.014V-8.75h1.974a.539.539,0,0,0,.56-.574.535.535,0,0,0-.56-.56h-1.974v-1.022a.582.582,0,0,0-.644-.56.582.582,0,0,0-.644.56V-9.87L-28-9.856l-1.61-.014v-1.036a.582.582,0,0,0-.644-.56.582.582,0,0,0-.644.56v1.022h-1.918a.555.555,0,0,0-.6.56.558.558,0,0,0,.6.574H-30.9v3.542l-2.618-.014a.554.554,0,0,0-.588.574.547.547,0,0,0,.574.56h.014l2.926-.028a8.449,8.449,0,0,1-3.248,2.044.609.609,0,0,0-.434.588.615.615,0,0,0,.616.63A6.708,6.708,0,0,0-31.01-2.338a.549.549,0,0,0-.056.252.534.534,0,0,0,.574.532h1.82v.966h-3.71a.544.544,0,0,0-.574.546A.537.537,0,0,0-32.382.5Zm-2.9-8.652H-29.61v-.616L-28-8.778l1.568.014Zm0,1.456H-29.61v-.644h3.178Zm0,1.484-1.554.014-1.624-.014V-5.88h3.178ZM-11.676-2a.572.572,0,0,0,.6-.6.569.569,0,0,0-.6-.588h-1.666v-.364l-.042-2.8A17.711,17.711,0,0,0-9.1-1.652a.9.9,0,0,0,.49.168.815.815,0,0,0,.812-.77.688.688,0,0,0-.336-.574A14.95,14.95,0,0,1-12.782-7.42l3.878.056h.014a.583.583,0,0,0,.6-.616.587.587,0,0,0-.6-.63h-4.452v-2.338a.635.635,0,0,0-.686-.6.6.6,0,0,0-.658.6V-8.61h-4.466a.635.635,0,0,0-.644.658.577.577,0,0,0,.63.588h.014l3.878-.056A15.042,15.042,0,0,1-19.88-2.436a.733.733,0,0,0-.364.6.685.685,0,0,0,.7.658.858.858,0,0,0,.5-.182,17.813,17.813,0,0,0,4.4-4.914l-.042,2.73v.35h-1.652a.606.606,0,0,0-.63.616.567.567,0,0,0,.63.574h1.652V.406a.61.61,0,0,0,.672.574.61.61,0,0,0,.672-.574V-2ZM1.9-7.644a.681.681,0,0,0,.63-.7.76.76,0,0,0-.21-.532A4.179,4.179,0,0,0,.588-9.9.676.676,0,0,0-.1-9.3.427.427,0,0,0,.154-8.9,5.613,5.613,0,0,1,1.442-7.882.624.624,0,0,0,1.9-7.644ZM3.15.392c0,.364.336.546.672.546s.672-.182.672-.546L4.466-3.22l1.652-.462a.57.57,0,0,0,.448-.56.621.621,0,0,0-.6-.63,1.1,1.1,0,0,0-.2.028l-1.3.364.028-6.258a.635.635,0,0,0-.686-.6.6.6,0,0,0-.658.6l.028,6.622L-.714-3.038a.627.627,0,0,0-.476.6.585.585,0,0,0,.588.6.655.655,0,0,0,.224-.028l3.556-.994ZM1.778-4.858a.666.666,0,0,0,.616-.686.754.754,0,0,0-.28-.574A4.057,4.057,0,0,0,.35-6.944a.66.66,0,0,0-.7.574.508.508,0,0,0,.322.448,7.592,7.592,0,0,1,1.372.882A.654.654,0,0,0,1.778-4.858Zm-6.44-2.674a.654.654,0,0,0,.644-.658c0-.322-.7-1.722-1.33-1.722-.322,0-.658.224-.658.518A.484.484,0,0,0-5.88-9.1a5.975,5.975,0,0,1,.756,1.246A.5.5,0,0,0-4.662-7.532ZM-2.59.406s-.056-2.534-.07-4.578a5.7,5.7,0,0,1,.812.9.558.558,0,0,0,.448.238A.687.687,0,0,0-.756-3.71c0-.532-1.288-1.428-1.624-1.428a.637.637,0,0,0-.28.07v-.714l1.5.028h.014a.57.57,0,0,0,.56-.6.561.561,0,0,0-.574-.588H-2.646l.014-.9a.561.561,0,0,0,.518.322.585.585,0,0,0,.434-.21A4.832,4.832,0,0,0-.658-9.366a.667.667,0,0,0-.658-.6.472.472,0,0,0-.448.294,10.224,10.224,0,0,1-.8,1.358.567.567,0,0,0-.07.126c.014-1.358.042-2.52.042-2.52v-.014a.625.625,0,0,0-.672-.616.625.625,0,0,0-.672.616v.014l.042,3.766H-5.46a.606.606,0,0,0-.616.63.547.547,0,0,0,.6.56h.014l1.582-.028v.042A12.027,12.027,0,0,1-6.286-2.716a.578.578,0,0,0-.238.448.678.678,0,0,0,.686.63c.224,0,.686-.1,1.96-2.17L-3.934.406V.42a.61.61,0,0,0,.672.574A.61.61,0,0,0-2.59.42ZM19.194.336a.568.568,0,0,0,.588-.6.576.576,0,0,0-.588-.6l-2.73.028a6.672,6.672,0,0,0,.966-1.848.755.755,0,0,0-.784-.658.589.589,0,0,0-.6.448,8.514,8.514,0,0,1-.9,2.072h-.49V-3.808h3.4a.588.588,0,0,0,.63-.6.6.6,0,0,0-.63-.6h-3.4v-1.2H16.31a.588.588,0,0,0,.63-.6.6.6,0,0,0-.63-.6H11.8a.637.637,0,0,0-.378.112,19.8,19.8,0,0,0,2.2-2.338.5.5,0,0,1,.392-.238.6.6,0,0,1,.42.238c1.54,1.722,4.2,3.976,4.956,3.976a.828.828,0,0,0,.812-.8.634.634,0,0,0-.378-.574,16.748,16.748,0,0,1-4.578-3.514,1.815,1.815,0,0,0-1.33-.658,1.575,1.575,0,0,0-1.246.658A15.275,15.275,0,0,1,8.218-6.608a.7.7,0,0,0-.434.63.732.732,0,0,0,.742.714c.2,0,.714-.07,2.758-1.918a.6.6,0,0,0-.126.364.592.592,0,0,0,.644.6h1.512v1.2H9.982a.6.6,0,0,0-.644.6.608.608,0,0,0,.644.6h3.332V-.826L8.862-.868a.6.6,0,0,0-.644.6.6.6,0,0,0,.644.6ZM12.418-1.68c0-.364-.784-1.6-1.386-1.6-.336,0-.7.252-.7.546a.371.371,0,0,0,.112.266,4.1,4.1,0,0,1,.812,1.134.483.483,0,0,0,.462.308A.714.714,0,0,0,12.418-1.68ZM29.75-7.308a.568.568,0,0,0,.616-.56.581.581,0,0,0-.616-.588H26.11a17.666,17.666,0,0,0,1.54-1.512.5.5,0,0,1,.35-.21.554.554,0,0,1,.364.21c1.82,1.806,4.438,3.584,5.124,3.584a.761.761,0,0,0,.756-.756.645.645,0,0,0-.406-.588,17.053,17.053,0,0,1-4.648-3.094,1.871,1.871,0,0,0-1.274-.588,1.58,1.58,0,0,0-1.2.6A15.143,15.143,0,0,1,22.2-7.336a.711.711,0,0,0-.434.644.659.659,0,0,0,.658.672c.658,0,2.688-1.6,3.206-2.03a.7.7,0,0,0-.028.168.578.578,0,0,0,.616.574Zm.308,3.6a3.606,3.606,0,0,0,.91-1.834c0-.574-.448-.994-1.19-1.008-.546-.014-1.246-.028-1.974-.028-1.022,0-2.1.014-2.9.042a.6.6,0,0,0-.616.6.555.555,0,0,0,.6.56h.014c.924-.014,2.52-.028,3.626-.028h.686c.2,0,.266.084.266.2a3.534,3.534,0,0,1-.994,1.484c-1.12,0-2.226,0-3.024.028-1.12.028-1.554.686-1.568,1.316,0,.21-.014.5-.014.8s.014.6.014.854c.028.77.574,1.316,1.6,1.358.784.028,1.624.042,2.464.042S29.68.658,30.492.63A1.5,1.5,0,0,0,32.06-.742c.014-.266.028-.574.028-.882s-.014-.63-.028-.868a1.434,1.434,0,0,0-1.5-1.2Zm0,3.178c-.644.014-1.386.028-2.128.028s-1.442-.014-2.044-.028-.658-.252-.658-1.05c0-.616.028-.994.644-1.008.658-.014,1.5-.028,2.31-.028.672,0,1.33.014,1.848.028.63.014.658.294.658,1.008S30.66-.56,30.058-.532ZM47.18-5.754a.7.7,0,0,0,.252-.966,3.557,3.557,0,0,0-2.618-1.512c-1.008-.07-1.064,1.218-.21,1.246a2.195,2.195,0,0,1,1.61,1.022A.677.677,0,0,0,47.18-5.754ZM38.794-2.576c-.42,1.274-.154,2.2.728,2.73A6,6,0,0,0,43.75.378C45.682-.266,46.13-1.6,45.71-3.57c-.224-1.092-1.624-.77-1.414.14.308,1.33.126,2.156-.938,2.52A4.679,4.679,0,0,1,40.25-.924c-.518-.322-.434-.938-.168-1.568.224-.518.56-1.12.714-1.554a1.553,1.553,0,0,0-.042-1.288c.014-.294.028-.588.042-.784.028-.518.042-.966.07-1.414a6.628,6.628,0,0,0,1.078-.434c.924-.532.182-1.652-.532-1.176a2.611,2.611,0,0,1-.392.224,7.245,7.245,0,0,0,.014-.938c-.042-.938-1.6-1.008-1.484.07a8.27,8.27,0,0,1,.112,1.3A2.239,2.239,0,0,1,38.5-8.568a.643.643,0,0,0-.49,1.19,3.146,3.146,0,0,0,1.568.14c-.028.336-.056.686-.07,1.022l-.238-.042a1.848,1.848,0,0,0-1.6,2.982A1.463,1.463,0,0,0,38.794-2.576Zm.784-1.89a2.16,2.16,0,0,1-.07.238c-.364.91-.966.448-1.092.126a.744.744,0,0,1,.728-1.078.451.451,0,0,1,.378.28l.014.014a.932.932,0,0,1,.042.406Z" transform="translate(313.675 659.313)" fill="#c18b4b"/>
    <g id="更新" transform="translate(0 443.171)">
      <rect id="長方形_20" data-name="長方形 20" width="392" height="85" transform="translate(-0.326 0.142)" fill="rgba(217,217,217,0.3)"/>
      <path id="パス_67" data-name="パス 67" d="M-2.142-9.52a.6.6,0,0,0,.644-.6.592.592,0,0,0-.644-.6h-9.6a.616.616,0,0,0-.672.6.609.609,0,0,0,.672.6l4.13-.028v.854c-.854,0-1.624,0-2.17.014-1.162.028-1.568.658-1.6,1.232-.014.322-.028.784-.028,1.274s.014.966.028,1.344c.042.7.56,1.19,1.582,1.26a.306.306,0,0,0-.14.126A3.335,3.335,0,0,1-11.2-2.268a.645.645,0,0,0-.406.56.633.633,0,0,0,.644.588c.084,0,.448-.014,1.414-.98a7.491,7.491,0,0,0,.672.658A6.76,6.76,0,0,1-12.348-.266c-.448.056-.644.322-.644.6a.674.674,0,0,0,.728.644A8.526,8.526,0,0,0-7.8-.672,11.245,11.245,0,0,0-2.03.784c.35,0,1.064,0,1.064-.714a.6.6,0,0,0-.6-.644,12.335,12.335,0,0,1-5.46-1.05,5.275,5.275,0,0,0,.644-1.9c.868-.014,1.708-.028,2.338-.056a1.5,1.5,0,0,0,1.6-1.274c.028-.322.042-.756.042-1.218,0-.532-.014-1.078-.042-1.47A1.454,1.454,0,0,0-3.976-8.68c-.616-.014-1.428-.014-2.282-.014v-.854Zm-4.13,2.884V-7.672c.7,0,1.358,0,1.806.014.6.014.728.266.728,1.022Zm2.534.98c0,.658,0,1.036-.714,1.064-.476.014-1.134.028-1.834.028v-.294l.014-.8ZM-7.6-6.636h-2.534c0-.658,0-1.008.714-1.022.448-.014,1.106-.014,1.82-.014Zm0,.98c0,.35-.014.63-.014.77,0,.112-.014.224-.014.322-2.338,0-2.436,0-2.492-.588-.014-.126-.014-.308-.014-.5Zm-.14,2.128a4.246,4.246,0,0,1-.392,1.19,4.367,4.367,0,0,1-.714-.728c0-.028.014-.042.014-.07a.514.514,0,0,0-.294-.406C-8.722-3.528-8.246-3.528-7.742-3.528ZM10.248.364a.6.6,0,0,0,.644.588A.6.6,0,0,0,11.55.364l-.014-6.412h1.33a.619.619,0,0,0,.672-.616.616.616,0,0,0-.672-.6l-4,.028V-8.19a.717.717,0,0,1,.616-.784c.378-.112,1.946-.616,2.408-.826a.662.662,0,0,0,.448-.616.724.724,0,0,0-.714-.7.851.851,0,0,0-.35.084,25.766,25.766,0,0,1-2.422.98c-.938.28-1.288.686-1.288,1.624v.168c.028.658.056,1.344.056,2.044,0,2.142-.252,4.368-1.582,5.936A.552.552,0,0,0,5.88.1a.7.7,0,0,0,.728.616A.827.827,0,0,0,7.28.35C8.526-1.358,8.792-3.808,8.848-6.062h1.414ZM6.426-9.044A.529.529,0,0,0,7-9.59a.526.526,0,0,0-.574-.532H4.844v-.8a.6.6,0,0,0-.644-.588.6.6,0,0,0-.644.588l.014.8H1.89a.545.545,0,0,0-.6.546.543.543,0,0,0,.6.532Zm.322,3.178a.525.525,0,0,0,.56-.546.521.521,0,0,0-.56-.532H5.46a4.608,4.608,0,0,0,.616-1.372.675.675,0,0,0-.686-.616.524.524,0,0,0-.518.434,9.867,9.867,0,0,1-.588,1.554H3.626a.6.6,0,0,0,.252-.5c0-.238-.476-1.428-1.078-1.428a.574.574,0,0,0-.6.5.458.458,0,0,0,.112.294,3.133,3.133,0,0,1,.434.854.679.679,0,0,0,.168.28H1.5a.53.53,0,0,0-.56.532.533.533,0,0,0,.56.546ZM3.612.406A.536.536,0,0,0,4.2.938.534.534,0,0,0,4.788.42L4.76-2.2a5.193,5.193,0,0,1,1.036.77.546.546,0,0,0,.364.154.672.672,0,0,0,.616-.672.589.589,0,0,0-.224-.462,4.645,4.645,0,0,0-1.526-.756.518.518,0,0,0-.266.1l-.014-.518,1.75.042H6.51a.5.5,0,0,0,.518-.532.526.526,0,0,0-.518-.56H6.5L4.76-4.62l.014-.616V-5.25A.539.539,0,0,0,4.2-5.81a.539.539,0,0,0-.574.56v.014l.014.616L1.722-4.634H1.708a.529.529,0,0,0-.574.546.544.544,0,0,0,.574.546h.014l1.82-.042a9.08,9.08,0,0,1-2.45,2.226.587.587,0,0,0-.336.5.62.62,0,0,0,.63.588c.49,0,1.568-1.064,2.24-1.89Z" transform="translate(195.675 72.142)" fill="#676767"/>
      <path id="cog-solid" d="M52.166,30.1,49.12,28.337a13.775,13.775,0,0,0,0-5.02l3.046-1.759a.864.864,0,0,0,.393-1,17.811,17.811,0,0,0-3.912-6.765.861.861,0,0,0-1.058-.164l-3.046,1.759a13.5,13.5,0,0,0-4.348-2.51V9.365a.857.857,0,0,0-.672-.837,17.978,17.978,0,0,0-7.809,0,.857.857,0,0,0-.672.837v3.518a13.922,13.922,0,0,0-4.348,2.51l-3.039-1.759A.85.85,0,0,0,22.6,13.8a17.7,17.7,0,0,0-3.912,6.765.855.855,0,0,0,.393,1l3.046,1.759a13.775,13.775,0,0,0,0,5.02L19.077,30.1a.864.864,0,0,0-.393,1A17.811,17.811,0,0,0,22.6,37.87a.861.861,0,0,0,1.058.164L26.7,36.275a13.5,13.5,0,0,0,4.348,2.51V42.3a.857.857,0,0,0,.672.837,17.978,17.978,0,0,0,7.809,0A.857.857,0,0,0,40.2,42.3V38.785a13.922,13.922,0,0,0,4.348-2.51L47.6,38.034a.85.85,0,0,0,1.058-.164A17.7,17.7,0,0,0,52.566,31.1.883.883,0,0,0,52.166,30.1ZM35.618,31.548a5.721,5.721,0,1,1,5.721-5.721A5.729,5.729,0,0,1,35.618,31.548Z" transform="translate(160.053 6.342)" fill="#676767"/>
    </g>
    <g id="お問い合わせフォーム" transform="translate(124.195 375.269)">
      <path id="パス_66" data-name="パス 66" d="M-56-6.5a.68.68,0,0,0-.014-.994,4.289,4.289,0,0,0-2.912-.8.622.622,0,1,0,.07,1.232,2.615,2.615,0,0,1,1.848.574A.706.706,0,0,0-56-6.5Zm-6.706,2.814a7.115,7.115,0,0,1,1.47-.532,3.911,3.911,0,0,1,2.268.028,1.117,1.117,0,0,1,.49,1.89c-.672.9-1.568.882-2.66.35a.668.668,0,1,0-.6,1.19,3.419,3.419,0,0,0,4.494-.84c.714-1.036,1.092-2.926-1.218-3.724a5.372,5.372,0,0,0-3.108-.014,8.618,8.618,0,0,0-1.176.434c-.014-.532-.014-1.05,0-1.484a8.093,8.093,0,0,0,1.316-.63c.98-.588.126-1.694-.63-1.19a4.207,4.207,0,0,1-.56.322c.028-.42.042-.868.07-1.176a.709.709,0,1,0-1.414.014c.028.532.056.98.056,1.638a3.5,3.5,0,0,1-1.414.126c-1.162-.238-1.33,1.162-.294,1.288a5.249,5.249,0,0,0,1.68-.056c0,.56.014,1.162.028,1.75a9.017,9.017,0,0,0-1.974,1.484c-.742.812-1.2,1.806.462,2.618,1.148.56,2.94.588,2.828-1.414C-62.622-2.212-62.678-2.94-62.706-3.682Zm-1.19.7c.014.574.014,1.092,0,1.47-.014.546-.42.588-1.022.294-.322-.154-.322-.518-.028-.84A6.873,6.873,0,0,1-63.9-2.982Zm20.426-3.29V-5.7c0,.868.014,1.806.014,2.73,0,.6-.014,1.2-.028,1.764-.014.686-.364.854-.826.854a5.018,5.018,0,0,1-.742-.084c-.042,0-.07-.014-.112-.014a.564.564,0,0,0-.546.616c0,.616.5.742,1.484.742,1.6,0,2.086-.868,2.086-1.862,0-.49-.014-1.078-.014-1.736,0-1.778-.028-3.948-.028-6.048v-1.05c0-.63-.434-1.19-1.47-1.246-.238-.014-.63-.014-1.036-.014-.574,0-1.162,0-1.428.014a1.163,1.163,0,0,0-1.218,1.106c-.014.49-.028,1.022-.028,1.54,0,.322,0,.63.014.91.042,1.232,1.2,1.232,2.856,1.232C-44.086-6.244-43.722-6.258-43.47-6.272ZM-45.234-2.31c.014-.238.014-.49.014-.728,0-.392-.014-.784-.028-1.148a1.327,1.327,0,0,0-1.3-1.246c-.294-.014-.8-.028-1.316-.028s-1.022.014-1.358.028a1.27,1.27,0,0,0-1.288,1.26c-.014.378-.028.77-.028,1.176,0,2.03.406,2.058,2.73,2.058.462,0,.91-.014,1.232-.042A1.331,1.331,0,0,0-45.234-2.31Zm-6.9,2.66c.042-1.974.056-3.878.056-5.376V-6.272c.252.014.6.028.966.028,2.772,0,2.786-.35,2.786-2.142,0-.518-.014-1.05-.028-1.54A1.19,1.19,0,0,0-49.6-11.032c-.266-.014-.84-.014-1.372-.014-1.456,0-2.408,0-2.408,1.372-.028,3.038,0,7.462-.1,10.024V.378a.61.61,0,0,0,.672.574A.614.614,0,0,0-52.136.35ZM-46.13-9.1c0-.168.014-.322.014-.462.028-.448.182-.448,1.3-.448,1.288,0,1.316.014,1.316.91Zm2.66,1.82c-.2.014-.644.014-1.106.014-1.484,0-1.526-.056-1.54-.448,0-.14-.014-.294-.014-.462h2.66ZM-52.08-9.1c0-.126.014-.252.014-.364.028-.5.126-.546,1.274-.546,1.12,0,1.19.042,1.218.434,0,.14.014.308.014.476Zm2.52.924c0,.168-.014.322-.014.462-.014.392-.112.448-1.47.448-.42,0-.84,0-1.036-.014v-.9ZM-47.054-2.1c-.182.014-.5.014-.826.014-.994,0-1.344-.014-1.372-.448-.014-.224-.014-.518-.014-.8,0-1.022.028-1.064,1.372-1.064,1.316,0,1.4.014,1.4.9C-46.494-2.352-46.494-2.142-47.054-2.1Zm18.886-2.2a5.371,5.371,0,0,0-2.1-3.248c-.84-.63-1.6.406-.924.868a4.418,4.418,0,0,1,1.554,2.716A.754.754,0,1,0-28.168-4.3Zm-6.118,2.31a6.405,6.405,0,0,0,.546-1.078.688.688,0,0,0-1.274-.5,5.506,5.506,0,0,1-.462.826c-.308.42-.49.378-.854.028a5.382,5.382,0,0,1-1.106-3.612c-.028-.644.028-.672,0-1.218a.714.714,0,1,0-1.428.014,13.946,13.946,0,0,0,.07,1.554A7.223,7.223,0,0,0-37.212-1.5C-36.428-.658-35.182-.532-34.286-1.988Zm20.51-4.3a.551.551,0,0,0-.308-.5,20.26,20.26,0,0,1-4.466-3.654,1.857,1.857,0,0,0-1.344-.644,1.536,1.536,0,0,0-1.246.658,17.712,17.712,0,0,1-4.34,4.074.7.7,0,0,0-.378.6.749.749,0,0,0,.77.714,1.045,1.045,0,0,0,.63-.238,27.022,27.022,0,0,0,4.284-4.214c.14-.182.252-.28.378-.28s.252.1.406.28A25.859,25.859,0,0,0-15.106-5.6a.905.905,0,0,0,.462.154A.9.9,0,0,0-13.776-6.286Zm-3.556.434a.6.6,0,0,0,.644-.616.6.6,0,0,0-.644-.616h-4.7a.6.6,0,0,0-.644.616.6.6,0,0,0,.644.616ZM-15.806-.98c.014-.35.028-.714.028-1.064s-.014-.714-.028-1.008a1.449,1.449,0,0,0-1.484-1.26c-.9-.014-1.89-.028-2.814-.028-.756,0-1.47.014-2.058.028a1.423,1.423,0,0,0-1.554,1.386c-.014.322-.014.728-.014,1.12,0,.294,0,.588.014.84A1.458,1.458,0,0,0-22.134.462Q-20.958.5-19.782.5c.8,0,1.61-.014,2.422-.042A1.522,1.522,0,0,0-15.806-.98Zm-1.988.238c-.644.014-1.33.028-2.016.028s-1.33-.014-1.932-.028c-.546-.014-.672-.154-.672-1.19,0-.784.014-1.218.658-1.232s1.428-.028,2.184-.028c.63,0,1.232.014,1.75.028.644.014.672.266.672,1.316C-17.15-1.218-17.15-.77-17.794-.742Zm8.974-1.47A14.113,14.113,0,0,0-8.806-.14c.056.6.462.826.84.77a.755.755,0,0,0,.644-.9A17.678,17.678,0,0,1-7.434-3.6,8.393,8.393,0,0,1-5.67-4.774c1.932-.994,3.388-.8,4.018-.154S-1.2-3.192-2.688-2.2a7.138,7.138,0,0,1-1.484.686A.751.751,0,1,0-3.724-.084,8.576,8.576,0,0,0-1.736-1.106C.378-2.632.616-4.522-.406-5.67S-3.64-7.28-6.132-5.95a9.482,9.482,0,0,0-1.2.77v-.07c.28-.5.49-.9.56-.994.63-.9.252-1.568-.294-1.582.1-.812.2-1.5.266-2,.126-.826-1.288-1.022-1.372-.042-.056.6-.14,1.484-.238,2.506-.714.294-1.47.658-1.988.9-.8.378-.336,1.778.672,1.148a9.123,9.123,0,0,1,1.008-.6A.231.231,0,0,1-8.54-5.95l-.028.336A21.146,21.146,0,0,1-10.43-2.2a5.68,5.68,0,0,0-.42.56c-.616.924.714,1.708,1.288.7.252-.434.462-.812.658-1.134ZM5.39-4.606c.028.588.07,1.232.126,1.736.2,1.9.868,2.772,2.7,2.968a8.427,8.427,0,0,0,2.9-.238.718.718,0,1,0-.392-1.372,7.792,7.792,0,0,1-2.282.378c-1.176-.028-1.624-.5-1.736-2.016-.042-.49-.056-1.162-.07-1.82.924-.238,2.016-.49,3.178-.672a3.464,3.464,0,0,1-.406,1.484c-.2.294-.434.364-.84-.168-.546-.714-1.3-.042-.938.574a5.62,5.62,0,0,0,.546.742A1.219,1.219,0,0,0,9.9-2.8a3.187,3.187,0,0,0,1.078-2.268c.028-.238.07-.49.084-.728.2-.014.378-.042.574-.056a13.3,13.3,0,0,1,1.974-.028c1.134.07,1.358-1.3.21-1.372a13.316,13.316,0,0,0-2.324.154c-.126.014-.238.042-.364.056.014-.28.028-.56.042-.8.028-.392.056-.8.056-1.274a.7.7,0,0,0-1.4-.014c.014.308,0,.434.014.546a5.16,5.16,0,0,1,.014.56c0,.35.014.742.014,1.162-1.148.2-2.31.434-3.234.63l.014-.182c.028-.658.042-1.3.042-1.75a.736.736,0,0,0-1.47.056c.028.6.07,1.176.1,1.988v.182l-.392.084c-.616.14-1.652.406-2.282.56-1.162.28-.784,1.764.322,1.442.42-.126.952-.294,2.184-.686ZM19.712.21A10.712,10.712,0,0,0,26.32-6.8,1.473,1.473,0,0,0,24.794-8.82c-1.778-.028-4.4-.014-6.244.07a.694.694,0,1,0,.028,1.386c2.016-.07,4.228-.154,5.6-.112.518.014.56.364.448.742a8.663,8.663,0,0,1-5.558,5.586C18-.812,18.522.658,19.712.21ZM36.806-4.578c.518,0,1.022.014,1.526.042a.6.6,0,1,0,.042-1.176h-1.6c-.014-.546-.014-.994-.014-1.274a.6.6,0,1,0-1.2.042c.014.252.042.7.056,1.246-1.064.014-2.142.042-3.136.084a.572.572,0,1,0,.042,1.134c.8-.028,1.624-.056,2.464-.07a9.093,9.093,0,0,1-3.276,3c-.77.406-.154,1.6.812.966a11.731,11.731,0,0,0,3.164-2.954c.028.98.042,1.932.056,2.492.014.462-.462.35-.812.238a.592.592,0,0,0-.77.448.662.662,0,0,0,.63.784c1.652.294,2.17-.392,2.142-1.274-.014-.28-.014-.462-.028-.784C36.862-2.394,36.834-3.528,36.806-4.578ZM53.928-4.62a.676.676,0,0,0,.714-.686.679.679,0,0,0-.714-.7H45.136a.714.714,0,0,0-.742.714.674.674,0,0,0,.742.672Zm10.92,3.15a7.219,7.219,0,0,1,.364.742.712.712,0,0,0,.952.42.818.818,0,0,0,.448-1.022,10.063,10.063,0,0,0-2.576-3.29c-.784-.7-1.694.28-1.05.84A7.983,7.983,0,0,1,64.05-2.632c-1.092.266-2.632.6-4.088.868a66.4,66.4,0,0,0,2.408-6.51.776.776,0,1,0-1.512-.294,45.438,45.438,0,0,1-2.506,7.084c-.238.042-.49.07-.714.1C56.518-1.232,56.854.2,57.9.028,60.074-.336,63.042-.966,64.848-1.47Z" transform="translate(69.479 49.044)" fill="#676767"/>
      <path id="envelope-regular" d="M30.772,64H3.183A3.183,3.183,0,0,0,0,67.183v19.1a3.183,3.183,0,0,0,3.183,3.183H30.772a3.183,3.183,0,0,0,3.183-3.183v-19.1A3.183,3.183,0,0,0,30.772,64Zm0,3.183V69.89c-1.487,1.211-3.858,3.094-8.926,7.062-1.117.879-3.329,2.989-4.869,2.965-1.539.025-3.752-2.086-4.869-2.965C7.042,72.984,4.671,71.1,3.183,69.89V67.183ZM3.183,86.283V73.974c1.52,1.21,3.675,2.909,6.959,5.481,1.45,1.141,3.988,3.66,6.835,3.645,2.833.015,5.339-2.467,6.834-3.644,3.285-2.572,5.44-4.271,6.96-5.482V86.283Z" transform="translate(56.624 -64)" fill="#676767"/>
    </g>
    <g id="下層ページ" transform="translate(0 273.408)">
      <rect id="長方形_20-2" data-name="長方形 20" width="392" height="85" transform="translate(-0.326 -0.095)" fill="rgba(217,217,217,0.3)"/>
      <path id="パス_65" data-name="パス 65" d="M-39.494.21A.679.679,0,0,0-38.766.9.683.683,0,0,0-38.024.21V-6.1a14.5,14.5,0,0,1,2.8,1.666.9.9,0,0,0,.518.182.789.789,0,0,0,.77-.784.765.765,0,0,0-.35-.644,11.421,11.421,0,0,0-3.528-1.68,1.081,1.081,0,0,0-.21.028V-9.058h4.844a.6.6,0,0,0,.6-.644.618.618,0,0,0-.6-.658H-43.806a.625.625,0,0,0-.616.672.59.59,0,0,0,.616.63h4.312Zm17.738-8.316c.28,0,.532-.014.784-.014,1.3-.028,1.526-.462,1.526-1.33,0-.994-.28-1.512-1.54-1.54-1.036-.028-2.31-.028-3.556-.028s-2.506,0-3.486.028c-.938.028-1.386.574-1.386,1.2v.028c.014.672.042,1.442.042,2.254,0,2.52-.21,5.46-1.456,7.14a.672.672,0,0,0-.14.392.663.663,0,0,0,.714.588.871.871,0,0,0,.686-.364C-28.238-1.568-28-5.32-28-8.12c.742,0,1.47.014,2.2.014a.413.413,0,0,0-.154.308c0,.1.028.14.336.6-.2,0-.364.014-.532.014-1.414.042-1.428.784-1.428,1.848,0,1.876.014,1.876,4.1,1.876.826,0,1.652-.014,2.464-.042,1.428-.042,1.428-.8,1.428-1.89,0-.21-.014-.434-.028-.63a1.3,1.3,0,0,0-1.372-1.162c-.224,0-.476-.014-.714-.014a.919.919,0,0,0,.21-.462A.569.569,0,0,0-21.756-8.106ZM-21.518.7c1.316-.056,1.4-.77,1.4-1.9,0-.21-.014-.42-.028-.616A1.273,1.273,0,0,0-21.5-2.94c-.616-.014-1.33-.028-2.044-.028s-1.428.014-2.058.028c-1.442.014-1.442.8-1.442,1.792,0,1.834.07,1.89,3.612,1.89C-22.792.742-22.134.728-21.518.7Zm-6.5-10.136a.509.509,0,0,1,.56-.5c1.022-.014,2.254-.028,3.5-.028,3.136,0,3.136,0,3.136.42,0,.35-.266.42-.5.434-.966.028-2.128.028-3.4.028-1.036,0-2.156,0-3.276-.014Zm4.956,3.71v-.63c.6,0,1.2.014,1.764.028.35,0,.462.126.49.448,0,.056.014.1.014.154Zm.518-2.38a.281.281,0,0,0-.056.112c-.168.336-.308.574-.42.784H-24.29a2.63,2.63,0,0,0-.6-.9Zm1.75,3.122c0,.07-.014.14-.014.21-.014.462-.084.462-2.254.462v-.672Zm-3.416-.742h-2.212v-.112a.452.452,0,0,1,.5-.49c.518-.014,1.092-.028,1.708-.028Zm0,1.428c-.6,0-1.176-.028-1.694-.042-.42-.014-.5-.1-.518-.406v-.238h2.212ZM-21.35-1.54h-4.522l.014-.1a.433.433,0,0,1,.476-.476c.6-.014,1.316-.014,2.044-.014.518,0,1.036,0,1.5.014.35.014.462.112.49.434Zm0,.91c-.014.448-.028.462-2.3.462-2.142,0-2.2,0-2.212-.434l-.014-.2h4.522ZM-6.132-7.644A1.53,1.53,0,0,0-7.658-9.17,1.518,1.518,0,0,0-9.17-7.644,1.506,1.506,0,0,0-7.658-6.132,1.518,1.518,0,0,0-6.132-7.644Zm1.484,6.2a.733.733,0,0,0-.14-1.078C-6.272-3.486-9-5.544-10.122-6.37a2.486,2.486,0,0,0-3.178-.1,14.01,14.01,0,0,1-2.17,1.33.768.768,0,1,0,.546,1.428,11.926,11.926,0,0,0,2.352-1.68,1.231,1.231,0,0,1,1.708.084C-9.058-3.92-7.49-2.352-5.81-1.26A.884.884,0,0,0-4.648-1.442Zm-2.268-6.2a.747.747,0,0,1-.742.742A.747.747,0,0,1-8.4-7.644a.747.747,0,0,1,.742-.742A.747.747,0,0,1-6.916-7.644ZM7.91-4.62a.676.676,0,0,0,.714-.686.679.679,0,0,0-.714-.7H-.882a.714.714,0,0,0-.742.714.674.674,0,0,0,.742.672ZM21.924-9.6c.476.532,1.26-.35.7-.91a4.468,4.468,0,0,0-1.414-.8c-.658-.21-1.162.644-.448.924A5.132,5.132,0,0,1,21.924-9.6ZM20.636-8.358c.462.546,1.274-.308.728-.9a4.331,4.331,0,0,0-1.386-.84c-.644-.238-1.2.6-.49.9A4.95,4.95,0,0,1,20.636-8.358ZM17.57-6.622a.754.754,0,0,0-.07-1.092,7.658,7.658,0,0,0-1.862-1.162c-.952-.42-1.512.826-.714,1.148A4.9,4.9,0,0,1,16.45-6.65.747.747,0,0,0,17.57-6.622Zm5.4-.392c.616-1.106-.784-1.68-1.246-.812C20.258-5.04,17.15-1.96,14.364-1.2A.764.764,0,1,0,14.826.238C18-.812,21.182-3.808,22.974-7.014ZM15.9-4.4a.757.757,0,0,0-.322-1.05,7.081,7.081,0,0,0-2.044-.7c-1.022-.2-1.288,1.134-.448,1.274a4.909,4.909,0,0,1,1.736.714A.725.725,0,0,0,15.9-4.4Zm20.146.98a3.077,3.077,0,0,0-3.388-3.22,5.139,5.139,0,0,0-1.05.1,2.817,2.817,0,0,1-.322.07c-.084,0-.112-.042-.112-.154v-.1c.042-.28.252-1.4.322-1.89.042-.252.154-.378.42-.378.42,0,2.31.014,2.7.014a.69.69,0,0,0,.714-.714.723.723,0,0,0-.742-.756c-2.3,0-2.506,0-2.912-.014h-.1a1.161,1.161,0,0,0-1.358,1.12c-.21,1.232-.49,3.4-.49,3.514,0,.672.392.952,1.008.952.07,0,.14-.014.21-.014a1.816,1.816,0,0,0,.546-.2,3.6,3.6,0,0,1,1.106-.2A1.808,1.808,0,0,1,34.524-3.4,2.106,2.106,0,0,1,32.3-1.274,2.917,2.917,0,0,1,30.38-2a.786.786,0,0,0-.49-.21.776.776,0,0,0-.728.8c0,.924,1.778,1.6,3.066,1.6A3.571,3.571,0,0,0,36.05-3.416ZM39.69-.658V-1.2c0-.924-.042-1.918-.042-2.786,0-.112.014-.154.084-.154a.273.273,0,0,1,.1.014,4.473,4.473,0,0,0,1.022.112,7.946,7.946,0,0,0,1.008-.07A3.3,3.3,0,0,0,44.9-7.42a3.143,3.143,0,0,0-3.234-3.15c-.21-.014-.49-.028-.784-.028-2.744,0-2.758.924-2.758,2.646,0,.98.028,2.352.028,3.794,0,1.19-.014,2.422-.07,3.514V-.6a.745.745,0,0,0,.8.714A.758.758,0,0,0,39.69-.658Zm1.834-8.456A1.6,1.6,0,0,1,43.33-7.49a1.946,1.946,0,0,1-1.708,1.96c-.294.028-.588.042-.854.042-.868,0-1.148-.1-1.148-.392v-.238c0-.49-.014-1.064-.014-1.554,0-1.3.126-1.456,1.246-1.456C41.188-9.128,41.524-9.114,41.524-9.114Z" transform="translate(195.675 67.905)" fill="#676767"/>
      <g id="file-regular" transform="translate(115.029 12.665)">
        <path id="file-regular-2" data-name="file-regular" d="M24.532,6.4,18.967.835A3.183,3.183,0,0,0,16.719-.1H3.183A3.194,3.194,0,0,0,0,3.09V30.679a3.184,3.184,0,0,0,3.183,3.183h19.1a3.184,3.184,0,0,0,3.183-3.183V8.654A3.2,3.2,0,0,0,24.532,6.4Zm-2.507,2H16.978V3.349ZM3.183,30.679V3.09H13.795v6.9a1.588,1.588,0,0,0,1.592,1.592h6.9v19.1Z" transform="translate(135.823 0.1)" fill="#676767"/>
        <path id="file-regular-3" data-name="file-regular" d="M24.532,6.4,18.967.835A3.183,3.183,0,0,0,16.719-.1H3.183A3.194,3.194,0,0,0,0,3.09V30.679a3.184,3.184,0,0,0,3.183,3.183h19.1a3.184,3.184,0,0,0,3.183-3.183V8.654A3.2,3.2,0,0,0,24.532,6.4Zm-2.507,2H16.978V3.349ZM3.183,30.679V3.09H13.795v6.9a1.588,1.588,0,0,0,1.592,1.592h6.9v19.1Z" transform="translate(101.867 0.1)" fill="#676767"/>
        <path id="file-regular-4" data-name="file-regular" d="M24.532,6.4,18.967.835A3.183,3.183,0,0,0,16.719-.1H3.183A3.194,3.194,0,0,0,0,3.09V30.679a3.184,3.184,0,0,0,3.183,3.183h19.1a3.184,3.184,0,0,0,3.183-3.183V8.654A3.2,3.2,0,0,0,24.532,6.4Zm-2.507,2H16.978V3.349ZM3.183,30.679V3.09H13.795v6.9a1.588,1.588,0,0,0,1.592,1.592h6.9v19.1Z" transform="translate(67.912 0.1)" fill="#676767"/>
        <path id="file-regular-5" data-name="file-regular" d="M24.532,6.4,18.967.835A3.183,3.183,0,0,0,16.719-.1H3.183A3.194,3.194,0,0,0,0,3.09V30.679a3.184,3.184,0,0,0,3.183,3.183h19.1a3.184,3.184,0,0,0,3.183-3.183V8.654A3.2,3.2,0,0,0,24.532,6.4Zm-2.507,2H16.978V3.349ZM3.183,30.679V3.09H13.795v6.9a1.588,1.588,0,0,0,1.592,1.592h6.9v19.1Z" transform="translate(33.956 0.1)" fill="#676767"/>
        <path id="file-regular-6" data-name="file-regular" d="M24.532,6.4,18.967.835A3.183,3.183,0,0,0,16.719-.1H3.183A3.194,3.194,0,0,0,0,3.09V30.679a3.184,3.184,0,0,0,3.183,3.183h19.1a3.184,3.184,0,0,0,3.183-3.183V8.654A3.2,3.2,0,0,0,24.532,6.4Zm-2.507,2H16.978V3.349ZM3.183,30.679V3.09H13.795v6.9a1.588,1.588,0,0,0,1.592,1.592h6.9v19.1Z" transform="translate(0 0.1)" fill="#676767"/>
      </g>
    </g>
    <g id="トップページ" transform="translate(152.787 197.788)">
      <path id="パス_64" data-name="パス 64" d="M-35.2-5.25a8.678,8.678,0,0,1,2.73,1.134c.8.588,1.6-.63.868-1.246a8.66,8.66,0,0,0-3.36-1.218,1.44,1.44,0,0,0-.238-.014c.014-1.372.028-2.59.042-3.276a.728.728,0,0,0-1.456-.014c.056,2.016.014,7.5-.084,9.772a.761.761,0,1,0,1.512-.056C-35.21-1.3-35.21-3.318-35.2-5.25Zm14.966.56a6,6,0,0,0-.84-1.386c-.574-.686-1.512.084-1.008.644a3.706,3.706,0,0,1,.658,1.176A.635.635,0,1,0-20.23-4.69ZM-22.61.574A9.129,9.129,0,0,0-17.5-5.46a.683.683,0,1,0-1.316-.364,7.5,7.5,0,0,1-4.41,5.292.621.621,0,0,0-.35.84A.671.671,0,0,0-22.61.574Zm.448-4.676A5.282,5.282,0,0,0-23.2-5.348c-.658-.588-1.47.294-.9.784a3.664,3.664,0,0,1,.8,1.078A.646.646,0,1,0-22.162-4.1ZM-.532-9.968a1.494,1.494,0,0,0-1.484-1.484,1.482,1.482,0,0,0-1.47,1.484A1.47,1.47,0,0,0-2.016-8.5,1.482,1.482,0,0,0-.532-9.968ZM-9.688.21A10.712,10.712,0,0,0-3.08-6.8,1.473,1.473,0,0,0-4.606-8.82c-1.778-.028-4.4-.014-6.244.07a.694.694,0,1,0,.028,1.386c2.016-.07,4.228-.154,5.6-.112.518.014.56.364.448.742a8.663,8.663,0,0,1-5.558,5.586C-11.4-.812-10.878.658-9.688.21ZM-1.3-9.968a.705.705,0,0,1-.714.7.705.705,0,0,1-.714-.7.729.729,0,0,1,.714-.728A.729.729,0,0,1-1.3-9.968ZM11.256-7.644A1.53,1.53,0,0,0,9.73-9.17,1.518,1.518,0,0,0,8.218-7.644,1.506,1.506,0,0,0,9.73-6.132,1.518,1.518,0,0,0,11.256-7.644Zm1.484,6.2A.733.733,0,0,0,12.6-2.52c-1.484-.966-4.214-3.024-5.334-3.85a2.486,2.486,0,0,0-3.178-.1,14.01,14.01,0,0,1-2.17,1.33A.768.768,0,1,0,2.464-3.71,11.926,11.926,0,0,0,4.816-5.39a1.231,1.231,0,0,1,1.708.084C8.33-3.92,9.9-2.352,11.578-1.26A.884.884,0,0,0,12.74-1.442Zm-2.268-6.2A.747.747,0,0,1,9.73-6.9a.747.747,0,0,1-.742-.742.747.747,0,0,1,.742-.742A.747.747,0,0,1,10.472-7.644ZM25.3-4.62a.676.676,0,0,0,.714-.686.679.679,0,0,0-.714-.7H16.506a.714.714,0,0,0-.742.714.674.674,0,0,0,.742.672ZM39.312-9.6c.476.532,1.26-.35.7-.91a4.468,4.468,0,0,0-1.414-.8c-.658-.21-1.162.644-.448.924A5.132,5.132,0,0,1,39.312-9.6ZM38.024-8.358c.462.546,1.274-.308.728-.9a4.331,4.331,0,0,0-1.386-.84c-.644-.238-1.2.6-.49.9A4.95,4.95,0,0,1,38.024-8.358ZM34.958-6.622a.754.754,0,0,0-.07-1.092,7.658,7.658,0,0,0-1.862-1.162c-.952-.42-1.512.826-.714,1.148A4.9,4.9,0,0,1,33.838-6.65.747.747,0,0,0,34.958-6.622Zm5.4-.392c.616-1.106-.784-1.68-1.246-.812C37.646-5.04,34.538-1.96,31.752-1.2A.764.764,0,1,0,32.214.238C35.392-.812,38.57-3.808,40.362-7.014ZM33.292-4.4a.757.757,0,0,0-.322-1.05,7.081,7.081,0,0,0-2.044-.7c-1.022-.2-1.288,1.134-.448,1.274a4.909,4.909,0,0,1,1.736.714A.725.725,0,0,0,33.292-4.4Z" transform="translate(41.887 59.525)" fill="#676767"/>
      <path id="file-regular-7" data-name="file-regular" d="M28.62,7.483,22.129.991A3.714,3.714,0,0,0,19.506-.1H3.714A3.726,3.726,0,0,0,0,3.622V35.809a3.715,3.715,0,0,0,3.714,3.714H26a3.715,3.715,0,0,0,3.714-3.714v-25.7A3.732,3.732,0,0,0,28.62,7.483ZM25.7,9.812H19.808V3.923Zm-21.982,26V3.622h12.38v8.047a1.853,1.853,0,0,0,1.857,1.857H26V35.809Z" transform="translate(28.456 0.1)" fill="#676767"/>
    </g>
    <path id="パス_63" data-name="パス 63" d="M-87.057.612a.652.652,0,0,0,.7-.663.652.652,0,0,0-.7-.663h-4.675V-1.887h2.312a.648.648,0,0,0,.7-.646.648.648,0,0,0-.7-.646h-2.312v-.612a.754.754,0,0,0-.8-.748.712.712,0,0,0-.765.731v.629h-2.21a.7.7,0,0,0-.272.034,13.366,13.366,0,0,0,1.819-1.87H-91c1.853,2.142,4.471,3.689,5.253,3.689a.873.873,0,0,0,.867-.884.729.729,0,0,0-.544-.714A10.009,10.009,0,0,1-89.284-5l3.5.034h.017a.647.647,0,0,0,.646-.7.646.646,0,0,0-.663-.68l-3.23.017v-4.3h2.4a.654.654,0,0,0,.68-.7.65.65,0,0,0-.68-.68h-2.4v-1.241a.707.707,0,0,0-.782-.68.707.707,0,0,0-.782.68v1.258l-1.9.017-1.955-.017v-1.258a.707.707,0,0,0-.782-.68.707.707,0,0,0-.782.68V-12h-2.329a.674.674,0,0,0-.731.68.678.678,0,0,0,.731.7H-96v4.3l-3.179-.017a.673.673,0,0,0-.714.7.664.664,0,0,0,.7.68h.017L-95.625-5a10.26,10.26,0,0,1-3.944,2.482.74.74,0,0,0-.527.714.747.747,0,0,0,.748.765,8.145,8.145,0,0,0,3.213-1.8.667.667,0,0,0-.068.306.648.648,0,0,0,.7.646h2.21V-.714h-4.5a.661.661,0,0,0-.7.663.652.652,0,0,0,.7.663ZM-90.576-9.894h-3.859v-.748l1.955-.017,1.9.017Zm0,1.768h-3.859v-.782h3.859Zm0,1.8-1.887.017-1.972-.017V-7.14h3.859Zm17.918,3.893a.7.7,0,0,0,.731-.731.69.69,0,0,0-.731-.714h-2.023v-.442l-.051-3.4a21.506,21.506,0,0,0,5.2,5.712,1.089,1.089,0,0,0,.595.2.989.989,0,0,0,.986-.935.836.836,0,0,0-.408-.7A18.153,18.153,0,0,1-74-9.01l4.709.068h.017a.708.708,0,0,0,.731-.748.712.712,0,0,0-.731-.765h-5.406v-2.839a.771.771,0,0,0-.833-.731.731.731,0,0,0-.8.731v2.839h-5.423a.771.771,0,0,0-.782.8.7.7,0,0,0,.765.714h.017l4.709-.068A18.265,18.265,0,0,1-82.62-2.958a.89.89,0,0,0-.442.731.832.832,0,0,0,.85.8,1.042,1.042,0,0,0,.612-.221,21.63,21.63,0,0,0,5.338-5.967L-76.313-4.3v.425h-2.006a.736.736,0,0,0-.765.748.688.688,0,0,0,.765.7h2.006V.493a.74.74,0,0,0,.816.7.74.74,0,0,0,.816-.7V-2.431Zm16.881-1.683a.913.913,0,0,0,.867-.9c0-1.02-2.448-2.3-3.026-2.3a.778.778,0,0,0-.8.748.685.685,0,0,0,.425.612,5.957,5.957,0,0,1,1.938,1.53A.718.718,0,0,0-55.777-4.114Zm-4.1-4.454c0-.34,0-.68-.017-.986-.017-.527-.306-1.411-2.057-1.411a10.7,10.7,0,0,0,.646-1.972.868.868,0,0,0-.918-.765.736.736,0,0,0-.765.663,14.784,14.784,0,0,1-.493,2.091H-63.7A1.463,1.463,0,0,0-65.28-9.486C-65.3-8.7-65.3-7.667-65.3-6.579c0,1.5,0,3.077.017,4.25A1.539,1.539,0,0,0-63.818-.765c.374.034.765.051,1.156.051,1.275,0,2.737-.068,2.771-1.6.017-1.02.034-2.38.034-3.757v-1.5a.872.872,0,0,0,.578.221c.442,0,.884-.323,1.8-2.176h3.383c.816,0,.85.561.85,2.754,0,5.491-1.513,6.069-2.635,6.069a5.5,5.5,0,0,1-1.292-.187,1.7,1.7,0,0,0-.272-.034.748.748,0,0,0-.765.8.894.894,0,0,0,.68.884,7.478,7.478,0,0,0,1.649.221c3.57,0,4.3-3.57,4.3-7.735,0-.867-.034-1.666-.068-2.261-.119-1.989-1.785-2.006-2.635-2.006-.765,0-1.768.017-2.516.034a10.425,10.425,0,0,0,.68-2.091.818.818,0,0,0-.867-.765.726.726,0,0,0-.748.6A13.1,13.1,0,0,1-59.874-8.568Zm-3.91,1.819c0-.918,0-1.785.017-2.38a.475.475,0,0,1,.476-.476c.187-.017.442-.017.7-.017s.51,0,.7.017c.493,0,.493.221.493,2.856Zm2.4,1.343c0,1-.034,1.972-.068,2.737-.034.527-.459.527-1.19.527-.918,0-1.122-.136-1.122-.51-.017-.714-.017-1.717-.017-2.754ZM-36.142-7.5c.833.527,1.717-.884.561-1.581a5.377,5.377,0,0,0-3.128-.6c-1.088.1-1.02,1.513-.085,1.462A4.37,4.37,0,0,1-36.142-7.5Zm-7.667-1.7A33.178,33.178,0,0,1-46.6-4.556c-.748,1.105.884,1.768,1.513.748a42.957,42.957,0,0,0,3.043-5.729,6.494,6.494,0,0,0,1.819-.782c1.088-.782.017-1.836-.748-1.292a5.274,5.274,0,0,1-.544.289,5.716,5.716,0,0,0,.238-1.037.814.814,0,0,0-1.615-.153,10.962,10.962,0,0,1-.34,1.717,4.538,4.538,0,0,1-2.329.051.778.778,0,1,0-.493,1.462A4.651,4.651,0,0,0-43.809-9.2Zm5.355,7.973a4.923,4.923,0,0,1,.969.884c.816.986,2.193-.221,1.224-1.292a6.168,6.168,0,0,0-2.074-1.36c-.017-.374-.051-.731-.068-1.054-.017-.493-.017-.918-.017-1.309a3.391,3.391,0,0,1,.1-.8.781.781,0,0,0-1.53-.306,5.07,5.07,0,0,0-.085,1.139c.017.425.051.85.051,1.275v.6a5.558,5.558,0,0,0-3.264.323C-44.9-2.346-44.71-.51-43.129.289A3.405,3.405,0,0,0-38.454-1.224Zm-1.513-.8c-.017.051,0,.119-.017.17a1.835,1.835,0,0,1-2.584.9.516.516,0,0,1-.017-.986A3.409,3.409,0,0,1-39.967-2.023Zm21.369-.1a.894.894,0,0,0,.272-1.207,9.455,9.455,0,0,0-2.924-2.5c-.969-.578-1.785.714-.952,1.207a8.792,8.792,0,0,1,2.482,2.3A.743.743,0,0,0-18.6-2.125Zm-6.647-5.287c.017,1.785.017,3.74,0,4.947-.017.935-.765.816-1.462.595-1.037-.34-1.7,1.411-.187,1.683,2.431.425,3.247-.595,3.247-1.938,0-.476,0-.731-.017-1.275-.051-1.173-.068-2.652-.051-4.029,1.275,0,2.55,0,3.808.068a.813.813,0,1,0,.068-1.6c-1.258-.017-2.55-.017-3.859,0,.017-.884.034-1.666.051-2.193a.819.819,0,1,0-1.632.068c.017.476.017,1.241.017,2.142-1.377.017-2.771.051-4.114.1a.79.79,0,1,0,.034,1.564C-27.982-7.327-26.605-7.378-25.245-7.412Zm-4.386,5.746a10.587,10.587,0,0,0,2.584-3.026.771.771,0,1,0-1.309-.816,8.488,8.488,0,0,1-2.261,2.431.821.821,0,0,0-.221,1.19A.868.868,0,0,0-29.631-1.666ZM-2.091-5.61a.821.821,0,0,0,.867-.833.824.824,0,0,0-.867-.85H-12.767a.867.867,0,0,0-.9.867.819.819,0,0,0,.9.816Zm13.26,3.825a8.766,8.766,0,0,1,.442.9.864.864,0,0,0,1.156.51.993.993,0,0,0,.544-1.241,12.22,12.22,0,0,0-3.128-4c-.952-.85-2.057.34-1.275,1.02A9.694,9.694,0,0,1,10.2-3.2c-1.326.323-3.2.731-4.964,1.054a80.631,80.631,0,0,0,2.924-7.9A.942.942,0,1,0,6.324-10.4,55.174,55.174,0,0,1,3.281-1.8c-.289.051-.595.085-.867.119C1.054-1.5,1.462.238,2.737.034,5.372-.408,8.976-1.173,11.169-1.785Zm18.649-7.5a1.857,1.857,0,0,0-1.853-1.853,1.843,1.843,0,0,0-1.836,1.853,1.828,1.828,0,0,0,1.836,1.836A1.843,1.843,0,0,0,29.818-9.282Zm1.8,7.531a.89.89,0,0,0-.17-1.309c-1.8-1.173-5.117-3.672-6.477-4.675a3.018,3.018,0,0,0-3.859-.119,17.012,17.012,0,0,1-2.635,1.615A.933.933,0,1,0,19.142-4.5,14.481,14.481,0,0,0,22-6.545a1.5,1.5,0,0,1,2.074.1c2.193,1.683,4.1,3.587,6.137,4.913A1.074,1.074,0,0,0,31.62-1.751ZM28.866-9.282a.907.907,0,0,1-.9.9.907.907,0,0,1-.9-.9.907.907,0,0,1,.9-.9A.907.907,0,0,1,28.866-9.282Zm18,3.672a.821.821,0,0,0,.867-.833.824.824,0,0,0-.867-.85H36.193a.867.867,0,0,0-.9.867.819.819,0,0,0,.9.816Zm17.017-6.052c.578.646,1.53-.425.85-1.105a5.426,5.426,0,0,0-1.717-.969c-.8-.255-1.411.782-.544,1.122A6.231,6.231,0,0,1,63.886-11.662Zm-1.564,1.513c.561.663,1.547-.374.884-1.088a5.259,5.259,0,0,0-1.683-1.02c-.782-.289-1.462.731-.6,1.088A6.011,6.011,0,0,1,62.322-10.149ZM58.6-8.041a.915.915,0,0,0-.085-1.326,9.3,9.3,0,0,0-2.261-1.411c-1.156-.51-1.836,1-.867,1.394a5.952,5.952,0,0,1,1.853,1.309A.907.907,0,0,0,58.6-8.041Zm6.562-.476c.748-1.343-.952-2.04-1.513-.986C61.863-6.12,58.089-2.38,54.706-1.462A.928.928,0,1,0,55.267.289C59.126-.986,62.985-4.624,65.161-8.517ZM56.576-5.338a.919.919,0,0,0-.391-1.275,8.6,8.6,0,0,0-2.482-.85c-1.241-.238-1.564,1.377-.544,1.547a5.961,5.961,0,0,1,2.108.867A.88.88,0,0,0,56.576-5.338ZM82.552-1.547a.628.628,0,0,0,.663-.646.628.628,0,0,0-.663-.646H81.6c0-.7,0-1.819-.034-2.482-.034-.748-.459-1.394-1.717-1.428-.425-.017-.9-.017-1.394-.017v-.7l3.944.034h.017a.6.6,0,0,0,.629-.629.61.61,0,0,0-.646-.629l-2.312.017v-.7l1.1.017h.017a.535.535,0,0,0,.578-.544.549.549,0,0,0-.578-.561h-.017l-1.1.017v-.731l1.819.017a.6.6,0,0,0,.646-.595.607.607,0,0,0-.646-.612l-1.819.017v-.833a.668.668,0,0,0-.714-.68.673.673,0,0,0-.731.68v.833H76.823v-.833a.664.664,0,0,0-.714-.663.669.669,0,0,0-.731.663v.816H73.933a.607.607,0,0,0-.646.612.6.6,0,0,0,.646.595l1.445-.017v.714H74.239a.55.55,0,0,0-.6.544.554.554,0,0,0,.6.561h1.139v.68l-1.717-.017a.62.62,0,0,0-.646.629.6.6,0,0,0,.629.629h.017l3.366-.034v.7c-.493,0-.969,0-1.394.017-1.241.034-1.649.748-1.683,1.428-.034.731-.051,1.564-.068,2.482h-.867a.628.628,0,0,0-.663.646.628.628,0,0,0,.663.646h.85V.493a.7.7,0,0,0,.731.731.7.7,0,0,0,.731-.731V-1.615h4.828l-.017.272c-.017.8-.374,1.02-.9,1.02a4.384,4.384,0,0,1-.867-.119.471.471,0,0,0-.153-.017.661.661,0,0,0-.646.714c0,.782.8.85,1.632.85,1.972,0,2.414-1.241,2.414-2.193v-.051L81.6-1.547ZM71.825.408s-.051-4.25-.068-6.9a6.144,6.144,0,0,1,.7.918.617.617,0,0,0,.493.306.821.821,0,0,0,.731-.833c0-.629-1.258-1.6-1.632-1.6a.559.559,0,0,0-.289.068V-8.959l.9.017h.034a.69.69,0,0,0,.714-.731.726.726,0,0,0-.748-.765h-.884c.017-1.5.051-2.771.051-2.771v-.017a.724.724,0,0,0-.8-.7.74.74,0,0,0-.816.7v.017l.034,2.771h-1.36a.722.722,0,0,0-.748.748.708.708,0,0,0,.731.748h.017l1.394-.034v.255A15.266,15.266,0,0,1,67.762-4.5a.8.8,0,0,0-.221.544.821.821,0,0,0,.816.782c.408,0,.816-.323,1.9-2.414l-.051,6V.425a.737.737,0,0,0,.8.714.743.743,0,0,0,.816-.714Zm6.817-10.846H76.823v-.731h1.819Zm0,1.768H76.823v-.7h1.819Zm1.513,3.944h-1.7v-.85c1.207,0,1.666.034,1.683.646Zm.017,1.955H78.455v-.8h1.717ZM77.027-4.726H75.378v-.2c.034-.629.442-.629,1.649-.629Zm0,1.955h-1.7c0-.272.017-.544.017-.8h1.683Zm20.128-8.585a.779.779,0,0,0,.731-.765.816.816,0,0,0-.323-.612,5.617,5.617,0,0,0-2.108-1,.654.654,0,0,0-.68.646.638.638,0,0,0,.408.6,6.091,6.091,0,0,1,1.445.918A.794.794,0,0,0,97.155-11.356Zm1.564,1.734a.687.687,0,0,0,.646-.765.707.707,0,0,0-.68-.782c-1.36,0-2.805-.017-4.284-.017-.034-.7-.034-1.36-.051-2.006a.766.766,0,0,0-.833-.765.8.8,0,0,0-.884.714c0,.085.051,1.53.085,2.057-1.6,0-3.2.017-4.692.017a1.526,1.526,0,0,0-1.717,1.6v.034c.017.8.051,1.683.051,2.584a12.159,12.159,0,0,1-1.479,6.63.954.954,0,0,0-.17.51A.771.771,0,0,0,85.544.9,1.131,1.131,0,0,0,86.479.34a13,13,0,0,0,1.547-6.8c.374-.017.748-.017,1.105-.017,1.462,0,1.462.017,1.462,1.088,0,1.581-.357,2.006-1.275,2.006a3.354,3.354,0,0,1-.595-.068.7.7,0,0,0-.187-.017c-.408,0-.629.391-.629.8,0,.765.493.918,1.326.918A2.734,2.734,0,0,0,92-3.621a7.252,7.252,0,0,0,.17-1.836c0-.425-.017-.8-.034-1a1.591,1.591,0,0,0-1.649-1.445c-.323-.017-.748-.017-1.173-.017-.442,0-.884,0-1.292.017v-1.02a.652.652,0,0,1,.7-.7c1.326,0,2.72-.017,4.131-.017A25.738,25.738,0,0,0,94.129-3.3a8.506,8.506,0,0,1-4.216,2.89.83.83,0,0,0-.646.8.809.809,0,0,0,.833.816A8.943,8.943,0,0,0,94.826-1.7C96.016.68,97.138.918,97.648.918c1.7,0,2.482-2.567,2.482-2.856a.911.911,0,0,0-.918-.833.718.718,0,0,0-.7.544c-.323.918-.561,1.326-.85,1.326-.068,0-.7-.136-1.7-2.159A16.772,16.772,0,0,0,98.26-7.633a.966.966,0,0,0-.986-.867.665.665,0,0,0-.663.459,17.74,17.74,0,0,1-1.36,3.111,23.044,23.044,0,0,1-.765-4.726c1.411,0,2.822.017,4.216.034Z" transform="translate(195.675 158.313)" fill="#fff"/>
    <g id="金額" transform="translate(55.396 92.029)">
      <rect id="長方形_19" data-name="長方形 19" width="281" height="39" rx="19.5" transform="translate(0.279 0.283)" fill="#fff"/>
      <g id="グループ_31" data-name="グループ 31" transform="translate(32.166 11.593)">
        <path id="パス_62" data-name="パス 62" d="M10.336-3.591a.892.892,0,0,0,.931-.912.888.888,0,0,0-.931-.893h-.019c-.589.019-1.615.019-2.755.019-.1,0-.114-.019-.133-.095a1.05,1.05,0,0,1,.266-.8l.342-.475c.076-.114.057-.1.209-.114l2.071.019h.019a.872.872,0,0,0,.912-.893.857.857,0,0,0-.912-.874H9.443c-.076,0-.095,0-.095-.019s.019-.038.038-.076c2.755-4.1,2.755-4.123,2.755-4.446a1.2,1.2,0,0,0-1.2-1.083.9.9,0,0,0-.8.494A59.683,59.683,0,0,1,6.935-8.664c-.057.076-.057.057-.152.076h-.8c-.114-.019-.133,0-.19-.076-1.273-1.881-2.527-3.724-3.287-5.054a.95.95,0,0,0-.855-.532,1.121,1.121,0,0,0-1.1,1.064,1.034,1.034,0,0,0,.209.627C3.42-8.626,3.42-8.607,3.42-8.607s0,.019-.152.019c-.551,0-1.007-.019-1.311-.019H1.919a.831.831,0,0,0-.855.874.864.864,0,0,0,.931.893c.646-.019,1.5-.038,2.451-.038.095,0,.209.038.7.855a.848.848,0,0,1,.114.532c-.019.095-.019.114-.133.114-1.349,0-2.584,0-3.173-.019H1.919a.836.836,0,0,0-.855.893.849.849,0,0,0,.931.912c.8-.038,1.938-.038,3.173-.038.076,0,.095.038.095.114v2.66A1.046,1.046,0,0,0,6.384.19.992.992,0,0,0,7.467-.8c0-.855-.019-1.824-.019-2.717,0-.057.019-.095.1-.095.988,0,1.938.019,2.774.019ZM21.47.114a1.129,1.129,0,0,0,1.2-1.121,1.014,1.014,0,0,0-1.14-.988c-1.558,0-3.7.152-5.282.171,1.577-1.71,3.439-3.325,4.883-5.149A6.211,6.211,0,0,0,22.7-10.735c0-2.261-2.09-3.629-4.294-3.629-2.983,0-4.427,2.261-4.427,2.926a1.078,1.078,0,0,0,1.121,1.007,1.149,1.149,0,0,0,.988-.57,2.768,2.768,0,0,1,2.337-1.463,1.9,1.9,0,0,1,1.976,1.938,3.92,3.92,0,0,1-1.064,2.432C17.67-6.042,15.466-3.781,14.155-2.3A1.936,1.936,0,0,0,13.6-1.007,1.043,1.043,0,0,0,14.668.114Zm12.9-4.75c0-2.071-1.2-4.37-4.6-4.37a6.974,6.974,0,0,0-1.425.133,3.823,3.823,0,0,1-.437.1c-.114,0-.152-.057-.152-.209V-9.12c.057-.38.342-1.9.437-2.565.057-.342.209-.513.57-.513.57,0,3.135.019,3.667.019a.936.936,0,0,0,.969-.969A.981.981,0,0,0,32.4-14.174c-3.116,0-3.4,0-3.952-.019H28.31a1.576,1.576,0,0,0-1.843,1.52C26.182-11,25.8-8.056,25.8-7.9c0,.912.532,1.292,1.368,1.292.095,0,.19-.019.285-.019A2.464,2.464,0,0,0,28.2-6.9a4.882,4.882,0,0,1,1.5-.266,2.453,2.453,0,0,1,2.6,2.546,2.859,2.859,0,0,1-3.021,2.888,3.958,3.958,0,0,1-2.6-.988A1.066,1.066,0,0,0,26.011-3a1.053,1.053,0,0,0-.988,1.083c0,1.254,2.413,2.166,4.161,2.166A4.846,4.846,0,0,0,34.371-4.636Zm6.8,5c4.6,0,4.769-5.168,4.769-7.315,0-.817-.057-1.653-.133-2.489-.3-3.173-2.09-4.921-4.636-4.921-2.584,0-4.389,1.824-4.655,5.13-.057.779-.095,1.52-.095,2.242,0,.8.038,1.6.114,2.413C36.841-1.387,38.646.361,41.173.361Zm0-2c-1.235,0-2.261-1.121-2.489-3.059a19.683,19.683,0,0,1-.133-2.375c0-.684.038-1.387.1-2.09.19-2.033,1.2-3.249,2.527-3.249,2.6,0,2.6,3.762,2.6,5.225A20.267,20.267,0,0,1,43.6-4.5C43.339-2.7,42.351-1.634,41.173-1.634ZM49.286,1.71c.494-.57,1.368-1.729,1.862-2.451a1.217,1.217,0,0,0,.228-.665,1.108,1.108,0,0,0-1.1-1.064,1.031,1.031,0,0,0-.893.57c-1.406,2.337-1.6,2.755-1.6,3.1a.843.843,0,0,0,.855.817A.864.864,0,0,0,49.286,1.71Zm8.7-1.349c4.6,0,4.769-5.168,4.769-7.315,0-.817-.057-1.653-.133-2.489-.3-3.173-2.09-4.921-4.636-4.921-2.584,0-4.389,1.824-4.655,5.13-.057.779-.095,1.52-.095,2.242,0,.8.038,1.6.114,2.413C53.656-1.387,55.461.361,57.988.361Zm0-2c-1.235,0-2.261-1.121-2.489-3.059a19.683,19.683,0,0,1-.133-2.375c0-.684.038-1.387.1-2.09.19-2.033,1.2-3.249,2.527-3.249,2.6,0,2.6,3.762,2.6,5.225A20.267,20.267,0,0,1,60.42-4.5C60.154-2.7,59.166-1.634,57.988-1.634Zm11.4,2c4.6,0,4.769-5.168,4.769-7.315,0-.817-.057-1.653-.133-2.489-.3-3.173-2.09-4.921-4.636-4.921-2.584,0-4.389,1.824-4.655,5.13-.057.779-.1,1.52-.1,2.242,0,.8.038,1.6.114,2.413C65.056-1.387,66.861.361,69.388.361Zm0-2c-1.235,0-2.261-1.121-2.489-3.059a19.682,19.682,0,0,1-.133-2.375c0-.684.038-1.387.1-2.09.19-2.033,1.2-3.249,2.527-3.249,2.6,0,2.6,3.762,2.6,5.225A20.267,20.267,0,0,1,71.82-4.5C71.554-2.7,70.566-1.634,69.388-1.634Zm11.4,2c4.6,0,4.769-5.168,4.769-7.315,0-.817-.057-1.653-.133-2.489-.3-3.173-2.09-4.921-4.636-4.921-2.584,0-4.389,1.824-4.655,5.13-.057.779-.1,1.52-.1,2.242,0,.8.038,1.6.114,2.413C76.456-1.387,78.261.361,80.788.361Zm0-2c-1.235,0-2.261-1.121-2.489-3.059a19.682,19.682,0,0,1-.133-2.375c0-.684.038-1.387.095-2.09.19-2.033,1.2-3.249,2.527-3.249,2.6,0,2.6,3.762,2.6,5.225A20.267,20.267,0,0,1,83.22-4.5C82.954-2.7,81.966-1.634,80.788-1.634Z" transform="translate(128.113 16.691)" fill="#676767"/>
        <path id="パス_61" data-name="パス 61" d="M6.984-7.326a.516.516,0,0,0-.54-.522.745.745,0,0,0-.558.27A3.807,3.807,0,0,1,3.1-6.21a3.947,3.947,0,0,1-2.142-.7c-.54-.342-1.062-.72-1.638-1.026A5.17,5.17,0,0,0-3.06-8.55c-1.89,0-3.924,1.512-3.924,2.178a.531.531,0,0,0,.558.522.722.722,0,0,0,.54-.252,3.856,3.856,0,0,1,2.79-1.4,4.016,4.016,0,0,1,2.142.72c.54.342,1.062.756,1.638,1.062a5.107,5.107,0,0,0,2.358.63C4.95-5.094,6.984-6.642,6.984-7.326Z" transform="translate(108.199 16)" fill="#676767" stroke="#676767" stroke-width="1"/>
        <path id="パス_60" data-name="パス 60" d="M10.336-3.591a.892.892,0,0,0,.931-.912.888.888,0,0,0-.931-.893h-.019c-.589.019-1.615.019-2.755.019-.1,0-.114-.019-.133-.095a1.05,1.05,0,0,1,.266-.8l.342-.475c.076-.114.057-.1.209-.114l2.071.019h.019a.872.872,0,0,0,.912-.893.857.857,0,0,0-.912-.874H9.443c-.076,0-.095,0-.095-.019s.019-.038.038-.076c2.755-4.1,2.755-4.123,2.755-4.446a1.2,1.2,0,0,0-1.2-1.083.9.9,0,0,0-.8.494A59.683,59.683,0,0,1,6.935-8.664c-.057.076-.057.057-.152.076h-.8c-.114-.019-.133,0-.19-.076-1.273-1.881-2.527-3.724-3.287-5.054a.95.95,0,0,0-.855-.532,1.121,1.121,0,0,0-1.1,1.064,1.034,1.034,0,0,0,.209.627C3.42-8.626,3.42-8.607,3.42-8.607s0,.019-.152.019c-.551,0-1.007-.019-1.311-.019H1.919a.831.831,0,0,0-.855.874.864.864,0,0,0,.931.893c.646-.019,1.5-.038,2.451-.038.095,0,.209.038.7.855a.848.848,0,0,1,.114.532c-.019.095-.019.114-.133.114-1.349,0-2.584,0-3.173-.019H1.919a.836.836,0,0,0-.855.893.849.849,0,0,0,.931.912c.8-.038,1.938-.038,3.173-.038.076,0,.095.038.095.114v2.66A1.046,1.046,0,0,0,6.384.19.992.992,0,0,0,7.467-.8c0-.855-.019-1.824-.019-2.717,0-.057.019-.095.1-.095.988,0,1.938.019,2.774.019ZM19.722-.779V-.817c-.038-1.178-.038-2.375-.038-3.553,0-2.717.057-5.263.057-6.783,0-.418,0-.76-.019-1.007a2.023,2.023,0,0,0-2.2-2.033c-.4,0-.551,0-.931.019a1.1,1.1,0,0,0-.988,1.159.946.946,0,0,0,.969,1.007h.266c.646,0,.741.209.741,2.869,0,2.508-.076,6.555-.076,8.322A1.057,1.057,0,0,0,18.62.228,1.023,1.023,0,0,0,19.722-.779ZM34.371-4.636c0-2.071-1.2-4.37-4.6-4.37a6.974,6.974,0,0,0-1.425.133,3.823,3.823,0,0,1-.437.1c-.114,0-.152-.057-.152-.209V-9.12c.057-.38.342-1.9.437-2.565.057-.342.209-.513.57-.513.57,0,3.135.019,3.667.019a.936.936,0,0,0,.969-.969A.981.981,0,0,0,32.4-14.174c-3.116,0-3.4,0-3.952-.019H28.31a1.576,1.576,0,0,0-1.843,1.52C26.182-11,25.8-8.056,25.8-7.9c0,.912.532,1.292,1.368,1.292.095,0,.19-.019.285-.019A2.464,2.464,0,0,0,28.2-6.9a4.882,4.882,0,0,1,1.5-.266,2.453,2.453,0,0,1,2.6,2.546,2.859,2.859,0,0,1-3.021,2.888,3.958,3.958,0,0,1-2.6-.988A1.066,1.066,0,0,0,26.011-3a1.053,1.053,0,0,0-.988,1.083c0,1.254,2.413,2.166,4.161,2.166A4.846,4.846,0,0,0,34.371-4.636Zm6.8,5c4.6,0,4.769-5.168,4.769-7.315,0-.817-.057-1.653-.133-2.489-.3-3.173-2.09-4.921-4.636-4.921-2.584,0-4.389,1.824-4.655,5.13-.057.779-.095,1.52-.095,2.242,0,.8.038,1.6.114,2.413C36.841-1.387,38.646.361,41.173.361Zm0-2c-1.235,0-2.261-1.121-2.489-3.059a19.683,19.683,0,0,1-.133-2.375c0-.684.038-1.387.1-2.09.19-2.033,1.2-3.249,2.527-3.249,2.6,0,2.6,3.762,2.6,5.225A20.267,20.267,0,0,1,43.6-4.5C43.339-2.7,42.351-1.634,41.173-1.634ZM49.286,1.71c.494-.57,1.368-1.729,1.862-2.451a1.217,1.217,0,0,0,.228-.665,1.108,1.108,0,0,0-1.1-1.064,1.031,1.031,0,0,0-.893.57c-1.406,2.337-1.6,2.755-1.6,3.1a.843.843,0,0,0,.855.817A.864.864,0,0,0,49.286,1.71Zm8.7-1.349c4.6,0,4.769-5.168,4.769-7.315,0-.817-.057-1.653-.133-2.489-.3-3.173-2.09-4.921-4.636-4.921-2.584,0-4.389,1.824-4.655,5.13-.057.779-.095,1.52-.095,2.242,0,.8.038,1.6.114,2.413C53.656-1.387,55.461.361,57.988.361Zm0-2c-1.235,0-2.261-1.121-2.489-3.059a19.683,19.683,0,0,1-.133-2.375c0-.684.038-1.387.1-2.09.19-2.033,1.2-3.249,2.527-3.249,2.6,0,2.6,3.762,2.6,5.225A20.267,20.267,0,0,1,60.42-4.5C60.154-2.7,59.166-1.634,57.988-1.634Zm11.4,2c4.6,0,4.769-5.168,4.769-7.315,0-.817-.057-1.653-.133-2.489-.3-3.173-2.09-4.921-4.636-4.921-2.584,0-4.389,1.824-4.655,5.13-.057.779-.1,1.52-.1,2.242,0,.8.038,1.6.114,2.413C65.056-1.387,66.861.361,69.388.361Zm0-2c-1.235,0-2.261-1.121-2.489-3.059a19.682,19.682,0,0,1-.133-2.375c0-.684.038-1.387.1-2.09.19-2.033,1.2-3.249,2.527-3.249,2.6,0,2.6,3.762,2.6,5.225A20.267,20.267,0,0,1,71.82-4.5C71.554-2.7,70.566-1.634,69.388-1.634Zm11.4,2c4.6,0,4.769-5.168,4.769-7.315,0-.817-.057-1.653-.133-2.489-.3-3.173-2.09-4.921-4.636-4.921-2.584,0-4.389,1.824-4.655,5.13-.057.779-.1,1.52-.1,2.242,0,.8.038,1.6.114,2.413C76.456-1.387,78.261.361,80.788.361Zm0-2c-1.235,0-2.261-1.121-2.489-3.059a19.682,19.682,0,0,1-.133-2.375c0-.684.038-1.387.095-2.09.19-2.033,1.2-3.249,2.527-3.249,2.6,0,2.6,3.762,2.6,5.225A20.267,20.267,0,0,1,83.22-4.5C82.954-2.7,81.966-1.634,80.788-1.634Z" transform="translate(0.113 16.691)" fill="#676767"/>
      </g>
    </g>
    <path id="パス_59" data-name="パス 59" d="M-84.175-8.715a36.411,36.411,0,0,1,8.19,7.035c1.645,2.065,4.27-.665,2.87-2.625-1.61-2.24-6.055-5.18-8.96-6.93a56.01,56.01,0,0,0,3.885-5.95c1.365-2.38-.42-4.375-3.57-4.375-3.535,0-8.68.07-11.235.175-2.24.105-2.1,3.465,0,3.4,3.08-.07,7.91-.245,10.115-.21.77,0,.91.56.6,1.155C-85.05-11.83-90.58-6.23-96.95-4.025c-2.625.91-1.435,4.34,1.12,3.4A29.568,29.568,0,0,0-84.175-8.715Zm37.59.665a19.949,19.949,0,0,1,2.1,1.89A1.68,1.68,0,0,0-42-6.055a1.9,1.9,0,0,0,.07-2.66,13.221,13.221,0,0,0-2.52-2.2c1.365-1.995,2.66-4.165,3.955-6.51,1.365-2.485.735-5-2.87-4.9-1.68.07-3.605.245-5.32.385q.367-.525.63-.945c1.225-2.03-2.38-4.2-3.6-1.225-1.26,3.01-5.95,8.925-9.345,11.025-2.38,1.47-.315,4.515,2.03,2.9,2.345-1.645,5.565-5.32,8.015-8.54,1.19-.14,4.795-.49,6.195-.525.91-.035,1.05.14.385,1.575a34.4,34.4,0,0,1-2.94,5,23.162,23.162,0,0,0-4.41-1.82c-2.45-.7-3.36,2.275-1.4,2.8a15.32,15.32,0,0,1,3.675,1.68,27.251,27.251,0,0,1-11.69,7.98c-2.66.875-1.295,4.165,1.505,3.08A30.117,30.117,0,0,0-46.585-8.05Zm44.52-9.9C-.525-20.72-4.13-22.19-5.25-20.02c-3.535,6.86-10.6,14.105-17.64,15.89C-25.8-3.395-24.675.6-21.7-.35-13.65-2.9-6.405-10.08-2.065-17.955ZM-16.66-15.12a2.069,2.069,0,0,0-.455-2.9,22.2,22.2,0,0,0-6.16-2.66c-2.66-.735-3.535,2.8-1.435,3.29a12.919,12.919,0,0,1,5.18,2.59A1.854,1.854,0,0,0-16.66-15.12Zm49.945-9.59c1.19,1.33,3.15-.875,1.75-2.275A11.171,11.171,0,0,0,31.5-28.98c-1.645-.525-2.9,1.575-1.12,2.275A12.962,12.962,0,0,1,33.285-24.71ZM30.1-21.595c1.155,1.365,3.185-.77,1.82-2.24a10.826,10.826,0,0,0-3.465-2.1c-1.61-.6-3.01,1.5-1.225,2.24A12.375,12.375,0,0,1,30.1-21.595ZM21.84-8.05a19.948,19.948,0,0,1,2.1,1.89,1.68,1.68,0,0,0,2.485.105,1.9,1.9,0,0,0,.07-2.66,13.221,13.221,0,0,0-2.52-2.2c1.365-1.995,2.66-4.165,3.955-6.51,1.365-2.485.735-5-2.87-4.9-1.68.07-3.6.245-5.32.385q.368-.525.63-.945c1.225-2.03-2.38-4.2-3.6-1.225C15.5-21.1,10.815-15.19,7.42-13.09c-2.38,1.47-.315,4.515,2.03,2.9,2.345-1.645,5.565-5.32,8.015-8.54,1.19-.14,4.8-.49,6.195-.525.91-.035,1.05.14.385,1.575a34.4,34.4,0,0,1-2.94,5,23.163,23.163,0,0,0-4.41-1.82c-2.45-.7-3.36,2.275-1.4,2.8a15.32,15.32,0,0,1,3.675,1.68A27.251,27.251,0,0,1,7.28-2.03c-2.66.875-1.295,4.165,1.505,3.08A30.117,30.117,0,0,0,21.84-8.05Zm39.13-3.5a1.689,1.689,0,0,0,1.785-1.715,1.7,1.7,0,0,0-1.785-1.75H38.99a1.785,1.785,0,0,0-1.855,1.785,1.685,1.685,0,0,0,1.855,1.68ZM95.2-22.365c1.3,1.3,3.22-1.085,1.68-2.45a11.962,11.962,0,0,0-3.745-1.82c-1.715-.455-2.94,1.82-1.05,2.415A12.654,12.654,0,0,1,95.2-22.365ZM92.05-19c1.26,1.33,3.22-.945,1.75-2.38a11.7,11.7,0,0,0-3.675-1.96c-1.715-.525-3.01,1.715-1.155,2.38A13.2,13.2,0,0,1,92.05-19Zm-8.19,5.88a21.7,21.7,0,0,1,6.825,2.835c2,1.47,3.99-1.575,2.17-3.115-1.89-1.61-6.44-2.73-8.4-3.045a3.6,3.6,0,0,0-.6-.035c.035-3.43.07-6.475.1-8.19.07-2.38-3.71-2.415-3.64-.035.14,5.04.035,18.76-.21,24.43-.14,2.8,3.85,2.695,3.78-.14S83.825-8.3,83.86-13.125Z" transform="translate(190.675 59.313)" fill="#fff"/>
  </g>
</svg>
