<svg xmlns="http://www.w3.org/2000/svg" xmlns:xlink="http://www.w3.org/1999/xlink" width="406" height="695" viewBox="0 0 406 695">
  <defs>
    <filter id="枠" x="0" y="0" width="406" height="695" filterUnits="userSpaceOnUse">
      <feOffset dx="3" dy="3" input="SourceAlpha"/>
      <feGaussianBlur stdDeviation="1.5" result="blur"/>
      <feFlood flood-opacity="0.275"/>
      <feComposite operator="in" in2="blur"/>
      <feComposite in="SourceGraphic"/>
    </filter>
  </defs>
  <g id="ベーシック" transform="translate(3.275 3.187)">
    <path id="メインベース" d="M20,0H372a20,20,0,0,1,20,20V597a0,0,0,0,1,0,0H0a0,0,0,0,1,0,0V20A20,20,0,0,1,20,0Z" transform="translate(392.225 682.313) rotate(180)" fill="#fff"/>
    <path id="タイトルベース" d="M20,0H372a20,20,0,0,1,20,20V179a0,0,0,0,1,0,0H0a0,0,0,0,1,0,0V20A20,20,0,0,1,20,0Z" transform="translate(0.225 0.313)" fill="#00aeb5"/>
    <g transform="matrix(1, 0, 0, 1, -3.28, -3.19)" filter="url(#枠)">
      <g id="枠-2" data-name="枠" transform="translate(4.5 4.5)" fill="none" stroke="#fff" stroke-linecap="round" stroke-linejoin="round" stroke-width="3">
        <rect width="391" height="680" rx="20" stroke="none"/>
        <rect x="-1.5" y="-1.5" width="394" height="683" rx="21.5" fill="none"/>
      </g>
    </g>
    <path id="パス_80" data-name="パス 80" d="M-40.656-9.478A1.363,1.363,0,0,0-42-10.822a1.363,1.363,0,0,0-1.344,1.344A1.341,1.341,0,0,0-42-8.148,1.341,1.341,0,0,0-40.656-9.478ZM-36.5-5.32a1.363,1.363,0,0,0-1.344-1.344,1.341,1.341,0,0,0-1.33,1.344,1.341,1.341,0,0,0,1.33,1.344A1.363,1.363,0,0,0-36.5-5.32Zm-.8,5.152a.469.469,0,0,0,.434-.448.351.351,0,0,0-.112-.252c-1.022-.98-2.66-2.6-4.34-4.284a.271.271,0,0,1-.084-.182.214.214,0,0,1,.056-.14c1.694-1.694,3.346-3.332,4.368-4.3a.322.322,0,0,0,.112-.252.482.482,0,0,0-.448-.448.322.322,0,0,0-.252.112c-.966,1.008-2.562,2.66-4.242,4.34a.276.276,0,0,1-.2.084.27.27,0,0,1-.21-.1c-1.666-1.68-3.276-3.332-4.228-4.326a.322.322,0,0,0-.252-.112.482.482,0,0,0-.448.448.3.3,0,0,0,.112.252c1.008.952,2.646,2.562,4.312,4.242a.292.292,0,0,1,.1.21.246.246,0,0,1-.084.182c-1.68,1.666-3.3,3.29-4.326,4.27a.351.351,0,0,0-.112.252.469.469,0,0,0,.434.448.342.342,0,0,0,.252-.112c.98-1.008,2.632-2.66,4.3-4.34a.242.242,0,0,1,.168-.084c.126,0,.224.1,4.438,4.424A.342.342,0,0,0-37.3-.168Zm-8.862-3.808a1.341,1.341,0,0,0,1.33-1.344,1.341,1.341,0,0,0-1.33-1.344,1.351,1.351,0,0,0-1.33,1.344A1.351,1.351,0,0,0-46.158-3.976Zm5.5,2.814A1.341,1.341,0,0,0-42-2.492a1.341,1.341,0,0,0-1.344,1.33A1.351,1.351,0,0,0-42,.168,1.351,1.351,0,0,0-40.656-1.162ZM-23.534.5a.537.537,0,0,0,.574-.546.537.537,0,0,0-.574-.546h-3.85v-.966h1.9a.534.534,0,0,0,.574-.532.534.534,0,0,0-.574-.532h-1.9v-.5a.621.621,0,0,0-.658-.616.587.587,0,0,0-.63.6v.518h-1.82a.58.58,0,0,0-.224.028,11.007,11.007,0,0,0,1.5-1.54h2.436c1.526,1.764,3.682,3.038,4.326,3.038a.719.719,0,0,0,.714-.728.6.6,0,0,0-.448-.588,8.242,8.242,0,0,1-3.178-1.708l2.884.028h.014a.533.533,0,0,0,.532-.574.532.532,0,0,0-.546-.56l-2.66.014V-8.75h1.974a.539.539,0,0,0,.56-.574.535.535,0,0,0-.56-.56h-1.974v-1.022a.582.582,0,0,0-.644-.56.582.582,0,0,0-.644.56V-9.87L-28-9.856l-1.61-.014v-1.036a.582.582,0,0,0-.644-.56.582.582,0,0,0-.644.56v1.022h-1.918a.555.555,0,0,0-.6.56.558.558,0,0,0,.6.574H-30.9v3.542l-2.618-.014a.554.554,0,0,0-.588.574.547.547,0,0,0,.574.56h.014l2.926-.028a8.449,8.449,0,0,1-3.248,2.044.609.609,0,0,0-.434.588.615.615,0,0,0,.616.63A6.708,6.708,0,0,0-31.01-2.338a.549.549,0,0,0-.056.252.534.534,0,0,0,.574.532h1.82v.966h-3.71a.544.544,0,0,0-.574.546A.537.537,0,0,0-32.382.5Zm-2.9-8.652H-29.61v-.616L-28-8.778l1.568.014Zm0,1.456H-29.61v-.644h3.178Zm0,1.484-1.554.014-1.624-.014V-5.88h3.178ZM-11.676-2a.572.572,0,0,0,.6-.6.569.569,0,0,0-.6-.588h-1.666v-.364l-.042-2.8A17.711,17.711,0,0,0-9.1-1.652a.9.9,0,0,0,.49.168.815.815,0,0,0,.812-.77.688.688,0,0,0-.336-.574A14.95,14.95,0,0,1-12.782-7.42l3.878.056h.014a.583.583,0,0,0,.6-.616.587.587,0,0,0-.6-.63h-4.452v-2.338a.635.635,0,0,0-.686-.6.6.6,0,0,0-.658.6V-8.61h-4.466a.635.635,0,0,0-.644.658.577.577,0,0,0,.63.588h.014l3.878-.056A15.042,15.042,0,0,1-19.88-2.436a.733.733,0,0,0-.364.6.685.685,0,0,0,.7.658.858.858,0,0,0,.5-.182,17.813,17.813,0,0,0,4.4-4.914l-.042,2.73v.35h-1.652a.606.606,0,0,0-.63.616.567.567,0,0,0,.63.574h1.652V.406a.61.61,0,0,0,.672.574.61.61,0,0,0,.672-.574V-2ZM1.9-7.644a.681.681,0,0,0,.63-.7.76.76,0,0,0-.21-.532A4.179,4.179,0,0,0,.588-9.9.676.676,0,0,0-.1-9.3.427.427,0,0,0,.154-8.9,5.613,5.613,0,0,1,1.442-7.882.624.624,0,0,0,1.9-7.644ZM3.15.392c0,.364.336.546.672.546s.672-.182.672-.546L4.466-3.22l1.652-.462a.57.57,0,0,0,.448-.56.621.621,0,0,0-.6-.63,1.1,1.1,0,0,0-.2.028l-1.3.364.028-6.258a.635.635,0,0,0-.686-.6.6.6,0,0,0-.658.6l.028,6.622L-.714-3.038a.627.627,0,0,0-.476.6.585.585,0,0,0,.588.6.655.655,0,0,0,.224-.028l3.556-.994ZM1.778-4.858a.666.666,0,0,0,.616-.686.754.754,0,0,0-.28-.574A4.057,4.057,0,0,0,.35-6.944a.66.66,0,0,0-.7.574.508.508,0,0,0,.322.448,7.592,7.592,0,0,1,1.372.882A.654.654,0,0,0,1.778-4.858Zm-6.44-2.674a.654.654,0,0,0,.644-.658c0-.322-.7-1.722-1.33-1.722-.322,0-.658.224-.658.518A.484.484,0,0,0-5.88-9.1a5.975,5.975,0,0,1,.756,1.246A.5.5,0,0,0-4.662-7.532ZM-2.59.406s-.056-2.534-.07-4.578a5.7,5.7,0,0,1,.812.9.558.558,0,0,0,.448.238A.687.687,0,0,0-.756-3.71c0-.532-1.288-1.428-1.624-1.428a.637.637,0,0,0-.28.07v-.714l1.5.028h.014a.57.57,0,0,0,.56-.6.561.561,0,0,0-.574-.588H-2.646l.014-.9a.561.561,0,0,0,.518.322.585.585,0,0,0,.434-.21A4.832,4.832,0,0,0-.658-9.366a.667.667,0,0,0-.658-.6.472.472,0,0,0-.448.294,10.224,10.224,0,0,1-.8,1.358.567.567,0,0,0-.07.126c.014-1.358.042-2.52.042-2.52v-.014a.625.625,0,0,0-.672-.616.625.625,0,0,0-.672.616v.014l.042,3.766H-5.46a.606.606,0,0,0-.616.63.547.547,0,0,0,.6.56h.014l1.582-.028v.042A12.027,12.027,0,0,1-6.286-2.716a.578.578,0,0,0-.238.448.678.678,0,0,0,.686.63c.224,0,.686-.1,1.96-2.17L-3.934.406V.42a.61.61,0,0,0,.672.574A.61.61,0,0,0-2.59.42ZM19.194.336a.568.568,0,0,0,.588-.6.576.576,0,0,0-.588-.6l-2.73.028a6.672,6.672,0,0,0,.966-1.848.755.755,0,0,0-.784-.658.589.589,0,0,0-.6.448,8.514,8.514,0,0,1-.9,2.072h-.49V-3.808h3.4a.588.588,0,0,0,.63-.6.6.6,0,0,0-.63-.6h-3.4v-1.2H16.31a.588.588,0,0,0,.63-.6.6.6,0,0,0-.63-.6H11.8a.637.637,0,0,0-.378.112,19.8,19.8,0,0,0,2.2-2.338.5.5,0,0,1,.392-.238.6.6,0,0,1,.42.238c1.54,1.722,4.2,3.976,4.956,3.976a.828.828,0,0,0,.812-.8.634.634,0,0,0-.378-.574,16.748,16.748,0,0,1-4.578-3.514,1.815,1.815,0,0,0-1.33-.658,1.575,1.575,0,0,0-1.246.658A15.275,15.275,0,0,1,8.218-6.608a.7.7,0,0,0-.434.63.732.732,0,0,0,.742.714c.2,0,.714-.07,2.758-1.918a.6.6,0,0,0-.126.364.592.592,0,0,0,.644.6h1.512v1.2H9.982a.6.6,0,0,0-.644.6.608.608,0,0,0,.644.6h3.332V-.826L8.862-.868a.6.6,0,0,0-.644.6.6.6,0,0,0,.644.6ZM12.418-1.68c0-.364-.784-1.6-1.386-1.6-.336,0-.7.252-.7.546a.371.371,0,0,0,.112.266,4.1,4.1,0,0,1,.812,1.134.483.483,0,0,0,.462.308A.714.714,0,0,0,12.418-1.68ZM29.75-7.308a.568.568,0,0,0,.616-.56.581.581,0,0,0-.616-.588H26.11a17.666,17.666,0,0,0,1.54-1.512.5.5,0,0,1,.35-.21.554.554,0,0,1,.364.21c1.82,1.806,4.438,3.584,5.124,3.584a.761.761,0,0,0,.756-.756.645.645,0,0,0-.406-.588,17.053,17.053,0,0,1-4.648-3.094,1.871,1.871,0,0,0-1.274-.588,1.58,1.58,0,0,0-1.2.6A15.143,15.143,0,0,1,22.2-7.336a.711.711,0,0,0-.434.644.659.659,0,0,0,.658.672c.658,0,2.688-1.6,3.206-2.03a.7.7,0,0,0-.028.168.578.578,0,0,0,.616.574Zm.308,3.6a3.606,3.606,0,0,0,.91-1.834c0-.574-.448-.994-1.19-1.008-.546-.014-1.246-.028-1.974-.028-1.022,0-2.1.014-2.9.042a.6.6,0,0,0-.616.6.555.555,0,0,0,.6.56h.014c.924-.014,2.52-.028,3.626-.028h.686c.2,0,.266.084.266.2a3.534,3.534,0,0,1-.994,1.484c-1.12,0-2.226,0-3.024.028-1.12.028-1.554.686-1.568,1.316,0,.21-.014.5-.014.8s.014.6.014.854c.028.77.574,1.316,1.6,1.358.784.028,1.624.042,2.464.042S29.68.658,30.492.63A1.5,1.5,0,0,0,32.06-.742c.014-.266.028-.574.028-.882s-.014-.63-.028-.868a1.434,1.434,0,0,0-1.5-1.2Zm0,3.178c-.644.014-1.386.028-2.128.028s-1.442-.014-2.044-.028-.658-.252-.658-1.05c0-.616.028-.994.644-1.008.658-.014,1.5-.028,2.31-.028.672,0,1.33.014,1.848.028.63.014.658.294.658,1.008S30.66-.56,30.058-.532ZM47.18-5.754a.7.7,0,0,0,.252-.966,3.557,3.557,0,0,0-2.618-1.512c-1.008-.07-1.064,1.218-.21,1.246a2.195,2.195,0,0,1,1.61,1.022A.677.677,0,0,0,47.18-5.754ZM38.794-2.576c-.42,1.274-.154,2.2.728,2.73A6,6,0,0,0,43.75.378C45.682-.266,46.13-1.6,45.71-3.57c-.224-1.092-1.624-.77-1.414.14.308,1.33.126,2.156-.938,2.52A4.679,4.679,0,0,1,40.25-.924c-.518-.322-.434-.938-.168-1.568.224-.518.56-1.12.714-1.554a1.553,1.553,0,0,0-.042-1.288c.014-.294.028-.588.042-.784.028-.518.042-.966.07-1.414a6.628,6.628,0,0,0,1.078-.434c.924-.532.182-1.652-.532-1.176a2.611,2.611,0,0,1-.392.224,7.245,7.245,0,0,0,.014-.938c-.042-.938-1.6-1.008-1.484.07a8.27,8.27,0,0,1,.112,1.3A2.239,2.239,0,0,1,38.5-8.568a.643.643,0,0,0-.49,1.19,3.146,3.146,0,0,0,1.568.14c-.028.336-.056.686-.07,1.022l-.238-.042a1.848,1.848,0,0,0-1.6,2.982A1.463,1.463,0,0,0,38.794-2.576Zm.784-1.89a2.16,2.16,0,0,1-.07.238c-.364.91-.966.448-1.092.126a.744.744,0,0,1,.728-1.078.451.451,0,0,1,.378.28l.014.014a.932.932,0,0,1,.042.406Z" transform="translate(314.224 659.313)" fill="#c18b4b"/>
    <g id="ショップ" transform="translate(154.573 554.386)">
      <path id="パス_79" data-name="パス 79" d="M-34.09-6.622a.754.754,0,0,0-.07-1.092,7.658,7.658,0,0,0-1.862-1.162c-.952-.42-1.512.826-.714,1.148A4.9,4.9,0,0,1-35.21-6.65.747.747,0,0,0-34.09-6.622Zm5.4-.392c.616-1.106-.784-1.68-1.246-.812C-31.4-5.04-34.51-1.96-37.3-1.2A.764.764,0,1,0-36.834.238C-33.656-.812-30.478-3.808-28.686-7.014ZM-35.756-4.4a.757.757,0,0,0-.322-1.05,7.081,7.081,0,0,0-2.044-.7c-1.022-.2-1.288,1.134-.448,1.274a4.909,4.909,0,0,1,1.736.714A.725.725,0,0,0-35.756-4.4Zm15.386.91A14.565,14.565,0,0,1-17.094-.672c.658.826,1.708-.266,1.148-1.05A14.555,14.555,0,0,0-19.53-4.494a22.4,22.4,0,0,0,1.554-2.38c.546-.952-.168-1.75-1.428-1.75-1.414,0-3.472.028-4.494.07a.68.68,0,0,0,0,1.358c1.232-.028,3.164-.1,4.046-.084.308,0,.364.224.238.462A11.382,11.382,0,0,1-25.48-1.61a.722.722,0,1,0,.448,1.358A11.827,11.827,0,0,0-20.37-3.486ZM-3.108-8.918a.638.638,0,0,0-.714-.644c-1.834.042-3.7.1-5.46.084a.66.66,0,1,0-.014,1.3c1.5,0,3.6-.056,5.53-.084A.639.639,0,0,0-3.108-8.918ZM-5.4-5.46c1.232-.014,2.38,0,3.15.028a.687.687,0,0,0,.77-.63.62.62,0,0,0-.686-.672c-2.282.014-6.692.042-8.68.07a.711.711,0,0,0-.8.686.641.641,0,0,0,.728.63c.98-.028,2.52-.084,4.074-.1a4.63,4.63,0,0,1-3.57,4.41C-11.4-.77-11.172.728-9.8.252A6.237,6.237,0,0,0-5.4-5.46ZM9.268-1.47a7.219,7.219,0,0,1,.364.742.712.712,0,0,0,.952.42.818.818,0,0,0,.448-1.022A10.063,10.063,0,0,0,8.456-4.62c-.784-.7-1.694.28-1.05.84A7.983,7.983,0,0,1,8.47-2.632c-1.092.266-2.632.6-4.088.868A66.4,66.4,0,0,0,6.79-8.274a.776.776,0,1,0-1.512-.294A45.438,45.438,0,0,1,2.772-1.484c-.238.042-.49.07-.714.1C.938-1.232,1.274.2,2.324.028,4.494-.336,7.462-.966,9.268-1.47Zm16.786.2a.518.518,0,0,0,.546-.532.518.518,0,0,0-.546-.532H25.27c0-.574,0-1.5-.028-2.044C25.214-5,24.864-5.53,23.828-5.558c-.35-.014-.742-.014-1.148-.014v-.574l3.248.028h.014a.491.491,0,0,0,.518-.518.5.5,0,0,0-.532-.518l-1.9.014v-.574l.91.014h.014a.441.441,0,0,0,.476-.448.452.452,0,0,0-.476-.462h-.014l-.91.014v-.6l1.5.014a.5.5,0,0,0,.532-.49.5.5,0,0,0-.532-.5l-1.5.014v-.686a.55.55,0,0,0-.588-.56.554.554,0,0,0-.6.56v.686h-1.5v-.686a.547.547,0,0,0-.588-.546.551.551,0,0,0-.6.546v.672h-1.19a.5.5,0,0,0-.532.5.5.5,0,0,0,.532.49l1.19-.014v.588h-.938a.453.453,0,0,0-.49.448.456.456,0,0,0,.49.462h.938v.56l-1.414-.014a.511.511,0,0,0-.532.518.491.491,0,0,0,.518.518h.014L21.5-6.146v.574c-.406,0-.8,0-1.148.014C19.334-5.53,19-4.942,18.97-4.382c-.028.6-.042,1.288-.056,2.044H18.2a.518.518,0,0,0-.546.532.518.518,0,0,0,.546.532h.7V.406a.579.579,0,0,0,.6.6.572.572,0,0,0,.6-.6V-1.33H24.08l-.014.224c-.014.658-.308.84-.742.84a3.611,3.611,0,0,1-.714-.1.388.388,0,0,0-.126-.014.544.544,0,0,0-.532.588c0,.644.658.7,1.344.7C24.92.91,25.284-.112,25.284-.9V-.938l-.014-.336ZM17.22.336s-.042-3.5-.056-5.684a5.06,5.06,0,0,1,.574.756.508.508,0,0,0,.406.252.676.676,0,0,0,.6-.686c0-.518-1.036-1.316-1.344-1.316a.46.46,0,0,0-.238.056V-7.378l.742.014h.028a.568.568,0,0,0,.588-.6.6.6,0,0,0-.616-.63h-.728c.014-1.232.042-2.282.042-2.282v-.014a.6.6,0,0,0-.658-.574.61.61,0,0,0-.672.574v.014L15.918-8.6H14.8a.6.6,0,0,0-.616.616.583.583,0,0,0,.6.616H14.8l1.148-.028v.21A12.572,12.572,0,0,1,13.874-3.71a.66.66,0,0,0-.182.448.676.676,0,0,0,.672.644c.336,0,.672-.266,1.568-1.988L15.89.336V.35a.607.607,0,0,0,.658.588A.612.612,0,0,0,17.22.35ZM22.834-8.6h-1.5v-.6h1.5Zm0,1.456h-1.5v-.574h1.5ZM24.08-3.892h-1.4v-.7c.994,0,1.372.028,1.386.532Zm.014,1.61H22.68V-2.94h1.414ZM21.5-3.892H20.146V-4.06c.028-.518.364-.518,1.358-.518Zm0,1.61H20.1c0-.224.014-.448.014-.658H21.5Zm18.1-7.182A.534.534,0,0,0,40.18-10a.534.534,0,0,0-.574-.532l-3.262.014a.765.765,0,0,0,.2-.49.669.669,0,0,0-.658-.616.494.494,0,0,0-.448.266,6.334,6.334,0,0,1-1.75,2.1.554.554,0,0,0-.252.434.631.631,0,0,0,.644.574c.364,0,.91-.476,1.512-1.218Zm-1.792,1.54A.619.619,0,0,0,38.4-8.5c0-.6-1.078-.9-1.246-.9a.577.577,0,0,0-.6.518.377.377,0,0,0,.266.35,1.751,1.751,0,0,1,.686.462l.028.028a1.936,1.936,0,0,0-.616-.112c-.42-.014-.812-.014-1.232-.014-.882,0-1.848.028-1.848,1.036V-7.1c0,.2.028.406.028.6,0,.644-.182,1.26-1.414,1.652A.561.561,0,0,0,32-4.326a.561.561,0,0,0,.6.546,2.911,2.911,0,0,0,2.366-2.2l.07.07A4,4,0,0,1,35.8-5.1a.45.45,0,0,0,.392.224.622.622,0,0,0,.574-.6c0-.56-1.008-1.246-1.358-1.246a.533.533,0,0,0-.364.154v-.252c0-.392.266-.406.868-.406.952,0,1.092.084,1.092.392,0,.378-.042.994-.042,1.554,0,1.036.56,1.26,1.666,1.26,1.526,0,1.848-.784,1.848-1.736,0-.294-.042-.644-.658-.644-.28,0-.546.126-.546.42v.168c0,.714-.266.8-.686.8a.358.358,0,0,1-.406-.406c0-.546.056-1.134.07-1.708a.891.891,0,0,0-.448-.8Zm-4.34-1.54A.534.534,0,0,0,34.048-10a.534.534,0,0,0-.574-.532H31.388l.084-.154a.588.588,0,0,0,.084-.294.689.689,0,0,0-.686-.644.5.5,0,0,0-.462.294A5.528,5.528,0,0,1,28.588-9.1a.578.578,0,0,0-.238.448.635.635,0,0,0,.658.574c.574,0,1.526-1.2,1.666-1.386Zm-.63.966c0-.616-1.176-.9-1.246-.9a.577.577,0,0,0-.6.518.377.377,0,0,0,.266.35,1.533,1.533,0,0,1,.686.462.4.4,0,0,0,.308.14A.619.619,0,0,0,32.844-8.5ZM32.662-6.86a.481.481,0,0,0,.5-.49.473.473,0,0,0-.5-.49h-3.15a.494.494,0,0,0-.546.49.5.5,0,0,0,.546.49h.9V-5.5c-.448.126-.9.238-1.372.35a.559.559,0,0,0-.448.546.526.526,0,0,0,.546.532,15.771,15.771,0,0,0,3.71-1.232.533.533,0,0,0,.364-.476.478.478,0,0,0-.476-.462.634.634,0,0,0-.224.042c-.294.126-.588.238-.9.336V-6.86Zm6.8,4.648a.54.54,0,0,0,.56-.546.537.537,0,0,0-.574-.546L34.86-3.29l.014-.434v-.028a.585.585,0,0,0-.658-.546.566.566,0,0,0-.644.574l.014.434L29.064-3.3a.551.551,0,0,0-.588.56.534.534,0,0,0,.574.532h.014L32.9-2.268a12.99,12.99,0,0,1-4.242,1.9A.606.606,0,0,0,28.14.2a.644.644,0,0,0,.672.616A14.5,14.5,0,0,0,33.6-1.47L33.572.588V.6c0,.364.322.532.644.532s.658-.182.658-.532V.588l-.028-2.1A14.139,14.139,0,0,0,39.606.714a.738.738,0,0,0,.714-.728.528.528,0,0,0-.448-.532A14.962,14.962,0,0,1,35.5-2.268l3.948.056Z" transform="translate(40.652 53.927)" fill="#676767"/>
      <path id="tools-solid" d="M33.184,26.241l-7.766-7.766a4.924,4.924,0,0,0-5.663-.922l-7.069-7.069V6.366L4.2,0-.047,4.244,6.32,12.733h4.118L17.507,19.8a4.935,4.935,0,0,0,.922,5.663l7.766,7.766a2.466,2.466,0,0,0,3.495,0l3.495-3.495a2.478,2.478,0,0,0,0-3.495ZM21.95,14.921a6.977,6.977,0,0,1,4.967,2.056L28.2,18.263a9.387,9.387,0,0,0,2.9-1.956,9.537,9.537,0,0,0,2.513-9.065.794.794,0,0,0-1.333-.365l-4.934,4.934-4.5-.749-.749-4.5,4.934-4.934a.8.8,0,0,0-.378-1.34A9.553,9.553,0,0,0,17.6,2.8a9.4,9.4,0,0,0-2.732,6.87l5.445,5.445a7.224,7.224,0,0,1,1.638-.192Zm-6.89,5.438L11.3,16.6,1.193,26.712a4.244,4.244,0,0,0,6,6l8.2-8.2a7.121,7.121,0,0,1-.332-4.158ZM4.2,31.3A1.592,1.592,0,1,1,5.789,29.71,1.6,1.6,0,0,1,4.2,31.3Z" transform="translate(25.509)" fill="#676767"/>
    </g>
    <g id="更新" transform="translate(0 443.171)">
      <rect id="長方形_20" data-name="長方形 20" width="392" height="85" transform="translate(0.225 0.142)" fill="rgba(217,217,217,0.3)"/>
      <path id="パス_78" data-name="パス 78" d="M-2.142-9.52a.6.6,0,0,0,.644-.6.592.592,0,0,0-.644-.6h-9.6a.616.616,0,0,0-.672.6.609.609,0,0,0,.672.6l4.13-.028v.854c-.854,0-1.624,0-2.17.014-1.162.028-1.568.658-1.6,1.232-.014.322-.028.784-.028,1.274s.014.966.028,1.344c.042.7.56,1.19,1.582,1.26a.306.306,0,0,0-.14.126A3.335,3.335,0,0,1-11.2-2.268a.645.645,0,0,0-.406.56.633.633,0,0,0,.644.588c.084,0,.448-.014,1.414-.98a7.491,7.491,0,0,0,.672.658A6.76,6.76,0,0,1-12.348-.266c-.448.056-.644.322-.644.6a.674.674,0,0,0,.728.644A8.526,8.526,0,0,0-7.8-.672,11.245,11.245,0,0,0-2.03.784c.35,0,1.064,0,1.064-.714a.6.6,0,0,0-.6-.644,12.335,12.335,0,0,1-5.46-1.05,5.275,5.275,0,0,0,.644-1.9c.868-.014,1.708-.028,2.338-.056a1.5,1.5,0,0,0,1.6-1.274c.028-.322.042-.756.042-1.218,0-.532-.014-1.078-.042-1.47A1.454,1.454,0,0,0-3.976-8.68c-.616-.014-1.428-.014-2.282-.014v-.854Zm-4.13,2.884V-7.672c.7,0,1.358,0,1.806.014.6.014.728.266.728,1.022Zm2.534.98c0,.658,0,1.036-.714,1.064-.476.014-1.134.028-1.834.028v-.294l.014-.8ZM-7.6-6.636h-2.534c0-.658,0-1.008.714-1.022.448-.014,1.106-.014,1.82-.014Zm0,.98c0,.35-.014.63-.014.77,0,.112-.014.224-.014.322-2.338,0-2.436,0-2.492-.588-.014-.126-.014-.308-.014-.5Zm-.14,2.128a4.246,4.246,0,0,1-.392,1.19,4.367,4.367,0,0,1-.714-.728c0-.028.014-.042.014-.07a.514.514,0,0,0-.294-.406C-8.722-3.528-8.246-3.528-7.742-3.528ZM10.248.364a.6.6,0,0,0,.644.588A.6.6,0,0,0,11.55.364l-.014-6.412h1.33a.619.619,0,0,0,.672-.616.616.616,0,0,0-.672-.6l-4,.028V-8.19a.717.717,0,0,1,.616-.784c.378-.112,1.946-.616,2.408-.826a.662.662,0,0,0,.448-.616.724.724,0,0,0-.714-.7.851.851,0,0,0-.35.084,25.766,25.766,0,0,1-2.422.98c-.938.28-1.288.686-1.288,1.624v.168c.028.658.056,1.344.056,2.044,0,2.142-.252,4.368-1.582,5.936A.552.552,0,0,0,5.88.1a.7.7,0,0,0,.728.616A.827.827,0,0,0,7.28.35C8.526-1.358,8.792-3.808,8.848-6.062h1.414ZM6.426-9.044A.529.529,0,0,0,7-9.59a.526.526,0,0,0-.574-.532H4.844v-.8a.6.6,0,0,0-.644-.588.6.6,0,0,0-.644.588l.014.8H1.89a.545.545,0,0,0-.6.546.543.543,0,0,0,.6.532Zm.322,3.178a.525.525,0,0,0,.56-.546.521.521,0,0,0-.56-.532H5.46a4.608,4.608,0,0,0,.616-1.372.675.675,0,0,0-.686-.616.524.524,0,0,0-.518.434,9.867,9.867,0,0,1-.588,1.554H3.626a.6.6,0,0,0,.252-.5c0-.238-.476-1.428-1.078-1.428a.574.574,0,0,0-.6.5.458.458,0,0,0,.112.294,3.133,3.133,0,0,1,.434.854.679.679,0,0,0,.168.28H1.5a.53.53,0,0,0-.56.532.533.533,0,0,0,.56.546ZM3.612.406A.536.536,0,0,0,4.2.938.534.534,0,0,0,4.788.42L4.76-2.2a5.193,5.193,0,0,1,1.036.77.546.546,0,0,0,.364.154.672.672,0,0,0,.616-.672.589.589,0,0,0-.224-.462,4.645,4.645,0,0,0-1.526-.756.518.518,0,0,0-.266.1l-.014-.518,1.75.042H6.51a.5.5,0,0,0,.518-.532.526.526,0,0,0-.518-.56H6.5L4.76-4.62l.014-.616V-5.25A.539.539,0,0,0,4.2-5.81a.539.539,0,0,0-.574.56v.014l.014.616L1.722-4.634H1.708a.529.529,0,0,0-.574.546.544.544,0,0,0,.574.546h.014l1.82-.042a9.08,9.08,0,0,1-2.45,2.226.587.587,0,0,0-.336.5.62.62,0,0,0,.63.588c.49,0,1.568-1.064,2.24-1.89Z" transform="translate(195.225 72.142)" fill="#676767"/>
      <path id="cog-solid" d="M52.166,30.1,49.12,28.337a13.775,13.775,0,0,0,0-5.02l3.046-1.759a.864.864,0,0,0,.393-1,17.811,17.811,0,0,0-3.912-6.765.861.861,0,0,0-1.058-.164l-3.046,1.759a13.5,13.5,0,0,0-4.348-2.51V9.365a.857.857,0,0,0-.672-.837,17.978,17.978,0,0,0-7.809,0,.857.857,0,0,0-.672.837v3.518a13.922,13.922,0,0,0-4.348,2.51l-3.039-1.759A.85.85,0,0,0,22.6,13.8a17.7,17.7,0,0,0-3.912,6.765.855.855,0,0,0,.393,1l3.046,1.759a13.775,13.775,0,0,0,0,5.02L19.077,30.1a.864.864,0,0,0-.393,1A17.811,17.811,0,0,0,22.6,37.87a.861.861,0,0,0,1.058.164L26.7,36.275a13.5,13.5,0,0,0,4.348,2.51V42.3a.857.857,0,0,0,.672.837,17.978,17.978,0,0,0,7.809,0A.857.857,0,0,0,40.2,42.3V38.785a13.922,13.922,0,0,0,4.348-2.51L47.6,38.034a.85.85,0,0,0,1.058-.164A17.7,17.7,0,0,0,52.566,31.1.883.883,0,0,0,52.166,30.1ZM35.618,31.548a5.721,5.721,0,1,1,5.721-5.721A5.729,5.729,0,0,1,35.618,31.548Z" transform="translate(160.54 6.342)" fill="#676767"/>
    </g>
    <g id="お問い合わせフォーム" transform="translate(125.088 375.269)">
      <path id="パス_77" data-name="パス 77" d="M-56-6.5a.68.68,0,0,0-.014-.994,4.289,4.289,0,0,0-2.912-.8.622.622,0,1,0,.07,1.232,2.615,2.615,0,0,1,1.848.574A.706.706,0,0,0-56-6.5Zm-6.706,2.814a7.115,7.115,0,0,1,1.47-.532,3.911,3.911,0,0,1,2.268.028,1.117,1.117,0,0,1,.49,1.89c-.672.9-1.568.882-2.66.35a.668.668,0,1,0-.6,1.19,3.419,3.419,0,0,0,4.494-.84c.714-1.036,1.092-2.926-1.218-3.724a5.372,5.372,0,0,0-3.108-.014,8.618,8.618,0,0,0-1.176.434c-.014-.532-.014-1.05,0-1.484a8.093,8.093,0,0,0,1.316-.63c.98-.588.126-1.694-.63-1.19a4.207,4.207,0,0,1-.56.322c.028-.42.042-.868.07-1.176a.709.709,0,1,0-1.414.014c.028.532.056.98.056,1.638a3.5,3.5,0,0,1-1.414.126c-1.162-.238-1.33,1.162-.294,1.288a5.249,5.249,0,0,0,1.68-.056c0,.56.014,1.162.028,1.75a9.017,9.017,0,0,0-1.974,1.484c-.742.812-1.2,1.806.462,2.618,1.148.56,2.94.588,2.828-1.414C-62.622-2.212-62.678-2.94-62.706-3.682Zm-1.19.7c.014.574.014,1.092,0,1.47-.014.546-.42.588-1.022.294-.322-.154-.322-.518-.028-.84A6.873,6.873,0,0,1-63.9-2.982Zm20.426-3.29V-5.7c0,.868.014,1.806.014,2.73,0,.6-.014,1.2-.028,1.764-.014.686-.364.854-.826.854a5.018,5.018,0,0,1-.742-.084c-.042,0-.07-.014-.112-.014a.564.564,0,0,0-.546.616c0,.616.5.742,1.484.742,1.6,0,2.086-.868,2.086-1.862,0-.49-.014-1.078-.014-1.736,0-1.778-.028-3.948-.028-6.048v-1.05c0-.63-.434-1.19-1.47-1.246-.238-.014-.63-.014-1.036-.014-.574,0-1.162,0-1.428.014a1.163,1.163,0,0,0-1.218,1.106c-.014.49-.028,1.022-.028,1.54,0,.322,0,.63.014.91.042,1.232,1.2,1.232,2.856,1.232C-44.086-6.244-43.722-6.258-43.47-6.272ZM-45.234-2.31c.014-.238.014-.49.014-.728,0-.392-.014-.784-.028-1.148a1.327,1.327,0,0,0-1.3-1.246c-.294-.014-.8-.028-1.316-.028s-1.022.014-1.358.028a1.27,1.27,0,0,0-1.288,1.26c-.014.378-.028.77-.028,1.176,0,2.03.406,2.058,2.73,2.058.462,0,.91-.014,1.232-.042A1.331,1.331,0,0,0-45.234-2.31Zm-6.9,2.66c.042-1.974.056-3.878.056-5.376V-6.272c.252.014.6.028.966.028,2.772,0,2.786-.35,2.786-2.142,0-.518-.014-1.05-.028-1.54A1.19,1.19,0,0,0-49.6-11.032c-.266-.014-.84-.014-1.372-.014-1.456,0-2.408,0-2.408,1.372-.028,3.038,0,7.462-.1,10.024V.378a.61.61,0,0,0,.672.574A.614.614,0,0,0-52.136.35ZM-46.13-9.1c0-.168.014-.322.014-.462.028-.448.182-.448,1.3-.448,1.288,0,1.316.014,1.316.91Zm2.66,1.82c-.2.014-.644.014-1.106.014-1.484,0-1.526-.056-1.54-.448,0-.14-.014-.294-.014-.462h2.66ZM-52.08-9.1c0-.126.014-.252.014-.364.028-.5.126-.546,1.274-.546,1.12,0,1.19.042,1.218.434,0,.14.014.308.014.476Zm2.52.924c0,.168-.014.322-.014.462-.014.392-.112.448-1.47.448-.42,0-.84,0-1.036-.014v-.9ZM-47.054-2.1c-.182.014-.5.014-.826.014-.994,0-1.344-.014-1.372-.448-.014-.224-.014-.518-.014-.8,0-1.022.028-1.064,1.372-1.064,1.316,0,1.4.014,1.4.9C-46.494-2.352-46.494-2.142-47.054-2.1Zm18.886-2.2a5.371,5.371,0,0,0-2.1-3.248c-.84-.63-1.6.406-.924.868a4.418,4.418,0,0,1,1.554,2.716A.754.754,0,1,0-28.168-4.3Zm-6.118,2.31a6.405,6.405,0,0,0,.546-1.078.688.688,0,0,0-1.274-.5,5.506,5.506,0,0,1-.462.826c-.308.42-.49.378-.854.028a5.382,5.382,0,0,1-1.106-3.612c-.028-.644.028-.672,0-1.218a.714.714,0,1,0-1.428.014,13.946,13.946,0,0,0,.07,1.554A7.223,7.223,0,0,0-37.212-1.5C-36.428-.658-35.182-.532-34.286-1.988Zm20.51-4.3a.551.551,0,0,0-.308-.5,20.26,20.26,0,0,1-4.466-3.654,1.857,1.857,0,0,0-1.344-.644,1.536,1.536,0,0,0-1.246.658,17.712,17.712,0,0,1-4.34,4.074.7.7,0,0,0-.378.6.749.749,0,0,0,.77.714,1.045,1.045,0,0,0,.63-.238,27.022,27.022,0,0,0,4.284-4.214c.14-.182.252-.28.378-.28s.252.1.406.28A25.859,25.859,0,0,0-15.106-5.6a.905.905,0,0,0,.462.154A.9.9,0,0,0-13.776-6.286Zm-3.556.434a.6.6,0,0,0,.644-.616.6.6,0,0,0-.644-.616h-4.7a.6.6,0,0,0-.644.616.6.6,0,0,0,.644.616ZM-15.806-.98c.014-.35.028-.714.028-1.064s-.014-.714-.028-1.008a1.449,1.449,0,0,0-1.484-1.26c-.9-.014-1.89-.028-2.814-.028-.756,0-1.47.014-2.058.028a1.423,1.423,0,0,0-1.554,1.386c-.014.322-.014.728-.014,1.12,0,.294,0,.588.014.84A1.458,1.458,0,0,0-22.134.462Q-20.958.5-19.782.5c.8,0,1.61-.014,2.422-.042A1.522,1.522,0,0,0-15.806-.98Zm-1.988.238c-.644.014-1.33.028-2.016.028s-1.33-.014-1.932-.028c-.546-.014-.672-.154-.672-1.19,0-.784.014-1.218.658-1.232s1.428-.028,2.184-.028c.63,0,1.232.014,1.75.028.644.014.672.266.672,1.316C-17.15-1.218-17.15-.77-17.794-.742Zm8.974-1.47A14.113,14.113,0,0,0-8.806-.14c.056.6.462.826.84.77a.755.755,0,0,0,.644-.9A17.678,17.678,0,0,1-7.434-3.6,8.393,8.393,0,0,1-5.67-4.774c1.932-.994,3.388-.8,4.018-.154S-1.2-3.192-2.688-2.2a7.138,7.138,0,0,1-1.484.686A.751.751,0,1,0-3.724-.084,8.576,8.576,0,0,0-1.736-1.106C.378-2.632.616-4.522-.406-5.67S-3.64-7.28-6.132-5.95a9.482,9.482,0,0,0-1.2.77v-.07c.28-.5.49-.9.56-.994.63-.9.252-1.568-.294-1.582.1-.812.2-1.5.266-2,.126-.826-1.288-1.022-1.372-.042-.056.6-.14,1.484-.238,2.506-.714.294-1.47.658-1.988.9-.8.378-.336,1.778.672,1.148a9.123,9.123,0,0,1,1.008-.6A.231.231,0,0,1-8.54-5.95l-.028.336A21.146,21.146,0,0,1-10.43-2.2a5.68,5.68,0,0,0-.42.56c-.616.924.714,1.708,1.288.7.252-.434.462-.812.658-1.134ZM5.39-4.606c.028.588.07,1.232.126,1.736.2,1.9.868,2.772,2.7,2.968a8.427,8.427,0,0,0,2.9-.238.718.718,0,1,0-.392-1.372,7.792,7.792,0,0,1-2.282.378c-1.176-.028-1.624-.5-1.736-2.016-.042-.49-.056-1.162-.07-1.82.924-.238,2.016-.49,3.178-.672a3.464,3.464,0,0,1-.406,1.484c-.2.294-.434.364-.84-.168-.546-.714-1.3-.042-.938.574a5.62,5.62,0,0,0,.546.742A1.219,1.219,0,0,0,9.9-2.8a3.187,3.187,0,0,0,1.078-2.268c.028-.238.07-.49.084-.728.2-.014.378-.042.574-.056a13.3,13.3,0,0,1,1.974-.028c1.134.07,1.358-1.3.21-1.372a13.316,13.316,0,0,0-2.324.154c-.126.014-.238.042-.364.056.014-.28.028-.56.042-.8.028-.392.056-.8.056-1.274a.7.7,0,0,0-1.4-.014c.014.308,0,.434.014.546a5.16,5.16,0,0,1,.014.56c0,.35.014.742.014,1.162-1.148.2-2.31.434-3.234.63l.014-.182c.028-.658.042-1.3.042-1.75a.736.736,0,0,0-1.47.056c.028.6.07,1.176.1,1.988v.182l-.392.084c-.616.14-1.652.406-2.282.56-1.162.28-.784,1.764.322,1.442.42-.126.952-.294,2.184-.686ZM19.712.21A10.712,10.712,0,0,0,26.32-6.8,1.473,1.473,0,0,0,24.794-8.82c-1.778-.028-4.4-.014-6.244.07a.694.694,0,1,0,.028,1.386c2.016-.07,4.228-.154,5.6-.112.518.014.56.364.448.742a8.663,8.663,0,0,1-5.558,5.586C18-.812,18.522.658,19.712.21ZM36.806-4.578c.518,0,1.022.014,1.526.042a.6.6,0,1,0,.042-1.176h-1.6c-.014-.546-.014-.994-.014-1.274a.6.6,0,1,0-1.2.042c.014.252.042.7.056,1.246-1.064.014-2.142.042-3.136.084a.572.572,0,1,0,.042,1.134c.8-.028,1.624-.056,2.464-.07a9.093,9.093,0,0,1-3.276,3c-.77.406-.154,1.6.812.966a11.731,11.731,0,0,0,3.164-2.954c.028.98.042,1.932.056,2.492.014.462-.462.35-.812.238a.592.592,0,0,0-.77.448.662.662,0,0,0,.63.784c1.652.294,2.17-.392,2.142-1.274-.014-.28-.014-.462-.028-.784C36.862-2.394,36.834-3.528,36.806-4.578ZM53.928-4.62a.676.676,0,0,0,.714-.686.679.679,0,0,0-.714-.7H45.136a.714.714,0,0,0-.742.714.674.674,0,0,0,.742.672Zm10.92,3.15a7.219,7.219,0,0,1,.364.742.712.712,0,0,0,.952.42.818.818,0,0,0,.448-1.022,10.063,10.063,0,0,0-2.576-3.29c-.784-.7-1.694.28-1.05.84A7.983,7.983,0,0,1,64.05-2.632c-1.092.266-2.632.6-4.088.868a66.4,66.4,0,0,0,2.408-6.51.776.776,0,1,0-1.512-.294,45.438,45.438,0,0,1-2.506,7.084c-.238.042-.49.07-.714.1C56.518-1.232,56.854.2,57.9.028,60.074-.336,63.042-.966,64.848-1.47Z" transform="translate(69.137 49.044)" fill="#676767"/>
      <path id="envelope-regular" d="M30.772,64H3.183A3.183,3.183,0,0,0,0,67.183v19.1a3.183,3.183,0,0,0,3.183,3.183H30.772a3.183,3.183,0,0,0,3.183-3.183v-19.1A3.183,3.183,0,0,0,30.772,64Zm0,3.183V69.89c-1.487,1.211-3.858,3.094-8.926,7.062-1.117.879-3.329,2.989-4.869,2.965-1.539.025-3.752-2.086-4.869-2.965C7.042,72.984,4.671,71.1,3.183,69.89V67.183ZM3.183,86.283V73.974c1.52,1.21,3.675,2.909,6.959,5.481,1.45,1.141,3.988,3.66,6.835,3.645,2.833.015,5.339-2.467,6.834-3.644,3.285-2.572,5.44-4.271,6.96-5.482V86.283Z" transform="translate(56.218 -64)" fill="#676767"/>
    </g>
    <g id="下層ページ" transform="translate(0 273.408)">
      <rect id="長方形_20-2" data-name="長方形 20" width="392" height="85" transform="translate(0.225 -0.095)" fill="rgba(217,217,217,0.3)"/>
      <path id="パス_76" data-name="パス 76" d="M5.432-5.7a.4.4,0,0,0-.42-.406.579.579,0,0,0-.434.21A2.961,2.961,0,0,1,2.408-4.83,3.07,3.07,0,0,1,.742-5.376c-.42-.266-.826-.56-1.274-.8A4.021,4.021,0,0,0-2.38-6.65c-1.47,0-3.052,1.176-3.052,1.694A.413.413,0,0,0-5-4.55a.561.561,0,0,0,.42-.2,3,3,0,0,1,2.17-1.092,3.124,3.124,0,0,1,1.666.56c.42.266.826.588,1.274.826a3.972,3.972,0,0,0,1.834.49C3.85-3.962,5.432-5.166,5.432-5.7Z" transform="translate(255.225 67.905)" fill="#676767" stroke="#676767" stroke-width="1"/>
      <path id="パス_75" data-name="パス 75" d="M-39.494.21A.679.679,0,0,0-38.766.9.683.683,0,0,0-38.024.21V-6.1a14.5,14.5,0,0,1,2.8,1.666.9.9,0,0,0,.518.182.789.789,0,0,0,.77-.784.765.765,0,0,0-.35-.644,11.421,11.421,0,0,0-3.528-1.68,1.081,1.081,0,0,0-.21.028V-9.058h4.844a.6.6,0,0,0,.6-.644.618.618,0,0,0-.6-.658H-43.806a.625.625,0,0,0-.616.672.59.59,0,0,0,.616.63h4.312Zm17.738-8.316c.28,0,.532-.014.784-.014,1.3-.028,1.526-.462,1.526-1.33,0-.994-.28-1.512-1.54-1.54-1.036-.028-2.31-.028-3.556-.028s-2.506,0-3.486.028c-.938.028-1.386.574-1.386,1.2v.028c.014.672.042,1.442.042,2.254,0,2.52-.21,5.46-1.456,7.14a.672.672,0,0,0-.14.392.663.663,0,0,0,.714.588.871.871,0,0,0,.686-.364C-28.238-1.568-28-5.32-28-8.12c.742,0,1.47.014,2.2.014a.413.413,0,0,0-.154.308c0,.1.028.14.336.6-.2,0-.364.014-.532.014-1.414.042-1.428.784-1.428,1.848,0,1.876.014,1.876,4.1,1.876.826,0,1.652-.014,2.464-.042,1.428-.042,1.428-.8,1.428-1.89,0-.21-.014-.434-.028-.63a1.3,1.3,0,0,0-1.372-1.162c-.224,0-.476-.014-.714-.014a.919.919,0,0,0,.21-.462A.569.569,0,0,0-21.756-8.106ZM-21.518.7c1.316-.056,1.4-.77,1.4-1.9,0-.21-.014-.42-.028-.616A1.273,1.273,0,0,0-21.5-2.94c-.616-.014-1.33-.028-2.044-.028s-1.428.014-2.058.028c-1.442.014-1.442.8-1.442,1.792,0,1.834.07,1.89,3.612,1.89C-22.792.742-22.134.728-21.518.7Zm-6.5-10.136a.509.509,0,0,1,.56-.5c1.022-.014,2.254-.028,3.5-.028,3.136,0,3.136,0,3.136.42,0,.35-.266.42-.5.434-.966.028-2.128.028-3.4.028-1.036,0-2.156,0-3.276-.014Zm4.956,3.71v-.63c.6,0,1.2.014,1.764.028.35,0,.462.126.49.448,0,.056.014.1.014.154Zm.518-2.38a.281.281,0,0,0-.056.112c-.168.336-.308.574-.42.784H-24.29a2.63,2.63,0,0,0-.6-.9Zm1.75,3.122c0,.07-.014.14-.014.21-.014.462-.084.462-2.254.462v-.672Zm-3.416-.742h-2.212v-.112a.452.452,0,0,1,.5-.49c.518-.014,1.092-.028,1.708-.028Zm0,1.428c-.6,0-1.176-.028-1.694-.042-.42-.014-.5-.1-.518-.406v-.238h2.212ZM-21.35-1.54h-4.522l.014-.1a.433.433,0,0,1,.476-.476c.6-.014,1.316-.014,2.044-.014.518,0,1.036,0,1.5.014.35.014.462.112.49.434Zm0,.91c-.014.448-.028.462-2.3.462-2.142,0-2.2,0-2.212-.434l-.014-.2h4.522ZM-6.132-7.644A1.53,1.53,0,0,0-7.658-9.17,1.518,1.518,0,0,0-9.17-7.644,1.506,1.506,0,0,0-7.658-6.132,1.518,1.518,0,0,0-6.132-7.644Zm1.484,6.2a.733.733,0,0,0-.14-1.078C-6.272-3.486-9-5.544-10.122-6.37a2.486,2.486,0,0,0-3.178-.1,14.01,14.01,0,0,1-2.17,1.33.768.768,0,1,0,.546,1.428,11.926,11.926,0,0,0,2.352-1.68,1.231,1.231,0,0,1,1.708.084C-9.058-3.92-7.49-2.352-5.81-1.26A.884.884,0,0,0-4.648-1.442Zm-2.268-6.2a.747.747,0,0,1-.742.742A.747.747,0,0,1-8.4-7.644a.747.747,0,0,1,.742-.742A.747.747,0,0,1-6.916-7.644ZM7.91-4.62a.676.676,0,0,0,.714-.686.679.679,0,0,0-.714-.7H-.882a.714.714,0,0,0-.742.714.674.674,0,0,0,.742.672ZM21.924-9.6c.476.532,1.26-.35.7-.91a4.468,4.468,0,0,0-1.414-.8c-.658-.21-1.162.644-.448.924A5.132,5.132,0,0,1,21.924-9.6ZM20.636-8.358c.462.546,1.274-.308.728-.9a4.331,4.331,0,0,0-1.386-.84c-.644-.238-1.2.6-.49.9A4.95,4.95,0,0,1,20.636-8.358ZM17.57-6.622a.754.754,0,0,0-.07-1.092,7.658,7.658,0,0,0-1.862-1.162c-.952-.42-1.512.826-.714,1.148A4.9,4.9,0,0,1,16.45-6.65.747.747,0,0,0,17.57-6.622Zm5.4-.392c.616-1.106-.784-1.68-1.246-.812C20.258-5.04,17.15-1.96,14.364-1.2A.764.764,0,1,0,14.826.238C18-.812,21.182-3.808,22.974-7.014ZM15.9-4.4a.757.757,0,0,0-.322-1.05,7.081,7.081,0,0,0-2.044-.7c-1.022-.2-1.288,1.134-.448,1.274a4.909,4.909,0,0,1,1.736.714A.725.725,0,0,0,15.9-4.4ZM30.17-10.458a.806.806,0,0,0-.784.826.694.694,0,0,0,.756.714h.084c.168-.014,3.626-.07,3.724-.07.182,0,.28.084.28.224a.69.69,0,0,1-.07.252c-.77,1.624-3.234,5.166-3.85,7.532a1.357,1.357,0,0,0-.042.322.734.734,0,0,0,.756.784.948.948,0,0,0,.91-.77c.616-2.576,2.688-5.474,3.836-7.6a1.869,1.869,0,0,0,.238-.9c0-.742-.546-1.316-1.568-1.316Zm9.52,9.8V-1.2c0-.924-.042-1.918-.042-2.786,0-.112.014-.154.084-.154a.273.273,0,0,1,.1.014,4.473,4.473,0,0,0,1.022.112,7.946,7.946,0,0,0,1.008-.07A3.3,3.3,0,0,0,44.9-7.42a3.143,3.143,0,0,0-3.234-3.15c-.21-.014-.49-.028-.784-.028-2.744,0-2.758.924-2.758,2.646,0,.98.028,2.352.028,3.794,0,1.19-.014,2.422-.07,3.514V-.6a.745.745,0,0,0,.8.714A.758.758,0,0,0,39.69-.658Zm1.834-8.456A1.6,1.6,0,0,1,43.33-7.49a1.946,1.946,0,0,1-1.708,1.96c-.294.028-.588.042-.854.042-.868,0-1.148-.1-1.148-.392v-.238c0-.49-.014-1.064-.014-1.554,0-1.3.126-1.456,1.246-1.456C41.188-9.128,41.524-9.114,41.524-9.114Z" transform="translate(195.225 67.905)" fill="#676767"/>
      <g id="file-regular" transform="translate(81.561 12.665)">
        <text id="_" data-name="〜" transform="translate(245.691 24.673)" fill="#676767" stroke="#676767" stroke-width="1" font-size="16" font-family="TsukuARdGothicStd-B, FOT-TsukuARdGothic Std"><tspan x="-8" y="0">〜</tspan></text>
        <path id="file-regular-2" data-name="file-regular" d="M24.532,6.4,18.967.835A3.183,3.183,0,0,0,16.719-.1H3.183A3.194,3.194,0,0,0,0,3.09V30.679a3.184,3.184,0,0,0,3.183,3.183h19.1a3.184,3.184,0,0,0,3.183-3.183V8.654A3.2,3.2,0,0,0,24.532,6.4Zm-2.507,2H16.978V3.349ZM3.183,30.679V3.09H13.795v6.9a1.588,1.588,0,0,0,1.592,1.592h6.9v19.1Z" transform="translate(203.735 0.162)" fill="#676767"/>
        <path id="file-regular-3" data-name="file-regular" d="M24.532,6.4,18.967.835A3.183,3.183,0,0,0,16.719-.1H3.183A3.194,3.194,0,0,0,0,3.09V30.679a3.184,3.184,0,0,0,3.183,3.183h19.1a3.184,3.184,0,0,0,3.183-3.183V8.654A3.2,3.2,0,0,0,24.532,6.4Zm-2.507,2H16.978V3.349ZM3.183,30.679V3.09H13.795v6.9a1.588,1.588,0,0,0,1.592,1.592h6.9v19.1Z" transform="translate(169.779 0.1)" fill="#676767"/>
        <path id="file-regular-4" data-name="file-regular" d="M24.532,6.4,18.967.835A3.183,3.183,0,0,0,16.719-.1H3.183A3.194,3.194,0,0,0,0,3.09V30.679a3.184,3.184,0,0,0,3.183,3.183h19.1a3.184,3.184,0,0,0,3.183-3.183V8.654A3.2,3.2,0,0,0,24.532,6.4Zm-2.507,2H16.978V3.349ZM3.183,30.679V3.09H13.795v6.9a1.588,1.588,0,0,0,1.592,1.592h6.9v19.1Z" transform="translate(135.823 0.1)" fill="#676767"/>
        <path id="file-regular-5" data-name="file-regular" d="M24.532,6.4,18.967.835A3.183,3.183,0,0,0,16.719-.1H3.183A3.194,3.194,0,0,0,0,3.09V30.679a3.184,3.184,0,0,0,3.183,3.183h19.1a3.184,3.184,0,0,0,3.183-3.183V8.654A3.2,3.2,0,0,0,24.532,6.4Zm-2.507,2H16.978V3.349ZM3.183,30.679V3.09H13.795v6.9a1.588,1.588,0,0,0,1.592,1.592h6.9v19.1Z" transform="translate(101.867 0.1)" fill="#676767"/>
        <path id="file-regular-6" data-name="file-regular" d="M24.532,6.4,18.967.835A3.183,3.183,0,0,0,16.719-.1H3.183A3.194,3.194,0,0,0,0,3.09V30.679a3.184,3.184,0,0,0,3.183,3.183h19.1a3.184,3.184,0,0,0,3.183-3.183V8.654A3.2,3.2,0,0,0,24.532,6.4Zm-2.507,2H16.978V3.349ZM3.183,30.679V3.09H13.795v6.9a1.588,1.588,0,0,0,1.592,1.592h6.9v19.1Z" transform="translate(67.912 0.1)" fill="#676767"/>
        <path id="file-regular-7" data-name="file-regular" d="M24.532,6.4,18.967.835A3.183,3.183,0,0,0,16.719-.1H3.183A3.194,3.194,0,0,0,0,3.09V30.679a3.184,3.184,0,0,0,3.183,3.183h19.1a3.184,3.184,0,0,0,3.183-3.183V8.654A3.2,3.2,0,0,0,24.532,6.4Zm-2.507,2H16.978V3.349ZM3.183,30.679V3.09H13.795v6.9a1.588,1.588,0,0,0,1.592,1.592h6.9v19.1Z" transform="translate(33.956 0.1)" fill="#676767"/>
        <path id="file-regular-8" data-name="file-regular" d="M24.532,6.4,18.967.835A3.183,3.183,0,0,0,16.719-.1H3.183A3.194,3.194,0,0,0,0,3.09V30.679a3.184,3.184,0,0,0,3.183,3.183h19.1a3.184,3.184,0,0,0,3.183-3.183V8.654A3.2,3.2,0,0,0,24.532,6.4Zm-2.507,2H16.978V3.349ZM3.183,30.679V3.09H13.795v6.9a1.588,1.588,0,0,0,1.592,1.592h6.9v19.1Z" transform="translate(0 0.1)" fill="#676767"/>
      </g>
    </g>
    <g id="トップページ" transform="translate(152.786 197.788)">
      <path id="パス_74" data-name="パス 74" d="M-35.2-5.25a8.678,8.678,0,0,1,2.73,1.134c.8.588,1.6-.63.868-1.246a8.66,8.66,0,0,0-3.36-1.218,1.44,1.44,0,0,0-.238-.014c.014-1.372.028-2.59.042-3.276a.728.728,0,0,0-1.456-.014c.056,2.016.014,7.5-.084,9.772a.761.761,0,1,0,1.512-.056C-35.21-1.3-35.21-3.318-35.2-5.25Zm14.966.56a6,6,0,0,0-.84-1.386c-.574-.686-1.512.084-1.008.644a3.706,3.706,0,0,1,.658,1.176A.635.635,0,1,0-20.23-4.69ZM-22.61.574A9.129,9.129,0,0,0-17.5-5.46a.683.683,0,1,0-1.316-.364,7.5,7.5,0,0,1-4.41,5.292.621.621,0,0,0-.35.84A.671.671,0,0,0-22.61.574Zm.448-4.676A5.282,5.282,0,0,0-23.2-5.348c-.658-.588-1.47.294-.9.784a3.664,3.664,0,0,1,.8,1.078A.646.646,0,1,0-22.162-4.1ZM-.532-9.968a1.494,1.494,0,0,0-1.484-1.484,1.482,1.482,0,0,0-1.47,1.484A1.47,1.47,0,0,0-2.016-8.5,1.482,1.482,0,0,0-.532-9.968ZM-9.688.21A10.712,10.712,0,0,0-3.08-6.8,1.473,1.473,0,0,0-4.606-8.82c-1.778-.028-4.4-.014-6.244.07a.694.694,0,1,0,.028,1.386c2.016-.07,4.228-.154,5.6-.112.518.014.56.364.448.742a8.663,8.663,0,0,1-5.558,5.586C-11.4-.812-10.878.658-9.688.21ZM-1.3-9.968a.705.705,0,0,1-.714.7.705.705,0,0,1-.714-.7.729.729,0,0,1,.714-.728A.729.729,0,0,1-1.3-9.968ZM11.256-7.644A1.53,1.53,0,0,0,9.73-9.17,1.518,1.518,0,0,0,8.218-7.644,1.506,1.506,0,0,0,9.73-6.132,1.518,1.518,0,0,0,11.256-7.644Zm1.484,6.2A.733.733,0,0,0,12.6-2.52c-1.484-.966-4.214-3.024-5.334-3.85a2.486,2.486,0,0,0-3.178-.1,14.01,14.01,0,0,1-2.17,1.33A.768.768,0,1,0,2.464-3.71,11.926,11.926,0,0,0,4.816-5.39a1.231,1.231,0,0,1,1.708.084C8.33-3.92,9.9-2.352,11.578-1.26A.884.884,0,0,0,12.74-1.442Zm-2.268-6.2A.747.747,0,0,1,9.73-6.9a.747.747,0,0,1-.742-.742.747.747,0,0,1,.742-.742A.747.747,0,0,1,10.472-7.644ZM25.3-4.62a.676.676,0,0,0,.714-.686.679.679,0,0,0-.714-.7H16.506a.714.714,0,0,0-.742.714.674.674,0,0,0,.742.672ZM39.312-9.6c.476.532,1.26-.35.7-.91a4.468,4.468,0,0,0-1.414-.8c-.658-.21-1.162.644-.448.924A5.132,5.132,0,0,1,39.312-9.6ZM38.024-8.358c.462.546,1.274-.308.728-.9a4.331,4.331,0,0,0-1.386-.84c-.644-.238-1.2.6-.49.9A4.95,4.95,0,0,1,38.024-8.358ZM34.958-6.622a.754.754,0,0,0-.07-1.092,7.658,7.658,0,0,0-1.862-1.162c-.952-.42-1.512.826-.714,1.148A4.9,4.9,0,0,1,33.838-6.65.747.747,0,0,0,34.958-6.622Zm5.4-.392c.616-1.106-.784-1.68-1.246-.812C37.646-5.04,34.538-1.96,31.752-1.2A.764.764,0,1,0,32.214.238C35.392-.812,38.57-3.808,40.362-7.014ZM33.292-4.4a.757.757,0,0,0-.322-1.05,7.081,7.081,0,0,0-2.044-.7c-1.022-.2-1.288,1.134-.448,1.274a4.909,4.909,0,0,1,1.736.714A.725.725,0,0,0,33.292-4.4Z" transform="translate(42.438 59.525)" fill="#676767"/>
      <path id="file-regular-9" data-name="file-regular" d="M28.62,7.483,22.129.991A3.714,3.714,0,0,0,19.506-.1H3.714A3.726,3.726,0,0,0,0,3.622V35.809a3.715,3.715,0,0,0,3.714,3.714H26a3.715,3.715,0,0,0,3.714-3.714v-25.7A3.732,3.732,0,0,0,28.62,7.483ZM25.7,9.812H19.808V3.923Zm-21.982,26V3.622h12.38v8.047a1.853,1.853,0,0,0,1.857,1.857H26V35.809Z" transform="translate(28.944 0.1)" fill="#676767"/>
    </g>
    <path id="パス_73" data-name="パス 73" d="M-107.967.374c-.017-1.207-.034-2.7-.034-4.165a.914.914,0,0,0,.357.085c.646,0,1.5-1.258,2.04-2.788A8.536,8.536,0,0,1-104.21-4.42a.633.633,0,0,0,.578.408.778.778,0,0,0,.578-.272c0,1.53-.017,2.788-.017,2.788,0,.748-.289.952-.731.952a5.252,5.252,0,0,1-.816-.119.524.524,0,0,0-.17-.017.722.722,0,0,0-.7.748c0,.629.544.85,1.683.85,1.7,0,2.278-.969,2.278-1.989v-.085c-.051-1.6-.068-2.057-.068-5.763V-8.993c-.017-.969-.527-1.5-1.6-1.53-.459-.017-1.054-.034-1.7-.034.017-.663.051-2.108.051-2.431a.744.744,0,0,0-.782-.765.736.736,0,0,0-.782.731v.034c.017.357.034,1.853.034,2.448-.6,0-1.122,0-1.53.017-1.19.034-1.581.51-1.581,1.513-.017,1.479-.017,3.485-.017,5.423,0,1.428,0,2.822.017,3.961a.724.724,0,0,0,.765.7.7.7,0,0,0,.748-.68Zm-5.627-.119a.712.712,0,0,0,.748.748.757.757,0,0,0,.8-.765l-.034-6.035c.425-.068.816-.119,1.088-.17a1.417,1.417,0,0,1,.068.255.585.585,0,0,0,.561.51.748.748,0,0,0,.714-.748c0-.374-.748-2.227-1.581-2.227a.549.549,0,0,0-.612.493.59.59,0,0,0,.136.357l.2.306c-.425.051-.952.119-1.547.187,1.207-1.547,2.7-3.825,2.7-4.335a.806.806,0,0,0-.833-.731.65.65,0,0,0-.646.425,18.246,18.246,0,0,1-1.292,2.4c-.221-.2-.493-.425-.765-.646a13.431,13.431,0,0,0,1.734-3.451c0-.408-.442-.68-.85-.68a.66.66,0,0,0-.68.476,11.8,11.8,0,0,1-1.309,2.856.9.9,0,0,0-.476-.153.672.672,0,0,0-.663.646.681.681,0,0,0,.323.561,15.935,15.935,0,0,1,1.921,1.547,14.786,14.786,0,0,1-1,1.258c-.289.017-.544.051-.748.051a.573.573,0,0,0-.544.612.639.639,0,0,0,.629.68c.153,0,1.19-.136,2.006-.255l-.051,5.814Zm3.859-2.4c0-.306-.493-2.618-1.513-2.618a.545.545,0,0,0-.595.51.67.67,0,0,0,.085.34,5.482,5.482,0,0,1,.561,1.921.652.652,0,0,0,.663.629A.792.792,0,0,0-109.735-2.142Zm-5.338,1.683a9.883,9.883,0,0,0,1.105-3.468.718.718,0,0,0-.748-.731.628.628,0,0,0-.646.578,7.567,7.567,0,0,1-.986,2.89.735.735,0,0,0-.136.425.717.717,0,0,0,.748.663A.762.762,0,0,0-115.073-.459Zm12.019-4.981c-.442-.765-1.5-2.159-2.21-2.261a11.466,11.466,0,0,0,.272-1.513c1.717,0,1.853,0,1.887.561C-103.071-7.8-103.054-6.6-103.054-5.44Zm-3.383-3.774A6.977,6.977,0,0,1-108-5.066c0-1.36.017-2.618.034-3.587C-107.967-9.214-107.763-9.214-106.437-9.214Zm20.553-.1c.017-.34.017-.731.017-1.122,0-.544-.017-1.122-.051-1.6a1.674,1.674,0,0,0-1.632-1.377c-.544-.017-1.224-.034-1.9-.034-.7,0-1.377.017-1.955.034a1.585,1.585,0,0,0-1.666,1.5c-.017.493-.034,1.088-.034,1.649,0,.357,0,.7.017.986.068,1.445,1.36,1.462,3.587,1.462.714,0,1.428-.017,1.989-.051A1.5,1.5,0,0,0-85.884-9.316Zm-8.347-3.264a.911.911,0,0,0,.17-.51.86.86,0,0,0-.85-.833.794.794,0,0,0-.68.425,9.335,9.335,0,0,1-3.264,3.3.981.981,0,0,0-.561.8.8.8,0,0,0,.85.765C-97.716-8.636-95.608-10.591-94.231-12.58ZM-84.9-3.417a.614.614,0,0,0,.646-.646.614.614,0,0,0-.646-.646h-1.955v-.629a.574.574,0,0,0-.136-.391h1.6a.614.614,0,0,0,.646-.646.614.614,0,0,0-.646-.646h-8.143a.643.643,0,0,0-.68.646.643.643,0,0,0,.68.646H-88.2a.629.629,0,0,0-.153.408l.017.612h-5.712a.643.643,0,0,0-.68.646.643.643,0,0,0,.68.646h5.712l.034,2.176v.034c0,.646-.391.833-.935.833a4.379,4.379,0,0,1-.9-.119A.638.638,0,0,0-90.3-.51a.75.75,0,0,0-.748.782c0,.85.935.867,1.649.867,1.87,0,2.6-1,2.6-1.87V-.765l-.034-1.326V-3.417Zm-6,2.652a.883.883,0,0,0,.816-.85c0-.748-1.717-1.513-2.21-1.513a.812.812,0,0,0-.8.714.512.512,0,0,0,.323.442,4.182,4.182,0,0,1,1.411.986A.594.594,0,0,0-90.9-.765ZM-97.308.459V.493a.726.726,0,0,0,.782.731.791.791,0,0,0,.85-.765l.187-7.667A20.3,20.3,0,0,0-93.84-9.265a.823.823,0,0,0,.153-.459.925.925,0,0,0-.9-.867.751.751,0,0,0-.629.391,11.857,11.857,0,0,1-3.961,4.08.77.77,0,0,0-.408.68.845.845,0,0,0,.816.85c.255,0,.51-.119,1.666-1.054Zm5.644-11.7c0-.1.017-.2.017-.289.017-.323.119-.629.612-.646.391-.017.986-.034,1.564-.034,1.955,0,2.023.017,2.057.663,0,.1.017.2.017.306Zm4.284,1.156c0,.153-.017.323-.017.459-.034.578-.272.595-2.193.595-2.057,0-2.074-.017-2.074-1.054Zm13.566.544a4.409,4.409,0,0,1,2.108.68,3.669,3.669,0,0,1,.935,5.2,5.267,5.267,0,0,1-3.162,1.9c-1.462.34-.935,2.057.561,1.666A7.107,7.107,0,0,0-69.224-2.89,5.031,5.031,0,0,0-70.8-10.03a7.1,7.1,0,0,0-7.344.391c-2.278,1.581-3.417,4.743-2.346,6.851.748,1.462,2.176,2.125,3.485.918a13.39,13.39,0,0,0,3.434-6.885A.85.85,0,0,0-73.814-9.537Zm-1.343.085a1.2,1.2,0,0,0-.153.527,10.214,10.214,0,0,1-2.635,5.661c-.425.374-.867.119-1.122-.374-.714-1.309.136-3.57,1.717-4.794A5.633,5.633,0,0,1-75.157-9.452Zm19.652,1.6c.935,0,1.87.034,2.754.068A.821.821,0,1,0-52.7-9.4c-.9-.017-1.853,0-2.822,0-.017-.969-.034-1.8-.034-2.278a.827.827,0,1,0-1.649.068c.017.442.051,1.258.085,2.227-1.836.017-3.689.051-5.389.119A.79.79,0,1,0-62.458-7.7c1.428-.051,2.941-.1,4.454-.136A15.379,15.379,0,0,1-63.716-2.55c-1.071.561-.238,2.176,1.173,1.275A19.678,19.678,0,0,0-57.018-6.46c.051,1.785.1,3.553.119,4.556.017.9-.884.8-1.581.578-1.071-.34-1.7,1.411-.153,1.683,2.669.459,3.4-.612,3.366-1.921-.017-.459-.017-.748-.051-1.275C-55.4-4.114-55.471-6.069-55.5-7.854ZM-41.99-5.525c.034-1.581.034-4.488-.051-6.018-.068-1.071-1.819-.986-1.768.068.085,1.615.136,4.284.034,5.967a.834.834,0,0,0,.884.867A.879.879,0,0,0-41.99-5.525Zm.306,6.392a8.366,8.366,0,0,0,4.4-7.888c0-1.411-.085-3.315-.051-4.76.017-1.037-1.819-1.105-1.819,0,0,1.343.085,3.451.085,4.777A6.628,6.628,0,0,1-42.755-.527C-43.826.068-43.078,1.666-41.684.867Zm23.46-12.529c.578.646,1.53-.425.85-1.105a5.426,5.426,0,0,0-1.717-.969c-.8-.255-1.411.782-.544,1.122A6.232,6.232,0,0,1-18.224-11.662Zm-1.564,1.513c.561.663,1.547-.374.884-1.088a5.259,5.259,0,0,0-1.683-1.02c-.782-.289-1.462.731-.595,1.088A6.011,6.011,0,0,1-19.788-10.149Zm-3.723,2.108A.915.915,0,0,0-23.6-9.367a9.3,9.3,0,0,0-2.261-1.411c-1.156-.51-1.836,1-.867,1.394a5.952,5.952,0,0,1,1.853,1.309A.907.907,0,0,0-23.511-8.041Zm6.562-.476c.748-1.343-.952-2.04-1.513-.986C-20.247-6.12-24.021-2.38-27.4-1.462A.928.928,0,1,0-26.843.289C-22.984-.986-19.125-4.624-16.949-8.517Zm-8.585,3.179a.919.919,0,0,0-.391-1.275,8.6,8.6,0,0,0-2.482-.85c-1.241-.238-1.564,1.377-.544,1.547a5.961,5.961,0,0,1,2.108.867A.88.88,0,0,0-25.534-5.338Zm20.264-1.5c1.309,0,2.618.017,3.876.068A.9.9,0,0,0-.34-7.582c.017-.425-.289-.85-.986-.867-1.275-.017-2.6-.017-3.961,0,0-.8.017-1.615-.068-2.618s-1.819-1.156-1.768.119c.017.578.051,1.53.068,2.516-1.6.017-3.179.051-4.692.1A.827.827,0,1,0-11.7-6.7c1.53-.051,3.094-.119,4.658-.136A6.361,6.361,0,0,1-11.458-1c-1.105.408-.629,2.091.8,1.53A8.045,8.045,0,0,0-5.27-6.834Zm20.91-.051a.884.884,0,1,0-1.547-.85A10.728,10.728,0,0,1,10.3-3.485c-.323.187-.527.153-.51-.221.017-.578.187-5.066.2-5.729a.853.853,0,1,0-1.7,0c0,1-.119,5.049-.238,6.579-.119,1.462,1.088,1.9,2.193,1.36A13.474,13.474,0,0,0,15.64-6.885ZM2.278-.629a9.36,9.36,0,0,0,4.675-8.6A.878.878,0,1,0,5.2-9.1,6.941,6.941,0,0,1,1.326-2.108C.034-1.53.969.1,2.278-.629ZM23.749-7.6c-.663,2.7-2.091,5.287-4.42,6.545-1.36.731-.289,2.142.8,1.547,3.026-1.649,4.658-5.015,5.372-8.109.68,0,1.326-.017,1.853,0a.918.918,0,0,1,.935,1A10.311,10.311,0,0,1,27.353-2.4a1.529,1.529,0,0,1-2.38.476A.885.885,0,1,0,23.885-.527,3.262,3.262,0,0,0,28.9-1.547,14.126,14.126,0,0,0,29.988-7c.034-1.377-.918-2.074-2.244-2.108-.595-.017-1.258-.017-1.955-.017a14.3,14.3,0,0,0,.17-2.159.894.894,0,1,0-1.785-.068,17.076,17.076,0,0,1-.136,2.244c-1.224.017-2.414.051-3.383.085-1.139.051-1.241,1.6.119,1.53C21.624-7.531,22.678-7.582,23.749-7.6ZM41.99-4.233A17.686,17.686,0,0,1,45.968-.816c.8,1,2.074-.323,1.394-1.275A17.674,17.674,0,0,0,43.01-5.457,27.206,27.206,0,0,0,44.9-8.347c.663-1.156-.2-2.125-1.734-2.125-1.717,0-4.216.034-5.457.085a.825.825,0,0,0,0,1.649c1.5-.034,3.842-.119,4.913-.1.374,0,.442.272.289.561a13.821,13.821,0,0,1-7.123,6.324.877.877,0,1,0,.544,1.649A14.361,14.361,0,0,0,41.99-4.233Zm18.258.323a9.689,9.689,0,0,1,1.02.918.816.816,0,0,0,1.207.051.921.921,0,0,0,.034-1.292A6.422,6.422,0,0,0,61.285-5.3c.663-.969,1.292-2.023,1.921-3.162.663-1.207.357-2.431-1.394-2.38-.816.034-1.751.119-2.584.187q.178-.255.306-.459c.6-.986-1.156-2.04-1.751-.6a15.437,15.437,0,0,1-4.539,5.355c-1.156.714-.153,2.193.986,1.411A22.137,22.137,0,0,0,58.123-9.1c.578-.068,2.329-.238,3.009-.255.442-.017.51.068.187.765a16.708,16.708,0,0,1-1.428,2.431,11.25,11.25,0,0,0-2.142-.884c-1.19-.34-1.632,1.105-.68,1.36a7.441,7.441,0,0,1,1.785.816A13.236,13.236,0,0,1,53.176-.986c-1.292.425-.629,2.023.731,1.5A14.628,14.628,0,0,0,60.248-3.91Zm16.983.153a22.76,22.76,0,0,0,4.3-3.57c1.037-1.173-.068-2.465-1.6-2.482-2.822-.051-7,.034-9.673.085a.868.868,0,1,0,.017,1.717c2.635-.1,6.783-.17,8.908-.153.51,0,.374.357.153.578a25.027,25.027,0,0,1-3.5,2.72A18.06,18.06,0,0,0,73.729-6.12c-1.19-.612-2.006.85-1.071,1.292A12.472,12.472,0,0,1,76.67-1.462a.84.84,0,0,0,1.241.289,1,1,0,0,0,.323-1.36A5.3,5.3,0,0,0,77.231-3.757ZM91.443-6.341c-.017,1.989-.085,4.76-.1,6.12a.9.9,0,1,0,1.785-.051c-.051-1.7-.017-6.154.034-7.888.731-.85,1.462-1.768,2.227-2.788a.886.886,0,1,0-1.513-.9,22.584,22.584,0,0,1-8.3,7.684c-1.156.561-.272,2.295,1.292,1.343A24.853,24.853,0,0,0,91.443-6.341Zm24.735-5.321a5.6,5.6,0,0,0-1.53-1.258c-.748-.391-1.53.527-.731,1a5.979,5.979,0,0,1,1.241,1.207C115.617-9.979,116.739-10.863,116.178-11.662Zm-2.006,1.02a5.545,5.545,0,0,0-1.479-1.292c-.731-.425-1.564.442-.782.952a5.87,5.87,0,0,1,1.19,1.241C113.543-8.993,114.7-9.826,114.172-10.642Zm-5.287,6.409a17.686,17.686,0,0,1,3.978,3.417c.8,1,2.074-.323,1.394-1.275A17.674,17.674,0,0,0,109.9-5.457a27.206,27.206,0,0,0,1.887-2.89c.663-1.156-.2-2.125-1.734-2.125-1.717,0-4.216.034-5.457.085a.825.825,0,0,0,0,1.649c1.5-.034,3.842-.119,4.913-.1.374,0,.442.272.289.561a13.821,13.821,0,0,1-7.123,6.324.877.877,0,1,0,.544,1.649A14.361,14.361,0,0,0,108.885-4.233Z" transform="translate(195.224 158.313)" fill="#fff"/>
    <g id="金額" transform="translate(56.29 92.029)">
      <rect id="長方形_19" data-name="長方形 19" width="281" height="39" rx="19.5" transform="translate(-0.065 0.283)" fill="#fff"/>
      <g id="グループ_37" data-name="グループ 37" transform="translate(32.166 11.593)">
        <path id="パス_72" data-name="パス 72" d="M10.336-3.591a.892.892,0,0,0,.931-.912.888.888,0,0,0-.931-.893h-.019c-.589.019-1.615.019-2.755.019-.1,0-.114-.019-.133-.095a1.05,1.05,0,0,1,.266-.8l.342-.475c.076-.114.057-.1.209-.114l2.071.019h.019a.872.872,0,0,0,.912-.893.857.857,0,0,0-.912-.874H9.443c-.076,0-.095,0-.095-.019s.019-.038.038-.076c2.755-4.1,2.755-4.123,2.755-4.446a1.2,1.2,0,0,0-1.2-1.083.9.9,0,0,0-.8.494A59.683,59.683,0,0,1,6.935-8.664c-.057.076-.057.057-.152.076h-.8c-.114-.019-.133,0-.19-.076-1.273-1.881-2.527-3.724-3.287-5.054a.95.95,0,0,0-.855-.532,1.121,1.121,0,0,0-1.1,1.064,1.034,1.034,0,0,0,.209.627C3.42-8.626,3.42-8.607,3.42-8.607s0,.019-.152.019c-.551,0-1.007-.019-1.311-.019H1.919a.831.831,0,0,0-.855.874.864.864,0,0,0,.931.893c.646-.019,1.5-.038,2.451-.038.095,0,.209.038.7.855a.848.848,0,0,1,.114.532c-.019.095-.019.114-.133.114-1.349,0-2.584,0-3.173-.019H1.919a.836.836,0,0,0-.855.893.849.849,0,0,0,.931.912c.8-.038,1.938-.038,3.173-.038.076,0,.095.038.095.114v2.66A1.046,1.046,0,0,0,6.384.19.992.992,0,0,0,7.467-.8c0-.855-.019-1.824-.019-2.717,0-.057.019-.095.1-.095.988,0,1.938.019,2.774.019Zm7.5-5.187a.993.993,0,0,0-.988.988A1.026,1.026,0,0,0,17.86-6.783c.076,0,.171-.019.285-.019h.171a2.246,2.246,0,0,1,2.508,2.527,2.654,2.654,0,0,1-2.736,2.584A3.175,3.175,0,0,1,15.314-3a1.02,1.02,0,0,0-.741-.361,1.179,1.179,0,0,0-1.121,1.14c0,.893,1.71,2.565,4.541,2.565a4.578,4.578,0,0,0,4.921-4.579A3.987,3.987,0,0,0,20.653-7.9,3.04,3.04,0,0,0,22.192-10.7a3.623,3.623,0,0,0-3.952-3.667c-1.653,0-3.838,1.1-3.838,2.166a1.115,1.115,0,0,0,1.064,1.064.954.954,0,0,0,.665-.285,2.717,2.717,0,0,1,2.014-.988,1.813,1.813,0,0,1,1.976,1.71,1.686,1.686,0,0,1-1.71,1.919Zm16.53,4.142c0-2.071-1.2-4.37-4.6-4.37a6.974,6.974,0,0,0-1.425.133,3.823,3.823,0,0,1-.437.1c-.114,0-.152-.057-.152-.209V-9.12c.057-.38.342-1.9.437-2.565.057-.342.209-.513.57-.513.57,0,3.135.019,3.667.019a.936.936,0,0,0,.969-.969A.981.981,0,0,0,32.4-14.174c-3.116,0-3.4,0-3.952-.019H28.31a1.576,1.576,0,0,0-1.843,1.52C26.182-11,25.8-8.056,25.8-7.9c0,.912.532,1.292,1.368,1.292.095,0,.19-.019.285-.019A2.464,2.464,0,0,0,28.2-6.9a4.882,4.882,0,0,1,1.5-.266,2.453,2.453,0,0,1,2.6,2.546,2.859,2.859,0,0,1-3.021,2.888,3.958,3.958,0,0,1-2.6-.988A1.066,1.066,0,0,0,26.011-3a1.053,1.053,0,0,0-.988,1.083c0,1.254,2.413,2.166,4.161,2.166A4.846,4.846,0,0,0,34.371-4.636Zm6.8,5c4.6,0,4.769-5.168,4.769-7.315,0-.817-.057-1.653-.133-2.489-.3-3.173-2.09-4.921-4.636-4.921-2.584,0-4.389,1.824-4.655,5.13-.057.779-.095,1.52-.095,2.242,0,.8.038,1.6.114,2.413C36.841-1.387,38.646.361,41.173.361Zm0-2c-1.235,0-2.261-1.121-2.489-3.059a19.683,19.683,0,0,1-.133-2.375c0-.684.038-1.387.1-2.09.19-2.033,1.2-3.249,2.527-3.249,2.6,0,2.6,3.762,2.6,5.225A20.267,20.267,0,0,1,43.6-4.5C43.339-2.7,42.351-1.634,41.173-1.634ZM49.286,1.71c.494-.57,1.368-1.729,1.862-2.451a1.217,1.217,0,0,0,.228-.665,1.108,1.108,0,0,0-1.1-1.064,1.031,1.031,0,0,0-.893.57c-1.406,2.337-1.6,2.755-1.6,3.1a.843.843,0,0,0,.855.817A.864.864,0,0,0,49.286,1.71Zm8.7-1.349c4.6,0,4.769-5.168,4.769-7.315,0-.817-.057-1.653-.133-2.489-.3-3.173-2.09-4.921-4.636-4.921-2.584,0-4.389,1.824-4.655,5.13-.057.779-.095,1.52-.095,2.242,0,.8.038,1.6.114,2.413C53.656-1.387,55.461.361,57.988.361Zm0-2c-1.235,0-2.261-1.121-2.489-3.059a19.683,19.683,0,0,1-.133-2.375c0-.684.038-1.387.1-2.09.19-2.033,1.2-3.249,2.527-3.249,2.6,0,2.6,3.762,2.6,5.225A20.267,20.267,0,0,1,60.42-4.5C60.154-2.7,59.166-1.634,57.988-1.634Zm11.4,2c4.6,0,4.769-5.168,4.769-7.315,0-.817-.057-1.653-.133-2.489-.3-3.173-2.09-4.921-4.636-4.921-2.584,0-4.389,1.824-4.655,5.13-.057.779-.1,1.52-.1,2.242,0,.8.038,1.6.114,2.413C65.056-1.387,66.861.361,69.388.361Zm0-2c-1.235,0-2.261-1.121-2.489-3.059a19.682,19.682,0,0,1-.133-2.375c0-.684.038-1.387.1-2.09.19-2.033,1.2-3.249,2.527-3.249,2.6,0,2.6,3.762,2.6,5.225A20.267,20.267,0,0,1,71.82-4.5C71.554-2.7,70.566-1.634,69.388-1.634Zm11.4,2c4.6,0,4.769-5.168,4.769-7.315,0-.817-.057-1.653-.133-2.489-.3-3.173-2.09-4.921-4.636-4.921-2.584,0-4.389,1.824-4.655,5.13-.057.779-.1,1.52-.1,2.242,0,.8.038,1.6.114,2.413C76.456-1.387,78.261.361,80.788.361Zm0-2c-1.235,0-2.261-1.121-2.489-3.059a19.682,19.682,0,0,1-.133-2.375c0-.684.038-1.387.095-2.09.19-2.033,1.2-3.249,2.527-3.249,2.6,0,2.6,3.762,2.6,5.225A20.267,20.267,0,0,1,83.22-4.5C82.954-2.7,81.966-1.634,80.788-1.634Z" transform="translate(126.769 16.691)" fill="#676767"/>
        <path id="パス_71" data-name="パス 71" d="M6.984-7.326a.516.516,0,0,0-.54-.522.745.745,0,0,0-.558.27A3.807,3.807,0,0,1,3.1-6.21a3.947,3.947,0,0,1-2.142-.7c-.54-.342-1.062-.72-1.638-1.026A5.17,5.17,0,0,0-3.06-8.55c-1.89,0-3.924,1.512-3.924,2.178a.531.531,0,0,0,.558.522.722.722,0,0,0,.54-.252,3.856,3.856,0,0,1,2.79-1.4,4.016,4.016,0,0,1,2.142.72c.54.342,1.062.756,1.638,1.062a5.107,5.107,0,0,0,2.358.63C4.95-5.094,6.984-6.642,6.984-7.326Z" transform="translate(107.793 16)" fill="#676767" stroke="#676767" stroke-width="1"/>
        <path id="パス_70" data-name="パス 70" d="M10.336-3.591a.892.892,0,0,0,.931-.912.888.888,0,0,0-.931-.893h-.019c-.589.019-1.615.019-2.755.019-.1,0-.114-.019-.133-.095a1.05,1.05,0,0,1,.266-.8l.342-.475c.076-.114.057-.1.209-.114l2.071.019h.019a.872.872,0,0,0,.912-.893.857.857,0,0,0-.912-.874H9.443c-.076,0-.095,0-.095-.019s.019-.038.038-.076c2.755-4.1,2.755-4.123,2.755-4.446a1.2,1.2,0,0,0-1.2-1.083.9.9,0,0,0-.8.494A59.683,59.683,0,0,1,6.935-8.664c-.057.076-.057.057-.152.076h-.8c-.114-.019-.133,0-.19-.076-1.273-1.881-2.527-3.724-3.287-5.054a.95.95,0,0,0-.855-.532,1.121,1.121,0,0,0-1.1,1.064,1.034,1.034,0,0,0,.209.627C3.42-8.626,3.42-8.607,3.42-8.607s0,.019-.152.019c-.551,0-1.007-.019-1.311-.019H1.919a.831.831,0,0,0-.855.874.864.864,0,0,0,.931.893c.646-.019,1.5-.038,2.451-.038.095,0,.209.038.7.855a.848.848,0,0,1,.114.532c-.019.095-.019.114-.133.114-1.349,0-2.584,0-3.173-.019H1.919a.836.836,0,0,0-.855.893.849.849,0,0,0,.931.912c.8-.038,1.938-.038,3.173-.038.076,0,.095.038.095.114v2.66A1.046,1.046,0,0,0,6.384.19.992.992,0,0,0,7.467-.8c0-.855-.019-1.824-.019-2.717,0-.057.019-.095.1-.095.988,0,1.938.019,2.774.019ZM21.47.114a1.129,1.129,0,0,0,1.2-1.121,1.014,1.014,0,0,0-1.14-.988c-1.558,0-3.7.152-5.282.171,1.577-1.71,3.439-3.325,4.883-5.149A6.211,6.211,0,0,0,22.7-10.735c0-2.261-2.09-3.629-4.294-3.629-2.983,0-4.427,2.261-4.427,2.926a1.078,1.078,0,0,0,1.121,1.007,1.149,1.149,0,0,0,.988-.57,2.768,2.768,0,0,1,2.337-1.463,1.9,1.9,0,0,1,1.976,1.938,3.92,3.92,0,0,1-1.064,2.432C17.67-6.042,15.466-3.781,14.155-2.3A1.936,1.936,0,0,0,13.6-1.007,1.043,1.043,0,0,0,14.668.114Zm12.9-4.75c0-2.071-1.2-4.37-4.6-4.37a6.974,6.974,0,0,0-1.425.133,3.823,3.823,0,0,1-.437.1c-.114,0-.152-.057-.152-.209V-9.12c.057-.38.342-1.9.437-2.565.057-.342.209-.513.57-.513.57,0,3.135.019,3.667.019a.936.936,0,0,0,.969-.969A.981.981,0,0,0,32.4-14.174c-3.116,0-3.4,0-3.952-.019H28.31a1.576,1.576,0,0,0-1.843,1.52C26.182-11,25.8-8.056,25.8-7.9c0,.912.532,1.292,1.368,1.292.095,0,.19-.019.285-.019A2.464,2.464,0,0,0,28.2-6.9a4.882,4.882,0,0,1,1.5-.266,2.453,2.453,0,0,1,2.6,2.546,2.859,2.859,0,0,1-3.021,2.888,3.958,3.958,0,0,1-2.6-.988A1.066,1.066,0,0,0,26.011-3a1.053,1.053,0,0,0-.988,1.083c0,1.254,2.413,2.166,4.161,2.166A4.846,4.846,0,0,0,34.371-4.636Zm6.8,5c4.6,0,4.769-5.168,4.769-7.315,0-.817-.057-1.653-.133-2.489-.3-3.173-2.09-4.921-4.636-4.921-2.584,0-4.389,1.824-4.655,5.13-.057.779-.095,1.52-.095,2.242,0,.8.038,1.6.114,2.413C36.841-1.387,38.646.361,41.173.361Zm0-2c-1.235,0-2.261-1.121-2.489-3.059a19.683,19.683,0,0,1-.133-2.375c0-.684.038-1.387.1-2.09.19-2.033,1.2-3.249,2.527-3.249,2.6,0,2.6,3.762,2.6,5.225A20.267,20.267,0,0,1,43.6-4.5C43.339-2.7,42.351-1.634,41.173-1.634ZM49.286,1.71c.494-.57,1.368-1.729,1.862-2.451a1.217,1.217,0,0,0,.228-.665,1.108,1.108,0,0,0-1.1-1.064,1.031,1.031,0,0,0-.893.57c-1.406,2.337-1.6,2.755-1.6,3.1a.843.843,0,0,0,.855.817A.864.864,0,0,0,49.286,1.71Zm8.7-1.349c4.6,0,4.769-5.168,4.769-7.315,0-.817-.057-1.653-.133-2.489-.3-3.173-2.09-4.921-4.636-4.921-2.584,0-4.389,1.824-4.655,5.13-.057.779-.095,1.52-.095,2.242,0,.8.038,1.6.114,2.413C53.656-1.387,55.461.361,57.988.361Zm0-2c-1.235,0-2.261-1.121-2.489-3.059a19.683,19.683,0,0,1-.133-2.375c0-.684.038-1.387.1-2.09.19-2.033,1.2-3.249,2.527-3.249,2.6,0,2.6,3.762,2.6,5.225A20.267,20.267,0,0,1,60.42-4.5C60.154-2.7,59.166-1.634,57.988-1.634Zm11.4,2c4.6,0,4.769-5.168,4.769-7.315,0-.817-.057-1.653-.133-2.489-.3-3.173-2.09-4.921-4.636-4.921-2.584,0-4.389,1.824-4.655,5.13-.057.779-.1,1.52-.1,2.242,0,.8.038,1.6.114,2.413C65.056-1.387,66.861.361,69.388.361Zm0-2c-1.235,0-2.261-1.121-2.489-3.059a19.682,19.682,0,0,1-.133-2.375c0-.684.038-1.387.1-2.09.19-2.033,1.2-3.249,2.527-3.249,2.6,0,2.6,3.762,2.6,5.225A20.267,20.267,0,0,1,71.82-4.5C71.554-2.7,70.566-1.634,69.388-1.634Zm11.4,2c4.6,0,4.769-5.168,4.769-7.315,0-.817-.057-1.653-.133-2.489-.3-3.173-2.09-4.921-4.636-4.921-2.584,0-4.389,1.824-4.655,5.13-.057.779-.1,1.52-.1,2.242,0,.8.038,1.6.114,2.413C76.456-1.387,78.261.361,80.788.361Zm0-2c-1.235,0-2.261-1.121-2.489-3.059a19.682,19.682,0,0,1-.133-2.375c0-.684.038-1.387.095-2.09.19-2.033,1.2-3.249,2.527-3.249,2.6,0,2.6,3.762,2.6,5.225A20.267,20.267,0,0,1,83.22-4.5C82.954-2.7,81.966-1.634,80.788-1.634Z" transform="translate(-0.231 16.691)" fill="#676767"/>
      </g>
    </g>
    <path id="パス_69" data-name="パス 69" d="M-68.94-8.964a37.452,37.452,0,0,1,8.424,7.236c1.692,2.124,4.392-.684,2.952-2.7-1.656-2.3-6.228-5.328-9.216-7.128a57.609,57.609,0,0,0,4-6.12c1.4-2.448-.432-4.5-3.672-4.5-3.636,0-8.928.072-11.556.18-2.3.108-2.16,3.564,0,3.492,3.168-.072,8.136-.252,10.4-.216.792,0,.936.576.612,1.188C-69.84-12.168-75.528-6.408-82.08-4.14c-2.7.936-1.476,4.464,1.152,3.492A30.412,30.412,0,0,0-68.94-8.964Zm44.424-10.692A3.933,3.933,0,0,0-28.44-23.58a3.9,3.9,0,0,0-3.888,3.924,3.872,3.872,0,0,0,3.888,3.888A3.9,3.9,0,0,0-24.516-19.656ZM-20.7-3.708a1.885,1.885,0,0,0-.36-2.772c-3.816-2.484-10.836-7.776-13.716-9.9-2.484-1.836-5.184-2.34-8.172-.252a36.024,36.024,0,0,1-5.58,3.42,1.976,1.976,0,1,0,1.4,3.672c1.656-.684,3.384-2.2,6.048-4.32,1.368-1.08,2.7-1.08,4.392.216,4.644,3.564,8.676,7.6,13,10.4A2.274,2.274,0,0,0-20.7-3.708Zm-5.832-15.948a1.921,1.921,0,0,1-1.908,1.908,1.921,1.921,0,0,1-1.908-1.908,1.921,1.921,0,0,1,1.908-1.908A1.921,1.921,0,0,1-26.532-19.656ZM.54-17.028a1.938,1.938,0,0,0-.18-2.808,19.692,19.692,0,0,0-4.788-2.988C-6.876-23.9-8.316-20.7-6.264-19.872A12.6,12.6,0,0,1-2.34-17.1,1.922,1.922,0,0,0,.54-17.028Zm13.9-1.008c1.584-2.844-2.016-4.32-3.2-2.088C7.452-12.96-.54-5.04-7.7-3.1A1.964,1.964,0,1,0-6.516.612C1.656-2.088,9.828-9.792,14.436-18.036ZM-3.744-11.3A1.946,1.946,0,0,0-4.572-14a18.207,18.207,0,0,0-5.256-1.8c-2.628-.5-3.312,2.916-1.152,3.276a12.624,12.624,0,0,1,4.464,1.836A1.863,1.863,0,0,0-3.744-11.3Zm43.848-1.4A9.467,9.467,0,0,1,37.548-9.54c-1.836,1.512.18,4.14,2.232,2.34a14.686,14.686,0,0,0,4.248-6.156c.756-2.232-1.476-3.2-3.276-2.664-2.412.756-4.9,1.584-7.272,2.376-.4-1.4-.756-2.592-1.008-3.42a1.7,1.7,0,0,0-1.98-1.224,1.524,1.524,0,0,0-1.044,2.16c.288.9.648,2.088,1.08,3.492-1.548.54-2.952,1.044-4.212,1.476a1.546,1.546,0,1,0,1.008,2.916c1.152-.432,2.556-.972,4.068-1.512,1.116,3.708,2.34,7.848,3.06,10.3.756,2.52,4.068,1.4,3.1-1.224-.864-2.376-2.16-6.48-3.24-10.116,2.232-.792,4.356-1.512,5.832-1.944ZM85.86-14.58a1.873,1.873,0,1,0-3.276-1.8c-2.088,3.888-4.932,7.236-8.028,9-.684.4-1.116.324-1.08-.468.036-1.224.4-10.728.432-12.132a1.806,1.806,0,1,0-3.6,0c0,2.124-.252,10.692-.5,13.932-.252,3.1,2.3,4.032,4.644,2.88A28.534,28.534,0,0,0,85.86-14.58ZM57.564-1.332a19.821,19.821,0,0,0,9.9-18.216,1.86,1.86,0,1,0-3.708.288c.324,6.876-2.88,12.42-8.208,14.8C52.812-3.24,54.792.216,57.564-1.332Z" transform="translate(195.224 60.313)" fill="#fff"/>
  </g>
</svg>
