<svg xmlns="http://www.w3.org/2000/svg" xmlns:xlink="http://www.w3.org/1999/xlink" width="476" height="874" viewBox="0 0 476 874">
  <defs>
    <filter id="枠" x="0" y="0" width="476" height="874" filterUnits="userSpaceOnUse">
      <feOffset dx="3" dy="3" input="SourceAlpha"/>
      <feGaussianBlur stdDeviation="1.5" result="blur"/>
      <feFlood flood-opacity="0.275"/>
      <feComposite operator="in" in2="blur"/>
      <feComposite in="SourceGraphic"/>
    </filter>
  </defs>
  <g id="スペシャル" transform="translate(-404.5 -531.5)">
    <path id="メインベース" d="M20,0H442a20,20,0,0,1,20,20V859a0,0,0,0,1,0,0H0a0,0,0,0,1,0,0V20A20,20,0,0,1,20,0Z" transform="translate(870 1395) rotate(180)" fill="#fff"/>
    <path id="タイトルベース" d="M20,0H442a20,20,0,0,1,20,20V212a0,0,0,0,1,0,0H0a0,0,0,0,1,0,0V20A20,20,0,0,1,20,0Z" transform="translate(408 536)" fill="#00aeb5"/>
    <g transform="matrix(1, 0, 0, 1, 404.5, 531.5)" filter="url(#枠)">
      <g id="枠-2" data-name="枠" transform="translate(4.5 4.5)" fill="none" stroke="#fff" stroke-linecap="round" stroke-linejoin="round" stroke-width="3">
        <rect width="461" height="859" rx="20" stroke="none"/>
        <rect x="-1.5" y="-1.5" width="464" height="862" rx="21.5" fill="none"/>
      </g>
    </g>
    <path id="パス_130" data-name="パス 130" d="M-49.368-11.509A1.655,1.655,0,0,0-51-13.141a1.655,1.655,0,0,0-1.632,1.632A1.629,1.629,0,0,0-51-9.894,1.629,1.629,0,0,0-49.368-11.509Zm5.049,5.049a1.655,1.655,0,0,0-1.632-1.632A1.629,1.629,0,0,0-47.566-6.46a1.629,1.629,0,0,0,1.615,1.632A1.655,1.655,0,0,0-44.319-6.46ZM-45.288-.2a.569.569,0,0,0,.527-.544.426.426,0,0,0-.136-.306c-1.241-1.19-3.23-3.162-5.27-5.2a.329.329,0,0,1-.1-.221.26.26,0,0,1,.068-.17c2.057-2.057,4.063-4.046,5.3-5.219a.391.391,0,0,0,.136-.306.585.585,0,0,0-.544-.544.391.391,0,0,0-.306.136c-1.173,1.224-3.111,3.23-5.151,5.27a.336.336,0,0,1-.238.1.328.328,0,0,1-.255-.119c-2.023-2.04-3.978-4.046-5.134-5.253a.391.391,0,0,0-.306-.136.585.585,0,0,0-.544.544.369.369,0,0,0,.136.306c1.224,1.156,3.213,3.111,5.236,5.151a.354.354,0,0,1,.119.255.3.3,0,0,1-.1.221c-2.04,2.023-4.012,4-5.253,5.185a.426.426,0,0,0-.136.306.569.569,0,0,0,.527.544.415.415,0,0,0,.306-.136c1.19-1.224,3.2-3.23,5.219-5.27a.294.294,0,0,1,.2-.1c.153,0,.272.119,5.389,5.372A.415.415,0,0,0-45.288-.2ZM-56.049-4.828A1.629,1.629,0,0,0-54.434-6.46a1.629,1.629,0,0,0-1.615-1.632A1.64,1.64,0,0,0-57.664-6.46,1.64,1.64,0,0,0-56.049-4.828Zm6.681,3.417A1.629,1.629,0,0,0-51-3.026a1.629,1.629,0,0,0-1.632,1.615A1.64,1.64,0,0,0-51,.2,1.64,1.64,0,0,0-49.368-1.411ZM-28.577.612a.652.652,0,0,0,.7-.663.652.652,0,0,0-.7-.663h-4.675V-1.887h2.312a.648.648,0,0,0,.7-.646.648.648,0,0,0-.7-.646h-2.312v-.612a.754.754,0,0,0-.8-.748.712.712,0,0,0-.765.731v.629h-2.21a.7.7,0,0,0-.272.034,13.366,13.366,0,0,0,1.819-1.87h2.958c1.853,2.142,4.471,3.689,5.253,3.689A.873.873,0,0,0-26.4-2.21a.729.729,0,0,0-.544-.714A10.009,10.009,0,0,1-30.8-5l3.5.034h.017a.647.647,0,0,0,.646-.7.646.646,0,0,0-.663-.68l-3.23.017v-4.3h2.4a.654.654,0,0,0,.68-.7.65.65,0,0,0-.68-.68h-2.4v-1.241a.707.707,0,0,0-.782-.68.707.707,0,0,0-.782.68v1.258l-1.9.017-1.955-.017v-1.258a.707.707,0,0,0-.782-.68.707.707,0,0,0-.782.68V-12h-2.329a.674.674,0,0,0-.731.68.678.678,0,0,0,.731.7h2.329v4.3L-40.7-6.341a.673.673,0,0,0-.714.7.664.664,0,0,0,.7.68h.017L-37.145-5a10.26,10.26,0,0,1-3.944,2.482.74.74,0,0,0-.527.714.747.747,0,0,0,.748.765,8.145,8.145,0,0,0,3.213-1.8.667.667,0,0,0-.068.306.648.648,0,0,0,.7.646h2.21V-.714h-4.5a.661.661,0,0,0-.7.663.652.652,0,0,0,.7.663ZM-32.1-9.894h-3.859v-.748L-34-10.659l1.9.017Zm0,1.768h-3.859v-.782H-32.1Zm0,1.8-1.887.017-1.972-.017V-7.14H-32.1Zm17.918,3.893a.7.7,0,0,0,.731-.731.69.69,0,0,0-.731-.714H-16.2v-.442l-.051-3.4a21.506,21.506,0,0,0,5.2,5.712,1.089,1.089,0,0,0,.595.2.989.989,0,0,0,.986-.935.836.836,0,0,0-.408-.7A18.153,18.153,0,0,1-15.521-9.01l4.709.068h.017a.708.708,0,0,0,.731-.748.712.712,0,0,0-.731-.765H-16.2v-2.839a.771.771,0,0,0-.833-.731.731.731,0,0,0-.8.731v2.839h-5.423a.771.771,0,0,0-.782.8.7.7,0,0,0,.765.714h.017l4.709-.068A18.265,18.265,0,0,1-24.14-2.958a.89.89,0,0,0-.442.731.832.832,0,0,0,.85.8,1.042,1.042,0,0,0,.612-.221,21.63,21.63,0,0,0,5.338-5.967L-17.833-4.3v.425h-2.006a.736.736,0,0,0-.765.748.688.688,0,0,0,.765.7h2.006V.493a.74.74,0,0,0,.816.7.74.74,0,0,0,.816-.7V-2.431ZM2.312-9.282a.827.827,0,0,0,.765-.85.923.923,0,0,0-.255-.646A5.074,5.074,0,0,0,.714-12.019a.821.821,0,0,0-.833.731.518.518,0,0,0,.306.476A6.815,6.815,0,0,1,1.751-9.571.758.758,0,0,0,2.312-9.282ZM3.825.476c0,.442.408.663.816.663s.816-.221.816-.663L5.423-3.91l2.006-.561a.692.692,0,0,0,.544-.68.754.754,0,0,0-.731-.765A1.334,1.334,0,0,0,7-5.882L5.423-5.44l.034-7.6a.771.771,0,0,0-.833-.731.731.731,0,0,0-.8.731L3.859-5-.867-3.689a.761.761,0,0,0-.578.731.711.711,0,0,0,.714.731.8.8,0,0,0,.272-.034L3.859-3.468ZM2.159-5.9a.809.809,0,0,0,.748-.833.915.915,0,0,0-.34-.7,4.927,4.927,0,0,0-2.142-1,.8.8,0,0,0-.85.7.617.617,0,0,0,.391.544A9.218,9.218,0,0,1,1.632-6.12.794.794,0,0,0,2.159-5.9Zm-7.82-3.247a.794.794,0,0,0,.782-.8c0-.391-.85-2.091-1.615-2.091-.391,0-.8.272-.8.629a.588.588,0,0,0,.153.357,7.255,7.255,0,0,1,.918,1.513A.6.6,0,0,0-5.661-9.146ZM-3.145.493s-.068-3.077-.085-5.559a6.92,6.92,0,0,1,.986,1.088.678.678,0,0,0,.544.289A.834.834,0,0,0-.918-4.5c0-.646-1.564-1.734-1.972-1.734a.774.774,0,0,0-.34.085v-.867l1.819.034h.017a.692.692,0,0,0,.68-.731.682.682,0,0,0-.7-.714h-1.8L-3.2-9.52a.681.681,0,0,0,.629.391.71.71,0,0,0,.527-.255A5.868,5.868,0,0,0-.8-11.373a.81.81,0,0,0-.8-.731.573.573,0,0,0-.544.357A12.415,12.415,0,0,1-3.111-10.1a.689.689,0,0,0-.085.153c.017-1.649.051-3.06.051-3.06v-.017a.759.759,0,0,0-.816-.748.759.759,0,0,0-.816.748v.017l.051,4.573h-1.9a.735.735,0,0,0-.748.765.665.665,0,0,0,.731.68h.017l1.921-.034v.051A14.6,14.6,0,0,1-7.633-3.3a.7.7,0,0,0-.289.544.823.823,0,0,0,.833.765c.272,0,.833-.119,2.38-2.635L-4.777.493V.51a.74.74,0,0,0,.816.7.74.74,0,0,0,.816-.7ZM23.307.408a.69.69,0,0,0,.714-.731.7.7,0,0,0-.714-.731l-3.315.034a8.1,8.1,0,0,0,1.173-2.244.917.917,0,0,0-.952-.8.716.716,0,0,0-.731.544A10.339,10.339,0,0,1,18.394-1h-.6V-4.624H21.93a.714.714,0,0,0,.765-.731.723.723,0,0,0-.765-.731H17.8V-7.548h2.006a.714.714,0,0,0,.765-.731.723.723,0,0,0-.765-.731H14.331a.774.774,0,0,0-.459.136,24.041,24.041,0,0,0,2.669-2.839A.611.611,0,0,1,17.017-12a.725.725,0,0,1,.51.289c1.87,2.091,5.1,4.828,6.018,4.828a1.006,1.006,0,0,0,.986-.969.769.769,0,0,0-.459-.7,20.337,20.337,0,0,1-5.559-4.267,2.2,2.2,0,0,0-1.615-.8,1.913,1.913,0,0,0-1.513.8A18.549,18.549,0,0,1,9.979-8.024a.848.848,0,0,0-.527.765.889.889,0,0,0,.9.867c.238,0,.867-.085,3.349-2.329a.734.734,0,0,0-.153.442.719.719,0,0,0,.782.731h1.836v1.462H12.121a.728.728,0,0,0-.782.731.738.738,0,0,0,.782.731h4.046V-1l-5.406-.051a.728.728,0,0,0-.782.731.728.728,0,0,0,.782.731ZM15.079-2.04c0-.442-.952-1.938-1.683-1.938-.408,0-.85.306-.85.663a.45.45,0,0,0,.136.323,4.973,4.973,0,0,1,.986,1.377.586.586,0,0,0,.561.374A.867.867,0,0,0,15.079-2.04ZM36.125-8.874a.689.689,0,0,0,.748-.68.705.705,0,0,0-.748-.714H31.7a21.452,21.452,0,0,0,1.87-1.836A.61.61,0,0,1,34-12.359a.673.673,0,0,1,.442.255c2.21,2.193,5.389,4.352,6.222,4.352a.924.924,0,0,0,.918-.918.783.783,0,0,0-.493-.714,20.707,20.707,0,0,1-5.644-3.757,2.272,2.272,0,0,0-1.547-.714,1.919,1.919,0,0,0-1.462.731,18.388,18.388,0,0,1-5.474,4.216.863.863,0,0,0-.527.782.8.8,0,0,0,.8.816c.8,0,3.264-1.938,3.893-2.465a.853.853,0,0,0-.034.2.7.7,0,0,0,.748.7ZM36.5-4.5a4.379,4.379,0,0,0,1.1-2.227c0-.7-.544-1.207-1.445-1.224-.663-.017-1.513-.034-2.4-.034-1.241,0-2.55.017-3.519.051a.728.728,0,0,0-.748.731.674.674,0,0,0,.731.68h.017c1.122-.017,3.06-.034,4.4-.034h.833c.238,0,.323.1.323.238a4.291,4.291,0,0,1-1.207,1.8c-1.36,0-2.7,0-3.672.034-1.36.034-1.887.833-1.9,1.6,0,.255-.017.612-.017.969s.017.731.017,1.037c.034.935.7,1.6,1.938,1.649.952.034,1.972.051,2.992.051C34.986.816,36.04.8,37.026.765A1.821,1.821,0,0,0,38.93-.9c.017-.323.034-.7.034-1.071,0-.391-.017-.765-.034-1.054a1.741,1.741,0,0,0-1.819-1.462Zm0,3.859c-.782.017-1.683.034-2.584.034-.884,0-1.751-.017-2.482-.034-.748-.034-.8-.306-.8-1.275,0-.748.034-1.207.782-1.224.8-.017,1.819-.034,2.805-.034.816,0,1.615.017,2.244.034.765.017.8.357.8,1.224S37.23-.68,36.5-.646ZM57.29-6.987A.844.844,0,0,0,57.6-8.16,4.319,4.319,0,0,0,54.417-10c-1.224-.085-1.292,1.479-.255,1.513a2.665,2.665,0,0,1,1.955,1.241A.822.822,0,0,0,57.29-6.987ZM47.107-3.128c-.51,1.547-.187,2.669.884,3.315a7.291,7.291,0,0,0,5.134.272c2.346-.782,2.89-2.4,2.38-4.794-.272-1.326-1.972-.935-1.717.17.374,1.615.153,2.618-1.139,3.06a5.681,5.681,0,0,1-3.774-.017c-.629-.391-.527-1.139-.2-1.9.272-.629.68-1.36.867-1.887a1.886,1.886,0,0,0-.051-1.564c.017-.357.034-.714.051-.952.034-.629.051-1.173.085-1.717a8.048,8.048,0,0,0,1.309-.527c1.122-.646.221-2.006-.646-1.428a3.171,3.171,0,0,1-.476.272,8.8,8.8,0,0,0,.017-1.139c-.051-1.139-1.938-1.224-1.8.085a10.042,10.042,0,0,1,.136,1.581,2.719,2.719,0,0,1-1.411-.1.781.781,0,0,0-.6,1.445,3.821,3.821,0,0,0,1.9.17c-.034.408-.068.833-.085,1.241L47.685-7.6c-1.666-.187-3.128,1.632-1.938,3.621A1.777,1.777,0,0,0,47.107-3.128Zm.952-2.3a2.622,2.622,0,0,1-.085.289c-.442,1.1-1.173.544-1.326.153a.9.9,0,0,1,.884-1.309.548.548,0,0,1,.459.34l.017.017a1.132,1.132,0,0,1,.051.493Z" transform="translate(779 1378)" fill="#c18b4b"/>
    <g id="ショップ" transform="translate(1 66)">
      <g id="グループ_60" data-name="グループ 60" transform="translate(-1)">
        <path id="パス_129" data-name="パス 129" d="M-41.395-8.041a.915.915,0,0,0-.085-1.326,9.3,9.3,0,0,0-2.261-1.411c-1.156-.51-1.836,1-.867,1.394a5.952,5.952,0,0,1,1.853,1.309A.907.907,0,0,0-41.395-8.041Zm6.562-.476c.748-1.343-.952-2.04-1.513-.986C-38.131-6.12-41.9-2.38-45.288-1.462A.928.928,0,1,0-44.727.289C-40.868-.986-37.009-4.624-34.833-8.517Zm-8.585,3.179a.919.919,0,0,0-.391-1.275,8.6,8.6,0,0,0-2.482-.85c-1.241-.238-1.564,1.377-.544,1.547a5.961,5.961,0,0,1,2.108.867A.88.88,0,0,0-43.418-5.338Zm18.683,1.105A17.686,17.686,0,0,1-20.757-.816c.8,1,2.074-.323,1.394-1.275a17.674,17.674,0,0,0-4.352-3.366,27.205,27.205,0,0,0,1.887-2.89c.663-1.156-.2-2.125-1.734-2.125-1.717,0-4.216.034-5.457.085a.825.825,0,0,0,0,1.649c1.5-.034,3.842-.119,4.913-.1.374,0,.442.272.289.561A13.821,13.821,0,0,1-30.94-1.955.877.877,0,1,0-30.4-.306,14.361,14.361,0,0,0-24.735-4.233Zm20.961-6.6a.774.774,0,0,0-.867-.782c-2.227.051-4.488.119-6.63.1a.8.8,0,1,0-.017,1.581c1.819,0,4.369-.068,6.715-.1A.776.776,0,0,0-3.774-10.829Zm-2.788,4.2c1.5-.017,2.89,0,3.825.034A.834.834,0,0,0-1.8-7.361a.752.752,0,0,0-.833-.816c-2.771.017-8.126.051-10.54.085a.863.863,0,0,0-.969.833.778.778,0,0,0,.884.765c1.19-.034,3.06-.1,4.947-.119a5.622,5.622,0,0,1-4.335,5.355c-1.19.323-.918,2.142.748,1.564A7.574,7.574,0,0,0-6.562-6.63ZM11.254-1.785a8.766,8.766,0,0,1,.442.9.864.864,0,0,0,1.156.51A.993.993,0,0,0,13.4-1.615a12.22,12.22,0,0,0-3.128-4c-.952-.85-2.057.34-1.275,1.02A9.694,9.694,0,0,1,10.285-3.2c-1.326.323-3.2.731-4.964,1.054a80.631,80.631,0,0,0,2.924-7.9A.942.942,0,1,0,6.409-10.4,55.174,55.174,0,0,1,3.366-1.8c-.289.051-.595.085-.867.119C1.139-1.5,1.547.238,2.822.034,5.457-.408,9.061-1.173,11.254-1.785Zm20.383.238a.628.628,0,0,0,.663-.646.628.628,0,0,0-.663-.646h-.952c0-.7,0-1.819-.034-2.482-.034-.748-.459-1.394-1.717-1.428-.425-.017-.9-.017-1.394-.017v-.7l3.944.034H31.5a.6.6,0,0,0,.629-.629.61.61,0,0,0-.646-.629l-2.312.017v-.7l1.105.017h.017a.535.535,0,0,0,.578-.544.549.549,0,0,0-.578-.561h-.017l-1.105.017v-.731l1.819.017a.6.6,0,0,0,.646-.595.607.607,0,0,0-.646-.612l-1.819.017v-.833a.668.668,0,0,0-.714-.68.673.673,0,0,0-.731.68v.833H25.908v-.833a.664.664,0,0,0-.714-.663.669.669,0,0,0-.731.663v.816H23.018a.607.607,0,0,0-.646.612.6.6,0,0,0,.646.595l1.445-.017v.714H23.324a.55.55,0,0,0-.595.544.554.554,0,0,0,.595.561h1.139v.68l-1.717-.017a.62.62,0,0,0-.646.629.6.6,0,0,0,.629.629h.017l3.366-.034v.7c-.493,0-.969,0-1.394.017-1.241.034-1.649.748-1.683,1.428-.034.731-.051,1.564-.068,2.482H22.1a.628.628,0,0,0-.663.646.628.628,0,0,0,.663.646h.85V.493a.7.7,0,0,0,.731.731.7.7,0,0,0,.731-.731V-1.615H29.24l-.017.272c-.017.8-.374,1.02-.9,1.02a4.384,4.384,0,0,1-.867-.119A.471.471,0,0,0,27.3-.459a.661.661,0,0,0-.646.714c0,.782.8.85,1.632.85,1.972,0,2.414-1.241,2.414-2.193v-.051l-.017-.408ZM20.91.408s-.051-4.25-.068-6.9a6.144,6.144,0,0,1,.7.918.617.617,0,0,0,.493.306.821.821,0,0,0,.731-.833c0-.629-1.258-1.6-1.632-1.6a.559.559,0,0,0-.289.068V-8.959l.9.017h.034a.69.69,0,0,0,.714-.731.726.726,0,0,0-.748-.765h-.884c.017-1.5.051-2.771.051-2.771v-.017a.724.724,0,0,0-.8-.7.74.74,0,0,0-.816.7v.017l.034,2.771h-1.36a.722.722,0,0,0-.748.748.708.708,0,0,0,.731.748h.017l1.394-.034v.255A15.267,15.267,0,0,1,16.847-4.5a.8.8,0,0,0-.221.544.821.821,0,0,0,.816.782c.408,0,.816-.323,1.9-2.414l-.051,6V.425a.737.737,0,0,0,.8.714A.743.743,0,0,0,20.91.425Zm6.817-10.846H25.908v-.731h1.819Zm0,1.768H25.908v-.7h1.819ZM29.24-4.726h-1.7v-.85c1.207,0,1.666.034,1.683.646Zm.017,1.955H27.54v-.8h1.717ZM26.112-4.726H24.463v-.2c.034-.629.442-.629,1.649-.629Zm0,1.955h-1.7c0-.272.017-.544.017-.8h1.683Zm21.981-8.721a.648.648,0,0,0,.7-.646.648.648,0,0,0-.7-.646l-3.961.017a.929.929,0,0,0,.238-.6.813.813,0,0,0-.8-.748.6.6,0,0,0-.544.323,7.691,7.691,0,0,1-2.125,2.55.673.673,0,0,0-.306.527.767.767,0,0,0,.782.7c.442,0,1.1-.578,1.836-1.479Zm-2.176,1.87a.752.752,0,0,0,.714-.7c0-.731-1.309-1.088-1.513-1.088a.7.7,0,0,0-.731.629.457.457,0,0,0,.323.425,2.126,2.126,0,0,1,.833.561l.034.034a2.35,2.35,0,0,0-.748-.136c-.51-.017-.986-.017-1.5-.017-1.071,0-2.244.034-2.244,1.258v.034c0,.238.034.493.034.731,0,.782-.221,1.53-1.717,2.006a.682.682,0,0,0-.544.629.682.682,0,0,0,.731.663,3.535,3.535,0,0,0,2.873-2.669l.085.085a4.863,4.863,0,0,1,.918.986.547.547,0,0,0,.476.272.755.755,0,0,0,.7-.731c0-.68-1.224-1.513-1.649-1.513a.648.648,0,0,0-.442.187v-.306c0-.476.323-.493,1.054-.493,1.156,0,1.326.1,1.326.476,0,.459-.051,1.207-.051,1.887,0,1.258.68,1.53,2.023,1.53,1.853,0,2.244-.952,2.244-2.108,0-.357-.051-.782-.8-.782-.34,0-.663.153-.663.51v.2c0,.867-.323.969-.833.969a.434.434,0,0,1-.493-.493c0-.663.068-1.377.085-2.074a1.082,1.082,0,0,0-.544-.969Zm-5.27-1.87a.648.648,0,0,0,.7-.646.648.648,0,0,0-.7-.646H38.114l.1-.187a.714.714,0,0,0,.1-.357.836.836,0,0,0-.833-.782.612.612,0,0,0-.561.357,6.712,6.712,0,0,1-2.21,2.7.7.7,0,0,0-.289.544.772.772,0,0,0,.8.7c.7,0,1.853-1.462,2.023-1.683Zm-.765,1.173c0-.748-1.428-1.088-1.513-1.088a.7.7,0,0,0-.731.629.457.457,0,0,0,.323.425,1.862,1.862,0,0,1,.833.561.482.482,0,0,0,.374.17A.752.752,0,0,0,39.882-10.319ZM39.661-8.33a.584.584,0,0,0,.612-.595.575.575,0,0,0-.612-.6H35.836a.6.6,0,0,0-.663.6.609.609,0,0,0,.663.595h1.088v1.649c-.544.153-1.088.289-1.666.425a.679.679,0,0,0-.544.663.638.638,0,0,0,.663.646,19.151,19.151,0,0,0,4.505-1.5.647.647,0,0,0,.442-.578.581.581,0,0,0-.578-.561.77.77,0,0,0-.272.051c-.357.153-.714.289-1.088.408V-8.33Zm8.262,5.644a.656.656,0,0,0,.68-.663.652.652,0,0,0-.7-.663l-5.576.017.017-.527v-.034a.711.711,0,0,0-.8-.663.688.688,0,0,0-.782.7l.017.527-5.491-.017a.669.669,0,0,0-.714.68.648.648,0,0,0,.7.646h.017l4.658-.068A15.774,15.774,0,0,1,34.8-.442a.736.736,0,0,0-.629.68.782.782,0,0,0,.816.748A17.609,17.609,0,0,0,40.8-1.785l-.034,2.5V.731c0,.442.391.646.782.646.408,0,.8-.221.8-.646V.714l-.034-2.55a17.169,17.169,0,0,0,5.78,2.7.9.9,0,0,0,.867-.884.641.641,0,0,0-.544-.646,18.168,18.168,0,0,1-5.3-2.091l4.794.068Z" transform="translate(639 1253)" fill="#676767"/>
        <path id="tools-solid" d="M39.1,30.912l-9.148-9.148a5.8,5.8,0,0,0-6.672-1.086l-8.328-8.328V7.5L4.954,0l-5,5,7.5,10H12.3l8.328,8.328A5.813,5.813,0,0,0,21.718,30l9.148,9.148a2.9,2.9,0,0,0,4.117,0L39.1,35.029a2.919,2.919,0,0,0,0-4.117ZM25.867,17.577A8.219,8.219,0,0,1,31.718,20l1.516,1.516a11.058,11.058,0,0,0,3.422-2.3A11.235,11.235,0,0,0,39.616,8.531a.935.935,0,0,0-1.57-.43l-5.812,5.812-5.3-.883-.883-5.3,5.812-5.812A.943.943,0,0,0,31.413.336,11.253,11.253,0,0,0,20.742,3.3a11.071,11.071,0,0,0-3.219,8.093L23.937,17.8a8.51,8.51,0,0,1,1.93-.227ZM17.75,23.983,13.32,19.554,1.415,31.467a5,5,0,0,0,7.07,7.07l9.656-9.656a8.389,8.389,0,0,1-.391-4.9Zm-12.8,12.89A1.875,1.875,0,1,1,6.829,35,1.88,1.88,0,0,1,4.954,36.873Z" transform="translate(619.05 1189)" fill="#676767"/>
      </g>
    </g>
    <g id="更新" transform="translate(249 552)">
      <rect id="長方形_20" data-name="長方形 20" width="462" height="120" transform="translate(159 556)" fill="rgba(217,217,217,0.3)"/>
      <g id="グループ_59" data-name="グループ 59" transform="translate(0 8)">
        <path id="パス_128" data-name="パス 128" d="M-2.6-11.56a.728.728,0,0,0,.782-.731.719.719,0,0,0-.782-.731H-14.263a.748.748,0,0,0-.816.731.739.739,0,0,0,.816.731l5.015-.034v1.037c-1.037,0-1.972,0-2.635.017-1.411.034-1.9.8-1.938,1.5-.017.391-.034.952-.034,1.547,0,.578.017,1.173.034,1.632.051.85.68,1.445,1.921,1.53a.372.372,0,0,0-.17.153A4.05,4.05,0,0,1-13.6-2.754a.783.783,0,0,0-.493.68.769.769,0,0,0,.782.714c.1,0,.544-.017,1.717-1.19a9.1,9.1,0,0,0,.816.8A8.208,8.208,0,0,1-14.994-.323c-.544.068-.782.391-.782.731a.818.818,0,0,0,.884.782c.306,0,3.621-.357,5.423-2.006a13.655,13.655,0,0,0,7,1.768c.425,0,1.292,0,1.292-.867A.727.727,0,0,0-1.9-.7a14.978,14.978,0,0,1-6.63-1.275,6.406,6.406,0,0,0,.782-2.312C-6.7-4.3-5.678-4.318-4.913-4.352A1.818,1.818,0,0,0-2.975-5.9c.034-.391.051-.918.051-1.479,0-.646-.017-1.309-.051-1.785A1.766,1.766,0,0,0-4.828-10.54c-.748-.017-1.734-.017-2.771-.017v-1.037Zm-5.015,3.5V-9.316c.85,0,1.649,0,2.193.017.731.017.884.323.884,1.241Zm3.077,1.19c0,.8,0,1.258-.867,1.292-.578.017-1.377.034-2.227.034V-5.9l.017-.969Zm-4.692-1.19h-3.077c0-.8,0-1.224.867-1.241.544-.017,1.343-.017,2.21-.017Zm0,1.19c0,.425-.017.765-.017.935,0,.136-.017.272-.017.391-2.839,0-2.958,0-3.026-.714-.017-.153-.017-.374-.017-.612ZM-9.4-4.284a5.156,5.156,0,0,1-.476,1.445,5.3,5.3,0,0,1-.867-.884c0-.034.017-.051.017-.085a.624.624,0,0,0-.357-.493C-10.591-4.284-10.013-4.284-9.4-4.284ZM12.444.442a.723.723,0,0,0,.782.714.728.728,0,0,0,.8-.714l-.017-7.786h1.615a.751.751,0,0,0,.816-.748.748.748,0,0,0-.816-.731l-4.862.034V-9.945a.871.871,0,0,1,.748-.952c.459-.136,2.363-.748,2.924-1a.8.8,0,0,0,.544-.748.879.879,0,0,0-.867-.85,1.033,1.033,0,0,0-.425.1,31.288,31.288,0,0,1-2.941,1.19c-1.139.34-1.564.833-1.564,1.972v.2c.034.8.068,1.632.068,2.482,0,2.6-.306,5.3-1.921,7.208A.67.67,0,0,0,7.14.119a.848.848,0,0,0,.884.748A1,1,0,0,0,8.84.425c1.513-2.074,1.836-5.049,1.9-7.786h1.717ZM7.8-10.982a.642.642,0,0,0,.7-.663.638.638,0,0,0-.7-.646H5.882v-.969a.723.723,0,0,0-.782-.714.723.723,0,0,0-.782.714l.017.969H2.3a.662.662,0,0,0-.731.663.659.659,0,0,0,.731.646Zm.391,3.859a.637.637,0,0,0,.68-.663.633.633,0,0,0-.68-.646H6.63A5.6,5.6,0,0,0,7.378-10.1a.82.82,0,0,0-.833-.748.637.637,0,0,0-.629.527A11.981,11.981,0,0,1,5.2-8.432H4.4a.726.726,0,0,0,.306-.612c0-.289-.578-1.734-1.309-1.734a.7.7,0,0,0-.731.612.556.556,0,0,0,.136.357,3.8,3.8,0,0,1,.527,1.037.824.824,0,0,0,.2.34H1.819a.643.643,0,0,0-.68.646.647.647,0,0,0,.68.663ZM4.386.493a.651.651,0,0,0,.714.646A.648.648,0,0,0,5.814.51L5.78-2.669a6.306,6.306,0,0,1,1.258.935.663.663,0,0,0,.442.187.816.816,0,0,0,.748-.816.715.715,0,0,0-.272-.561A5.64,5.64,0,0,0,6.1-3.842a.629.629,0,0,0-.323.119l-.017-.629L7.888-4.3h.017a.61.61,0,0,0,.629-.646.639.639,0,0,0-.629-.68H7.888L5.78-5.61,5.8-6.358v-.017a.654.654,0,0,0-.7-.68.654.654,0,0,0-.7.68v.017l.017.748L2.091-5.627H2.074a.642.642,0,0,0-.7.663.661.661,0,0,0,.7.663h.017L4.3-4.352a11.026,11.026,0,0,1-2.975,2.7.713.713,0,0,0-.408.612.753.753,0,0,0,.765.714c.6,0,1.9-1.292,2.72-2.3Z" transform="translate(390 641)" fill="#676767"/>
        <path id="cog-solid" d="M58.133,34.012,54.544,31.94a16.227,16.227,0,0,0,0-5.914l3.589-2.072a1.018,1.018,0,0,0,.463-1.179A20.981,20.981,0,0,0,53.988,14.8a1.014,1.014,0,0,0-1.247-.194l-3.589,2.072a15.9,15.9,0,0,0-5.122-2.957V9.59a1.009,1.009,0,0,0-.792-.986,21.178,21.178,0,0,0-9.2,0,1.009,1.009,0,0,0-.792.986v4.145a16.4,16.4,0,0,0-5.122,2.957l-3.58-2.072a1,1,0,0,0-1.247.194,20.855,20.855,0,0,0-4.608,7.969,1.008,1.008,0,0,0,.463,1.179l3.589,2.072a16.227,16.227,0,0,0,0,5.914L19.154,34.02a1.018,1.018,0,0,0-.463,1.179A20.981,20.981,0,0,0,23.3,43.169a1.014,1.014,0,0,0,1.247.194l3.589-2.072a15.9,15.9,0,0,0,5.122,2.957v4.145a1.009,1.009,0,0,0,.792.986,21.178,21.178,0,0,0,9.2,0,1.009,1.009,0,0,0,.792-.986V44.248a16.4,16.4,0,0,0,5.122-2.957l3.589,2.072A1,1,0,0,0,54,43.169,20.855,20.855,0,0,0,58.6,35.2,1.04,1.04,0,0,0,58.133,34.012Zm-19.494,1.71a6.739,6.739,0,1,1,6.739-6.739A6.748,6.748,0,0,1,38.639,35.722Z" transform="translate(351.356 564.901)" fill="#676767"/>
      </g>
    </g>
    <g id="お問い合わせフォーム" transform="translate(249 442)">
      <g id="グループ_57" data-name="グループ 57" transform="translate(0 -1)">
        <path id="パス_127" data-name="パス 127" d="M-76-8.816a.923.923,0,0,0-.019-1.349,5.821,5.821,0,0,0-3.952-1.083.844.844,0,1,0,.1,1.672,3.549,3.549,0,0,1,2.508.779A.958.958,0,0,0-76-8.816ZM-85.1-5a9.656,9.656,0,0,1,2-.722,5.307,5.307,0,0,1,3.078.038c1.653.608,1.121,1.957.665,2.565-.912,1.216-2.128,1.2-3.61.475a.906.906,0,1,0-.817,1.615,4.64,4.64,0,0,0,6.1-1.14c.969-1.406,1.482-3.971-1.653-5.054a7.291,7.291,0,0,0-4.218-.019,11.7,11.7,0,0,0-1.6.589c-.019-.722-.019-1.425,0-2.014a10.983,10.983,0,0,0,1.786-.855c1.33-.8.171-2.3-.855-1.615a5.709,5.709,0,0,1-.76.437c.038-.57.057-1.178.1-1.6a.962.962,0,1,0-1.919.019c.038.722.076,1.33.076,2.223a4.743,4.743,0,0,1-1.919.171c-1.577-.323-1.805,1.577-.4,1.748a7.124,7.124,0,0,0,2.28-.076c0,.76.019,1.577.038,2.375a12.238,12.238,0,0,0-2.679,2.014c-1.007,1.1-1.634,2.451.627,3.553,1.558.76,3.99.8,3.838-1.919C-84.987-3-85.063-3.99-85.1-5Zm-1.615.95c.019.779.019,1.482,0,1.995-.019.741-.57.8-1.387.4-.437-.209-.437-.7-.038-1.14A9.327,9.327,0,0,1-86.716-4.047ZM-59-8.512v.779c0,1.178.019,2.451.019,3.705,0,.817-.019,1.634-.038,2.394-.019.931-.494,1.159-1.121,1.159a6.811,6.811,0,0,1-1.007-.114c-.057,0-.1-.019-.152-.019a.766.766,0,0,0-.741.836c0,.836.684,1.007,2.014,1.007,2.166,0,2.831-1.178,2.831-2.527,0-.665-.019-1.463-.019-2.356,0-2.413-.038-5.358-.038-8.208v-1.425c0-.855-.589-1.615-2-1.691-.323-.019-.855-.019-1.406-.019-.779,0-1.577,0-1.938.019a1.579,1.579,0,0,0-1.653,1.5c-.019.665-.038,1.387-.038,2.09,0,.437,0,.855.019,1.235.057,1.672,1.634,1.672,3.876,1.672C-59.831-8.474-59.337-8.493-59-8.512Zm-2.394,5.377c.019-.323.019-.665.019-.988,0-.532-.019-1.064-.038-1.558a1.8,1.8,0,0,0-1.767-1.691c-.4-.019-1.083-.038-1.786-.038-.684,0-1.387.019-1.843.038a1.723,1.723,0,0,0-1.748,1.71c-.019.513-.038,1.045-.038,1.6,0,2.755.551,2.793,3.705,2.793.627,0,1.235-.019,1.672-.057A1.806,1.806,0,0,0-61.389-3.135ZM-70.756.475c.057-2.679.076-5.263.076-7.3V-8.512c.342.019.817.038,1.311.038,3.762,0,3.781-.475,3.781-2.907,0-.7-.019-1.425-.038-2.09a1.614,1.614,0,0,0-1.691-1.5c-.361-.019-1.14-.019-1.862-.019-1.976,0-3.268,0-3.268,1.862-.038,4.123,0,10.127-.133,13.6V.513a.827.827,0,0,0,.912.779A.833.833,0,0,0-70.756.475Zm8.151-12.825c0-.228.019-.437.019-.627.038-.608.247-.608,1.767-.608,1.748,0,1.786.019,1.786,1.235ZM-59-9.88c-.266.019-.874.019-1.5.019-2.014,0-2.071-.076-2.09-.608,0-.19-.019-.4-.019-.627H-59ZM-70.68-12.35c0-.171.019-.342.019-.494.038-.684.171-.741,1.729-.741,1.52,0,1.615.057,1.653.589,0,.19.019.418.019.646Zm3.42,1.254c0,.228-.019.437-.019.627-.019.532-.152.608-2,.608-.57,0-1.14,0-1.406-.019V-11.1Zm3.4,8.246c-.247.019-.684.019-1.121.019-1.349,0-1.824-.019-1.862-.608-.019-.3-.019-.7-.019-1.083,0-1.387.038-1.444,1.862-1.444,1.786,0,1.9.019,1.9,1.216C-63.1-3.192-63.1-2.907-63.859-2.85Zm25.631-2.983a7.289,7.289,0,0,0-2.85-4.408c-1.14-.855-2.166.551-1.254,1.178a6,6,0,0,1,2.109,3.686A1.023,1.023,0,1,0-38.228-5.833Zm-8.3,3.135a8.693,8.693,0,0,0,.741-1.463.933.933,0,0,0-1.729-.684,7.472,7.472,0,0,1-.627,1.121c-.418.57-.665.513-1.159.038-1.064-1.026-1.425-2.907-1.5-4.9-.038-.874.038-.912,0-1.653a.969.969,0,1,0-1.938.019,18.927,18.927,0,0,0,.1,2.109A9.8,9.8,0,0,0-50.5-2.033C-49.438-.893-47.747-.722-46.531-2.7ZM-18.7-8.531a.748.748,0,0,0-.418-.684,27.5,27.5,0,0,1-6.061-4.959A2.52,2.52,0,0,0-27-15.048a2.085,2.085,0,0,0-1.691.893,24.038,24.038,0,0,1-5.89,5.529.954.954,0,0,0-.513.817,1.016,1.016,0,0,0,1.045.969,1.419,1.419,0,0,0,.855-.323,36.673,36.673,0,0,0,5.814-5.719c.19-.247.342-.38.513-.38s.342.133.551.38A35.1,35.1,0,0,0-20.5-7.6a1.229,1.229,0,0,0,.627.209A1.217,1.217,0,0,0-18.7-8.531Zm-4.826.589a.817.817,0,0,0,.874-.836.817.817,0,0,0-.874-.836h-6.384a.817.817,0,0,0-.874.836.817.817,0,0,0,.874.836Zm2.071,6.612c.019-.475.038-.969.038-1.444,0-.494-.019-.969-.038-1.368a1.967,1.967,0,0,0-2.014-1.71c-1.216-.019-2.565-.038-3.819-.038-1.026,0-1.995.019-2.793.038a1.931,1.931,0,0,0-2.109,1.881c-.019.437-.019.988-.019,1.52,0,.4,0,.8.019,1.14A1.979,1.979,0,0,0-30.039.627q1.6.057,3.192.057c1.083,0,2.185-.019,3.287-.057A2.065,2.065,0,0,0-21.451-1.33Zm-2.7.323c-.874.019-1.805.038-2.736.038-.912,0-1.805-.019-2.622-.038-.741-.019-.912-.209-.912-1.615,0-1.064.019-1.653.893-1.672.893-.019,1.938-.038,2.964-.038.855,0,1.672.019,2.375.038.874.019.912.361.912,1.786C-23.275-1.653-23.275-1.045-24.149-1.007ZM-11.97-3A19.153,19.153,0,0,0-11.951-.19c.076.817.627,1.121,1.14,1.045A1.025,1.025,0,0,0-9.937-.361a23.991,23.991,0,0,1-.152-4.522A11.39,11.39,0,0,1-7.7-6.479c2.622-1.349,4.6-1.083,5.453-.209.836.874.608,2.356-1.406,3.7a9.687,9.687,0,0,1-2.014.931A1.019,1.019,0,1,0-5.054-.114,11.639,11.639,0,0,0-2.356-1.5C.513-3.572.836-6.137-.551-7.7-1.919-9.253-4.94-9.88-8.322-8.075A12.868,12.868,0,0,0-9.956-7.03v-.095c.38-.684.665-1.216.76-1.349.855-1.216.342-2.128-.4-2.147.133-1.1.266-2.033.361-2.717.171-1.121-1.748-1.387-1.862-.057-.076.817-.19,2.014-.323,3.4-.969.4-1.995.893-2.7,1.216-1.083.513-.456,2.413.912,1.558a12.382,12.382,0,0,1,1.368-.817.314.314,0,0,1,.247-.038l-.038.456a28.7,28.7,0,0,1-2.527,4.636,7.709,7.709,0,0,0-.57.76c-.836,1.254.969,2.318,1.748.95.342-.589.627-1.1.893-1.539ZM7.315-6.251c.038.8.095,1.672.171,2.356C7.752-1.311,8.664-.133,11.153.133A11.437,11.437,0,0,0,15.086-.19a.974.974,0,1,0-.532-1.862,10.575,10.575,0,0,1-3.1.513c-1.6-.038-2.2-.684-2.356-2.736-.057-.665-.076-1.577-.1-2.47,1.254-.323,2.736-.665,4.313-.912a4.7,4.7,0,0,1-.551,2.014c-.266.4-.589.494-1.14-.228-.741-.969-1.767-.057-1.273.779A7.627,7.627,0,0,0,11.1-4.085a1.655,1.655,0,0,0,2.337.285A4.325,4.325,0,0,0,14.9-6.878c.038-.323.095-.665.114-.988.266-.019.513-.057.779-.076a18.054,18.054,0,0,1,2.679-.038c1.539.095,1.843-1.767.285-1.862a18.072,18.072,0,0,0-3.154.209c-.171.019-.323.057-.494.076.019-.38.038-.76.057-1.083.038-.532.076-1.083.076-1.729a.95.95,0,0,0-1.9-.019c.019.418,0,.589.019.741a7,7,0,0,1,.019.76c0,.475.019,1.007.019,1.577-1.558.266-3.135.589-4.389.855L9.025-8.7c.038-.893.057-1.767.057-2.375a1,1,0,0,0-2,.076c.038.817.1,1.6.133,2.7v.247l-.532.114c-.836.19-2.242.551-3.1.76-1.577.38-1.064,2.394.437,1.957.57-.171,1.292-.4,2.964-.931ZM26.752.285A14.538,14.538,0,0,0,35.72-9.234a2,2,0,0,0-2.071-2.736c-2.413-.038-5.966-.019-8.474.1a.941.941,0,1,0,.038,1.881c2.736-.1,5.738-.209,7.6-.152.7.019.76.494.608,1.007a11.757,11.757,0,0,1-7.543,7.581C24.434-1.1,25.137.893,26.752.285Zm23.2-6.5c.7,0,1.387.019,2.071.057a.809.809,0,1,0,.057-1.6H49.913c-.019-.741-.019-1.349-.019-1.729a.819.819,0,1,0-1.634.057c.019.342.057.95.076,1.691-1.444.019-2.907.057-4.256.114a.777.777,0,1,0,.057,1.539c1.083-.038,2.2-.076,3.344-.095a12.34,12.34,0,0,1-4.446,4.066c-1.045.551-.209,2.166,1.1,1.311a15.92,15.92,0,0,0,4.294-4.009c.038,1.33.057,2.622.076,3.382.019.627-.627.475-1.1.323a.8.8,0,0,0-1.045.608A.9.9,0,0,0,47.215.57c2.242.4,2.945-.532,2.907-1.729-.019-.38-.019-.627-.038-1.064C50.027-3.249,49.989-4.788,49.951-6.213ZM73.188-6.27a.917.917,0,0,0,.969-.931.921.921,0,0,0-.969-.95H61.256a.969.969,0,0,0-1.007.969.915.915,0,0,0,1.007.912Zm14.82,4.275A9.8,9.8,0,0,1,88.5-.988a.966.966,0,0,0,1.292.57A1.11,1.11,0,0,0,90.4-1.8a13.657,13.657,0,0,0-3.5-4.465c-1.064-.95-2.3.38-1.425,1.14a10.835,10.835,0,0,1,1.444,1.558c-1.482.361-3.572.817-5.548,1.178a90.115,90.115,0,0,0,3.268-8.835,1.053,1.053,0,1,0-2.052-.4,61.665,61.665,0,0,1-3.4,9.614c-.323.057-.665.095-.969.133-1.52.209-1.064,2.147.361,1.919C81.529-.456,85.557-1.311,88.008-1.995Z" transform="translate(390 637)" fill="#676767"/>
        <path id="envelope-regular" d="M40.781,64H4.219A4.219,4.219,0,0,0,0,68.219V93.531A4.219,4.219,0,0,0,4.219,97.75H40.781A4.219,4.219,0,0,0,45,93.531V68.219A4.219,4.219,0,0,0,40.781,64Zm0,4.219v3.586c-1.971,1.6-5.112,4.1-11.829,9.36-1.48,1.164-4.412,3.961-6.452,3.929-2.04.033-4.973-2.765-6.452-3.929C9.332,75.906,6.19,73.41,4.219,71.805V68.219ZM4.219,93.531V77.219c2.014,1.6,4.87,3.855,9.223,7.264,1.921,1.512,5.285,4.85,9.058,4.83,3.754.02,7.076-3.269,9.057-4.829,4.353-3.409,7.21-5.66,9.224-7.264V93.531Z" transform="translate(368 512)" fill="#676767"/>
      </g>
    </g>
    <g id="下層ページ" transform="translate(249 222)">
      <rect id="長方形_20-2" data-name="長方形 20" width="462" height="120" transform="translate(159 646)" fill="rgba(217,217,217,0.3)"/>
      <g id="グループ_56" data-name="グループ 56" transform="translate(0 -3.571)">
        <path id="パス_126" data-name="パス 126" d="M6.6-6.919a.487.487,0,0,0-.51-.493.7.7,0,0,0-.527.255A3.6,3.6,0,0,1,2.924-5.865,3.727,3.727,0,0,1,.9-6.528c-.51-.323-1-.68-1.547-.969A4.882,4.882,0,0,0-2.89-8.075C-4.675-8.075-6.6-6.647-6.6-6.018a.5.5,0,0,0,.527.493.682.682,0,0,0,.51-.238A3.642,3.642,0,0,1-2.924-7.089,3.793,3.793,0,0,1-.9-6.409c.51.323,1,.714,1.547,1a4.824,4.824,0,0,0,2.227.595C4.675-4.811,6.6-6.273,6.6-6.919Z" transform="translate(463.5 742.071)" fill="#676767" stroke="#676767" stroke-width="1"/>
        <path id="パス_125" data-name="パス 125" d="M-56.306.285a.921.921,0,0,0,.988.931A.927.927,0,0,0-54.312.285V-8.284a19.672,19.672,0,0,1,3.8,2.261,1.216,1.216,0,0,0,.7.247A1.071,1.071,0,0,0-48.763-6.84a1.038,1.038,0,0,0-.475-.874,15.5,15.5,0,0,0-4.788-2.28,1.467,1.467,0,0,0-.285.038v-2.337h6.574a.812.812,0,0,0,.817-.874.839.839,0,0,0-.817-.893H-62.158a.848.848,0,0,0-.836.912.8.8,0,0,0,.836.855h5.852ZM-32.233-11c.38,0,.722-.019,1.064-.019,1.767-.038,2.071-.627,2.071-1.805,0-1.349-.38-2.052-2.09-2.09-1.406-.038-3.135-.038-4.826-.038-1.71,0-3.4,0-4.731.038-1.273.038-1.881.779-1.881,1.634v.038c.019.912.057,1.957.057,3.059,0,3.42-.285,7.41-1.976,9.69a.911.911,0,0,0-.19.532.9.9,0,0,0,.969.8,1.182,1.182,0,0,0,.931-.494c1.805-2.47,2.128-7.562,2.128-11.362,1.007,0,1.995.019,2.983.019a.56.56,0,0,0-.209.418c0,.133.038.19.456.817-.266,0-.494.019-.722.019-1.919.057-1.938,1.064-1.938,2.508,0,2.546.019,2.546,5.567,2.546,1.121,0,2.242-.019,3.344-.057,1.938-.057,1.938-1.083,1.938-2.565,0-.285-.019-.589-.038-.855a1.763,1.763,0,0,0-1.862-1.577c-.3,0-.646-.019-.969-.019a1.247,1.247,0,0,0,.285-.627A.773.773,0,0,0-32.233-11ZM-31.91.95c1.786-.076,1.9-1.045,1.9-2.584,0-.285-.019-.57-.038-.836a1.728,1.728,0,0,0-1.843-1.52c-.836-.019-1.805-.038-2.774-.038s-1.938.019-2.793.038c-1.957.019-1.957,1.083-1.957,2.432,0,2.489.095,2.565,4.9,2.565C-33.639,1.007-32.746.988-31.91.95Zm-8.816-13.756a.691.691,0,0,1,.76-.684c1.387-.019,3.059-.038,4.75-.038,4.256,0,4.256,0,4.256.57,0,.475-.361.57-.684.589-1.311.038-2.888.038-4.617.038-1.406,0-2.926,0-4.446-.019ZM-34-7.771v-.855c.817,0,1.634.019,2.394.038.475,0,.627.171.665.608,0,.076.019.133.019.209Zm.7-3.23a.382.382,0,0,0-.076.152c-.228.456-.418.779-.57,1.064h-1.729A3.569,3.569,0,0,0-36.489-11Zm2.375,4.237c0,.095-.019.19-.019.285-.019.627-.114.627-3.059.627v-.912Zm-4.636-1.007h-3v-.152a.614.614,0,0,1,.684-.665c.7-.019,1.482-.038,2.318-.038Zm0,1.938c-.817,0-1.6-.038-2.3-.057-.57-.019-.684-.133-.7-.551v-.323h3Zm3.876,3.743h-6.137l.019-.133a.588.588,0,0,1,.646-.646c.817-.019,1.786-.019,2.774-.019.7,0,1.406,0,2.033.019.475.019.627.152.665.589Zm0,1.235c-.019.608-.038.627-3.116.627-2.907,0-2.983,0-3-.589l-.019-.266h6.137Zm20.653-9.519A2.076,2.076,0,0,0-13.1-12.445a2.06,2.06,0,0,0-2.052,2.071A2.043,2.043,0,0,0-13.1-8.322,2.06,2.06,0,0,0-11.029-10.374Zm2.014,8.417a1,1,0,0,0-.19-1.463c-2.014-1.311-5.719-4.1-7.239-5.225a3.373,3.373,0,0,0-4.313-.133,19.013,19.013,0,0,1-2.945,1.8,1.043,1.043,0,1,0,.741,1.938,16.185,16.185,0,0,0,3.192-2.28,1.671,1.671,0,0,1,2.318.114C-15-5.32-12.872-3.192-10.592-1.71A1.2,1.2,0,0,0-9.015-1.957Zm-3.078-8.417A1.014,1.014,0,0,1-13.1-9.367a1.014,1.014,0,0,1-1.007-1.007A1.014,1.014,0,0,1-13.1-11.381,1.014,1.014,0,0,1-12.093-10.374ZM8.028-6.27A.917.917,0,0,0,9-7.2a.921.921,0,0,0-.969-.95H-3.9a.969.969,0,0,0-1.007.969A.915.915,0,0,0-3.9-6.27Zm19.019-6.764c.646.722,1.71-.475.95-1.235a6.064,6.064,0,0,0-1.919-1.083c-.893-.285-1.577.874-.608,1.254A6.965,6.965,0,0,1,27.047-13.034ZM25.3-11.343c.627.741,1.729-.418.988-1.216a5.877,5.877,0,0,0-1.881-1.14c-.874-.323-1.634.817-.665,1.216A6.718,6.718,0,0,1,25.3-11.343ZM21.138-8.987a1.023,1.023,0,0,0-.1-1.482,10.393,10.393,0,0,0-2.527-1.577c-1.292-.57-2.052,1.121-.969,1.558a6.652,6.652,0,0,1,2.071,1.463A1.014,1.014,0,0,0,21.138-8.987Zm7.334-.532c.836-1.5-1.064-2.28-1.691-1.1-2,3.781-6.213,7.961-9.994,8.987A1.037,1.037,0,1,0,17.414.323C21.727-1.1,26.04-5.168,28.472-9.519Zm-9.6,3.553a1.027,1.027,0,0,0-.437-1.425,9.609,9.609,0,0,0-2.774-.95c-1.387-.266-1.748,1.539-.608,1.729a6.663,6.663,0,0,1,2.356.969A.983.983,0,0,0,18.877-5.966Zm19.361-8.227a1.094,1.094,0,0,0-1.064,1.121A.942.942,0,0,0,38.2-12.1h.114c.228-.019,4.921-.095,5.054-.095.247,0,.38.114.38.3a.936.936,0,0,1-.095.342c-1.045,2.2-4.389,7.011-5.225,10.222a1.842,1.842,0,0,0-.057.437A1,1,0,0,0,39.4.171,1.286,1.286,0,0,0,40.632-.874c.836-3.5,3.648-7.429,5.206-10.317a2.537,2.537,0,0,0,.323-1.216c0-1.007-.741-1.786-2.128-1.786Zm12.92,13.3v-.741c0-1.254-.057-2.6-.057-3.781,0-.152.019-.209.114-.209a.371.371,0,0,1,.133.019,6.07,6.07,0,0,0,1.387.152A10.784,10.784,0,0,0,54.1-5.548a4.485,4.485,0,0,0,4.123-4.522c0-2.052-1.387-4.085-4.389-4.275-.285-.019-.665-.038-1.064-.038-3.724,0-3.743,1.254-3.743,3.591,0,1.33.038,3.192.038,5.149,0,1.615-.019,3.287-.1,4.769v.057a1.01,1.01,0,0,0,1.083.969A1.029,1.029,0,0,0,51.158-.893Zm2.489-11.476a2.176,2.176,0,0,1,2.451,2.2,2.641,2.641,0,0,1-2.318,2.66c-.4.038-.8.057-1.159.057-1.178,0-1.558-.133-1.558-.532V-8.3c0-.665-.019-1.444-.019-2.109,0-1.767.171-1.976,1.691-1.976C53.191-12.388,53.647-12.369,53.647-12.369Z" transform="translate(390 741.571)" fill="#676767"/>
        <g id="file-regular" transform="translate(-133 3.644)">
          <text id="_" data-name="〜" transform="translate(663 701.5)" fill="#676767" stroke="#676767" stroke-width="1" font-size="20" font-family="TsukuARdGothicStd-B, FOT-TsukuARdGothic Std"><tspan x="-10" y="0">〜</tspan></text>
          <path id="file-regular-2" data-name="file-regular" d="M28.9,7.556,22.344,1A3.75,3.75,0,0,0,19.7-.1H3.75A3.763,3.763,0,0,0,0,3.658v32.5a3.751,3.751,0,0,0,3.75,3.75h22.5A3.751,3.751,0,0,0,30,36.158V10.212a3.768,3.768,0,0,0-1.1-2.656ZM25.945,9.908H20V3.963ZM3.75,36.158V3.658h12.5v8.125a1.871,1.871,0,0,0,1.875,1.875H26.25v22.5Z" transform="translate(613 671.1)" fill="#676767"/>
          <path id="file-regular-3" data-name="file-regular" d="M28.9,7.556,22.344,1A3.75,3.75,0,0,0,19.7-.1H3.75A3.763,3.763,0,0,0,0,3.658v32.5a3.751,3.751,0,0,0,3.75,3.75h22.5A3.751,3.751,0,0,0,30,36.158V10.212a3.768,3.768,0,0,0-1.1-2.656ZM25.945,9.908H20V3.963ZM3.75,36.158V3.658h12.5v8.125a1.871,1.871,0,0,0,1.875,1.875H26.25v22.5Z" transform="translate(573 671.027)" fill="#676767"/>
          <path id="file-regular-4" data-name="file-regular" d="M28.9,7.556,22.344,1A3.75,3.75,0,0,0,19.7-.1H3.75A3.763,3.763,0,0,0,0,3.658v32.5a3.751,3.751,0,0,0,3.75,3.75h22.5A3.751,3.751,0,0,0,30,36.158V10.212a3.768,3.768,0,0,0-1.1-2.656ZM25.945,9.908H20V3.963ZM3.75,36.158V3.658h12.5v8.125a1.871,1.871,0,0,0,1.875,1.875H26.25v22.5Z" transform="translate(533 671.027)" fill="#676767"/>
          <path id="file-regular-5" data-name="file-regular" d="M28.9,7.556,22.344,1A3.75,3.75,0,0,0,19.7-.1H3.75A3.763,3.763,0,0,0,0,3.658v32.5a3.751,3.751,0,0,0,3.75,3.75h22.5A3.751,3.751,0,0,0,30,36.158V10.212a3.768,3.768,0,0,0-1.1-2.656ZM25.945,9.908H20V3.963ZM3.75,36.158V3.658h12.5v8.125a1.871,1.871,0,0,0,1.875,1.875H26.25v22.5Z" transform="translate(493 671.027)" fill="#676767"/>
          <path id="file-regular-6" data-name="file-regular" d="M28.9,7.556,22.344,1A3.75,3.75,0,0,0,19.7-.1H3.75A3.763,3.763,0,0,0,0,3.658v32.5a3.751,3.751,0,0,0,3.75,3.75h22.5A3.751,3.751,0,0,0,30,36.158V10.212a3.768,3.768,0,0,0-1.1-2.656ZM25.945,9.908H20V3.963ZM3.75,36.158V3.658h12.5v8.125a1.871,1.871,0,0,0,1.875,1.875H26.25v22.5Z" transform="translate(453 671.027)" fill="#676767"/>
          <path id="file-regular-7" data-name="file-regular" d="M28.9,7.556,22.344,1A3.75,3.75,0,0,0,19.7-.1H3.75A3.763,3.763,0,0,0,0,3.658v32.5a3.751,3.751,0,0,0,3.75,3.75h22.5A3.751,3.751,0,0,0,30,36.158V10.212a3.768,3.768,0,0,0-1.1-2.656ZM25.945,9.908H20V3.963ZM3.75,36.158V3.658h12.5v8.125a1.871,1.871,0,0,0,1.875,1.875H26.25v22.5Z" transform="translate(413 671.027)" fill="#676767"/>
          <path id="file-regular-8" data-name="file-regular" d="M28.9,7.556,22.344,1A3.75,3.75,0,0,0,19.7-.1H3.75A3.763,3.763,0,0,0,0,3.658v32.5a3.751,3.751,0,0,0,3.75,3.75h22.5A3.751,3.751,0,0,0,30,36.158V10.212a3.768,3.768,0,0,0-1.1-2.656ZM25.945,9.908H20V3.963ZM3.75,36.158V3.658h12.5v8.125a1.871,1.871,0,0,0,1.875,1.875H26.25v22.5Z" transform="translate(373 671.027)" fill="#676767"/>
        </g>
      </g>
    </g>
    <g id="トップページ" transform="translate(249 183)">
      <g id="グループ_55" data-name="グループ 55" transform="translate(339 586.999)">
        <path id="パス_124" data-name="パス 124" d="M-47.766-7.125a11.777,11.777,0,0,1,3.7,1.539c1.083.8,2.166-.855,1.178-1.691a11.752,11.752,0,0,0-4.56-1.653,1.954,1.954,0,0,0-.323-.019c.019-1.862.038-3.515.057-4.446a.988.988,0,0,0-1.976-.019c.076,2.736.019,10.184-.114,13.262a1.033,1.033,0,1,0,2.052-.076C-47.785-1.767-47.785-4.5-47.766-7.125Zm20.311.76A8.143,8.143,0,0,0-28.6-8.246c-.779-.931-2.052.114-1.368.874a5.029,5.029,0,0,1,.893,1.6A.862.862,0,1,0-27.455-6.365ZM-30.685.779A12.39,12.39,0,0,0-23.75-7.41.927.927,0,1,0-25.536-7.9,10.172,10.172,0,0,1-31.521-.722.843.843,0,0,0-32,.418.911.911,0,0,0-30.685.779Zm.608-6.346a7.168,7.168,0,0,0-1.406-1.691c-.893-.8-1.995.4-1.216,1.064a4.973,4.973,0,0,1,1.083,1.463A.877.877,0,1,0-30.077-5.567ZM-.722-13.528a2.027,2.027,0,0,0-2.014-2.014,2.011,2.011,0,0,0-2,2.014,2,2,0,0,0,2,1.995A2.011,2.011,0,0,0-.722-13.528ZM-13.148.285A14.538,14.538,0,0,0-4.18-9.234,2,2,0,0,0-6.251-11.97c-2.413-.038-5.966-.019-8.474.1a.941.941,0,1,0,.038,1.881c2.736-.1,5.738-.209,7.6-.152.7.019.76.494.608,1.007a11.757,11.757,0,0,1-7.543,7.581C-15.466-1.1-14.763.893-13.148.285ZM-1.767-13.528a.957.957,0,0,1-.969.95.957.957,0,0,1-.969-.95.99.99,0,0,1,.969-.988A.99.99,0,0,1-1.767-13.528Zm17.043,3.154A2.076,2.076,0,0,0,13.2-12.445a2.06,2.06,0,0,0-2.052,2.071A2.043,2.043,0,0,0,13.2-8.322,2.06,2.06,0,0,0,15.276-10.374ZM17.29-1.957A1,1,0,0,0,17.1-3.42c-2.014-1.311-5.719-4.1-7.239-5.225a3.373,3.373,0,0,0-4.313-.133A19.013,19.013,0,0,1,2.6-6.973a1.043,1.043,0,1,0,.741,1.938,16.185,16.185,0,0,0,3.192-2.28A1.671,1.671,0,0,1,8.854-7.2C11.3-5.32,13.433-3.192,15.713-1.71A1.2,1.2,0,0,0,17.29-1.957Zm-3.078-8.417A1.014,1.014,0,0,1,13.2-9.367,1.014,1.014,0,0,1,12.2-10.374,1.014,1.014,0,0,1,13.2-11.381,1.014,1.014,0,0,1,14.212-10.374Zm20.121,4.1A.917.917,0,0,0,35.3-7.2a.921.921,0,0,0-.969-.95H22.4a.969.969,0,0,0-1.007.969A.915.915,0,0,0,22.4-6.27Zm19.019-6.764c.646.722,1.71-.475.95-1.235a6.064,6.064,0,0,0-1.919-1.083c-.893-.285-1.577.874-.608,1.254A6.965,6.965,0,0,1,53.352-13.034ZM51.6-11.343c.627.741,1.729-.418.988-1.216a5.877,5.877,0,0,0-1.881-1.14c-.874-.323-1.634.817-.665,1.216A6.718,6.718,0,0,1,51.6-11.343ZM47.443-8.987a1.023,1.023,0,0,0-.1-1.482,10.393,10.393,0,0,0-2.527-1.577c-1.292-.57-2.052,1.121-.969,1.558a6.652,6.652,0,0,1,2.071,1.463A1.014,1.014,0,0,0,47.443-8.987Zm7.334-.532c.836-1.5-1.064-2.28-1.691-1.1C51.091-6.84,46.873-2.66,43.092-1.634A1.037,1.037,0,1,0,43.719.323C48.032-1.1,52.345-5.168,54.777-9.519ZM45.182-5.966a1.027,1.027,0,0,0-.437-1.425,9.609,9.609,0,0,0-2.774-.95c-1.387-.266-1.748,1.539-.608,1.729a6.663,6.663,0,0,1,2.356.969A.983.983,0,0,0,45.182-5.966Z" transform="translate(51 74)" fill="#676767"/>
        <path id="file-regular-9" data-name="file-regular" d="M33.715,8.832,26.068,1.185A4.375,4.375,0,0,0,22.978-.1H4.375A4.39,4.39,0,0,0,0,4.284V42.2a4.376,4.376,0,0,0,4.375,4.375h26.25A4.376,4.376,0,0,0,35,42.2V11.931a4.4,4.4,0,0,0-1.285-3.1ZM30.27,11.576H23.333V4.64ZM4.375,42.2V4.284H18.958v9.479a2.182,2.182,0,0,0,2.188,2.187h9.479V42.2Z" transform="translate(34 0.1)" fill="#676767"/>
      </g>
    </g>
    <path id="パス_123" data-name="パス 123" d="M-158.775.55c-.025-1.775-.05-3.975-.05-6.125a1.344,1.344,0,0,0,.525.125c.95,0,2.2-1.85,3-4.1a12.553,12.553,0,0,1,2.05,3.05.932.932,0,0,0,.85.6,1.145,1.145,0,0,0,.85-.4c0,2.25-.025,4.1-.025,4.1,0,1.1-.425,1.4-1.075,1.4a7.724,7.724,0,0,1-1.2-.175A.771.771,0,0,0-154.1-1,1.061,1.061,0,0,0-155.125.1c0,.925.8,1.25,2.475,1.25,2.5,0,3.35-1.425,3.35-2.925V-1.7c-.075-2.35-.1-3.025-.1-8.475v-3.05c-.025-1.425-.775-2.2-2.35-2.25-.675-.025-1.55-.05-2.5-.05.025-.975.075-3.1.075-3.575a1.094,1.094,0,0,0-1.15-1.125,1.083,1.083,0,0,0-1.15,1.075v.05c.025.525.05,2.725.05,3.6-.875,0-1.65,0-2.25.025-1.75.05-2.325.75-2.325,2.225-.025,2.175-.025,5.125-.025,7.975,0,2.1,0,4.15.025,5.825a1.065,1.065,0,0,0,1.125,1.025,1.025,1.025,0,0,0,1.1-1ZM-167.05.375a1.047,1.047,0,0,0,1.1,1.1A1.114,1.114,0,0,0-164.775.35l-.05-8.875c.625-.1,1.2-.175,1.6-.25a2.082,2.082,0,0,1,.1.375.86.86,0,0,0,.825.75,1.1,1.1,0,0,0,1.05-1.1c0-.55-1.1-3.275-2.325-3.275a.807.807,0,0,0-.9.725.868.868,0,0,0,.2.525l.3.45c-.625.075-1.4.175-2.275.275,1.775-2.275,3.975-5.625,3.975-6.375A1.185,1.185,0,0,0-163.5-17.5a.955.955,0,0,0-.95.625,26.833,26.833,0,0,1-1.9,3.525c-.325-.3-.725-.625-1.125-.95a19.752,19.752,0,0,0,2.55-5.075c0-.6-.65-1-1.25-1a.971.971,0,0,0-1,.7,17.348,17.348,0,0,1-1.925,4.2,1.33,1.33,0,0,0-.7-.225.988.988,0,0,0-.975.95,1,1,0,0,0,.475.825,23.434,23.434,0,0,1,2.825,2.275A21.743,21.743,0,0,1-168.95-9.8c-.425.025-.8.075-1.1.075a.843.843,0,0,0-.8.9.939.939,0,0,0,.925,1c.225,0,1.75-.2,2.95-.375L-167.05.35Zm5.675-3.525c0-.45-.725-3.85-2.225-3.85a.8.8,0,0,0-.875.75.986.986,0,0,0,.125.5,8.062,8.062,0,0,1,.825,2.825A.959.959,0,0,0-162.55-2,1.165,1.165,0,0,0-161.375-3.15Zm-7.85,2.475a14.534,14.534,0,0,0,1.625-5.1,1.056,1.056,0,0,0-1.1-1.075.923.923,0,0,0-.95.85,11.128,11.128,0,0,1-1.45,4.25,1.08,1.08,0,0,0-.2.625,1.055,1.055,0,0,0,1.1.975A1.121,1.121,0,0,0-169.225-.675ZM-151.55-8c-.65-1.125-2.2-3.175-3.25-3.325a16.864,16.864,0,0,0,.4-2.225c2.525,0,2.725,0,2.775.825C-151.575-11.475-151.55-9.7-151.55-8Zm-4.975-5.55c-.225,2.2-.825,4.6-2.3,6.1,0-2,.025-3.85.05-5.275C-158.775-13.55-158.475-13.55-156.525-13.55Zm30.225-.15c.025-.5.025-1.075.025-1.65,0-.8-.025-1.65-.075-2.35a2.462,2.462,0,0,0-2.4-2.025c-.8-.025-1.8-.05-2.8-.05-1.025,0-2.025.025-2.875.05a2.331,2.331,0,0,0-2.45,2.2c-.025.725-.05,1.6-.05,2.425,0,.525,0,1.025.025,1.45.1,2.125,2,2.15,5.275,2.15,1.05,0,2.1-.025,2.925-.075A2.213,2.213,0,0,0-126.3-13.7Zm-12.275-4.8a1.34,1.34,0,0,0,.25-.75,1.265,1.265,0,0,0-1.25-1.225,1.167,1.167,0,0,0-1,.625,13.728,13.728,0,0,1-4.8,4.85,1.442,1.442,0,0,0-.825,1.175,1.176,1.176,0,0,0,1.25,1.125C-143.7-12.7-140.6-15.575-138.575-18.5ZM-124.85-5.025a.9.9,0,0,0,.95-.95.9.9,0,0,0-.95-.95h-2.875V-7.85a.844.844,0,0,0-.2-.575h2.35a.9.9,0,0,0,.95-.95.9.9,0,0,0-.95-.95H-137.55a.946.946,0,0,0-1,.95.946.946,0,0,0,1,.95h7.85a.925.925,0,0,0-.225.6l.025.9h-8.4a.946.946,0,0,0-1,.95.946.946,0,0,0,1,.95h8.4l.05,3.2v.05c0,.95-.575,1.225-1.375,1.225a6.44,6.44,0,0,1-1.325-.175.938.938,0,0,0-.25-.025A1.1,1.1,0,0,0-133.9.4c0,1.25,1.375,1.275,2.425,1.275,2.75,0,3.825-1.475,3.825-2.75v-.05l-.05-1.95v-1.95Zm-8.825,3.9a1.3,1.3,0,0,0,1.2-1.25c0-1.1-2.525-2.225-3.25-2.225A1.194,1.194,0,0,0-136.9-3.55a.753.753,0,0,0,.475.65,6.15,6.15,0,0,1,2.075,1.45A.874.874,0,0,0-133.675-1.125ZM-143.1.675v.05A1.068,1.068,0,0,0-141.95,1.8,1.163,1.163,0,0,0-140.7.675l.275-11.275A29.849,29.849,0,0,0-138-13.625a1.21,1.21,0,0,0,.225-.675,1.36,1.36,0,0,0-1.325-1.275,1.1,1.1,0,0,0-.925.575,17.437,17.437,0,0,1-5.825,6,1.133,1.133,0,0,0-.6,1,1.243,1.243,0,0,0,1.2,1.25c.375,0,.75-.175,2.45-1.55Zm8.3-17.2c0-.15.025-.3.025-.425.025-.475.175-.925.9-.95.575-.025,1.45-.05,2.3-.05,2.875,0,2.975.025,3.025.975,0,.15.025.3.025.45Zm6.3,1.7c0,.225-.025.475-.025.675-.05.85-.4.875-3.225.875-3.025,0-3.05-.025-3.05-1.55Zm19.95.8a6.484,6.484,0,0,1,3.1,1,5.4,5.4,0,0,1,1.375,7.65,7.745,7.745,0,0,1-4.65,2.8c-2.15.5-1.375,3.025.825,2.45a10.451,10.451,0,0,0,6.1-4.125c2.175-3.575,1.55-8.175-2.325-10.5a10.445,10.445,0,0,0-10.8.575c-3.35,2.325-5.025,6.975-3.45,10.075,1.1,2.15,3.2,3.125,5.125,1.35a19.691,19.691,0,0,0,5.05-10.125A1.25,1.25,0,0,0-108.55-14.025Zm-1.975.125a1.768,1.768,0,0,0-.225.775c-.25,2.7-2,6.675-3.875,8.325-.625.55-1.275.175-1.65-.55-1.05-1.925.2-5.25,2.525-7.05A8.284,8.284,0,0,1-110.525-13.9Zm28.9,2.35c1.375,0,2.75.05,4.05.1a1.208,1.208,0,1,0,.075-2.375c-1.325-.025-2.725,0-4.15,0-.025-1.425-.05-2.65-.05-3.35a1.216,1.216,0,1,0-2.425.1c.025.65.075,1.85.125,3.275-2.7.025-5.425.075-7.925.175a1.162,1.162,0,1,0,.075,2.3c2.1-.075,4.325-.15,6.55-.2A22.617,22.617,0,0,1-93.7-3.75c-1.575.825-.35,3.2,1.725,1.875A28.938,28.938,0,0,0-83.85-9.5c.075,2.625.15,5.225.175,6.7.025,1.325-1.3,1.175-2.325.85-1.575-.5-2.5,2.075-.225,2.475,3.925.675,5-.9,4.95-2.825-.025-.675-.025-1.1-.075-1.875C-81.475-6.05-81.575-8.925-81.625-11.55ZM-61.75-8.125c.05-2.325.05-6.6-.075-8.85-.1-1.575-2.675-1.45-2.6.1.125,2.375.2,6.3.05,8.775a1.226,1.226,0,0,0,1.3,1.275A1.293,1.293,0,0,0-61.75-8.125Zm.45,9.4c5.175-2.975,6.475-7.3,6.475-11.6,0-2.075-.125-4.875-.075-7,.025-1.525-2.675-1.625-2.675,0,0,1.975.125,5.075.125,7.025,0,3.725-1,7.075-5.425,9.525C-64.45.1-63.35,2.45-61.3,1.275ZM-26.8-17.15c.85.95,2.25-.625,1.25-1.625A7.979,7.979,0,0,0-28.075-20.2c-1.175-.375-2.075,1.15-.8,1.65A9.164,9.164,0,0,1-26.8-17.15Zm-2.3,2.225c.825.975,2.275-.55,1.3-1.6a7.733,7.733,0,0,0-2.475-1.5c-1.15-.425-2.15,1.075-.875,1.6A8.839,8.839,0,0,1-29.1-14.925Zm-5.475,3.1a1.346,1.346,0,0,0-.125-1.95,13.675,13.675,0,0,0-3.325-2.075c-1.7-.75-2.7,1.475-1.275,2.05a8.753,8.753,0,0,1,2.725,1.925A1.334,1.334,0,0,0-34.575-11.825Zm9.65-.7c1.1-1.975-1.4-3-2.225-1.45C-29.775-9-35.325-3.5-40.3-2.15A1.364,1.364,0,1,0-39.475.425C-33.8-1.45-28.125-6.8-24.925-12.525ZM-37.55-7.85a1.351,1.351,0,0,0-.575-1.875,12.644,12.644,0,0,0-3.65-1.25c-1.825-.35-2.3,2.025-.8,2.275a8.767,8.767,0,0,1,3.1,1.275A1.294,1.294,0,0,0-37.55-7.85Zm29.8-2.2c1.925,0,3.85.025,5.7.1A1.33,1.33,0,0,0-.5-11.15c.025-.625-.425-1.25-1.45-1.275-1.875-.025-3.825-.025-5.825,0,0-1.175.025-2.375-.1-3.85s-2.675-1.7-2.6.175c.025.85.075,2.25.1,3.7-2.35.025-4.675.075-6.9.15a1.216,1.216,0,1,0,.075,2.4c2.25-.075,4.55-.175,6.85-.2a9.355,9.355,0,0,1-6.5,8.575c-1.625.6-.925,3.075,1.175,2.25A11.831,11.831,0,0,0-7.75-10.05ZM23-10.125a1.3,1.3,0,1,0-2.275-1.25,15.777,15.777,0,0,1-5.575,6.25c-.475.275-.775.225-.75-.325.025-.85.275-7.45.3-8.425a1.254,1.254,0,1,0-2.5,0c0,1.475-.175,7.425-.35,9.675-.175,2.15,1.6,2.8,3.225,2A19.815,19.815,0,0,0,23-10.125ZM3.35-.925a13.764,13.764,0,0,0,6.875-12.65,1.292,1.292,0,1,0-2.575.2C7.875-8.6,5.65-4.75,1.95-3.1.05-2.25,1.425.15,3.35-.925Zm31.575-10.25C33.95-7.2,31.85-3.4,28.425-1.55,26.425-.475,28,1.6,29.6.725,34.05-1.7,36.45-6.65,37.5-11.2c1,0,1.95-.025,2.725,0A1.35,1.35,0,0,1,41.6-9.725c-.025,1.3-.4,4.75-1.375,6.2-.875,1.275-2.15,1.725-3.5.7a1.3,1.3,0,1,0-1.6,2.05,4.8,4.8,0,0,0,7.375-1.5c1.05-1.875,1.525-5.5,1.6-8.025.05-2.025-1.35-3.05-3.3-3.1-.875-.025-1.85-.025-2.875-.025a21.025,21.025,0,0,0,.25-3.175,1.315,1.315,0,1,0-2.625-.1,25.112,25.112,0,0,1-.2,3.3c-1.8.025-3.55.075-4.975.125-1.675.075-1.825,2.35.175,2.25C31.8-11.075,33.35-11.15,34.925-11.175ZM61.75-6.225A26.008,26.008,0,0,1,67.6-1.2c1.175,1.475,3.05-.475,2.05-1.875-1.15-1.6-4.325-3.7-6.4-4.95a40.007,40.007,0,0,0,2.775-4.25c.975-1.7-.3-3.125-2.55-3.125-2.525,0-6.2.05-8.025.125a1.214,1.214,0,0,0,0,2.425c2.2-.05,5.65-.175,7.225-.15.55,0,.65.4.425.825a20.325,20.325,0,0,1-10.475,9.3,1.29,1.29,0,1,0,.8,2.425A21.12,21.12,0,0,0,61.75-6.225ZM88.6-5.75A14.249,14.249,0,0,1,90.1-4.4a1.2,1.2,0,0,0,1.775.075,1.355,1.355,0,0,0,.05-1.9,9.444,9.444,0,0,0-1.8-1.575c.975-1.425,1.9-2.975,2.825-4.65.975-1.775.525-3.575-2.05-3.5-1.2.05-2.575.175-3.8.275q.263-.375.45-.675c.875-1.45-1.7-3-2.575-.875A22.7,22.7,0,0,1,78.3-9.35c-1.7,1.05-.225,3.225,1.45,2.075a32.555,32.555,0,0,0,5.725-6.1c.85-.1,3.425-.35,4.425-.375.65-.025.75.1.275,1.125a24.57,24.57,0,0,1-2.1,3.575,16.545,16.545,0,0,0-3.15-1.3c-1.75-.5-2.4,1.625-1,2a10.943,10.943,0,0,1,2.625,1.2,19.465,19.465,0,0,1-8.35,5.7c-1.9.625-.925,2.975,1.075,2.2A21.512,21.512,0,0,0,88.6-5.75Zm24.975.225a33.47,33.47,0,0,0,6.325-5.25c1.525-1.725-.1-3.625-2.35-3.65-4.15-.075-10.3.05-14.225.125a1.276,1.276,0,1,0,.025,2.525c3.875-.15,9.975-.25,13.1-.225.75,0,.55.525.225.85a36.8,36.8,0,0,1-5.15,4,26.56,26.56,0,0,0-3.1-1.85c-1.75-.9-2.95,1.25-1.575,1.9a18.341,18.341,0,0,1,5.9,4.95,1.236,1.236,0,0,0,1.825.425,1.474,1.474,0,0,0,.475-2A7.794,7.794,0,0,0,113.575-5.525Zm20.9-3.8c-.025,2.925-.125,7-.15,9A1.323,1.323,0,1,0,136.95-.4c-.075-2.5-.025-9.05.05-11.6,1.075-1.25,2.15-2.6,3.275-4.1a1.3,1.3,0,1,0-2.225-1.325,33.211,33.211,0,0,1-12.2,11.3c-1.7.825-.4,3.375,1.9,1.975A36.549,36.549,0,0,0,134.475-9.325ZM170.85-17.15A8.228,8.228,0,0,0,168.6-19c-1.1-.575-2.25.775-1.075,1.475a8.793,8.793,0,0,1,1.825,1.775C170.025-14.675,171.675-15.975,170.85-17.15Zm-2.95,1.5a8.154,8.154,0,0,0-2.175-1.9c-1.075-.625-2.3.65-1.15,1.4a8.633,8.633,0,0,1,1.75,1.825C166.975-13.225,168.675-14.45,167.9-15.65Zm-7.775,9.425a26.008,26.008,0,0,1,5.85,5.025c1.175,1.475,3.05-.475,2.05-1.875-1.15-1.6-4.325-3.7-6.4-4.95a40.007,40.007,0,0,0,2.775-4.25c.975-1.7-.3-3.125-2.55-3.125-2.525,0-6.2.05-8.025.125a1.214,1.214,0,0,0,0,2.425c2.2-.05,5.65-.175,7.225-.15.55,0,.65.4.425.825A20.325,20.325,0,0,1,151-2.875a1.29,1.29,0,1,0,.8,2.425A21.12,21.12,0,0,0,160.125-6.225Z" transform="translate(639 721)" fill="#fff"/>
    <g id="金額" transform="translate(-26.743 15.203)">
      <rect id="長方形_19" data-name="長方形 19" width="370" height="44" rx="22" transform="translate(480.743 623.797)" fill="#fff"/>
      <g id="グループ_58" data-name="グループ 58" transform="translate(27.743 -2.203)">
        <path id="パス_122" data-name="パス 122" d="M12.512-4.347a1.08,1.08,0,0,0,1.127-1.1,1.075,1.075,0,0,0-1.127-1.081h-.023c-.713.023-1.955.023-3.335.023-.115,0-.138-.023-.161-.115a1.271,1.271,0,0,1,.322-.966l.414-.575c.092-.138.069-.115.253-.138l2.507.023h.023a1.055,1.055,0,0,0,1.1-1.081,1.038,1.038,0,0,0-1.1-1.058H11.431c-.092,0-.115,0-.115-.023s.023-.046.046-.092C14.7-15.5,14.7-15.525,14.7-15.916a1.452,1.452,0,0,0-1.449-1.311,1.089,1.089,0,0,0-.966.6A72.248,72.248,0,0,1,8.4-10.488c-.069.092-.069.069-.184.092H7.245c-.138-.023-.161,0-.23-.092C5.474-12.765,3.956-15,3.036-16.606A1.15,1.15,0,0,0,2-17.25,1.357,1.357,0,0,0,.667-15.962,1.252,1.252,0,0,0,.92-15.2c3.22,4.761,3.22,4.784,3.22,4.784s0,.023-.184.023c-.667,0-1.219-.023-1.587-.023H2.323A1.006,1.006,0,0,0,1.288-9.361,1.045,1.045,0,0,0,2.415-8.28C3.2-8.3,4.232-8.326,5.382-8.326c.115,0,.253.046.851,1.035a1.027,1.027,0,0,1,.138.644c-.023.115-.023.138-.161.138-1.633,0-3.128,0-3.841-.023H2.323A1.012,1.012,0,0,0,1.288-5.451a1.028,1.028,0,0,0,1.127,1.1c.966-.046,2.346-.046,3.841-.046.092,0,.115.046.115.138v3.22A1.266,1.266,0,0,0,7.728.23a1.2,1.2,0,0,0,1.311-1.2c0-1.035-.023-2.208-.023-3.289,0-.069.023-.115.115-.115,1.2,0,2.346.023,3.358.023ZM21.6-10.626a1.2,1.2,0,0,0-1.2,1.2A1.241,1.241,0,0,0,21.62-8.211c.092,0,.207-.023.345-.023h.207a2.718,2.718,0,0,1,3.036,3.059A3.213,3.213,0,0,1,21.9-2.047a3.844,3.844,0,0,1-3.358-1.587,1.235,1.235,0,0,0-.9-.437,1.427,1.427,0,0,0-1.357,1.38c0,1.081,2.07,3.1,5.5,3.1,3.473,0,5.957-2.3,5.957-5.543A4.826,4.826,0,0,0,25-9.568a3.68,3.68,0,0,0,1.863-3.381c0-2.576-1.863-4.439-4.784-4.439-2,0-4.646,1.334-4.646,2.622a1.349,1.349,0,0,0,1.288,1.288,1.155,1.155,0,0,0,.805-.345,3.289,3.289,0,0,1,2.438-1.2,2.194,2.194,0,0,1,2.392,2.07,2.041,2.041,0,0,1-2.07,2.323Zm20.01,5.014c0-2.507-1.449-5.29-5.566-5.29a8.442,8.442,0,0,0-1.725.161,4.628,4.628,0,0,1-.529.115c-.138,0-.184-.069-.184-.253v-.161c.069-.46.414-2.3.529-3.105.069-.414.253-.621.69-.621.69,0,3.8.023,4.439.023a1.133,1.133,0,0,0,1.173-1.173,1.187,1.187,0,0,0-1.219-1.242c-3.772,0-4.117,0-4.784-.023H34.27a1.908,1.908,0,0,0-2.231,1.84c-.345,2.024-.805,5.589-.805,5.773,0,1.1.644,1.564,1.656,1.564.115,0,.23-.023.345-.023a2.983,2.983,0,0,0,.9-.322,5.91,5.91,0,0,1,1.817-.322A2.97,2.97,0,0,1,39.1-5.589a3.46,3.46,0,0,1-3.657,3.5,4.792,4.792,0,0,1-3.151-1.2,1.291,1.291,0,0,0-.8-.345,1.275,1.275,0,0,0-1.2,1.311C30.291-.805,33.212.3,35.328.3,39.1.3,41.607-2.254,41.607-5.612ZM49.841.437c5.566,0,5.773-6.256,5.773-8.855,0-.989-.069-2-.161-3.013-.368-3.841-2.53-5.957-5.612-5.957-3.128,0-5.313,2.208-5.635,6.21-.069.943-.115,1.84-.115,2.714,0,.966.046,1.932.138,2.921C44.6-1.679,46.782.437,49.841.437Zm0-2.415c-1.5,0-2.737-1.357-3.013-3.7a23.825,23.825,0,0,1-.161-2.875c0-.828.046-1.679.115-2.53.23-2.461,1.449-3.933,3.059-3.933,3.151,0,3.151,4.554,3.151,6.325a24.534,24.534,0,0,1-.207,3.243C52.463-3.266,51.267-1.978,49.841-1.978ZM59.662,2.07c.6-.69,1.656-2.093,2.254-2.967a1.473,1.473,0,0,0,.276-.805A1.341,1.341,0,0,0,60.858-2.99a1.248,1.248,0,0,0-1.081.69c-1.7,2.829-1.932,3.335-1.932,3.749a1.021,1.021,0,0,0,1.035.989A1.046,1.046,0,0,0,59.662,2.07ZM70.2.437c5.566,0,5.773-6.256,5.773-8.855,0-.989-.069-2-.161-3.013-.368-3.841-2.53-5.957-5.612-5.957-3.128,0-5.313,2.208-5.635,6.21-.069.943-.115,1.84-.115,2.714,0,.966.046,1.932.138,2.921C64.952-1.679,67.137.437,70.2.437Zm0-2.415c-1.495,0-2.737-1.357-3.013-3.7a23.826,23.826,0,0,1-.161-2.875c0-.828.046-1.679.115-2.53.23-2.461,1.449-3.933,3.059-3.933,3.151,0,3.151,4.554,3.151,6.325a24.534,24.534,0,0,1-.207,3.243C72.818-3.266,71.622-1.978,70.2-1.978ZM84,.437c5.566,0,5.773-6.256,5.773-8.855,0-.989-.069-2-.161-3.013-.368-3.841-2.53-5.957-5.612-5.957-3.128,0-5.313,2.208-5.635,6.21-.069.943-.115,1.84-.115,2.714,0,.966.046,1.932.138,2.921C78.752-1.679,80.937.437,84,.437Zm0-2.415c-1.5,0-2.737-1.357-3.013-3.7a23.826,23.826,0,0,1-.161-2.875c0-.828.046-1.679.115-2.53.23-2.461,1.449-3.933,3.059-3.933,3.151,0,3.151,4.554,3.151,6.325a24.534,24.534,0,0,1-.207,3.243C86.618-3.266,85.422-1.978,84-1.978ZM97.8.437c5.566,0,5.773-6.256,5.773-8.855,0-.989-.069-2-.161-3.013-.368-3.841-2.53-5.957-5.612-5.957-3.128,0-5.313,2.208-5.635,6.21-.069.943-.115,1.84-.115,2.714,0,.966.046,1.932.138,2.921C92.552-1.679,94.737.437,97.8.437Zm0-2.415c-1.5,0-2.737-1.357-3.013-3.7a23.826,23.826,0,0,1-.161-2.875c0-.828.046-1.679.115-2.53.23-2.461,1.449-3.933,3.059-3.933,3.151,0,3.151,4.554,3.151,6.325a24.534,24.534,0,0,1-.207,3.243C100.418-3.266,99.222-1.978,97.8-1.978Z" transform="translate(661 658)" fill="#676767"/>
        <path id="パス_121" data-name="パス 121" d="M8.924-9.361a.659.659,0,0,0-.69-.667.952.952,0,0,0-.713.345A4.865,4.865,0,0,1,3.956-7.935a5.043,5.043,0,0,1-2.737-.9c-.69-.437-1.357-.92-2.093-1.311a6.606,6.606,0,0,0-3.036-.782c-2.415,0-5.014,1.932-5.014,2.783a.679.679,0,0,0,.713.667.922.922,0,0,0,.69-.322A4.927,4.927,0,0,1-3.956-9.591a5.132,5.132,0,0,1,2.737.92c.69.437,1.357.966,2.093,1.357a6.526,6.526,0,0,0,3.013.8C6.325-6.509,8.924-8.487,8.924-9.361Z" transform="translate(638.5 658)" fill="#676767" stroke="#676767" stroke-width="1"/>
        <path id="パス_120" data-name="パス 120" d="M12.512-4.347a1.08,1.08,0,0,0,1.127-1.1,1.075,1.075,0,0,0-1.127-1.081h-.023c-.713.023-1.955.023-3.335.023-.115,0-.138-.023-.161-.115a1.271,1.271,0,0,1,.322-.966l.414-.575c.092-.138.069-.115.253-.138l2.507.023h.023a1.055,1.055,0,0,0,1.1-1.081,1.038,1.038,0,0,0-1.1-1.058H11.431c-.092,0-.115,0-.115-.023s.023-.046.046-.092C14.7-15.5,14.7-15.525,14.7-15.916a1.452,1.452,0,0,0-1.449-1.311,1.089,1.089,0,0,0-.966.6A72.248,72.248,0,0,1,8.4-10.488c-.069.092-.069.069-.184.092H7.245c-.138-.023-.161,0-.23-.092C5.474-12.765,3.956-15,3.036-16.606A1.15,1.15,0,0,0,2-17.25,1.357,1.357,0,0,0,.667-15.962,1.252,1.252,0,0,0,.92-15.2c3.22,4.761,3.22,4.784,3.22,4.784s0,.023-.184.023c-.667,0-1.219-.023-1.587-.023H2.323A1.006,1.006,0,0,0,1.288-9.361,1.045,1.045,0,0,0,2.415-8.28C3.2-8.3,4.232-8.326,5.382-8.326c.115,0,.253.046.851,1.035a1.027,1.027,0,0,1,.138.644c-.023.115-.023.138-.161.138-1.633,0-3.128,0-3.841-.023H2.323A1.012,1.012,0,0,0,1.288-5.451a1.028,1.028,0,0,0,1.127,1.1c.966-.046,2.346-.046,3.841-.046.092,0,.115.046.115.138v3.22A1.266,1.266,0,0,0,7.728.23a1.2,1.2,0,0,0,1.311-1.2c0-1.035-.023-2.208-.023-3.289,0-.069.023-.115.115-.115,1.2,0,2.346.023,3.358.023ZM25.99.138a1.367,1.367,0,0,0,1.449-1.357,1.228,1.228,0,0,0-1.38-1.2c-1.886,0-4.485.184-6.394.207,1.909-2.07,4.163-4.025,5.911-6.233a7.518,7.518,0,0,0,1.909-4.554c0-2.737-2.53-4.393-5.2-4.393-3.611,0-5.359,2.737-5.359,3.542a1.3,1.3,0,0,0,1.357,1.219,1.39,1.39,0,0,0,1.2-.69,3.351,3.351,0,0,1,2.829-1.771A2.3,2.3,0,0,1,24.7-12.742,4.745,4.745,0,0,1,23.414-9.8c-2.024,2.484-4.692,5.221-6.279,7.015a2.343,2.343,0,0,0-.667,1.564A1.262,1.262,0,0,0,17.756.138Zm15.617-5.75c0-2.507-1.449-5.29-5.566-5.29a8.442,8.442,0,0,0-1.725.161,4.628,4.628,0,0,1-.529.115c-.138,0-.184-.069-.184-.253v-.161c.069-.46.414-2.3.529-3.105.069-.414.253-.621.69-.621.69,0,3.8.023,4.439.023a1.133,1.133,0,0,0,1.173-1.173,1.187,1.187,0,0,0-1.219-1.242c-3.772,0-4.117,0-4.784-.023H34.27a1.908,1.908,0,0,0-2.231,1.84c-.345,2.024-.805,5.589-.805,5.773,0,1.1.644,1.564,1.656,1.564.115,0,.23-.023.345-.023a2.983,2.983,0,0,0,.9-.322,5.91,5.91,0,0,1,1.817-.322A2.97,2.97,0,0,1,39.1-5.589a3.46,3.46,0,0,1-3.657,3.5,4.792,4.792,0,0,1-3.151-1.2,1.291,1.291,0,0,0-.8-.345,1.275,1.275,0,0,0-1.2,1.311C30.291-.805,33.212.3,35.328.3,39.1.3,41.607-2.254,41.607-5.612ZM49.841.437c5.566,0,5.773-6.256,5.773-8.855,0-.989-.069-2-.161-3.013-.368-3.841-2.53-5.957-5.612-5.957-3.128,0-5.313,2.208-5.635,6.21-.069.943-.115,1.84-.115,2.714,0,.966.046,1.932.138,2.921C44.6-1.679,46.782.437,49.841.437Zm0-2.415c-1.5,0-2.737-1.357-3.013-3.7a23.825,23.825,0,0,1-.161-2.875c0-.828.046-1.679.115-2.53.23-2.461,1.449-3.933,3.059-3.933,3.151,0,3.151,4.554,3.151,6.325a24.534,24.534,0,0,1-.207,3.243C52.463-3.266,51.267-1.978,49.841-1.978ZM59.662,2.07c.6-.69,1.656-2.093,2.254-2.967a1.473,1.473,0,0,0,.276-.805A1.341,1.341,0,0,0,60.858-2.99a1.248,1.248,0,0,0-1.081.69c-1.7,2.829-1.932,3.335-1.932,3.749a1.021,1.021,0,0,0,1.035.989A1.046,1.046,0,0,0,59.662,2.07ZM70.2.437c5.566,0,5.773-6.256,5.773-8.855,0-.989-.069-2-.161-3.013-.368-3.841-2.53-5.957-5.612-5.957-3.128,0-5.313,2.208-5.635,6.21-.069.943-.115,1.84-.115,2.714,0,.966.046,1.932.138,2.921C64.952-1.679,67.137.437,70.2.437Zm0-2.415c-1.495,0-2.737-1.357-3.013-3.7a23.826,23.826,0,0,1-.161-2.875c0-.828.046-1.679.115-2.53.23-2.461,1.449-3.933,3.059-3.933,3.151,0,3.151,4.554,3.151,6.325a24.534,24.534,0,0,1-.207,3.243C72.818-3.266,71.622-1.978,70.2-1.978ZM84,.437c5.566,0,5.773-6.256,5.773-8.855,0-.989-.069-2-.161-3.013-.368-3.841-2.53-5.957-5.612-5.957-3.128,0-5.313,2.208-5.635,6.21-.069.943-.115,1.84-.115,2.714,0,.966.046,1.932.138,2.921C78.752-1.679,80.937.437,84,.437Zm0-2.415c-1.5,0-2.737-1.357-3.013-3.7a23.826,23.826,0,0,1-.161-2.875c0-.828.046-1.679.115-2.53.23-2.461,1.449-3.933,3.059-3.933,3.151,0,3.151,4.554,3.151,6.325a24.534,24.534,0,0,1-.207,3.243C86.618-3.266,85.422-1.978,84-1.978ZM97.8.437c5.566,0,5.773-6.256,5.773-8.855,0-.989-.069-2-.161-3.013-.368-3.841-2.53-5.957-5.612-5.957-3.128,0-5.313,2.208-5.635,6.21-.069.943-.115,1.84-.115,2.714,0,.966.046,1.932.138,2.921C92.552-1.679,94.737.437,97.8.437Zm0-2.415c-1.5,0-2.737-1.357-3.013-3.7a23.826,23.826,0,0,1-.161-2.875c0-.828.046-1.679.115-2.53.23-2.461,1.449-3.933,3.059-3.933,3.151,0,3.151,4.554,3.151,6.325a24.534,24.534,0,0,1-.207,3.243C100.418-3.266,99.222-1.978,97.8-1.978Z" transform="translate(511 658)" fill="#676767"/>
      </g>
    </g>
    <path id="パス_119" data-name="パス 119" d="M-82.345-10.707A44.734,44.734,0,0,1-72.283-2.064c2.021,2.537,5.246-.817,3.526-3.225C-70.735-8.041-76.2-11.653-79.765-13.8a68.812,68.812,0,0,0,4.773-7.31c1.677-2.924-.516-5.375-4.386-5.375-4.343,0-10.664.086-13.8.215-2.752.129-2.58,4.257,0,4.171,3.784-.086,9.718-.3,12.427-.258.946,0,1.118.688.731,1.419-3.4,6.407-10.191,13.287-18.017,16C-101.265-3.827-99.8.387-96.664-.774A36.326,36.326,0,0,0-82.345-10.707Zm53.062-12.771a4.7,4.7,0,0,0-4.687-4.687,4.661,4.661,0,0,0-4.644,4.687,4.625,4.625,0,0,0,4.644,4.644A4.661,4.661,0,0,0-29.283-23.478Zm4.558,19.049a2.252,2.252,0,0,0-.43-3.311c-4.558-2.967-12.943-9.288-16.383-11.825-2.967-2.193-6.192-2.795-9.761-.3a43.029,43.029,0,0,1-6.665,4.085,2.36,2.36,0,1,0,1.677,4.386c1.978-.817,4.042-2.623,7.224-5.16,1.634-1.29,3.225-1.29,5.246.258C-38.27-12.04-33.454-7.224-28.294-3.87A2.716,2.716,0,0,0-24.725-4.429Zm-6.966-19.049A2.294,2.294,0,0,1-33.97-21.2a2.294,2.294,0,0,1-2.279-2.279,2.294,2.294,0,0,1,2.279-2.279A2.294,2.294,0,0,1-31.691-23.478ZM.645-20.339A2.315,2.315,0,0,0,.43-23.693a23.521,23.521,0,0,0-5.719-3.569c-2.924-1.29-4.644,2.537-2.193,3.526A15.055,15.055,0,0,1-2.8-20.425,2.3,2.3,0,0,0,.645-20.339Zm16.6-1.2c1.892-3.4-2.408-5.16-3.827-2.494C8.9-15.48-.645-6.02-9.2-3.7c-3.4.9-1.978,5.547,1.419,4.429C1.978-2.494,11.739-11.7,17.243-21.543ZM-4.472-13.5a2.324,2.324,0,0,0-.989-3.225,21.748,21.748,0,0,0-6.278-2.15c-3.139-.6-3.956,3.483-1.376,3.913a15.078,15.078,0,0,1,5.332,2.193A2.226,2.226,0,0,0-4.472-13.5ZM47.9-15.179a11.308,11.308,0,0,1-3.053,3.784c-2.193,1.806.215,4.945,2.666,2.795a17.541,17.541,0,0,0,5.074-7.353c.9-2.666-1.763-3.827-3.913-3.182-2.881.9-5.848,1.892-8.686,2.838-.473-1.677-.9-3.1-1.2-4.085a2.029,2.029,0,0,0-2.365-1.462,1.82,1.82,0,0,0-1.247,2.58c.344,1.075.774,2.494,1.29,4.171-1.849.645-3.526,1.247-5.031,1.763a1.847,1.847,0,1,0,1.2,3.483c1.376-.516,3.053-1.161,4.859-1.806,1.333,4.429,2.795,9.374,3.655,12.3.9,3.01,4.859,1.677,3.7-1.462-1.032-2.838-2.58-7.74-3.87-12.083,2.666-.946,5.2-1.806,6.966-2.322Zm54.653-2.236a2.237,2.237,0,1,0-3.913-2.15c-2.494,4.644-5.891,8.643-9.589,10.75-.817.473-1.333.387-1.29-.559.043-1.462.473-12.814.516-14.491a2.158,2.158,0,1,0-4.3,0c0,2.537-.3,12.771-.6,16.641-.3,3.7,2.752,4.816,5.547,3.44A34.082,34.082,0,0,0,102.555-17.415ZM68.757-1.591c8.428-4.687,12.126-13.631,11.825-21.758a2.222,2.222,0,1,0-4.429.344c.387,8.213-3.44,14.835-9.8,17.673C63.081-3.87,65.446.258,68.757-1.591Z" transform="translate(639 612)" fill="#fff"/>
  </g>
</svg>
